<?xml version="1.0" encoding="utf-8" standalone="no"?>
<!DOCTYPE svg PUBLIC "-//W3C//DTD SVG 1.1//EN"
  "http://www.w3.org/Graphics/SVG/1.1/DTD/svg11.dtd">
<!-- Created with matplotlib (http://matplotlib.org/) -->
<svg height="288pt" version="1.1" viewBox="0 0 432 288" width="432pt" xmlns="http://www.w3.org/2000/svg" xmlns:xlink="http://www.w3.org/1999/xlink">
 <defs>
  <style type="text/css">
*{stroke-linecap:butt;stroke-linejoin:round;}
  </style>
 </defs>
 <g id="figure_1">
  <g id="patch_1">
   <path d="
M0 288
L432 288
L432 0
L0 0
z
" style="fill:#ffffff;"/>
  </g>
  <g id="axes_1">
   <g id="patch_2">
    <path d="
M54 252
L388.8 252
L388.8 28.8
L54 28.8
z
" style="fill:#ffffff;"/>
   </g>
   <g id="line2d_1">
    <path clip-path="url(#p124b8dd147)" d="
M54 252
L54.1416 243.853
L54.2832 238.385
L54.4249 239.278
L54.5665 241.733
L54.7081 224.881
L54.8497 244.188
L55.133 239.947
L55.2746 240.617
L55.4162 238.831
L55.5579 241.956
L55.6995 252
L55.9827 243.407
L56.1244 242.96
L56.266 241.844
L56.4076 241.956
L56.5492 240.282
L56.9741 243.742
L57.1157 240.505
L57.2574 252
L57.399 252
L57.6822 205.574
L57.9655 242.96
L58.1071 238.72
L58.3904 228.899
L58.532 230.573
L58.8152 244.3
L59.0985 239.947
L59.2401 227.56
L59.3817 229.568
L59.665 236.041
L59.9482 240.617
L60.0898 240.282
L60.2315 237.827
L60.3731 238.496
L60.798 242.179
L61.2228 237.269
L61.3645 239.836
L61.5061 233.921
L61.6477 242.068
L61.7893 232.916
L61.931 240.952
L62.0726 238.496
L62.2142 238.385
L62.3558 237.715
L62.4975 240.394
L62.6391 240.952
L62.7807 242.291
L62.9223 241.956
L63.2056 238.496
L63.3472 239.278
L63.6305 242.179
L63.7721 242.514
L63.9137 241.621
L64.0553 239.054
L64.197 238.72
L64.3386 238.72
L64.4802 238.943
L64.7635 243.184
L65.1883 238.496
L65.3299 241.733
L65.4716 238.831
L65.7548 242.402
L66.1797 238.831
L66.3213 239.836
L66.4629 241.844
L66.6046 240.617
L66.7462 242.402
L66.8878 242.514
L67.1711 236.041
L67.7376 245.416
L68.0208 240.84
L68.1624 240.84
L68.3041 241.175
L68.4457 239.724
L68.5873 242.96
L68.7289 242.402
L68.8706 244.969
L69.0122 240.84
L69.1538 240.84
L69.2954 244.3
L69.4371 238.162
L69.5787 241.398
L69.7203 241.844
L69.8619 243.63
L70.0036 240.17
L70.1452 243.295
L70.4284 238.831
L70.7117 245.75
L70.8533 239.836
L70.9949 239.166
L71.1365 240.17
L71.2782 234.256
L71.5614 244.411
L71.703 243.518
L71.8447 243.742
L71.9863 241.733
L72.1279 236.153
L72.2695 240.952
L72.4112 238.831
L72.6944 243.63
L72.9777 239.501
L73.1193 240.505
L73.2609 240.282
L73.8274 244.3
L73.969 238.385
L74.2523 242.626
L74.3939 241.175
L74.5355 241.398
L74.6772 243.965
L74.8188 242.514
L74.9604 237.38
L75.102 238.385
L75.2437 240.952
L75.3853 238.608
L75.6685 244.523
L75.8102 242.737
L76.0934 236.153
L76.235 238.608
L76.3766 235.148
L76.5183 237.046
L76.6599 242.068
L77.0848 234.925
L77.2264 236.041
L77.368 238.273
L77.5096 236.934
L77.6513 240.952
L77.7929 241.286
L77.9345 236.934
L78.2178 235.595
L78.3594 238.05
L78.501 237.604
L78.6426 239.612
L78.7843 238.496
L78.9259 233.028
L79.2091 232.693
L79.634 239.389
L79.7756 239.389
L80.0589 231.689
L80.2005 234.367
L80.4838 234.814
L80.6254 239.278
L81.1919 233.363
L81.3335 235.26
L81.4751 235.372
L81.6168 238.05
L81.9 234.367
L82.0416 232.135
L82.1832 232.582
L82.3249 230.126
L82.6081 238.72
L82.8914 230.238
L83.033 230.908
L83.1746 229.234
L83.3162 234.702
L83.4579 234.479
L83.5995 236.822
L83.7411 236.711
L83.8827 230.908
L84.0244 232.805
L84.166 232.805
L84.3076 234.256
L84.4492 233.474
L84.5909 238.72
L84.8741 229.903
L85.0157 230.908
L85.1574 228.229
L85.299 233.586
L85.4406 232.805
L85.5822 236.711
L85.7239 236.599
L85.8655 229.345
L86.0071 231.689
L86.1487 226.667
L86.432 234.032
L86.5736 236.934
L86.8569 228.899
L86.9985 229.457
L87.1401 232.582
L87.2817 231.354
L87.4234 237.715
L87.7066 234.59
L87.8482 228.118
L87.9898 229.01
L88.1315 228.564
L88.2731 230.015
L88.5563 238.273
L88.698 235.93
L88.8396 231.019
L88.9812 231.131
L89.6893 236.041
L89.831 230.908
L90.1142 233.028
L90.2558 235.372
L90.3975 234.925
L90.5391 236.934
L90.6807 235.372
L90.8223 231.689
L91.1056 232.247
L91.2472 234.144
L91.3888 233.474
L91.6721 238.608
L91.8137 231.8
L91.9553 230.35
L92.097 234.256
L92.2386 233.921
L92.3802 234.814
L92.5218 238.385
L92.8051 231.689
L92.9467 235.037
L93.0883 234.256
L93.2299 234.59
L93.3716 239.166
L93.5132 240.059
L93.6548 238.943
L93.7964 238.831
L93.9381 234.479
L94.2213 241.733
L94.3629 242.96
L94.6462 237.604
L94.7878 235.818
L94.9294 232.247
L95.3543 240.17
L95.4959 233.809
L95.6376 235.595
L95.7792 230.461
L95.9208 230.796
L96.0624 233.251
L96.2041 233.586
L96.3457 231.466
L96.4873 236.711
L96.7706 228.564
L96.9122 230.573
L97.1954 229.122
L97.3371 230.238
L97.4787 236.488
L97.7619 230.126
L97.9036 229.792
L98.0452 230.908
L98.1868 229.345
L98.3284 229.568
L98.4701 234.367
L98.6117 233.586
L99.0365 227.002
L99.1782 228.341
L99.4614 236.153
L99.603 234.925
L99.8863 227.894
L100.028 228.229
L100.17 228.229
L100.311 230.35
L100.453 234.59
L100.594 234.367
L101.161 225.328
L101.444 236.822
L101.586 235.483
L102.011 227.671
L102.436 235.037
L102.719 228.564
L102.86 227.894
L103.002 230.35
L103.144 230.573
L103.285 233.028
L103.427 238.162
L103.852 224.993
L103.993 226.667
L104.135 224.658
L104.418 233.028
L104.56 229.792
L104.702 230.684
L104.843 228.676
L104.985 229.234
L105.126 232.358
L105.268 228.118
L105.41 236.376
L105.551 234.256
L105.693 228.006
L105.835 231.577
L105.976 228.006
L106.118 227.783
L106.401 236.376
L106.826 230.238
L107.109 231.131
L107.251 236.711
L107.392 235.706
L107.534 235.706
L107.676 231.354
L107.817 232.805
L107.959 232.805
L108.525 238.273
L108.667 232.135
L108.809 232.805
L108.95 229.792
L109.092 231.689
L109.234 235.148
L109.517 233.14
L109.658 232.135
L109.8 232.916
L109.942 230.684
L110.083 233.14
L110.225 238.162
L110.366 235.483
L110.508 235.93
L110.65 233.474
L110.791 235.818
L110.933 233.028
L111.075 233.14
L111.216 236.041
L111.358 234.925
L111.499 236.934
L111.783 232.582
L111.924 234.032
L112.066 239.166
L112.208 237.604
L112.349 239.166
L112.491 248.652
L112.632 238.05
L112.774 238.496
L113.199 229.792
L113.482 235.93
L113.624 228.341
L113.765 231.912
L114.049 229.68
L114.474 239.947
L114.757 230.126
L115.04 235.037
L115.182 236.264
L115.323 238.943
L115.465 238.72
L115.607 234.925
L116.031 237.157
L116.173 236.041
L116.456 239.612
L116.74 238.72
L116.881 234.479
L117.306 241.956
L117.448 239.947
L117.731 234.144
L117.873 237.938
L118.014 235.818
L118.297 242.291
L118.439 240.282
L118.581 234.702
L118.722 236.041
L118.864 234.59
L119.006 235.372
L119.147 238.162
L119.289 236.934
L119.43 232.916
L119.714 232.135
L119.855 233.698
L119.997 237.938
L120.139 233.921
L120.28 238.273
L120.422 237.604
L120.705 231.019
L120.847 223.207
L121.13 237.38
L121.272 238.831
L121.413 238.831
L121.696 233.028
L121.838 231.689
L121.98 232.247
L122.121 232.247
L122.405 233.698
L122.829 222.761
L123.254 234.032
L123.679 226.667
L123.821 228.787
L123.962 228.229
L124.246 231.689
L124.387 232.47
L124.529 229.345
L124.671 232.582
L124.954 224.993
L125.095 233.363
L125.237 230.908
L125.379 219.859
L125.52 227.894
L125.804 222.314
L125.945 204.793
L126.087 230.126
L126.228 231.131
L126.37 231.242
L126.653 218.074
L126.795 222.538
L126.937 222.426
L127.078 232.693
L127.22 229.01
L127.361 231.8
L127.645 217.292
L127.786 218.408
L127.928 215.284
L128.211 222.314
L128.353 221.533
L128.494 214.391
L128.778 211.043
L129.061 221.533
L129.344 219.19
L129.486 212.494
L129.627 224.1
L129.769 213.721
L129.911 215.284
L130.194 225.886
L130.477 214.168
L130.619 212.494
L130.76 212.27
L130.902 213.61
L131.185 224.435
L131.469 217.069
L131.61 212.382
L131.752 216.4
L132.035 231.354
L132.177 227.671
L132.318 231.131
L132.46 223.43
L132.602 224.1
L132.743 222.426
L133.026 228.676
L133.168 230.908
L133.31 228.564
L133.451 224.323
L133.593 226.444
L133.735 226.332
L134.018 232.47
L134.159 233.028
L134.443 224.435
L134.584 226.778
L134.726 224.77
L134.868 226.332
L135.151 231.912
L135.292 230.796
L135.434 225.774
L135.576 224.881
L135.717 228.564
L135.859 226.332
L136.001 231.131
L136.142 232.135
L136.284 229.01
L136.425 232.135
L136.709 225.774
L136.85 223.43
L137.134 226.778
L137.275 224.1
L137.417 224.435
L137.7 222.314
L137.983 230.461
L138.691 223.207
L138.833 224.323
L138.975 227.671
L139.116 228.118
L139.399 224.435
L139.541 226.778
L139.683 224.658
L139.824 225.662
L139.966 225.551
L140.249 222.314
L140.391 221.868
L140.532 222.872
L140.674 222.872
L140.816 222.314
L140.957 228.341
L141.099 226.667
L141.241 226.778
L141.524 220.082
L141.807 225.104
L141.949 225.328
L142.09 227.002
L142.232 219.413
L142.374 221.31
L142.515 220.082
L142.798 222.872
L143.082 223.988
L143.223 218.52
L143.365 219.748
L143.507 219.413
L143.648 221.422
L143.931 216.846
L144.073 222.203
L144.215 222.091
L144.356 220.975
L144.498 218.855
L144.64 220.417
L144.781 219.301
L144.923 210.262
L145.064 212.717
L145.348 201.892
L145.631 209.592
L145.914 212.047
L146.197 129.017
L146.906 194.638
L147.047 199.325
L147.33 189.504
L147.472 190.955
L147.614 190.285
L147.755 198.209
L147.897 199.66
L148.18 189.616
L148.322 191.401
L148.463 190.62
L148.605 189.169
L149.03 199.994
L149.596 189.616
L149.738 198.432
L149.88 198.544
L150.021 200.329
L150.163 211.154
L150.588 196.312
L150.729 197.428
L150.871 202.45
L151.013 203.454
L151.438 195.419
L151.579 198.209
L151.721 197.651
L151.862 195.53
L152.004 203.789
L152.146 203.008
L152.429 196.758
L152.571 200.218
L152.712 193.522
L152.995 202.673
L153.137 200.218
L153.279 188.723
L153.562 193.856
L153.704 193.075
L153.845 170.755
L153.987 201.11
L154.128 193.856
L154.27 158.814
L154.412 189.727
L154.695 28.8
L154.978 167.965
L155.12 168.858
L155.261 168.3
L155.403 175.219
L155.545 174.773
L155.686 189.504
L155.828 179.348
L155.97 191.736
L156.111 190.062
L156.253 178.902
L156.394 194.749
L156.536 172.318
L156.678 191.848
L156.819 189.95
L156.961 196.758
L157.103 195.754
L157.244 190.397
L157.386 190.843
L157.527 182.808
L157.669 182.696
L157.952 215.395
L158.094 190.62
L158.236 191.736
L158.519 180.799
L158.66 195.977
L158.802 193.075
L158.944 199.548
L159.227 189.727
L159.369 198.432
L159.51 194.861
L159.652 196.312
L159.935 207.248
L160.077 199.548
L160.218 202.673
L160.36 190.062
L160.502 195.419
L160.643 195.754
L160.785 198.655
L160.926 206.579
L161.068 205.686
L161.21 195.642
L161.493 203.789
L161.635 207.025
L161.776 202.003
L162.059 207.918
L162.201 203.566
L162.343 203.9
L162.484 202.003
L162.768 211.489
L162.909 211.043
L163.051 226.667
L163.334 198.544
L163.476 200.218
L163.617 204.793
L163.759 215.284
L163.901 213.052
L164.042 206.69
L164.184 207.36
L164.325 203.342
L164.467 206.356
L164.609 203.566
L164.75 211.266
L164.892 209.592
L165.034 203.9
L165.175 185.152
L165.883 206.467
L166.025 205.24
L166.308 214.726
L166.45 202.338
L166.733 212.94
L167.016 188.946
L167.158 208.364
L167.299 204.012
L167.441 205.686
L167.583 205.909
L167.724 205.128
L167.866 212.605
L168.008 212.382
L168.149 200.441
L168.857 213.163
L169.282 200.776
L169.424 204.57
L169.565 228.118
L169.849 211.824
L169.99 211.824
L170.274 252
L170.415 208.476
L170.557 213.833
L170.698 207.025
L170.84 220.082
L171.123 208.253
L171.548 213.275
L171.69 205.798
L171.831 221.087
L171.973 213.833
L172.256 212.27
L172.398 216.846
L172.54 211.936
L172.681 214.726
L172.823 213.498
L172.964 215.842
L173.389 208.476
L173.531 213.833
L173.673 214.614
L173.814 221.198
L173.956 217.181
L174.097 216.958
L174.239 212.159
L174.381 219.971
L174.522 215.953
L174.664 221.645
L174.806 220.082
L174.947 220.306
L175.089 216.4
L175.23 208.811
L175.514 215.172
L175.655 214.726
L175.939 222.761
L176.08 215.618
L176.505 219.748
L176.647 218.408
L176.788 220.64
L176.93 219.748
L177.072 192.852
L177.213 196.981
L177.355 213.052
L177.496 213.163
L177.638 217.292
L177.78 215.953
L178.063 217.627
L178.205 213.833
L178.346 183.589
L178.488 210.373
L178.771 216.065
L178.913 216.4
L179.196 210.708
L179.479 216.176
L179.621 218.743
L179.762 223.43
L179.904 220.64
L180.187 210.15
L180.471 206.132
L180.612 214.391
L180.754 214.726
L180.895 212.382
L181.037 212.94
L181.462 208.699
L181.604 208.922
L181.745 216.623
L181.887 215.172
L182.028 211.936
L182.17 212.382
L182.453 209.369
L182.595 211.601
L182.737 216.958
L182.878 212.047
L183.02 214.168
L183.161 213.498
L183.303 214.168
L183.586 219.524
L183.728 213.721
L183.87 213.833
L184.011 211.154
L184.153 215.618
L184.294 212.828
L184.578 214.614
L184.719 213.386
L184.861 215.172
L185.003 215.172
L185.144 216.065
L185.286 208.588
L185.427 209.927
L185.711 217.962
L185.852 219.078
L186.136 209.034
L186.419 215.395
L186.56 229.122
L186.844 213.275
L186.985 210.038
L187.127 212.94
L187.41 222.984
L187.552 220.864
L187.693 221.198
L187.835 220.417
L187.977 217.181
L188.26 216.511
L188.402 215.842
L188.543 223.654
L188.685 224.77
L188.826 222.203
L188.968 214.279
L189.11 214.279
L189.251 215.172
L189.393 212.159
L189.676 221.645
L189.818 220.306
L189.959 215.953
L190.243 219.524
L190.384 218.855
L190.526 216.846
L190.668 219.078
L190.809 217.739
L190.951 214.949
L191.092 216.288
L191.234 213.163
L191.376 215.73
L191.517 223.207
L191.659 221.087
L191.942 210.15
L192.084 213.833
L192.225 211.712
L192.367 217.181
L192.509 211.601
L192.792 217.292
L192.934 208.811
L193.075 217.739
L193.217 213.61
L193.358 220.752
L193.5 218.408
L193.642 211.601
L193.783 237.827
L193.925 198.32
L194.208 212.159
L194.35 206.69
L194.491 215.395
L194.633 214.949
L194.775 209.592
L194.916 212.94
L195.058 208.476
L195.199 209.034
L195.341 213.275
L195.483 213.275
L195.624 213.833
L195.908 205.016
L196.049 209.48
L196.332 202.45
L196.474 211.936
L196.616 210.485
L196.757 212.382
L197.041 205.574
L197.182 211.043
L197.324 211.266
L197.465 212.159
L197.607 213.944
L197.89 139.619
L198.032 138.28
L198.315 178.79
L198.74 201.334
L198.882 181.692
L199.023 184.928
L199.307 195.865
L199.59 197.651
L199.731 195.642
L199.873 198.432
L200.015 198.097
L200.156 192.852
L200.298 202.003
L200.44 199.883
L200.581 201.334
L200.723 205.24
L200.864 197.874
L201.148 201.334
L201.289 199.102
L201.714 209.369
L201.856 198.99
L201.997 202.896
L202.139 203.677
L202.281 199.325
L202.422 206.579
L202.564 192.629
L202.989 201.445
L203.13 199.325
L203.272 199.436
L203.555 212.494
L203.697 209.704
L203.98 199.436
L204.122 199.994
L204.547 208.253
L204.688 202.115
L204.83 180.241
L204.972 59.7132
L205.113 185.821
L205.396 205.686
L205.538 200.664
L205.68 201.222
L205.821 203.342
L205.963 198.432
L206.105 197.651
L206.388 205.351
L206.529 204.793
L206.671 196.981
L206.813 198.209
L206.954 201.557
L207.096 197.874
L207.238 211.266
L207.379 205.128
L207.521 204.793
L207.804 200.776
L207.946 202.673
L208.087 206.356
L208.229 198.767
L208.512 214.502
L208.795 201.334
L209.22 209.704
L209.504 209.48
L209.645 200.106
L209.928 203.566
L210.07 205.798
L210.212 217.516
L210.353 212.047
L210.495 215.507
L210.637 213.052
L210.778 203.9
L211.345 212.717
L211.486 216.846
L211.77 205.24
L211.911 205.798
L212.194 214.279
L212.336 214.949
L212.478 217.181
L212.619 217.516
L212.903 209.146
L213.044 211.489
L213.186 211.936
L213.611 202.896
L213.752 203.454
L214.036 211.824
L214.177 211.043
L214.46 219.524
L214.602 209.034
L214.744 209.146
L214.885 211.378
L215.027 209.815
L215.169 206.467
L215.31 216.958
L215.452 215.172
L215.735 205.798
L215.877 204.347
L216.018 208.922
L216.16 209.592
L216.302 211.489
L216.443 217.85
L216.726 210.596
L217.01 204.124
L217.293 216.734
L217.435 213.498
L217.576 213.052
L217.718 205.351
L217.859 212.717
L218.001 209.815
L218.143 216.511
L218.284 216.176
L218.426 220.417
L218.709 210.15
L218.851 210.485
L218.992 208.476
L219.134 213.275
L219.276 213.275
L219.559 214.726
L219.842 206.244
L219.984 208.364
L220.267 216.288
L220.409 213.498
L220.55 217.292
L220.834 207.695
L220.975 215.507
L221.117 213.275
L221.4 222.538
L221.542 222.091
L221.683 213.386
L221.825 213.052
L222.391 218.632
L222.533 213.163
L222.675 219.524
L222.816 202.003
L223.099 217.627
L223.241 219.859
L223.666 207.137
L224.091 215.395
L224.232 223.43
L224.374 223.207
L224.516 229.568
L224.799 211.043
L224.941 216.288
L225.224 211.266
L225.365 217.85
L225.79 209.48
L225.932 214.726
L226.074 208.253
L226.215 216.511
L226.64 208.588
L226.782 211.043
L227.207 202.338
L227.348 213.61
L227.49 209.704
L227.631 209.146
L227.773 207.472
L227.915 215.06
L228.056 209.704
L228.34 218.855
L228.481 212.27
L228.623 211.824
L228.764 212.717
L228.906 212.717
L229.048 206.244
L229.331 220.082
L229.473 211.712
L229.614 211.712
L229.756 207.472
L229.897 209.257
L230.039 201.557
L230.181 204.235
L230.322 215.172
L230.606 201.11
L230.747 183.478
L230.889 184.147
L231.172 212.27
L231.314 214.614
L231.597 201.668
L231.739 201.334
L231.88 199.548
L232.022 206.356
L232.163 203.342
L232.305 212.382
L232.588 197.762
L232.73 202.003
L232.872 202.115
L233.155 212.27
L233.296 211.601
L233.438 206.914
L233.58 197.204
L233.721 200.329
L233.863 199.883
L234.005 201.557
L234.146 221.198
L234.288 200.218
L234.429 203.9
L234.571 199.994
L234.713 203.342
L234.854 196.535
L235.279 206.69
L235.421 208.699
L235.704 195.754
L235.846 199.436
L235.987 194.638
L236.129 211.266
L236.271 207.248
L236.412 199.436
L236.695 197.874
L236.837 192.517
L237.262 206.132
L237.545 193.745
L237.687 195.307
L237.828 193.745
L238.112 203.342
L238.253 203.119
L238.395 202.226
L238.537 192.294
L238.678 191.959
L238.82 106.92
L238.961 120.647
L239.103 189.058
L239.245 194.972
L239.67 185.71
L239.811 193.522
L239.953 194.749
L240.236 201.222
L240.519 191.624
L240.803 194.414
L240.944 195.977
L241.086 209.815
L241.652 189.839
L241.936 205.574
L242.077 199.102
L242.219 198.655
L242.36 199.883
L242.644 186.714
L242.785 193.633
L242.927 189.392
L243.069 200.218
L243.21 202.338
L243.493 190.174
L243.635 191.29
L244.202 200.887
L244.343 195.196
L244.485 195.977
L244.626 198.097
L244.768 198.209
L244.91 202.561
L245.051 200.999
L245.193 126.338
L245.335 184.147
L245.476 28.8
L245.618 191.066
L245.901 195.307
L246.043 208.476
L246.184 204.347
L246.326 196.088
L246.609 198.097
L246.751 194.303
L246.892 196.088
L247.176 207.583
L247.459 199.325
L247.601 196.423
L247.742 204.124
L247.884 198.655
L248.025 208.253
L248.167 209.146
L248.309 202.784
L248.45 208.922
L248.592 200.776
L248.875 205.128
L249.017 203.119
L249.158 207.695
L249.3 204.905
L249.442 204.458
L249.725 162.385
L250.008 186.937
L250.15 186.826
L250.291 180.13
L250.433 192.071
L250.575 191.29
L250.858 182.696
L250.999 187.83
L251.141 188.276
L251.283 187.384
L251.424 185.598
L251.566 177.228
L251.708 179.348
L252.132 194.526
L252.274 161.716
L252.416 159.149
L252.557 160.934
L252.982 186.156
L253.124 191.848
L253.407 179.795
L253.69 190.732
L253.832 189.058
L253.974 193.41
L254.115 192.964
L254.398 177.674
L254.54 186.044
L254.682 184.594
L254.965 192.852
L255.107 204.682
L255.39 191.624
L255.531 192.182
L255.673 190.174
L255.815 193.745
L255.956 189.169
L256.098 172.206
L256.24 173.657
L256.381 159.818
L256.523 77.0112
L256.664 163.613
L256.806 160.6
L256.948 170.309
L257.089 220.194
L257.231 129.24
L257.373 150.332
L257.514 148.882
L257.656 165.064
L257.797 167.184
L258.081 178.232
L258.364 167.63
L258.506 168.3
L258.647 163.39
L258.93 182.808
L259.072 181.804
L259.214 192.182
L259.497 170.978
L259.639 176
L259.78 174.773
L259.922 175.889
L260.063 198.32
L260.205 202.338
L260.347 155.354
L260.63 168.97
L261.055 186.379
L261.338 168.3
L261.48 164.84
L261.621 164.729
L261.763 168.858
L262.046 185.821
L262.329 168.635
L262.613 173.88
L263.038 185.71
L263.179 183.589
L263.321 166.738
L263.462 164.952
L263.604 168.746
L263.746 166.849
L264.029 184.259
L264.312 164.506
L264.737 167.63
L265.02 188.834
L265.304 171.76
L265.445 196.646
L265.587 177.898
L265.728 185.486
L265.87 182.696
L266.012 195.865
L266.295 167.072
L266.437 158.368
L266.578 170.978
L266.72 170.755
L267.003 188.165
L267.286 169.304
L267.428 181.357
L267.57 179.46
L267.711 175.331
L267.853 188.946
L268.278 169.862
L268.419 173.545
L268.561 173.545
L268.844 187.272
L268.986 189.616
L269.269 171.536
L269.836 185.933
L269.977 194.749
L270.26 181.246
L270.402 190.397
L270.544 180.688
L270.827 198.878
L270.969 196.423
L271.11 197.651
L271.393 188.5
L271.535 190.732
L271.818 200.329
L271.96 208.476
L272.102 197.539
L272.243 197.428
L272.385 196.981
L272.526 200.664
L272.668 198.097
L272.81 197.651
L272.951 202.338
L273.093 199.66
L273.235 194.414
L273.376 194.08
L273.518 198.097
L273.801 195.419
L274.084 207.472
L274.509 190.843
L274.651 192.852
L274.792 197.986
L274.934 209.592
L275.076 207.472
L275.217 198.432
L275.359 197.204
L275.501 197.428
L275.642 209.257
L275.925 202.003
L276.209 201.557
L276.35 195.196
L276.775 208.141
L277.058 194.526
L277.2 192.852
L277.483 199.994
L277.625 196.981
L277.908 203.454
L278.05 204.012
L278.191 193.187
L278.333 196.981
L278.475 197.428
L278.616 201.668
L278.758 200.329
L278.899 203.454
L279.183 194.638
L279.324 202.784
L279.466 193.968
L279.749 203.119
L279.891 200.218
L280.032 200.776
L280.174 194.861
L280.316 199.771
L280.457 192.964
L280.741 205.798
L280.882 199.994
L281.024 202.226
L281.307 194.861
L281.59 200.776
L281.732 198.655
L282.015 200.664
L282.298 195.084
L282.44 200.552
L282.582 199.994
L282.723 196.87
L282.865 196.646
L283.007 204.57
L283.148 204.012
L283.29 187.83
L283.431 192.852
L283.573 192.182
L283.715 197.428
L284.14 188.5
L284.281 186.491
L284.564 189.281
L284.706 201.445
L284.848 202.003
L285.131 191.066
L285.273 190.732
L285.414 193.187
L285.556 189.95
L285.839 199.994
L286.264 185.598
L286.406 196.758
L286.547 196.981
L286.83 204.458
L286.972 188.165
L287.114 194.08
L287.255 188.834
L287.539 213.386
L287.68 194.638
L287.822 204.347
L287.963 194.414
L288.105 194.08
L288.247 186.602
L288.388 188.723
L288.672 200.776
L288.955 189.169
L289.096 192.182
L289.238 192.071
L289.38 198.097
L289.521 195.53
L289.663 198.32
L289.805 203.454
L290.088 189.727
L290.229 195.196
L290.371 187.16
L290.513 185.821
L290.654 199.102
L290.796 200.664
L290.938 199.994
L291.079 186.937
L291.221 184.259
L291.787 202.45
L291.929 197.204
L292.071 186.714
L292.212 187.272
L292.354 165.845
L292.495 165.622
L292.637 172.318
L293.062 150.89
L293.204 155.689
L293.345 154.796
L293.628 177.116
L293.77 173.992
L294.053 150.89
L294.195 151.672
L294.337 195.642
L294.478 158.256
L294.62 169.862
L294.761 167.854
L295.045 148.324
L295.186 148.547
L295.753 174.661
L296.036 147.766
L296.178 158.702
L296.319 155.466
L296.603 173.768
L296.744 173.099
L296.886 170.309
L297.027 162.832
L297.169 161.604
L297.594 175.219
L297.877 160.153
L298.019 153.234
L298.16 157.14
L298.302 176.112
L298.444 165.622
L298.727 178.009
L298.869 163.836
L299.152 159.93
L299.293 163.39
L299.435 169.862
L299.577 183.031
L299.86 172.206
L300.002 106.25
L300.568 184.259
L300.71 171.76
L301.135 183.701
L301.559 141.293
L301.701 147.096
L301.843 145.31
L301.984 149.44
L302.126 170.42
L302.268 167.519
L302.409 131.807
L302.692 152.899
L302.834 142.074
L302.976 144.194
L303.117 144.641
L303.259 153.122
L303.401 152.564
L303.542 154.238
L303.684 164.729
L303.967 146.65
L304.109 152.564
L304.25 147.766
L304.392 153.457
L304.675 168.077
L304.958 144.752
L305.1 150.667
L305.383 140.846
L305.525 159.484
L305.666 160.823
L305.95 143.636
L306.091 149.328
L306.233 145.534
L306.516 165.733
L306.658 158.926
L306.799 142.074
L306.941 150.332
L307.083 143.525
L307.224 144.306
L307.366 150.221
L307.508 161.716
L307.649 157.028
L307.932 144.194
L308.074 142.632
L308.499 170.309
L308.641 172.987
L308.782 171.425
L309.065 138.614
L309.349 155.578
L309.49 157.252
L309.632 172.876
L309.774 166.961
L309.915 178.902
L310.057 139.619
L310.198 151.783
L310.34 148.324
L310.623 164.059
L310.765 149.328
L310.907 149.886
L311.048 146.203
L311.19 153.68
L311.331 153.68
L311.615 174.661
L311.756 181.357
L311.898 173.768
L312.181 153.234
L312.323 28.8
L312.606 163.39
L312.889 144.752
L313.031 147.319
L313.173 158.814
L313.314 157.586
L313.597 181.246
L313.881 143.971
L314.022 163.278
L314.164 153.011
L314.306 156.359
L314.447 169.528
L314.589 167.854
L315.014 145.199
L315.155 122.098
L315.439 155.243
L315.58 165.733
L315.863 148.993
L316.005 149.216
L316.288 161.158
L316.43 163.836
L316.572 173.434
L316.713 162.943
L316.855 169.528
L316.996 161.827
L317.138 165.622
L317.28 166.291
L317.421 177.228
L317.563 171.202
L317.705 173.768
L317.988 154.238
L318.129 163.501
L318.271 163.055
L318.413 177.451
L318.554 177.34
L318.838 157.028
L318.979 156.247
L319.121 170.755
L319.262 166.068
L319.404 174.996
L319.546 175.108
L319.687 171.648
L319.971 147.766
L320.395 179.348
L320.537 180.13
L320.679 178.344
L320.82 167.965
L320.962 168.635
L321.104 170.42
L321.245 182.25
L321.387 180.13
L321.528 183.924
L321.953 161.827
L322.095 158.591
L322.237 158.033
L322.52 170.978
L322.661 147.989
L322.803 148.658
L322.945 146.984
L323.086 148.324
L323.37 165.398
L323.511 175.666
L323.653 169.528
L323.794 156.917
L323.936 158.144
L324.219 164.729
L324.503 178.232
L324.927 135.713
L325.069 158.256
L325.211 157.81
L325.494 172.541
L325.919 144.976
L326.202 166.18
L326.344 161.827
L326.627 165.175
L326.769 147.096
L326.91 144.752
L327.052 154.796
L327.193 155.354
L327.477 164.394
L327.618 154.127
L328.043 147.542
L328.326 162.608
L328.468 228.899
L328.61 232.582
L328.893 131.026
L329.035 169.081
L329.318 144.306
L329.459 161.269
L329.601 154.573
L329.743 141.07
L330.026 134.597
L330.309 153.346
L330.592 123.883
L330.876 28.8
L331.159 107.143
L331.442 127.566
L331.584 124.776
L331.725 134.82
L331.867 126.562
L332.009 133.034
L332.15 133.927
L332.292 139.061
L332.434 151.783
L332.575 131.026
L332.717 131.807
L332.858 117.076
L333 127.566
L333.142 233.586
L333.283 137.833
L333.425 142.52
L333.566 116.183
L333.85 123.66
L334.133 114.844
L334.275 138.503
L334.416 137.275
L334.699 111.496
L334.841 117.076
L335.124 105.581
L335.408 142.967
L335.691 110.714
L335.974 105.916
L336.399 141.628
L336.541 136.159
L336.824 95.4252
L337.249 141.404
L337.39 139.172
L337.674 107.366
L337.815 111.161
L337.957 111.719
L338.098 128.124
L338.24 126.562
L338.382 144.306
L338.523 128.012
L338.665 129.91
L338.948 141.851
L339.231 118.861
L339.373 145.645
L339.656 106.808
L339.94 126.785
L340.081 121.986
L340.223 134.82
L340.364 73.5516
L340.648 130.356
L340.789 119.866
L341.214 147.431
L341.356 158.926
L341.639 134.932
L341.781 130.914
L341.922 134.597
L342.064 143.078
L342.206 144.194
L342.347 151.672
L342.63 122.098
L342.914 130.914
L343.197 140.846
L343.339 158.368
L343.763 132.365
L343.905 132.588
L344.047 143.413
L344.188 143.413
L344.33 162.162
L344.755 120.982
L345.18 173.322
L345.321 171.983
L345.463 142.632
L345.605 170.197
L345.746 126.785
L345.888 142.409
L346.029 143.636
L346.313 174.215
L346.454 158.814
L346.596 95.9832
L346.738 121.428
L346.879 90.2916
L347.021 135.266
L347.162 109.04
L347.304 165.845
L347.587 142.967
L347.871 149.998
L348.154 178.232
L348.295 138.949
L348.437 157.14
L348.579 157.14
L348.72 153.011
L349.004 180.241
L349.145 174.55
L349.287 179.572
L349.428 151.56
L349.57 145.98
L349.712 147.542
L349.853 156.247
L350.137 188.946
L350.278 195.865
L350.561 172.094
L350.703 171.202
L350.845 174.773
L350.986 213.721
L351.128 186.379
L351.27 232.693
L351.553 179.683
L351.694 185.04
L351.836 181.469
L351.978 183.924
L352.261 192.182
L352.403 189.169
L352.544 189.281
L352.686 200.552
L352.827 200.106
L352.969 209.704
L353.252 185.821
L353.536 183.143
L353.677 187.272
L353.819 200.999
L353.96 190.843
L354.385 144.752
L354.527 139.284
L354.669 150.444
L354.81 146.761
L354.952 137.275
L355.235 161.046
L355.377 153.122
L355.518 183.812
L355.66 148.882
L355.802 168.746
L355.943 159.595
L356.085 188.611
L356.226 173.88
L356.368 174.326
L356.51 168.523
L356.651 154.015
L357.218 182.696
L357.359 165.51
L357.501 163.166
L357.643 166.291
L357.784 158.479
L358.209 189.504
L358.492 165.622
L358.634 165.398
L358.776 166.961
L359.201 186.937
L359.484 166.514
L359.625 173.434
L359.909 171.313
L360.192 198.432
L360.475 168.188
L360.617 164.952
L360.758 171.09
L360.9 165.845
L361.042 176.782
L361.325 172.764
L361.466 159.93
L361.608 157.81
L361.891 161.158
L362.175 181.58
L362.458 163.39
L362.599 162.274
L362.741 170.867
L362.883 168.077
L363.024 183.478
L363.166 182.696
L363.308 183.701
L363.449 166.961
L363.591 167.854
L363.874 185.04
L364.016 175.219
L364.157 179.125
L364.441 163.948
L364.582 165.398
L364.724 165.398
L365.149 186.491
L365.29 180.576
L365.432 164.84
L365.574 166.626
L365.715 166.738
L365.857 165.51
L366.14 188.053
L366.282 180.13
L366.423 163.613
L366.565 167.854
L366.707 186.937
L366.848 180.018
L367.131 190.397
L367.273 185.152
L367.556 170.978
L367.698 170.42
L367.981 177.786
L368.123 187.718
L368.264 151.337
L368.548 173.434
L368.689 168.3
L369.114 185.486
L369.256 179.795
L369.397 168.635
L369.539 170.309
L369.681 177.005
L369.822 177.786
L370.106 188.053
L370.53 173.768
L370.814 178.009
L371.097 193.745
L371.38 174.103
L371.522 181.469
L371.663 174.55
L371.805 175.108
L371.947 190.397
L372.23 191.848
L372.372 172.987
L372.655 187.16
L372.796 186.491
L373.08 193.075
L373.363 171.983
L373.505 183.478
L373.646 181.246
L373.929 189.839
L374.071 192.406
L374.213 190.62
L374.638 178.121
L374.779 185.598
L374.921 205.798
L375.062 207.36
L375.204 206.69
L375.346 196.758
L375.487 196.87
L375.629 197.316
L376.054 209.592
L376.195 204.235
L376.337 193.41
L376.62 204.235
L376.762 202.115
L376.904 207.025
L377.045 207.36
L377.187 209.257
L377.47 192.852
L377.612 200.776
L377.753 201.892
L378.037 208.364
L378.32 198.99
L378.603 193.522
L378.745 202.45
L378.886 204.124
L379.17 211.266
L379.311 199.883
L379.453 202.561
L379.594 184.147
L379.878 201.892
L380.019 209.48
L380.161 209.369
L380.303 196.758
L380.586 202.673
L380.727 200.776
L381.011 208.141
L381.152 208.253
L381.294 197.986
L381.436 207.695
L381.577 200.999
L381.719 202.784
L381.86 214.502
L382.002 212.27
L382.144 213.386
L382.285 205.24
L382.427 206.356
L382.569 212.047
L382.852 208.811
L382.993 210.82
L383.418 198.32
L383.56 205.798
L383.702 199.994
L384.126 214.279
L384.41 203.454
L384.551 204.347
L384.693 202.896
L384.976 208.364
L385.401 198.209
L385.543 200.552
L385.684 199.325
L385.968 207.918
L386.109 204.793
L386.392 192.071
L386.534 194.526
L386.959 206.356
L387.101 202.226
L387.242 190.397
L387.384 188.276
L387.525 196.088
L387.667 194.749
L387.95 202.673
L388.092 196.2
L388.375 179.572
L388.658 191.848
L388.8 251.665
L388.8 251.665" style="fill:none;stroke:#0000ff;stroke-linecap:square;"/>
   </g>
   <g id="patch_3">
    <path d="
M54 28.8
L388.8 28.8" style="fill:none;stroke:#000000;stroke-linecap:square;stroke-linejoin:miter;"/>
   </g>
   <g id="patch_4">
    <path d="
M388.8 252
L388.8 28.8" style="fill:none;stroke:#000000;stroke-linecap:square;stroke-linejoin:miter;"/>
   </g>
   <g id="patch_5">
    <path d="
M54 252
L388.8 252" style="fill:none;stroke:#000000;stroke-linecap:square;stroke-linejoin:miter;"/>
   </g>
   <g id="patch_6">
    <path d="
M54 252
L54 28.8" style="fill:none;stroke:#000000;stroke-linecap:square;stroke-linejoin:miter;"/>
   </g>
   <g id="matplotlib.axis_1">
    <g id="xtick_1">
     <g id="line2d_2">
      <defs>
       <path d="
M0 0
L0 -4" id="m93b0483c22" style="stroke:#000000;stroke-width:0.5;"/>
      </defs>
      <g>
       <use style="stroke:#000000;stroke-width:0.5;" x="95.3543147208" xlink:href="#m93b0483c22" y="252.0"/>
      </g>
     </g>
     <g id="line2d_3">
      <defs>
       <path d="
M0 0
L0 4" id="m741efc42ff" style="stroke:#000000;stroke-width:0.5;"/>
      </defs>
      <g>
       <use style="stroke:#000000;stroke-width:0.5;" x="95.3543147208" xlink:href="#m741efc42ff" y="28.8"/>
      </g>
     </g>
     <g id="text_1">
      <!-- 2010 -->
      <defs>
       <path d="
M19.1875 8.29688
L53.6094 8.29688
L53.6094 0
L7.32812 0
L7.32812 8.29688
Q12.9375 14.1094 22.625 23.8906
Q32.3281 33.6875 34.8125 36.5312
Q39.5469 41.8438 41.4219 45.5312
Q43.3125 49.2188 43.3125 52.7812
Q43.3125 58.5938 39.2344 62.25
Q35.1562 65.9219 28.6094 65.9219
Q23.9688 65.9219 18.8125 64.3125
Q13.6719 62.7031 7.8125 59.4219
L7.8125 69.3906
Q13.7656 71.7812 18.9375 73
Q24.125 74.2188 28.4219 74.2188
Q39.75 74.2188 46.4844 68.5469
Q53.2188 62.8906 53.2188 53.4219
Q53.2188 48.9219 51.5312 44.8906
Q49.8594 40.875 45.4062 35.4062
Q44.1875 33.9844 37.6406 27.2188
Q31.1094 20.4531 19.1875 8.29688" id="BitstreamVeraSans-Roman-32"/>
       <path d="
M31.7812 66.4062
Q24.1719 66.4062 20.3281 58.9062
Q16.5 51.4219 16.5 36.375
Q16.5 21.3906 20.3281 13.8906
Q24.1719 6.39062 31.7812 6.39062
Q39.4531 6.39062 43.2812 13.8906
Q47.125 21.3906 47.125 36.375
Q47.125 51.4219 43.2812 58.9062
Q39.4531 66.4062 31.7812 66.4062
M31.7812 74.2188
Q44.0469 74.2188 50.5156 64.5156
Q56.9844 54.8281 56.9844 36.375
Q56.9844 17.9688 50.5156 8.26562
Q44.0469 -1.42188 31.7812 -1.42188
Q19.5312 -1.42188 13.0625 8.26562
Q6.59375 17.9688 6.59375 36.375
Q6.59375 54.8281 13.0625 64.5156
Q19.5312 74.2188 31.7812 74.2188" id="BitstreamVeraSans-Roman-30"/>
       <path d="
M12.4062 8.29688
L28.5156 8.29688
L28.5156 63.9219
L10.9844 60.4062
L10.9844 69.3906
L28.4219 72.9062
L38.2812 72.9062
L38.2812 8.29688
L54.3906 8.29688
L54.3906 0
L12.4062 0
z
" id="BitstreamVeraSans-Roman-31"/>
      </defs>
      <g transform="translate(83.3277522208 263.5984375)scale(0.1 -0.1)">
       <use xlink:href="#BitstreamVeraSans-Roman-32"/>
       <use x="63.623046875" xlink:href="#BitstreamVeraSans-Roman-30"/>
       <use x="127.24609375" xlink:href="#BitstreamVeraSans-Roman-31"/>
       <use x="190.869140625" xlink:href="#BitstreamVeraSans-Roman-30"/>
      </g>
     </g>
    </g>
    <g id="xtick_2">
     <g id="line2d_4">
      <g>
       <use style="stroke:#000000;stroke-width:0.5;" x="147.047208122" xlink:href="#m93b0483c22" y="252.0"/>
      </g>
     </g>
     <g id="line2d_5">
      <g>
       <use style="stroke:#000000;stroke-width:0.5;" x="147.047208122" xlink:href="#m741efc42ff" y="28.8"/>
      </g>
     </g>
     <g id="text_2">
      <!-- 2011 -->
      <g transform="translate(135.150333122 263.5984375)scale(0.1 -0.1)">
       <use xlink:href="#BitstreamVeraSans-Roman-32"/>
       <use x="63.623046875" xlink:href="#BitstreamVeraSans-Roman-30"/>
       <use x="127.24609375" xlink:href="#BitstreamVeraSans-Roman-31"/>
       <use x="190.869140625" xlink:href="#BitstreamVeraSans-Roman-31"/>
      </g>
     </g>
    </g>
    <g id="xtick_3">
     <g id="line2d_6">
      <g>
       <use style="stroke:#000000;stroke-width:0.5;" x="198.740101523" xlink:href="#m93b0483c22" y="252.0"/>
      </g>
     </g>
     <g id="line2d_7">
      <g>
       <use style="stroke:#000000;stroke-width:0.5;" x="198.740101523" xlink:href="#m741efc42ff" y="28.8"/>
      </g>
     </g>
     <g id="text_3">
      <!-- 2012 -->
      <g transform="translate(186.882289023 263.5984375)scale(0.1 -0.1)">
       <use xlink:href="#BitstreamVeraSans-Roman-32"/>
       <use x="63.623046875" xlink:href="#BitstreamVeraSans-Roman-30"/>
       <use x="127.24609375" xlink:href="#BitstreamVeraSans-Roman-31"/>
       <use x="190.869140625" xlink:href="#BitstreamVeraSans-Roman-32"/>
      </g>
     </g>
    </g>
    <g id="xtick_4">
     <g id="line2d_8">
      <g>
       <use style="stroke:#000000;stroke-width:0.5;" x="250.574619289" xlink:href="#m93b0483c22" y="252.0"/>
      </g>
     </g>
     <g id="line2d_9">
      <g>
       <use style="stroke:#000000;stroke-width:0.5;" x="250.574619289" xlink:href="#m741efc42ff" y="28.8"/>
      </g>
     </g>
     <g id="text_4">
      <!-- 2013 -->
      <defs>
       <path d="
M40.5781 39.3125
Q47.6562 37.7969 51.625 33
Q55.6094 28.2188 55.6094 21.1875
Q55.6094 10.4062 48.1875 4.48438
Q40.7656 -1.42188 27.0938 -1.42188
Q22.5156 -1.42188 17.6562 -0.515625
Q12.7969 0.390625 7.625 2.20312
L7.625 11.7188
Q11.7188 9.32812 16.5938 8.10938
Q21.4844 6.89062 26.8125 6.89062
Q36.0781 6.89062 40.9375 10.5469
Q45.7969 14.2031 45.7969 21.1875
Q45.7969 27.6406 41.2812 31.2656
Q36.7656 34.9062 28.7188 34.9062
L20.2188 34.9062
L20.2188 43.0156
L29.1094 43.0156
Q36.375 43.0156 40.2344 45.9219
Q44.0938 48.8281 44.0938 54.2969
Q44.0938 59.9062 40.1094 62.9062
Q36.1406 65.9219 28.7188 65.9219
Q24.6562 65.9219 20.0156 65.0312
Q15.375 64.1562 9.8125 62.3125
L9.8125 71.0938
Q15.4375 72.6562 20.3438 73.4375
Q25.25 74.2188 29.5938 74.2188
Q40.8281 74.2188 47.3594 69.1094
Q53.9062 64.0156 53.9062 55.3281
Q53.9062 49.2656 50.4375 45.0938
Q46.9688 40.9219 40.5781 39.3125" id="BitstreamVeraSans-Roman-33"/>
      </defs>
      <g transform="translate(238.616806789 263.5984375)scale(0.1 -0.1)">
       <use xlink:href="#BitstreamVeraSans-Roman-32"/>
       <use x="63.623046875" xlink:href="#BitstreamVeraSans-Roman-30"/>
       <use x="127.24609375" xlink:href="#BitstreamVeraSans-Roman-31"/>
       <use x="190.869140625" xlink:href="#BitstreamVeraSans-Roman-33"/>
      </g>
     </g>
    </g>
    <g id="xtick_5">
     <g id="line2d_10">
      <g>
       <use style="stroke:#000000;stroke-width:0.5;" x="302.26751269" xlink:href="#m93b0483c22" y="252.0"/>
      </g>
     </g>
     <g id="line2d_11">
      <g>
       <use style="stroke:#000000;stroke-width:0.5;" x="302.26751269" xlink:href="#m741efc42ff" y="28.8"/>
      </g>
     </g>
     <g id="text_5">
      <!-- 2014 -->
      <defs>
       <path d="
M37.7969 64.3125
L12.8906 25.3906
L37.7969 25.3906
z

M35.2031 72.9062
L47.6094 72.9062
L47.6094 25.3906
L58.0156 25.3906
L58.0156 17.1875
L47.6094 17.1875
L47.6094 0
L37.7969 0
L37.7969 17.1875
L4.89062 17.1875
L4.89062 26.7031
z
" id="BitstreamVeraSans-Roman-34"/>
      </defs>
      <g transform="translate(290.18938769 263.5984375)scale(0.1 -0.1)">
       <use xlink:href="#BitstreamVeraSans-Roman-32"/>
       <use x="63.623046875" xlink:href="#BitstreamVeraSans-Roman-30"/>
       <use x="127.24609375" xlink:href="#BitstreamVeraSans-Roman-31"/>
       <use x="190.869140625" xlink:href="#BitstreamVeraSans-Roman-34"/>
      </g>
     </g>
    </g>
    <g id="xtick_6">
     <g id="line2d_12">
      <g>
       <use style="stroke:#000000;stroke-width:0.5;" x="353.960406091" xlink:href="#m93b0483c22" y="252.0"/>
      </g>
     </g>
     <g id="line2d_13">
      <g>
       <use style="stroke:#000000;stroke-width:0.5;" x="353.960406091" xlink:href="#m741efc42ff" y="28.8"/>
      </g>
     </g>
     <g id="text_6">
      <!-- 2015 -->
      <defs>
       <path d="
M10.7969 72.9062
L49.5156 72.9062
L49.5156 64.5938
L19.8281 64.5938
L19.8281 46.7344
Q21.9688 47.4688 24.1094 47.8281
Q26.2656 48.1875 28.4219 48.1875
Q40.625 48.1875 47.75 41.5
Q54.8906 34.8125 54.8906 23.3906
Q54.8906 11.625 47.5625 5.09375
Q40.2344 -1.42188 26.9062 -1.42188
Q22.3125 -1.42188 17.5469 -0.640625
Q12.7969 0.140625 7.71875 1.70312
L7.71875 11.625
Q12.1094 9.23438 16.7969 8.0625
Q21.4844 6.89062 26.7031 6.89062
Q35.1562 6.89062 40.0781 11.3281
Q45.0156 15.7656 45.0156 23.3906
Q45.0156 31 40.0781 35.4375
Q35.1562 39.8906 26.7031 39.8906
Q22.75 39.8906 18.8125 39.0156
Q14.8906 38.1406 10.7969 36.2812
z
" id="BitstreamVeraSans-Roman-35"/>
      </defs>
      <g transform="translate(342.038531091 263.5984375)scale(0.1 -0.1)">
       <use xlink:href="#BitstreamVeraSans-Roman-32"/>
       <use x="63.623046875" xlink:href="#BitstreamVeraSans-Roman-30"/>
       <use x="127.24609375" xlink:href="#BitstreamVeraSans-Roman-31"/>
       <use x="190.869140625" xlink:href="#BitstreamVeraSans-Roman-35"/>
      </g>
     </g>
    </g>
   </g>
   <g id="matplotlib.axis_2">
    <g id="ytick_1">
     <g id="line2d_14">
      <defs>
       <path d="
M0 0
L4 0" id="m728421d6d4" style="stroke:#000000;stroke-width:0.5;"/>
      </defs>
      <g>
       <use style="stroke:#000000;stroke-width:0.5;" x="54.0" xlink:href="#m728421d6d4" y="252.0"/>
      </g>
     </g>
     <g id="line2d_15">
      <defs>
       <path d="
M0 0
L-4 0" id="mcb0005524f" style="stroke:#000000;stroke-width:0.5;"/>
      </defs>
      <g>
       <use style="stroke:#000000;stroke-width:0.5;" x="388.8" xlink:href="#mcb0005524f" y="252.0"/>
      </g>
     </g>
     <g id="text_7">
      <!-- 0 -->
      <g transform="translate(44.9609375 254.759375)scale(0.1 -0.1)">
       <use xlink:href="#BitstreamVeraSans-Roman-30"/>
      </g>
     </g>
    </g>
    <g id="ytick_2">
     <g id="line2d_16">
      <g>
       <use style="stroke:#000000;stroke-width:0.5;" x="54.0" xlink:href="#m728421d6d4" y="196.2"/>
      </g>
     </g>
     <g id="line2d_17">
      <g>
       <use style="stroke:#000000;stroke-width:0.5;" x="388.8" xlink:href="#mcb0005524f" y="196.2"/>
      </g>
     </g>
     <g id="text_8">
      <!-- 500 -->
      <g transform="translate(32.3484375 198.959375)scale(0.1 -0.1)">
       <use xlink:href="#BitstreamVeraSans-Roman-35"/>
       <use x="63.623046875" xlink:href="#BitstreamVeraSans-Roman-30"/>
       <use x="127.24609375" xlink:href="#BitstreamVeraSans-Roman-30"/>
      </g>
     </g>
    </g>
    <g id="ytick_3">
     <g id="line2d_18">
      <g>
       <use style="stroke:#000000;stroke-width:0.5;" x="54.0" xlink:href="#m728421d6d4" y="140.4"/>
      </g>
     </g>
     <g id="line2d_19">
      <g>
       <use style="stroke:#000000;stroke-width:0.5;" x="388.8" xlink:href="#mcb0005524f" y="140.4"/>
      </g>
     </g>
     <g id="text_9">
      <!-- 1000 -->
      <g transform="translate(26.3125 143.159375)scale(0.1 -0.1)">
       <use xlink:href="#BitstreamVeraSans-Roman-31"/>
       <use x="63.623046875" xlink:href="#BitstreamVeraSans-Roman-30"/>
       <use x="127.24609375" xlink:href="#BitstreamVeraSans-Roman-30"/>
       <use x="190.869140625" xlink:href="#BitstreamVeraSans-Roman-30"/>
      </g>
     </g>
    </g>
    <g id="ytick_4">
     <g id="line2d_20">
      <g>
       <use style="stroke:#000000;stroke-width:0.5;" x="54.0" xlink:href="#m728421d6d4" y="84.6"/>
      </g>
     </g>
     <g id="line2d_21">
      <g>
       <use style="stroke:#000000;stroke-width:0.5;" x="388.8" xlink:href="#mcb0005524f" y="84.6"/>
      </g>
     </g>
     <g id="text_10">
      <!-- 1500 -->
      <g transform="translate(26.3125 87.359375)scale(0.1 -0.1)">
       <use xlink:href="#BitstreamVeraSans-Roman-31"/>
       <use x="63.623046875" xlink:href="#BitstreamVeraSans-Roman-35"/>
       <use x="127.24609375" xlink:href="#BitstreamVeraSans-Roman-30"/>
       <use x="190.869140625" xlink:href="#BitstreamVeraSans-Roman-30"/>
      </g>
     </g>
    </g>
    <g id="ytick_5">
     <g id="line2d_22">
      <g>
       <use style="stroke:#000000;stroke-width:0.5;" x="54.0" xlink:href="#m728421d6d4" y="28.8"/>
      </g>
     </g>
     <g id="line2d_23">
      <g>
       <use style="stroke:#000000;stroke-width:0.5;" x="388.8" xlink:href="#mcb0005524f" y="28.8"/>
      </g>
     </g>
     <g id="text_11">
      <!-- 2000 -->
      <g transform="translate(25.946875 31.559375)scale(0.1 -0.1)">
       <use xlink:href="#BitstreamVeraSans-Roman-32"/>
       <use x="63.623046875" xlink:href="#BitstreamVeraSans-Roman-30"/>
       <use x="127.24609375" xlink:href="#BitstreamVeraSans-Roman-30"/>
       <use x="190.869140625" xlink:href="#BitstreamVeraSans-Roman-30"/>
      </g>
     </g>
    </g>
    <g id="text_12">
     <!-- New OpenLibrary accounts -->
     <defs>
      <path d="
M39.4062 66.2188
Q28.6562 66.2188 22.3281 58.2031
Q16.0156 50.2031 16.0156 36.375
Q16.0156 22.6094 22.3281 14.5938
Q28.6562 6.59375 39.4062 6.59375
Q50.1406 6.59375 56.4219 14.5938
Q62.7031 22.6094 62.7031 36.375
Q62.7031 50.2031 56.4219 58.2031
Q50.1406 66.2188 39.4062 66.2188
M39.4062 74.2188
Q54.7344 74.2188 63.9062 63.9375
Q73.0938 53.6562 73.0938 36.375
Q73.0938 19.1406 63.9062 8.85938
Q54.7344 -1.42188 39.4062 -1.42188
Q24.0312 -1.42188 14.8125 8.82812
Q5.60938 19.0938 5.60938 36.375
Q5.60938 53.6562 14.8125 63.9375
Q24.0312 74.2188 39.4062 74.2188" id="BitstreamVeraSans-Roman-4f"/>
      <path d="
M9.8125 72.9062
L23.0938 72.9062
L55.4219 11.9219
L55.4219 72.9062
L64.9844 72.9062
L64.9844 0
L51.7031 0
L19.3906 60.9844
L19.3906 0
L9.8125 0
z
" id="BitstreamVeraSans-Roman-4e"/>
      <path d="
M9.8125 72.9062
L19.6719 72.9062
L19.6719 8.29688
L55.1719 8.29688
L55.1719 0
L9.8125 0
z
" id="BitstreamVeraSans-Roman-4c"/>
      <path id="BitstreamVeraSans-Roman-20"/>
      <path d="
M54.8906 33.0156
L54.8906 0
L45.9062 0
L45.9062 32.7188
Q45.9062 40.4844 42.875 44.3281
Q39.8438 48.1875 33.7969 48.1875
Q26.5156 48.1875 22.3125 43.5469
Q18.1094 38.9219 18.1094 30.9062
L18.1094 0
L9.07812 0
L9.07812 54.6875
L18.1094 54.6875
L18.1094 46.1875
Q21.3438 51.125 25.7031 53.5625
Q30.0781 56 35.7969 56
Q45.2188 56 50.0469 50.1719
Q54.8906 44.3438 54.8906 33.0156" id="BitstreamVeraSans-Roman-6e"/>
      <path d="
M34.2812 27.4844
Q23.3906 27.4844 19.1875 25
Q14.9844 22.5156 14.9844 16.5
Q14.9844 11.7188 18.1406 8.90625
Q21.2969 6.10938 26.7031 6.10938
Q34.1875 6.10938 38.7031 11.4062
Q43.2188 16.7031 43.2188 25.4844
L43.2188 27.4844
z

M52.2031 31.2031
L52.2031 0
L43.2188 0
L43.2188 8.29688
Q40.1406 3.32812 35.5469 0.953125
Q30.9531 -1.42188 24.3125 -1.42188
Q15.9219 -1.42188 10.9531 3.29688
Q6 8.01562 6 15.9219
Q6 25.1406 12.1719 29.8281
Q18.3594 34.5156 30.6094 34.5156
L43.2188 34.5156
L43.2188 35.4062
Q43.2188 41.6094 39.1406 45
Q35.0625 48.3906 27.6875 48.3906
Q23 48.3906 18.5469 47.2656
Q14.1094 46.1406 10.0156 43.8906
L10.0156 52.2031
Q14.9375 54.1094 19.5781 55.0469
Q24.2188 56 28.6094 56
Q40.4844 56 46.3438 49.8438
Q52.2031 43.7031 52.2031 31.2031" id="BitstreamVeraSans-Roman-61"/>
      <path d="
M30.6094 48.3906
Q23.3906 48.3906 19.1875 42.75
Q14.9844 37.1094 14.9844 27.2969
Q14.9844 17.4844 19.1562 11.8438
Q23.3438 6.20312 30.6094 6.20312
Q37.7969 6.20312 41.9844 11.8594
Q46.1875 17.5312 46.1875 27.2969
Q46.1875 37.0156 41.9844 42.7031
Q37.7969 48.3906 30.6094 48.3906
M30.6094 56
Q42.3281 56 49.0156 48.375
Q55.7188 40.7656 55.7188 27.2969
Q55.7188 13.875 49.0156 6.21875
Q42.3281 -1.42188 30.6094 -1.42188
Q18.8438 -1.42188 12.1719 6.21875
Q5.51562 13.875 5.51562 27.2969
Q5.51562 40.7656 12.1719 48.375
Q18.8438 56 30.6094 56" id="BitstreamVeraSans-Roman-6f"/>
      <path d="
M9.42188 54.6875
L18.4062 54.6875
L18.4062 0
L9.42188 0
z

M9.42188 75.9844
L18.4062 75.9844
L18.4062 64.5938
L9.42188 64.5938
z
" id="BitstreamVeraSans-Roman-69"/>
      <path d="
M48.7812 52.5938
L48.7812 44.1875
Q44.9688 46.2969 41.1406 47.3438
Q37.3125 48.3906 33.4062 48.3906
Q24.6562 48.3906 19.8125 42.8438
Q14.9844 37.3125 14.9844 27.2969
Q14.9844 17.2812 19.8125 11.7344
Q24.6562 6.20312 33.4062 6.20312
Q37.3125 6.20312 41.1406 7.25
Q44.9688 8.29688 48.7812 10.4062
L48.7812 2.09375
Q45.0156 0.34375 40.9844 -0.53125
Q36.9688 -1.42188 32.4219 -1.42188
Q20.0625 -1.42188 12.7812 6.34375
Q5.51562 14.1094 5.51562 27.2969
Q5.51562 40.6719 12.8594 48.3281
Q20.2188 56 33.0156 56
Q37.1562 56 41.1094 55.1406
Q45.0625 54.2969 48.7812 52.5938" id="BitstreamVeraSans-Roman-63"/>
      <path d="
M32.1719 -5.07812
Q28.375 -14.8438 24.75 -17.8125
Q21.1406 -20.7969 15.0938 -20.7969
L7.90625 -20.7969
L7.90625 -13.2812
L13.1875 -13.2812
Q16.8906 -13.2812 18.9375 -11.5156
Q21 -9.76562 23.4844 -3.21875
L25.0938 0.875
L2.98438 54.6875
L12.5 54.6875
L29.5938 11.9219
L46.6875 54.6875
L56.2031 54.6875
z
" id="BitstreamVeraSans-Roman-79"/>
      <path d="
M56.2031 29.5938
L56.2031 25.2031
L14.8906 25.2031
Q15.4844 15.9219 20.4844 11.0625
Q25.4844 6.20312 34.4219 6.20312
Q39.5938 6.20312 44.4531 7.46875
Q49.3125 8.73438 54.1094 11.2812
L54.1094 2.78125
Q49.2656 0.734375 44.1875 -0.34375
Q39.1094 -1.42188 33.8906 -1.42188
Q20.7969 -1.42188 13.1562 6.1875
Q5.51562 13.8125 5.51562 26.8125
Q5.51562 40.2344 12.7656 48.1094
Q20.0156 56 32.3281 56
Q43.3594 56 49.7812 48.8906
Q56.2031 41.7969 56.2031 29.5938
M47.2188 32.2344
Q47.125 39.5938 43.0938 43.9844
Q39.0625 48.3906 32.4219 48.3906
Q24.9062 48.3906 20.3906 44.1406
Q15.875 39.8906 15.1875 32.1719
z
" id="BitstreamVeraSans-Roman-65"/>
      <path d="
M4.20312 54.6875
L13.1875 54.6875
L24.4219 12.0156
L35.5938 54.6875
L46.1875 54.6875
L57.4219 12.0156
L68.6094 54.6875
L77.5938 54.6875
L63.2812 0
L52.6875 0
L40.9219 44.8281
L29.1094 0
L18.5 0
z
" id="BitstreamVeraSans-Roman-77"/>
      <path d="
M18.3125 70.2188
L18.3125 54.6875
L36.8125 54.6875
L36.8125 47.7031
L18.3125 47.7031
L18.3125 18.0156
Q18.3125 11.3281 20.1406 9.42188
Q21.9688 7.51562 27.5938 7.51562
L36.8125 7.51562
L36.8125 0
L27.5938 0
Q17.1875 0 13.2344 3.875
Q9.28125 7.76562 9.28125 18.0156
L9.28125 47.7031
L2.6875 47.7031
L2.6875 54.6875
L9.28125 54.6875
L9.28125 70.2188
z
" id="BitstreamVeraSans-Roman-74"/>
      <path d="
M8.5 21.5781
L8.5 54.6875
L17.4844 54.6875
L17.4844 21.9219
Q17.4844 14.1562 20.5 10.2656
Q23.5312 6.39062 29.5938 6.39062
Q36.8594 6.39062 41.0781 11.0312
Q45.3125 15.6719 45.3125 23.6875
L45.3125 54.6875
L54.2969 54.6875
L54.2969 0
L45.3125 0
L45.3125 8.40625
Q42.0469 3.42188 37.7188 1
Q33.4062 -1.42188 27.6875 -1.42188
Q18.2656 -1.42188 13.375 4.4375
Q8.5 10.2969 8.5 21.5781" id="BitstreamVeraSans-Roman-75"/>
      <path d="
M41.1094 46.2969
Q39.5938 47.1719 37.8125 47.5781
Q36.0312 48 33.8906 48
Q26.2656 48 22.1875 43.0469
Q18.1094 38.0938 18.1094 28.8125
L18.1094 0
L9.07812 0
L9.07812 54.6875
L18.1094 54.6875
L18.1094 46.1875
Q20.9531 51.1719 25.4844 53.5781
Q30.0312 56 36.5312 56
Q37.4531 56 38.5781 55.875
Q39.7031 55.7656 41.0625 55.5156
z
" id="BitstreamVeraSans-Roman-72"/>
      <path d="
M44.2812 53.0781
L44.2812 44.5781
Q40.4844 46.5312 36.375 47.5
Q32.2812 48.4844 27.875 48.4844
Q21.1875 48.4844 17.8438 46.4375
Q14.5 44.3906 14.5 40.2812
Q14.5 37.1562 16.8906 35.375
Q19.2812 33.5938 26.5156 31.9844
L29.5938 31.2969
Q39.1562 29.25 43.1875 25.5156
Q47.2188 21.7812 47.2188 15.0938
Q47.2188 7.46875 41.1875 3.01562
Q35.1562 -1.42188 24.6094 -1.42188
Q20.2188 -1.42188 15.4531 -0.5625
Q10.6875 0.296875 5.42188 2
L5.42188 11.2812
Q10.4062 8.6875 15.2344 7.39062
Q20.0625 6.10938 24.8125 6.10938
Q31.1562 6.10938 34.5625 8.28125
Q37.9844 10.4531 37.9844 14.4062
Q37.9844 18.0625 35.5156 20.0156
Q33.0625 21.9688 24.7031 23.7812
L21.5781 24.5156
Q13.2344 26.2656 9.51562 29.9062
Q5.8125 33.5469 5.8125 39.8906
Q5.8125 47.6094 11.2812 51.7969
Q16.75 56 26.8125 56
Q31.7812 56 36.1719 55.2656
Q40.5781 54.5469 44.2812 53.0781" id="BitstreamVeraSans-Roman-73"/>
      <path d="
M18.1094 8.20312
L18.1094 -20.7969
L9.07812 -20.7969
L9.07812 54.6875
L18.1094 54.6875
L18.1094 46.3906
Q20.9531 51.2656 25.2656 53.625
Q29.5938 56 35.5938 56
Q45.5625 56 51.7812 48.0938
Q58.0156 40.1875 58.0156 27.2969
Q58.0156 14.4062 51.7812 6.48438
Q45.5625 -1.42188 35.5938 -1.42188
Q29.5938 -1.42188 25.2656 0.953125
Q20.9531 3.32812 18.1094 8.20312
M48.6875 27.2969
Q48.6875 37.2031 44.6094 42.8438
Q40.5312 48.4844 33.4062 48.4844
Q26.2656 48.4844 22.1875 42.8438
Q18.1094 37.2031 18.1094 27.2969
Q18.1094 17.3906 22.1875 11.75
Q26.2656 6.10938 33.4062 6.10938
Q40.5312 6.10938 44.6094 11.75
Q48.6875 17.3906 48.6875 27.2969" id="BitstreamVeraSans-Roman-70"/>
      <path d="
M48.6875 27.2969
Q48.6875 37.2031 44.6094 42.8438
Q40.5312 48.4844 33.4062 48.4844
Q26.2656 48.4844 22.1875 42.8438
Q18.1094 37.2031 18.1094 27.2969
Q18.1094 17.3906 22.1875 11.75
Q26.2656 6.10938 33.4062 6.10938
Q40.5312 6.10938 44.6094 11.75
Q48.6875 17.3906 48.6875 27.2969
M18.1094 46.3906
Q20.9531 51.2656 25.2656 53.625
Q29.5938 56 35.5938 56
Q45.5625 56 51.7812 48.0938
Q58.0156 40.1875 58.0156 27.2969
Q58.0156 14.4062 51.7812 6.48438
Q45.5625 -1.42188 35.5938 -1.42188
Q29.5938 -1.42188 25.2656 0.953125
Q20.9531 3.32812 18.1094 8.20312
L18.1094 0
L9.07812 0
L9.07812 75.9844
L18.1094 75.9844
z
" id="BitstreamVeraSans-Roman-62"/>
     </defs>
     <g transform="translate(18.8671875 207.60390625)rotate(-90.0)scale(0.1 -0.1)">
      <use xlink:href="#BitstreamVeraSans-Roman-4e"/>
      <use x="74.8046875" xlink:href="#BitstreamVeraSans-Roman-65"/>
      <use x="136.328125" xlink:href="#BitstreamVeraSans-Roman-77"/>
      <use x="218.115234375" xlink:href="#BitstreamVeraSans-Roman-20"/>
      <use x="249.90234375" xlink:href="#BitstreamVeraSans-Roman-4f"/>
      <use x="328.61328125" xlink:href="#BitstreamVeraSans-Roman-70"/>
      <use x="392.08984375" xlink:href="#BitstreamVeraSans-Roman-65"/>
      <use x="453.61328125" xlink:href="#BitstreamVeraSans-Roman-6e"/>
      <use x="516.9921875" xlink:href="#BitstreamVeraSans-Roman-4c"/>
      <use x="572.705078125" xlink:href="#BitstreamVeraSans-Roman-69"/>
      <use x="600.48828125" xlink:href="#BitstreamVeraSans-Roman-62"/>
      <use x="663.96484375" xlink:href="#BitstreamVeraSans-Roman-72"/>
      <use x="705.078125" xlink:href="#BitstreamVeraSans-Roman-61"/>
      <use x="766.357421875" xlink:href="#BitstreamVeraSans-Roman-72"/>
      <use x="807.470703125" xlink:href="#BitstreamVeraSans-Roman-79"/>
      <use x="866.650390625" xlink:href="#BitstreamVeraSans-Roman-20"/>
      <use x="898.4375" xlink:href="#BitstreamVeraSans-Roman-61"/>
      <use x="959.716796875" xlink:href="#BitstreamVeraSans-Roman-63"/>
      <use x="1014.69726562" xlink:href="#BitstreamVeraSans-Roman-63"/>
      <use x="1069.67773438" xlink:href="#BitstreamVeraSans-Roman-6f"/>
      <use x="1130.859375" xlink:href="#BitstreamVeraSans-Roman-75"/>
      <use x="1194.23828125" xlink:href="#BitstreamVeraSans-Roman-6e"/>
      <use x="1257.6171875" xlink:href="#BitstreamVeraSans-Roman-74"/>
      <use x="1296.82617188" xlink:href="#BitstreamVeraSans-Roman-73"/>
     </g>
    </g>
   </g>
  </g>
 </g>
 <defs>
  <clipPath id="p124b8dd147">
   <rect height="223.2" width="334.8" x="54.0" y="28.8"/>
  </clipPath>
 </defs>
</svg>
