<?xml version="1.0" encoding="utf-8" standalone="no"?>
<!DOCTYPE svg PUBLIC "-//W3C//DTD SVG 1.1//EN"
  "http://www.w3.org/Graphics/SVG/1.1/DTD/svg11.dtd">
<!-- Created with matplotlib (http://matplotlib.org/) -->
<svg height="432pt" version="1.1" viewBox="0 0 576 432" width="576pt" xmlns="http://www.w3.org/2000/svg" xmlns:xlink="http://www.w3.org/1999/xlink">
 <defs>
  <style type="text/css">
*{stroke-linecap:butt;stroke-linejoin:round;}
  </style>
 </defs>
 <g id="figure_1">
  <g id="patch_1">
   <path d="
M0 432
L576 432
L576 0
L0 0
z
" style="fill:#ffffff;"/>
  </g>
  <g id="axes_1">
   <g id="patch_2">
    <path d="
M72 388.8
L518.4 388.8
L518.4 43.2
L72 43.2
z
" style="fill:#ffffff;"/>
   </g>
   <g id="line2d_1">
    <path clip-path="url(#p7ff5b81e1d)" d="
M72 388.454
L72.1408 388.8
L72.2816 388.627
L72.5633 388.8
L75.098 388.8
L75.2389 388.627
L75.5205 388.8
L77.7736 388.8
L77.9144 388.627
L78.1961 388.8
L78.6185 388.8
L78.9002 388.627
L79.1818 388.627
L79.4635 388.8
L81.7166 388.8
L81.8574 388.454
L81.9982 388.8
L82.1391 388.454
L82.2799 388.8
L82.4207 388.8
L82.5615 379.123
L82.7023 331.258
L82.8432 373.248
L83.1248 384.307
L83.4064 386.554
L83.5473 386.208
L83.6881 386.726
L83.8289 388.109
L83.9697 387.59
L84.1105 387.59
L84.2514 388.454
L84.3922 387.936
L84.533 388.282
L84.6738 386.381
L84.8146 387.763
L84.9555 387.245
L85.0963 387.245
L85.2371 388.454
L85.3779 387.418
L85.6596 388.8
L85.8004 388.282
L85.9412 387.072
L86.082 388.454
L86.2228 388.282
L86.3637 388.454
L86.5045 387.763
L86.6453 388.454
L86.7861 387.418
L86.9269 388.8
L87.0678 388.454
L87.2086 388.454
L87.3494 387.59
L87.4902 387.936
L87.631 388.8
L87.9127 388.627
L88.0535 388.8
L88.3351 388.627
L88.6168 388.8
L88.7576 388.454
L88.8984 388.454
L89.0392 388.8
L89.3209 388.8
L89.4617 388.454
L89.6025 388.8
L89.7433 388.8
L89.8842 388.627
L90.025 388.8
L90.1658 388.627
L90.4474 388.8
L90.7291 388.8
L90.8699 388.627
L91.1515 388.8
L91.4332 388.8
L91.574 388.627
L91.7148 388.8
L91.8556 388.627
L92.1373 388.8
L92.2781 388.8
L92.5597 388.454
L92.7006 388.8
L92.8414 388.109
L93.123 388.8
L93.2638 388.627
L93.4047 388.8
L93.5455 388.109
L93.6863 388.627
L93.8271 388.282
L93.9679 388.627
L94.1088 388.454
L94.3904 388.8
L94.6721 388.627
L94.8129 388.627
L94.9537 388.454
L95.0945 388.8
L95.3762 388.8
L95.517 388.454
L95.6578 387.59
L95.7986 387.59
L95.9394 388.109
L96.0803 387.936
L96.2211 388.282
L96.3619 386.035
L96.5027 385.862
L96.7844 387.072
L96.9252 386.554
L97.066 387.418
L97.2068 387.072
L97.3476 387.418
L97.4885 387.418
L97.6293 386.726
L98.3334 387.59
L98.4742 386.899
L98.7558 388.109
L98.8967 386.899
L99.0375 387.936
L99.3191 388.109
L99.4599 387.072
L100.023 387.763
L100.164 387.418
L100.305 387.418
L100.446 386.381
L100.586 386.899
L100.727 386.726
L101.009 387.245
L101.15 386.726
L101.291 387.418
L101.431 386.381
L101.572 386.208
L101.713 388.454
L101.854 388.282
L101.995 387.245
L102.276 388.282
L102.417 388.109
L102.558 387.59
L102.699 387.936
L102.84 387.418
L103.121 388.109
L103.262 387.763
L103.544 386.035
L103.966 388.109
L104.107 387.59
L104.248 388.282
L104.389 387.59
L104.529 388.282
L104.67 388.109
L104.811 388.454
L104.952 387.936
L105.093 388.109
L105.374 386.726
L105.515 387.418
L105.656 386.726
L105.938 388.454
L106.078 388.282
L106.219 387.418
L106.36 388.454
L106.642 386.899
L106.783 387.418
L106.923 387.418
L107.064 387.59
L107.346 387.245
L107.487 387.418
L107.628 387.936
L107.768 387.418
L108.05 387.59
L108.191 386.899
L108.332 388.109
L108.472 386.554
L108.754 387.936
L109.036 387.245
L109.177 388.282
L109.317 388.454
L109.599 386.726
L109.74 388.454
L109.881 387.936
L110.021 388.109
L110.162 387.936
L110.303 387.418
L110.726 387.936
L110.866 387.418
L111.148 388.627
L111.43 388.454
L111.57 387.072
L111.852 388.627
L112.134 387.936
L112.275 387.936
L112.556 387.763
L112.697 387.763
L112.838 388.109
L112.979 387.936
L113.119 387.072
L113.401 388.282
L113.542 387.245
L113.683 387.59
L113.824 388.282
L113.964 388.282
L114.105 387.072
L114.246 388.109
L114.387 386.899
L114.528 386.899
L114.809 387.936
L115.091 387.072
L115.232 387.936
L115.373 387.418
L115.513 387.936
L115.654 386.554
L115.936 388.109
L116.077 387.418
L116.218 387.763
L116.358 387.763
L116.64 387.072
L116.781 388.8
L116.922 388.282
L117.062 388.627
L117.344 387.418
L117.485 387.418
L117.767 388.282
L117.907 387.763
L118.048 387.763
L118.33 388.8
L118.471 387.763
L118.752 387.936
L118.893 387.936
L119.034 388.109
L119.456 387.59
L119.597 388.109
L119.738 387.59
L119.879 388.282
L120.02 387.59
L120.161 387.936
L120.301 387.418
L120.442 388.282
L120.583 388.282
L120.865 388.8
L121.005 388.627
L121.146 388.8
L121.287 388.109
L121.428 388.8
L121.569 388.109
L121.71 388.8
L121.85 388.8
L122.273 388.282
L122.695 388.8
L122.977 388.282
L123.259 388.8
L123.399 388.454
L123.54 388.627
L123.822 388.109
L123.963 386.208
L124.244 387.936
L124.385 386.726
L124.667 388.454
L125.089 387.245
L125.23 388.109
L125.371 388.282
L125.512 387.245
L125.652 387.59
L125.793 388.8
L125.934 388.109
L126.216 388.627
L126.357 387.763
L126.638 388.282
L126.779 387.936
L127.061 386.035
L127.202 387.245
L127.342 387.245
L127.483 386.726
L127.765 388.282
L127.906 388.109
L128.046 387.418
L128.187 388.454
L128.328 388.454
L128.469 388.282
L128.61 387.763
L128.751 387.936
L128.891 388.454
L129.032 388.454
L129.173 387.763
L129.314 388.109
L129.455 387.936
L129.736 388.282
L129.877 388.109
L130.018 387.072
L130.159 386.899
L130.3 388.282
L130.44 387.763
L130.581 388.282
L130.722 387.59
L130.863 387.936
L131.004 387.245
L131.708 387.936
L131.989 387.418
L132.13 386.554
L132.271 388.109
L132.412 386.726
L132.553 387.418
L132.694 386.208
L133.116 387.59
L133.257 386.899
L133.398 387.418
L133.538 386.208
L133.679 388.8
L133.82 388.627
L134.102 385.171
L134.243 384.826
L134.524 387.59
L134.665 385.344
L134.806 385.69
L134.947 386.381
L135.369 386.035
L135.651 387.072
L135.932 384.653
L136.073 385.862
L136.355 385.862
L136.496 385.344
L136.636 384.134
L136.777 386.899
L136.918 384.653
L137.059 384.307
L137.2 386.208
L137.341 386.554
L137.481 385.69
L137.622 386.899
L137.763 385.862
L137.904 369.792
L138.185 384.307
L138.326 386.381
L138.467 386.381
L138.608 386.035
L138.749 384.653
L139.03 385.517
L139.171 384.826
L139.453 386.035
L139.594 385.344
L139.735 383.443
L139.875 384.307
L140.016 382.752
L140.157 384.826
L140.298 384.48
L140.439 386.208
L140.72 384.826
L140.861 384.998
L141.002 384.134
L141.284 387.763
L141.565 386.726
L141.706 386.726
L142.128 382.925
L142.41 387.245
L142.551 386.554
L142.692 384.48
L142.833 385.69
L142.973 384.826
L143.114 386.208
L143.255 385.517
L143.396 386.726
L143.677 385.517
L143.818 386.554
L143.959 386.035
L144.1 386.035
L144.241 386.208
L144.382 387.072
L144.522 386.899
L144.663 386.208
L144.804 383.27
L144.945 383.789
L145.086 382.925
L145.226 385.69
L145.367 383.962
L145.508 387.245
L145.649 385.344
L145.79 386.035
L146.071 382.752
L146.353 385.171
L146.776 382.752
L146.916 383.616
L147.057 383.616
L147.198 386.381
L147.339 386.554
L147.62 382.579
L147.761 382.752
L147.902 383.27
L148.043 380.678
L148.184 384.48
L148.325 385.171
L148.465 383.27
L148.606 383.616
L148.747 382.925
L149.029 383.962
L149.169 382.925
L149.31 383.443
L149.451 384.826
L149.733 383.443
L149.874 383.443
L150.155 382.234
L150.296 384.134
L150.578 381.024
L150.718 379.987
L150.859 380.16
L151 380.851
L151.141 379.296
L151.282 384.826
L151.423 380.851
L151.845 379.642
L151.986 377.05
L152.268 381.542
L152.408 380.678
L152.549 376.531
L152.831 378.605
L153.112 381.542
L153.253 381.37
L153.394 377.222
L153.535 377.568
L153.676 378.605
L153.817 378.605
L153.957 378.432
L154.098 379.296
L154.239 382.752
L154.661 378.432
L154.802 380.506
L154.943 380.506
L155.084 379.123
L155.225 378.95
L155.366 381.542
L155.506 379.123
L155.647 379.469
L155.788 378.605
L155.929 383.616
L156.07 382.752
L156.21 383.27
L156.492 380.678
L156.633 381.197
L156.774 383.616
L156.915 378.778
L157.055 382.061
L157.196 382.579
L157.337 381.542
L157.478 381.542
L157.619 381.37
L158.041 383.789
L158.182 381.888
L158.323 385.344
L158.464 383.789
L158.604 388.8
L158.745 382.925
L158.886 383.962
L159.027 388.8
L159.309 388.8
L159.449 383.616
L159.59 388.8
L159.731 388.8
L159.872 388.454
L160.013 383.616
L160.153 383.098
L160.294 383.443
L160.435 379.814
L160.576 380.506
L160.717 388.8
L160.858 388.8
L160.998 380.851
L161.139 388.8
L161.28 384.48
L161.421 385.517
L161.562 377.395
L161.702 388.8
L162.125 388.8
L162.266 383.443
L162.407 388.8
L163.251 388.8
L163.392 376.704
L163.533 377.05
L163.815 374.285
L163.956 379.123
L164.237 381.197
L164.378 372.902
L164.519 388.8
L164.66 375.322
L164.801 377.05
L164.941 388.8
L165.223 370.138
L165.364 377.05
L165.505 373.248
L165.645 374.112
L165.786 373.075
L165.927 374.803
L166.068 378.086
L166.209 376.013
L166.35 376.358
L166.49 374.112
L166.631 374.112
L166.772 371.347
L166.913 376.531
L167.054 373.939
L167.194 375.84
L167.335 388.8
L168.18 388.8
L168.462 367.718
L168.603 369.101
L168.743 372.902
L168.884 346.81
L169.025 376.704
L169.307 370.138
L169.448 371.174
L169.588 368.41
L169.729 373.248
L169.87 388.8
L170.152 375.494
L170.292 374.803
L170.433 373.075
L170.574 373.248
L170.715 370.656
L171.137 376.013
L171.278 371.174
L171.419 388.8
L171.56 388.8
L171.842 316.915
L172.123 374.803
L172.264 368.237
L172.546 353.03
L172.686 355.622
L172.968 376.877
L173.25 370.138
L173.391 350.957
L173.531 354.067
L173.813 364.09
L174.095 371.174
L174.235 370.656
L174.376 366.854
L174.517 367.891
L174.94 373.594
L175.362 365.99
L175.503 369.965
L175.644 360.806
L175.784 373.421
L175.925 359.251
L176.066 371.693
L176.207 367.891
L176.348 367.718
L176.489 366.682
L176.629 370.829
L176.77 371.693
L176.911 373.766
L177.052 373.248
L177.334 367.891
L177.474 369.101
L177.756 373.594
L177.897 374.112
L178.038 372.73
L178.178 368.755
L178.319 368.237
L178.46 368.237
L178.601 368.582
L178.883 375.149
L179.305 367.891
L179.446 372.902
L179.587 368.41
L179.868 373.939
L180.291 368.41
L180.432 369.965
L180.572 373.075
L180.713 371.174
L180.854 373.939
L180.995 374.112
L181.276 364.09
L181.84 378.605
L182.121 371.52
L182.262 371.52
L182.403 372.038
L182.544 369.792
L182.685 374.803
L182.825 373.939
L182.966 377.914
L183.107 371.52
L183.248 371.52
L183.389 376.877
L183.53 367.373
L183.67 372.384
L183.811 373.075
L183.952 375.84
L184.093 370.483
L184.234 375.322
L184.515 368.41
L184.797 379.123
L184.938 369.965
L185.079 368.928
L185.219 370.483
L185.36 361.325
L185.642 377.05
L185.783 375.667
L185.924 376.013
L186.064 372.902
L186.205 364.262
L186.346 371.693
L186.487 368.41
L186.768 375.84
L187.05 369.446
L187.191 371.002
L187.332 370.656
L187.895 376.877
L188.036 367.718
L188.317 374.285
L188.458 372.038
L188.599 372.384
L188.74 376.358
L188.881 374.112
L189.022 366.163
L189.162 367.718
L189.303 371.693
L189.444 368.064
L189.726 377.222
L189.866 374.458
L190.148 364.262
L190.289 368.064
L190.43 362.707
L190.571 365.645
L190.711 373.421
L191.134 362.362
L191.275 364.09
L191.416 367.546
L191.556 365.472
L191.697 371.693
L191.838 372.211
L191.979 365.472
L192.26 363.398
L192.401 367.2
L192.542 366.509
L192.683 369.619
L192.824 367.891
L192.965 359.424
L193.246 358.906
L193.669 369.274
L193.809 369.274
L194.091 357.35
L194.232 361.498
L194.514 362.189
L194.654 369.101
L195.218 359.942
L195.358 362.88
L195.499 363.053
L195.64 367.2
L195.922 361.498
L196.063 358.042
L196.203 358.733
L196.344 354.931
L196.626 368.237
L196.908 355.104
L197.048 356.141
L197.189 353.549
L197.33 362.016
L197.471 361.67
L197.612 365.299
L197.752 365.126
L197.893 356.141
L198.034 359.078
L198.175 359.078
L198.316 361.325
L198.457 360.115
L198.597 368.237
L198.879 354.586
L199.02 356.141
L199.161 351.994
L199.301 360.288
L199.442 359.078
L199.583 365.126
L199.724 364.954
L199.865 353.722
L200.006 357.35
L200.146 349.574
L200.428 360.979
L200.569 365.472
L200.85 353.03
L200.991 353.894
L201.132 358.733
L201.273 356.832
L201.414 366.682
L201.695 361.843
L201.836 351.821
L201.977 353.203
L202.118 352.512
L202.259 354.758
L202.54 367.546
L202.681 363.917
L202.822 356.314
L202.963 356.486
L203.667 364.09
L203.808 356.141
L204.089 359.424
L204.23 363.053
L204.371 362.362
L204.512 365.472
L204.653 363.053
L204.793 357.35
L205.075 358.214
L205.216 361.152
L205.357 360.115
L205.638 368.064
L205.92 355.277
L206.061 361.325
L206.202 360.806
L206.342 362.189
L206.483 367.718
L206.765 357.35
L206.906 362.534
L207.047 361.325
L207.187 361.843
L207.328 368.928
L207.469 370.31
L207.61 368.582
L207.751 368.41
L207.891 361.67
L208.173 380.333
L208.596 366.509
L208.736 363.744
L208.877 358.214
L209.3 370.483
L209.441 360.634
L209.581 363.398
L209.722 355.45
L209.863 355.968
L210.004 359.77
L210.145 360.288
L210.285 357.005
L210.426 365.126
L210.708 352.512
L210.849 355.622
L211.13 353.376
L211.271 355.104
L211.412 364.781
L211.694 354.931
L211.834 354.413
L211.975 356.141
L212.116 353.722
L212.257 354.067
L212.398 361.498
L212.539 360.288
L212.961 350.093
L213.102 352.166
L213.383 364.262
L213.524 362.362
L213.806 351.475
L213.947 351.994
L214.088 351.994
L214.228 355.277
L214.369 361.843
L214.51 361.498
L215.073 347.501
L215.355 365.299
L215.496 363.226
L215.918 351.13
L216.341 362.534
L216.622 352.512
L216.763 351.475
L216.904 355.277
L217.045 355.622
L217.186 359.424
L217.326 367.373
L217.749 346.982
L217.89 349.574
L218.031 346.464
L218.312 359.424
L218.453 354.413
L218.594 355.795
L218.735 352.685
L218.875 353.549
L219.016 358.387
L219.157 351.821
L219.298 364.608
L219.439 361.325
L219.58 351.648
L219.72 357.178
L219.861 351.648
L220.002 351.302
L220.284 364.608
L220.706 355.104
L220.988 356.486
L221.129 365.126
L221.269 363.571
L221.41 363.571
L221.551 356.832
L221.692 359.078
L221.833 359.251
L222.396 367.546
L222.537 358.042
L222.678 359.078
L222.818 354.413
L222.959 357.35
L223.1 362.707
L223.382 359.597
L223.523 358.214
L223.663 359.251
L223.804 355.795
L223.945 359.597
L224.086 367.373
L224.227 363.226
L224.367 363.917
L224.508 360.115
L224.649 363.744
L224.79 359.424
L224.931 359.597
L225.072 364.09
L225.212 362.362
L225.353 365.472
L225.635 358.733
L225.776 360.979
L225.916 368.928
L226.057 366.509
L226.198 368.928
L226.339 383.616
L226.48 367.2
L226.621 367.891
L227.043 354.413
L227.325 363.917
L227.465 352.166
L227.606 357.696
L227.888 354.24
L228.31 370.138
L228.592 354.931
L228.874 362.534
L229.015 364.435
L229.155 368.582
L229.296 368.237
L229.437 362.362
L229.859 365.818
L230 364.09
L230.282 369.619
L230.564 368.237
L230.704 361.67
L231.127 373.248
L231.268 370.138
L231.549 361.152
L231.69 367.027
L231.831 363.744
L232.113 373.766
L232.253 370.656
L232.394 362.016
L232.535 364.09
L232.676 361.843
L232.817 363.053
L232.957 367.373
L233.098 365.472
L233.239 359.251
L233.521 358.214
L233.662 360.461
L233.802 367.027
L233.943 360.806
L234.084 367.546
L234.225 366.509
L234.506 356.314
L234.647 344.218
L234.929 366.163
L235.07 368.41
L235.211 368.41
L235.492 359.424
L235.633 357.35
L235.774 358.214
L235.915 358.214
L236.196 360.461
L236.619 343.526
L237.041 360.979
L237.464 349.574
L237.605 352.858
L237.745 388.282
L238.027 388.282
L238.168 388.627
L238.309 388.627
L238.449 377.05
L238.59 348.883
L238.731 344.736
L238.872 359.424
L239.013 355.968
L239.154 338.17
L239.294 350.957
L239.435 344.218
L239.576 342.835
L239.717 248.659
L239.858 354.586
L239.998 356.141
L240.139 356.314
L240.421 335.923
L240.562 342.835
L240.703 342.835
L240.843 358.042
L240.984 352.685
L241.125 356.832
L241.266 348.883
L241.407 334.368
L241.548 336.614
L241.688 331.43
L241.97 342.317
L242.111 341.107
L242.252 329.702
L242.533 325.382
L242.815 341.453
L243.097 337.651
L243.237 327.283
L243.378 345.427
L243.519 328.838
L243.66 331.603
L243.941 347.501
L244.223 330.048
L244.364 326.765
L244.505 326.592
L244.646 328.493
L244.927 345.6
L245.209 334.195
L245.35 327.11
L245.49 333.158
L245.772 356.486
L245.913 350.784
L246.054 356.486
L246.195 344.218
L246.335 345.254
L246.476 342.662
L246.758 351.994
L246.899 355.622
L247.18 345.946
L247.321 349.056
L247.462 348.71
L247.744 358.56
L247.884 359.251
L248.166 346.118
L248.307 348.71
L248.448 346.118
L248.589 348.71
L248.87 357.178
L249.011 355.795
L249.293 346.291
L249.433 351.994
L249.574 349.056
L249.715 356.314
L249.856 357.523
L249.997 353.03
L250.138 357.523
L250.419 347.328
L250.56 343.872
L250.842 349.574
L250.982 345.254
L251.123 345.946
L251.405 342.662
L251.687 355.104
L252.391 343.699
L252.531 345.6
L252.672 350.611
L252.813 351.648
L252.954 349.747
L253.095 345.427
L253.236 348.71
L253.376 346.464
L253.517 347.846
L253.658 346.81
L253.94 341.971
L254.081 341.107
L254.221 343.354
L254.362 343.181
L254.503 342.317
L254.644 351.13
L254.785 348.538
L254.925 349.747
L255.207 338.861
L255.489 346.982
L255.63 346.81
L255.77 349.574
L255.911 336.96
L256.052 341.28
L256.193 339.034
L256.474 343.181
L256.756 345.082
L256.897 336.096
L257.038 338.515
L257.179 337.651
L257.319 341.107
L257.601 334.022
L257.742 342.662
L257.883 342.317
L258.023 340.589
L258.164 336.614
L258.305 339.034
L258.446 337.306
L258.587 324
L258.728 327.283
L259.009 310.349
L259.291 322.79
L259.572 326.074
L259.854 197.683
L260.558 299.462
L260.699 307.066
L260.981 291.514
L261.122 293.76
L261.262 293.069
L261.403 305.51
L261.544 307.411
L261.826 291.514
L261.966 294.278
L262.107 293.242
L262.248 291.341
L262.671 308.102
L263.093 294.624
L263.234 292.032
L263.375 305.51
L263.515 305.51
L263.656 308.621
L263.797 325.382
L264.22 301.882
L264.36 303.437
L264.501 311.731
L264.642 312.595
L264.924 307.411
L265.064 297.734
L265.205 303.955
L265.487 299.981
L265.628 312.077
L265.769 310.694
L266.05 300.326
L266.191 303.61
L266.332 297.907
L266.614 312.25
L266.754 308.448
L266.895 290.304
L267.036 291.341
L267.177 297.734
L267.318 294.97
L267.458 261.965
L267.599 309.139
L267.74 297.389
L267.881 242.438
L268.022 291.686
L268.303 43.2
L268.585 256.954
L268.726 257.99
L268.867 257.126
L269.007 269.05
L269.148 268.877
L269.289 290.477
L269.43 274.752
L269.571 294.797
L269.712 291.859
L269.852 274.406
L269.993 298.944
L270.134 264.038
L270.275 292.896
L270.416 290.304
L270.556 302.573
L270.697 300.845
L270.838 292.896
L270.979 293.587
L271.12 281.146
L271.261 280.282
L271.542 331.776
L271.683 293.069
L271.824 295.315
L272.105 277.517
L272.246 301.363
L272.387 295.834
L272.528 306.547
L272.81 291.686
L272.95 305.338
L273.091 299.808
L273.232 301.536
L273.514 319.507
L273.655 305.856
L273.795 311.904
L273.936 292.378
L274.077 300.672
L274.218 300.845
L274.359 306.029
L274.499 317.606
L274.64 316.224
L274.781 301.19
L275.063 313.805
L275.204 318.816
L275.344 309.658
L275.626 320.198
L275.767 312.768
L275.908 313.114
L276.048 310.349
L276.33 325.728
L276.471 323.827
L276.612 349.229
L276.893 304.992
L277.034 307.411
L277.175 315.014
L277.316 331.776
L277.457 328.147
L277.597 317.952
L277.738 319.507
L277.879 311.386
L278.02 317.434
L278.161 313.632
L278.302 325.21
L278.442 322.272
L278.583 313.805
L278.724 285.12
L278.865 289.958
L279.287 312.25
L279.428 318.125
L279.569 316.397
L279.851 330.394
L279.991 311.731
L280.273 327.283
L280.555 290.304
L280.696 320.89
L280.836 313.978
L280.977 316.57
L281.118 316.742
L281.259 315.014
L281.4 326.938
L281.54 326.592
L281.681 308.275
L281.963 315.36
L282.104 317.261
L282.385 327.974
L282.667 320.371
L282.808 308.102
L282.949 314.496
L283.089 351.821
L283.371 326.592
L283.512 326.592
L283.794 388.8
L283.934 321.408
L284.075 329.702
L284.216 319.162
L284.357 339.379
L284.638 321.062
L285.061 328.838
L285.202 317.261
L285.343 340.934
L285.483 329.702
L285.765 327.283
L285.906 334.368
L286.047 326.765
L286.188 331.085
L286.328 329.184
L286.469 332.813
L286.892 321.408
L287.032 329.702
L287.173 330.912
L287.314 341.107
L287.455 334.886
L287.596 334.541
L287.737 327.11
L287.877 339.206
L288.018 332.986
L288.159 341.798
L288.3 339.379
L288.441 339.725
L288.581 333.677
L288.722 321.926
L289.004 331.949
L289.145 331.085
L289.426 343.526
L289.567 332.467
L289.99 338.861
L290.13 336.787
L290.271 340.243
L290.412 338.861
L290.553 297.216
L290.694 303.61
L290.835 328.493
L290.975 328.666
L291.116 335.059
L291.257 332.986
L291.539 335.578
L291.679 329.702
L291.82 282.874
L291.961 324.346
L292.243 333.158
L292.384 333.677
L292.665 324.864
L292.947 333.331
L293.088 337.306
L293.229 344.563
L293.369 340.243
L293.651 324
L293.933 317.779
L294.073 330.566
L294.214 331.085
L294.355 327.456
L294.496 328.32
L294.918 321.754
L295.059 322.099
L295.2 334.022
L295.341 331.776
L295.482 326.765
L295.622 327.456
L295.904 322.79
L296.045 326.246
L296.186 334.541
L296.327 326.938
L296.467 330.221
L296.608 329.184
L296.749 330.221
L297.031 338.515
L297.171 329.53
L297.312 329.702
L297.453 325.555
L297.594 332.467
L297.735 328.147
L298.016 330.912
L298.157 329.011
L298.298 331.776
L298.439 331.776
L298.58 333.158
L298.721 321.581
L298.861 323.654
L299.143 336.096
L299.284 337.824
L299.565 322.272
L299.847 332.122
L299.988 353.376
L300.27 328.838
L300.41 323.827
L300.551 328.32
L300.833 343.872
L300.974 340.589
L301.114 341.107
L301.255 339.898
L301.396 334.886
L301.678 333.85
L301.819 332.813
L301.959 344.909
L302.1 346.637
L302.241 342.662
L302.382 330.394
L302.523 330.394
L302.663 331.776
L302.804 327.11
L303.086 341.798
L303.227 339.725
L303.368 332.986
L303.649 338.515
L303.79 337.478
L303.931 334.368
L304.072 337.824
L304.212 335.75
L304.353 331.43
L304.494 333.504
L304.635 328.666
L304.776 332.64
L304.917 344.218
L305.057 340.934
L305.339 324
L305.48 329.702
L305.621 326.419
L305.762 334.886
L305.902 326.246
L306.184 335.059
L306.325 321.926
L306.466 335.75
L306.606 329.357
L306.747 340.416
L306.888 336.787
L307.029 326.246
L307.17 366.854
L307.311 305.683
L307.592 327.11
L307.733 318.643
L307.874 332.122
L308.015 331.43
L308.155 323.136
L308.296 328.32
L308.437 321.408
L308.578 322.272
L308.719 328.838
L308.86 328.838
L309 329.702
L309.282 316.051
L309.423 322.963
L309.704 312.077
L309.845 326.765
L309.986 324.518
L310.127 327.456
L310.409 316.915
L310.549 325.382
L310.69 325.728
L310.831 327.11
L310.972 329.875
L311.254 214.79
L311.394 212.717
L311.676 275.443
L312.098 310.349
L312.239 279.936
L312.38 284.947
L312.662 301.882
L312.943 304.646
L313.084 301.536
L313.225 305.856
L313.366 305.338
L313.507 297.216
L313.647 311.386
L313.788 308.102
L313.929 310.349
L314.07 316.397
L314.211 304.992
L314.492 310.349
L314.633 307.066
L315.056 322.79
L315.196 306.72
L315.337 312.768
L315.478 313.978
L315.619 307.238
L315.76 318.47
L315.901 296.87
L316.323 310.522
L316.464 307.238
L316.605 307.411
L316.886 327.629
L317.027 323.309
L317.309 307.411
L317.45 308.275
L317.872 321.062
L318.013 311.558
L318.154 277.69
L318.295 91.0656
L318.435 286.33
L318.717 317.088
L318.858 309.312
L318.999 310.176
L319.139 313.459
L319.28 305.856
L319.421 304.646
L319.703 316.742
L319.844 315.706
L319.984 303.61
L320.125 305.51
L320.266 310.694
L320.407 305.165
L320.548 325.728
L320.688 316.224
L320.829 315.706
L321.111 309.485
L321.252 312.422
L321.393 318.125
L321.533 306.374
L321.815 330.739
L322.097 310.349
L322.519 323.309
L322.801 322.963
L322.942 308.448
L323.223 313.805
L323.364 317.261
L323.505 335.405
L323.646 326.938
L323.786 332.294
L323.927 328.493
L324.068 314.323
L324.631 327.974
L324.772 334.368
L325.054 316.397
L325.195 317.261
L325.476 330.394
L325.617 331.43
L325.758 334.886
L325.899 335.405
L326.18 322.445
L326.321 326.074
L326.462 326.765
L326.885 312.768
L327.025 313.632
L327.307 326.592
L327.448 325.382
L327.729 338.515
L327.87 322.272
L328.011 322.445
L328.152 325.901
L328.293 323.482
L328.434 318.298
L328.574 334.541
L328.715 331.776
L328.997 317.261
L329.138 315.014
L329.278 322.099
L329.419 323.136
L329.56 326.074
L329.701 335.923
L329.983 324.691
L330.264 314.669
L330.546 334.195
L330.687 329.184
L330.828 328.493
L330.968 316.57
L331.109 327.974
L331.25 323.482
L331.391 333.85
L331.532 333.331
L331.672 339.898
L331.954 324
L332.095 324.518
L332.236 321.408
L332.377 328.838
L332.517 328.838
L332.799 331.085
L333.081 317.952
L333.221 321.235
L333.503 333.504
L333.644 329.184
L333.785 335.059
L334.066 320.198
L334.207 332.294
L334.348 328.838
L334.63 343.181
L334.77 342.49
L334.911 329.011
L335.052 328.493
L335.615 337.133
L335.756 328.666
L335.897 338.515
L336.038 311.386
L336.319 335.578
L336.46 339.034
L336.883 319.334
L337.305 332.122
L337.446 344.563
L337.587 344.218
L337.728 354.067
L338.009 325.382
L338.15 333.504
L338.432 325.728
L338.573 335.923
L338.995 322.963
L339.136 331.085
L339.277 321.062
L339.418 333.85
L339.84 321.581
L339.981 325.382
L340.403 311.904
L340.544 329.357
L340.685 323.309
L340.826 322.445
L340.967 319.853
L341.107 331.603
L341.248 323.309
L341.53 337.478
L341.671 327.283
L341.811 326.592
L341.952 327.974
L342.093 327.974
L342.234 317.952
L342.516 339.379
L342.656 326.419
L342.797 326.419
L342.938 319.853
L343.079 322.618
L343.22 310.694
L343.361 314.842
L343.501 331.776
L343.783 310.003
L343.924 282.701
L344.065 283.738
L344.346 327.283
L344.487 330.912
L344.769 310.867
L344.91 310.349
L345.05 307.584
L345.191 318.125
L345.332 313.459
L345.473 327.456
L345.754 304.819
L345.895 311.386
L346.036 311.558
L346.318 327.283
L346.459 326.246
L346.599 318.989
L346.74 303.955
L346.881 308.794
L347.022 308.102
L347.163 310.694
L347.303 341.107
L347.444 308.621
L347.585 314.323
L347.726 308.275
L347.867 313.459
L348.008 302.918
L348.43 318.643
L348.571 321.754
L348.852 301.709
L348.993 307.411
L349.134 299.981
L349.275 325.728
L349.416 319.507
L349.557 307.411
L349.838 304.992
L349.979 296.698
L350.402 317.779
L350.683 298.598
L350.824 301.018
L350.965 298.598
L351.246 313.459
L351.387 313.114
L351.528 311.731
L351.669 296.352
L351.81 295.834
L351.951 164.16
L352.091 185.414
L352.232 291.341
L352.373 300.499
L352.795 286.157
L352.936 298.253
L353.077 300.154
L353.359 310.176
L353.64 295.315
L353.922 299.635
L354.063 302.054
L354.204 323.482
L354.767 292.55
L355.049 316.915
L355.189 306.893
L355.33 306.202
L355.471 308.102
L355.753 287.712
L355.894 298.426
L356.034 291.859
L356.175 308.621
L356.316 311.904
L356.598 293.069
L356.738 294.797
L357.302 309.658
L357.443 300.845
L357.583 302.054
L357.724 305.338
L357.865 305.51
L358.006 312.25
L358.147 309.83
L358.287 194.227
L358.428 283.738
L358.569 43.2
L358.71 294.451
L358.992 301.018
L359.132 321.408
L359.273 315.014
L359.414 302.227
L359.696 305.338
L359.836 299.462
L359.977 302.227
L360.259 320.026
L360.541 307.238
L360.681 302.746
L360.822 314.669
L360.963 306.202
L361.104 321.062
L361.245 322.445
L361.385 312.595
L361.526 322.099
L361.667 309.485
L361.949 316.224
L362.09 313.114
L362.23 320.198
L362.371 315.878
L362.512 315.187
L362.794 250.042
L363.075 288.058
L363.216 287.885
L363.357 277.517
L363.498 296.006
L363.639 294.797
L363.92 281.491
L364.061 289.44
L364.202 290.131
L364.343 288.749
L364.484 285.984
L364.624 273.024
L364.765 276.307
L365.188 299.808
L365.328 249.005
L365.469 245.03
L365.61 247.795
L366.033 286.848
L366.173 295.661
L366.455 276.998
L366.737 293.933
L366.877 291.341
L367.018 298.08
L367.159 297.389
L367.441 273.715
L367.582 286.675
L367.722 284.429
L368.004 297.216
L368.145 315.533
L368.426 295.315
L368.567 296.179
L368.708 293.069
L368.849 298.598
L368.99 291.514
L369.131 265.248
L369.271 267.494
L369.412 246.067
L369.553 117.85
L369.694 251.942
L369.835 247.277
L369.976 262.31
L370.116 339.552
L370.257 198.72
L370.398 231.379
L370.539 229.133
L370.68 254.189
L370.82 257.472
L371.102 274.579
L371.384 258.163
L371.525 259.2
L371.665 251.597
L371.947 281.664
L372.088 280.109
L372.229 296.179
L372.51 263.347
L372.651 271.123
L372.792 269.222
L372.933 270.95
L373.074 305.683
L373.214 311.904
L373.355 239.155
L373.637 260.237
L374.059 287.194
L374.341 259.2
L374.482 253.843
L374.623 253.67
L374.763 260.064
L375.045 286.33
L375.327 259.718
L375.608 267.84
L376.031 286.157
L376.172 282.874
L376.312 256.781
L376.453 254.016
L376.594 259.891
L376.735 256.954
L377.017 283.91
L377.298 253.325
L377.721 258.163
L378.002 290.995
L378.284 264.557
L378.425 303.091
L378.566 274.061
L378.706 285.811
L378.847 281.491
L378.988 301.882
L379.27 257.299
L379.41 243.821
L379.551 263.347
L379.692 263.002
L379.974 289.958
L380.255 260.755
L380.396 279.418
L380.537 276.48
L380.678 270.086
L380.819 291.168
L381.241 261.619
L381.382 267.322
L381.523 267.322
L381.804 288.576
L381.945 292.205
L382.227 264.211
L382.79 286.502
L382.931 300.154
L383.213 279.245
L383.353 293.414
L383.494 278.381
L383.776 306.547
L383.917 302.746
L384.058 304.646
L384.339 290.477
L384.48 293.933
L384.762 308.794
L384.902 321.408
L385.043 304.474
L385.184 304.301
L385.325 303.61
L385.466 309.312
L385.607 305.338
L385.747 304.646
L385.888 311.904
L386.029 307.757
L386.17 299.635
L386.311 299.117
L386.451 305.338
L386.733 301.19
L387.015 319.853
L387.437 294.106
L387.578 297.216
L387.719 305.165
L387.86 323.136
L388.001 319.853
L388.141 305.856
L388.282 303.955
L388.423 304.301
L388.564 322.618
L388.845 311.386
L389.127 310.694
L389.268 300.845
L389.69 320.89
L389.972 299.808
L390.113 297.216
L390.394 308.275
L390.535 303.61
L390.817 313.632
L390.958 314.496
L391.099 297.734
L391.239 303.61
L391.38 304.301
L391.521 310.867
L391.662 308.794
L391.803 313.632
L392.084 299.981
L392.225 312.595
L392.366 298.944
L392.648 313.114
L392.788 308.621
L392.929 309.485
L393.07 300.326
L393.211 307.93
L393.352 297.389
L393.633 317.261
L393.774 308.275
L393.915 311.731
L394.197 300.326
L394.478 309.485
L394.619 306.202
L394.901 309.312
L395.182 300.672
L395.323 309.139
L395.464 308.275
L395.605 303.437
L395.746 303.091
L395.886 315.36
L396.027 314.496
L396.168 289.44
L396.309 297.216
L396.45 296.179
L396.591 304.301
L397.013 290.477
L397.154 287.366
L397.435 291.686
L397.576 310.522
L397.717 311.386
L397.999 294.451
L398.14 293.933
L398.28 297.734
L398.421 292.723
L398.703 308.275
L399.125 285.984
L399.266 303.264
L399.407 303.61
L399.689 315.187
L399.829 289.958
L399.97 299.117
L400.111 290.995
L400.393 329.011
L400.534 299.981
L400.674 315.014
L400.815 299.635
L400.956 299.117
L401.097 287.539
L401.238 290.822
L401.519 309.485
L401.801 291.514
L401.942 296.179
L402.083 296.006
L402.223 305.338
L402.364 301.363
L402.505 305.683
L402.646 313.632
L402.927 292.378
L403.068 300.845
L403.209 288.403
L403.35 286.33
L403.491 306.893
L403.632 309.312
L403.772 308.275
L403.913 288.058
L404.054 283.91
L404.617 312.077
L404.758 303.955
L404.899 287.712
L405.04 288.576
L405.181 255.398
L405.321 255.053
L405.462 265.421
L405.885 232.243
L406.025 239.674
L406.166 238.291
L406.448 272.851
L406.589 268.013
L406.87 232.243
L407.011 233.453
L407.152 301.536
L407.293 243.648
L407.434 261.619
L407.575 258.509
L407.856 228.269
L407.997 228.614
L408.56 269.05
L408.842 227.405
L408.983 244.339
L409.124 239.328
L409.405 267.667
L409.546 266.63
L409.687 262.31
L409.828 250.733
L409.968 248.832
L410.391 269.914
L410.673 246.586
L410.813 235.872
L410.954 241.92
L411.095 271.296
L411.236 255.053
L411.517 274.234
L411.658 252.288
L411.94 246.24
L412.081 251.597
L412.222 261.619
L412.362 282.01
L412.644 265.248
L412.785 163.123
L413.348 283.91
L413.489 264.557
L413.911 283.046
L414.334 217.382
L414.475 226.368
L414.616 223.603
L414.756 229.997
L414.897 262.483
L415.038 257.99
L415.179 202.694
L415.46 235.354
L415.601 218.592
L415.883 222.566
L416.024 235.699
L416.165 234.835
L416.305 237.427
L416.446 253.67
L416.728 225.677
L416.869 234.835
L417.009 227.405
L417.15 236.218
L417.432 258.854
L417.714 222.739
L417.854 231.898
L418.136 216.691
L418.277 245.549
L418.418 247.622
L418.699 221.011
L418.84 229.824
L418.981 223.949
L419.263 255.226
L419.403 244.685
L419.544 218.592
L419.685 231.379
L419.826 220.838
L419.967 222.048
L420.108 231.206
L420.248 249.005
L420.389 241.747
L420.671 221.875
L420.812 219.456
L421.234 262.31
L421.375 266.458
L421.516 264.038
L421.797 213.235
L422.079 239.501
L422.22 242.093
L422.361 266.285
L422.501 257.126
L422.642 275.616
L422.783 214.79
L422.924 233.626
L423.065 228.269
L423.346 252.634
L423.487 229.824
L423.628 230.688
L423.769 224.986
L423.91 236.563
L424.05 236.563
L424.332 269.05
L424.473 279.418
L424.614 267.667
L424.895 235.872
L425.036 43.2
L425.318 251.597
L425.599 222.739
L425.74 226.714
L425.881 244.512
L426.022 242.611
L426.304 279.245
L426.585 221.53
L426.726 251.424
L426.867 235.526
L427.008 240.71
L427.149 261.101
L427.289 258.509
L427.712 223.43
L427.853 187.661
L428.134 238.982
L428.275 255.226
L428.557 229.306
L428.698 229.651
L428.979 248.141
L429.12 252.288
L429.261 267.149
L429.402 250.906
L429.542 261.101
L429.683 249.178
L429.824 255.053
L429.965 256.09
L430.106 273.024
L430.247 263.693
L430.387 267.667
L430.669 237.427
L430.81 251.77
L430.951 251.078
L431.091 273.37
L431.232 273.197
L431.514 241.747
L431.655 240.538
L431.796 263.002
L431.936 255.744
L432.077 269.568
L432.218 269.741
L432.359 264.384
L432.641 227.405
L433.063 276.307
L433.204 277.517
L433.345 274.752
L433.485 258.682
L433.626 259.718
L433.767 262.483
L433.908 280.8
L434.049 277.517
L434.19 283.392
L434.612 249.178
L434.753 244.166
L434.894 243.302
L435.175 263.347
L435.316 227.75
L435.457 228.787
L435.598 226.195
L435.739 228.269
L436.02 254.707
L436.161 270.605
L436.302 261.101
L436.443 241.574
L436.583 243.475
L436.865 253.67
L437.147 274.579
L437.569 208.742
L437.71 243.648
L437.851 242.957
L438.132 265.766
L438.555 223.085
L438.837 255.917
L438.977 249.178
L439.259 254.362
L439.4 226.368
L439.541 222.739
L439.682 238.291
L439.822 239.155
L440.104 253.152
L440.245 237.254
L440.667 227.059
L440.949 250.387
L441.09 353.03
L441.231 358.733
L441.512 201.485
L441.653 260.41
L441.935 222.048
L442.075 248.314
L442.216 237.946
L442.357 217.037
L442.639 207.014
L442.92 236.045
L443.202 190.426
L443.484 43.2
L443.765 164.506
L444.047 196.128
L444.188 191.808
L444.329 207.36
L444.469 194.573
L444.61 204.595
L444.751 205.978
L444.892 213.926
L445.033 233.626
L445.174 201.485
L445.314 202.694
L445.455 179.885
L445.596 196.128
L445.737 360.288
L445.878 212.026
L446.018 219.283
L446.159 178.502
L446.441 190.08
L446.723 176.429
L446.863 213.062
L447.004 211.162
L447.286 171.245
L447.427 179.885
L447.708 162.086
L447.99 219.974
L448.272 170.035
L448.553 162.605
L448.976 217.901
L449.116 209.434
L449.398 146.362
L449.821 217.555
L449.961 214.099
L450.243 164.851
L450.384 170.726
L450.525 171.59
L450.665 196.992
L450.806 194.573
L450.947 222.048
L451.088 196.819
L451.229 199.757
L451.51 218.246
L451.792 182.65
L451.933 224.122
L452.215 163.987
L452.496 194.918
L452.637 187.488
L452.778 207.36
L452.919 112.493
L453.2 200.448
L453.341 184.205
L453.904 244.685
L454.186 207.533
L454.327 201.312
L454.468 207.014
L454.608 220.147
L454.749 221.875
L454.89 233.453
L455.172 187.661
L455.453 201.312
L455.735 216.691
L455.876 243.821
L456.298 203.558
L456.439 203.904
L456.58 220.666
L456.721 220.666
L456.862 249.696
L457.284 185.933
L457.706 266.976
L457.847 264.902
L457.988 219.456
L458.129 262.138
L458.27 194.918
L458.411 219.11
L458.551 221.011
L458.833 268.358
L458.974 244.512
L459.115 147.226
L459.256 186.624
L459.396 138.413
L459.537 208.051
L459.678 167.443
L459.819 255.398
L460.1 219.974
L460.382 230.861
L460.664 274.579
L460.805 213.754
L460.945 241.92
L461.086 241.92
L461.227 235.526
L461.509 277.69
L461.649 268.877
L461.79 276.653
L461.931 233.28
L462.072 224.64
L462.213 227.059
L462.354 240.538
L462.635 291.168
L462.776 301.882
L463.058 265.075
L463.198 263.693
L463.339 269.222
L463.48 329.53
L463.621 287.194
L463.762 358.906
L464.043 276.826
L464.184 285.12
L464.325 279.59
L464.466 283.392
L464.748 296.179
L464.888 291.514
L465.029 291.686
L465.17 309.139
L465.311 308.448
L465.452 323.309
L465.733 286.33
L466.015 282.182
L466.156 288.576
L466.297 309.83
L466.437 294.106
L466.86 222.739
L467.001 214.272
L467.141 231.552
L467.282 225.85
L467.423 211.162
L467.705 247.968
L467.846 235.699
L467.986 283.219
L468.127 229.133
L468.268 259.891
L468.409 245.722
L468.55 290.65
L468.69 267.84
L468.831 268.531
L468.972 259.546
L469.113 237.082
L469.676 281.491
L469.817 254.88
L469.958 251.251
L470.099 256.09
L470.239 243.994
L470.662 292.032
L470.944 255.053
L471.084 254.707
L471.225 257.126
L471.648 288.058
L471.929 256.435
L472.07 267.149
L472.352 263.866
L472.633 305.856
L472.915 259.027
L473.056 254.016
L473.197 263.52
L473.338 255.398
L473.478 272.333
L473.76 266.112
L473.901 246.24
L474.042 242.957
L474.323 248.141
L474.605 279.763
L474.887 251.597
L475.027 249.869
L475.168 263.174
L475.309 258.854
L475.45 282.701
L475.591 281.491
L475.731 283.046
L475.872 257.126
L476.013 258.509
L476.295 285.12
L476.436 269.914
L476.576 275.962
L476.858 252.461
L476.999 254.707
L477.14 254.707
L477.562 287.366
L477.703 278.208
L477.844 253.843
L477.985 256.608
L478.125 256.781
L478.266 254.88
L478.548 289.786
L478.689 277.517
L478.83 251.942
L478.97 258.509
L479.111 288.058
L479.252 277.344
L479.534 293.414
L479.674 285.293
L479.956 263.347
L480.097 262.483
L480.379 273.888
L480.519 289.267
L480.66 232.934
L480.942 267.149
L481.083 259.2
L481.505 285.811
L481.646 276.998
L481.787 259.718
L481.928 262.31
L482.068 272.678
L482.209 273.888
L482.491 289.786
L482.913 267.667
L483.195 274.234
L483.477 298.598
L483.758 268.186
L483.899 279.59
L484.04 268.877
L484.181 269.741
L484.322 293.414
L484.603 295.661
L484.744 266.458
L485.026 288.403
L485.166 287.366
L485.448 297.562
L485.73 264.902
L485.871 282.701
L486.011 279.245
L486.293 292.55
L486.434 296.525
L486.575 293.76
L486.997 274.406
L487.138 285.984
L487.279 317.261
L487.42 319.68
L487.56 318.643
L487.701 303.264
L487.842 303.437
L487.983 304.128
L488.405 323.136
L488.546 314.842
L488.687 298.08
L488.969 314.842
L489.109 311.558
L489.25 319.162
L489.391 319.68
L489.532 322.618
L489.814 297.216
L489.954 309.485
L490.095 311.213
L490.377 321.235
L490.658 306.72
L490.94 298.253
L491.081 312.077
L491.222 314.669
L491.503 325.728
L491.644 308.102
L491.785 312.25
L491.926 283.738
L492.207 311.213
L492.348 322.963
L492.489 322.79
L492.63 303.264
L492.912 312.422
L493.052 309.485
L493.334 320.89
L493.475 321.062
L493.616 305.165
L493.756 320.198
L493.897 309.83
L494.038 312.595
L494.179 330.739
L494.32 327.283
L494.461 329.011
L494.601 316.397
L494.742 318.125
L494.883 326.938
L495.165 321.926
L495.305 325.037
L495.728 305.683
L495.869 317.261
L496.01 308.275
L496.432 330.394
L496.714 313.632
L496.855 315.014
L496.995 312.768
L497.277 321.235
L497.699 305.51
L497.84 309.139
L497.981 307.238
L498.263 320.544
L498.404 315.706
L498.685 296.006
L498.826 299.808
L499.248 318.125
L499.389 311.731
L499.53 293.414
L499.671 290.131
L499.812 302.227
L499.953 300.154
L500.234 312.422
L500.375 302.4
L500.657 276.653
L501.22 310.867
L501.361 303.782
L501.642 275.443
L501.924 289.44
L502.065 311.558
L502.206 314.669
L502.346 308.275
L502.628 285.12
L502.769 296.006
L502.91 292.205
L503.191 313.114
L503.473 282.701
L503.614 297.734
L503.755 298.426
L503.896 302.573
L504.177 319.334
L504.6 290.131
L504.881 278.899
L505.022 279.936
L505.163 293.414
L505.445 268.358
L505.585 265.075
L505.726 232.07
L506.008 289.958
L506.149 297.043
L506.289 292.55
L506.571 269.395
L506.712 273.197
L506.853 288.576
L506.994 287.021
L507.134 298.771
L507.275 291.859
L507.416 263.174
L507.557 266.285
L507.979 293.76
L508.12 326.074
L508.402 269.741
L508.543 259.718
L508.683 265.248
L508.824 262.829
L509.106 304.992
L509.388 265.594
L509.669 255.226
L509.81 241.92
L510.092 289.44
L510.232 288.23
L510.373 257.299
L510.514 271.123
L510.655 269.395
L510.796 272.851
L511.077 298.08
L511.5 259.373
L511.641 257.299
L511.781 260.41
L511.922 287.539
L512.063 291.859
L512.486 256.608
L512.626 281.491
L512.767 284.602
L512.908 297.389
L513.049 288.576
L513.33 233.971
L513.471 242.611
L513.753 275.443
L513.894 371.002
L514.035 388.8
L514.316 275.962
L514.598 287.021
L514.739 287.194
L515.02 306.029
L515.161 285.811
L515.584 280.8
L515.724 286.848
L515.865 309.658
L516.006 309.312
L516.147 307.757
L516.288 311.904
L516.429 300.845
L516.851 324.173
L517.273 278.035
L517.555 289.267
L517.696 310.349
L517.837 301.709
L518.118 264.384
L518.259 281.318
L518.4 388.8
L518.4 388.8" style="fill:none;stroke:#0000ff;stroke-linecap:square;"/>
   </g>
   <g id="patch_3">
    <path d="
M72 43.2
L518.4 43.2" style="fill:none;stroke:#000000;stroke-linecap:square;stroke-linejoin:miter;"/>
   </g>
   <g id="patch_4">
    <path d="
M518.4 388.8
L518.4 43.2" style="fill:none;stroke:#000000;stroke-linecap:square;stroke-linejoin:miter;"/>
   </g>
   <g id="patch_5">
    <path d="
M72 388.8
L518.4 388.8" style="fill:none;stroke:#000000;stroke-linecap:square;stroke-linejoin:miter;"/>
   </g>
   <g id="patch_6">
    <path d="
M72 388.8
L72 43.2" style="fill:none;stroke:#000000;stroke-linecap:square;stroke-linejoin:miter;"/>
   </g>
   <g id="matplotlib.axis_1">
    <g id="xtick_1">
     <g id="line2d_2">
      <defs>
       <path d="
M0 0
L0 -4" id="m93b0483c22" style="stroke:#000000;stroke-width:0.5;"/>
      </defs>
      <g>
       <use style="stroke:#000000;stroke-width:0.5;" x="106.360126183" xlink:href="#m93b0483c22" y="388.8"/>
      </g>
     </g>
     <g id="line2d_3">
      <defs>
       <path d="
M0 0
L0 4" id="m741efc42ff" style="stroke:#000000;stroke-width:0.5;"/>
      </defs>
      <g>
       <use style="stroke:#000000;stroke-width:0.5;" x="106.360126183" xlink:href="#m741efc42ff" y="43.2"/>
      </g>
     </g>
     <g id="text_1">
      <!-- 2008 -->
      <defs>
       <path d="
M19.1875 8.29688
L53.6094 8.29688
L53.6094 0
L7.32812 0
L7.32812 8.29688
Q12.9375 14.1094 22.625 23.8906
Q32.3281 33.6875 34.8125 36.5312
Q39.5469 41.8438 41.4219 45.5312
Q43.3125 49.2188 43.3125 52.7812
Q43.3125 58.5938 39.2344 62.25
Q35.1562 65.9219 28.6094 65.9219
Q23.9688 65.9219 18.8125 64.3125
Q13.6719 62.7031 7.8125 59.4219
L7.8125 69.3906
Q13.7656 71.7812 18.9375 73
Q24.125 74.2188 28.4219 74.2188
Q39.75 74.2188 46.4844 68.5469
Q53.2188 62.8906 53.2188 53.4219
Q53.2188 48.9219 51.5312 44.8906
Q49.8594 40.875 45.4062 35.4062
Q44.1875 33.9844 37.6406 27.2188
Q31.1094 20.4531 19.1875 8.29688" id="BitstreamVeraSans-Roman-32"/>
       <path d="
M31.7812 66.4062
Q24.1719 66.4062 20.3281 58.9062
Q16.5 51.4219 16.5 36.375
Q16.5 21.3906 20.3281 13.8906
Q24.1719 6.39062 31.7812 6.39062
Q39.4531 6.39062 43.2812 13.8906
Q47.125 21.3906 47.125 36.375
Q47.125 51.4219 43.2812 58.9062
Q39.4531 66.4062 31.7812 66.4062
M31.7812 74.2188
Q44.0469 74.2188 50.5156 64.5156
Q56.9844 54.8281 56.9844 36.375
Q56.9844 17.9688 50.5156 8.26562
Q44.0469 -1.42188 31.7812 -1.42188
Q19.5312 -1.42188 13.0625 8.26562
Q6.59375 17.9688 6.59375 36.375
Q6.59375 54.8281 13.0625 64.5156
Q19.5312 74.2188 31.7812 74.2188" id="BitstreamVeraSans-Roman-30"/>
       <path d="
M31.7812 34.625
Q24.75 34.625 20.7188 30.8594
Q16.7031 27.0938 16.7031 20.5156
Q16.7031 13.9219 20.7188 10.1562
Q24.75 6.39062 31.7812 6.39062
Q38.8125 6.39062 42.8594 10.1719
Q46.9219 13.9688 46.9219 20.5156
Q46.9219 27.0938 42.8906 30.8594
Q38.875 34.625 31.7812 34.625
M21.9219 38.8125
Q15.5781 40.375 12.0312 44.7188
Q8.5 49.0781 8.5 55.3281
Q8.5 64.0625 14.7188 69.1406
Q20.9531 74.2188 31.7812 74.2188
Q42.6719 74.2188 48.875 69.1406
Q55.0781 64.0625 55.0781 55.3281
Q55.0781 49.0781 51.5312 44.7188
Q48 40.375 41.7031 38.8125
Q48.8281 37.1562 52.7969 32.3125
Q56.7812 27.4844 56.7812 20.5156
Q56.7812 9.90625 50.3125 4.23438
Q43.8438 -1.42188 31.7812 -1.42188
Q19.7344 -1.42188 13.25 4.23438
Q6.78125 9.90625 6.78125 20.5156
Q6.78125 27.4844 10.7812 32.3125
Q14.7969 37.1562 21.9219 38.8125
M18.3125 54.3906
Q18.3125 48.7344 21.8438 45.5625
Q25.3906 42.3906 31.7812 42.3906
Q38.1406 42.3906 41.7188 45.5625
Q45.3125 48.7344 45.3125 54.3906
Q45.3125 60.0625 41.7188 63.2344
Q38.1406 66.4062 31.7812 66.4062
Q25.3906 66.4062 21.8438 63.2344
Q18.3125 60.0625 18.3125 54.3906" id="BitstreamVeraSans-Roman-38"/>
      </defs>
      <g transform="translate(91.940438683 401.918125)scale(0.12 -0.12)">
       <use xlink:href="#BitstreamVeraSans-Roman-32"/>
       <use x="63.623046875" xlink:href="#BitstreamVeraSans-Roman-30"/>
       <use x="127.24609375" xlink:href="#BitstreamVeraSans-Roman-30"/>
       <use x="190.869140625" xlink:href="#BitstreamVeraSans-Roman-38"/>
      </g>
     </g>
    </g>
    <g id="xtick_2">
     <g id="line2d_4">
      <g>
       <use style="stroke:#000000;stroke-width:0.5;" x="157.900315457" xlink:href="#m93b0483c22" y="388.8"/>
      </g>
     </g>
     <g id="line2d_5">
      <g>
       <use style="stroke:#000000;stroke-width:0.5;" x="157.900315457" xlink:href="#m741efc42ff" y="43.2"/>
      </g>
     </g>
     <g id="text_2">
      <!-- 2009 -->
      <defs>
       <path d="
M10.9844 1.51562
L10.9844 10.5
Q14.7031 8.73438 18.5 7.8125
Q22.3125 6.89062 25.9844 6.89062
Q35.75 6.89062 40.8906 13.4531
Q46.0469 20.0156 46.7812 33.4062
Q43.9531 29.2031 39.5938 26.9531
Q35.25 24.7031 29.9844 24.7031
Q19.0469 24.7031 12.6719 31.3125
Q6.29688 37.9375 6.29688 49.4219
Q6.29688 60.6406 12.9375 67.4219
Q19.5781 74.2188 30.6094 74.2188
Q43.2656 74.2188 49.9219 64.5156
Q56.5938 54.8281 56.5938 36.375
Q56.5938 19.1406 48.4062 8.85938
Q40.2344 -1.42188 26.4219 -1.42188
Q22.7031 -1.42188 18.8906 -0.6875
Q15.0938 0.046875 10.9844 1.51562
M30.6094 32.4219
Q37.25 32.4219 41.125 36.9531
Q45.0156 41.5 45.0156 49.4219
Q45.0156 57.2812 41.125 61.8438
Q37.25 66.4062 30.6094 66.4062
Q23.9688 66.4062 20.0938 61.8438
Q16.2188 57.2812 16.2188 49.4219
Q16.2188 41.5 20.0938 36.9531
Q23.9688 32.4219 30.6094 32.4219" id="BitstreamVeraSans-Roman-39"/>
      </defs>
      <g transform="translate(143.491877957 401.918125)scale(0.12 -0.12)">
       <use xlink:href="#BitstreamVeraSans-Roman-32"/>
       <use x="63.623046875" xlink:href="#BitstreamVeraSans-Roman-30"/>
       <use x="127.24609375" xlink:href="#BitstreamVeraSans-Roman-30"/>
       <use x="190.869140625" xlink:href="#BitstreamVeraSans-Roman-39"/>
      </g>
     </g>
    </g>
    <g id="xtick_3">
     <g id="line2d_6">
      <g>
       <use style="stroke:#000000;stroke-width:0.5;" x="209.299684543" xlink:href="#m93b0483c22" y="388.8"/>
      </g>
     </g>
     <g id="line2d_7">
      <g>
       <use style="stroke:#000000;stroke-width:0.5;" x="209.299684543" xlink:href="#m741efc42ff" y="43.2"/>
      </g>
     </g>
     <g id="text_3">
      <!-- 2010 -->
      <defs>
       <path d="
M12.4062 8.29688
L28.5156 8.29688
L28.5156 63.9219
L10.9844 60.4062
L10.9844 69.3906
L28.4219 72.9062
L38.2812 72.9062
L38.2812 8.29688
L54.3906 8.29688
L54.3906 0
L12.4062 0
z
" id="BitstreamVeraSans-Roman-31"/>
      </defs>
      <g transform="translate(194.867809543 401.918125)scale(0.12 -0.12)">
       <use xlink:href="#BitstreamVeraSans-Roman-32"/>
       <use x="63.623046875" xlink:href="#BitstreamVeraSans-Roman-30"/>
       <use x="127.24609375" xlink:href="#BitstreamVeraSans-Roman-31"/>
       <use x="190.869140625" xlink:href="#BitstreamVeraSans-Roman-30"/>
      </g>
     </g>
    </g>
    <g id="xtick_4">
     <g id="line2d_8">
      <g>
       <use style="stroke:#000000;stroke-width:0.5;" x="260.699053628" xlink:href="#m93b0483c22" y="388.8"/>
      </g>
     </g>
     <g id="line2d_9">
      <g>
       <use style="stroke:#000000;stroke-width:0.5;" x="260.699053628" xlink:href="#m741efc42ff" y="43.2"/>
      </g>
     </g>
     <g id="text_4">
      <!-- 2011 -->
      <g transform="translate(246.422803628 401.918125)scale(0.12 -0.12)">
       <use xlink:href="#BitstreamVeraSans-Roman-32"/>
       <use x="63.623046875" xlink:href="#BitstreamVeraSans-Roman-30"/>
       <use x="127.24609375" xlink:href="#BitstreamVeraSans-Roman-31"/>
       <use x="190.869140625" xlink:href="#BitstreamVeraSans-Roman-31"/>
      </g>
     </g>
    </g>
    <g id="xtick_5">
     <g id="line2d_10">
      <g>
       <use style="stroke:#000000;stroke-width:0.5;" x="312.098422713" xlink:href="#m93b0483c22" y="388.8"/>
      </g>
     </g>
     <g id="line2d_11">
      <g>
       <use style="stroke:#000000;stroke-width:0.5;" x="312.098422713" xlink:href="#m741efc42ff" y="43.2"/>
      </g>
     </g>
     <g id="text_5">
      <!-- 2012 -->
      <g transform="translate(297.869047713 401.918125)scale(0.12 -0.12)">
       <use xlink:href="#BitstreamVeraSans-Roman-32"/>
       <use x="63.623046875" xlink:href="#BitstreamVeraSans-Roman-30"/>
       <use x="127.24609375" xlink:href="#BitstreamVeraSans-Roman-31"/>
       <use x="190.869140625" xlink:href="#BitstreamVeraSans-Roman-32"/>
      </g>
     </g>
    </g>
    <g id="xtick_6">
     <g id="line2d_12">
      <g>
       <use style="stroke:#000000;stroke-width:0.5;" x="363.638611987" xlink:href="#m93b0483c22" y="388.8"/>
      </g>
     </g>
     <g id="line2d_13">
      <g>
       <use style="stroke:#000000;stroke-width:0.5;" x="363.638611987" xlink:href="#m741efc42ff" y="43.2"/>
      </g>
     </g>
     <g id="text_6">
      <!-- 2013 -->
      <defs>
       <path d="
M40.5781 39.3125
Q47.6562 37.7969 51.625 33
Q55.6094 28.2188 55.6094 21.1875
Q55.6094 10.4062 48.1875 4.48438
Q40.7656 -1.42188 27.0938 -1.42188
Q22.5156 -1.42188 17.6562 -0.515625
Q12.7969 0.390625 7.625 2.20312
L7.625 11.7188
Q11.7188 9.32812 16.5938 8.10938
Q21.4844 6.89062 26.8125 6.89062
Q36.0781 6.89062 40.9375 10.5469
Q45.7969 14.2031 45.7969 21.1875
Q45.7969 27.6406 41.2812 31.2656
Q36.7656 34.9062 28.7188 34.9062
L20.2188 34.9062
L20.2188 43.0156
L29.1094 43.0156
Q36.375 43.0156 40.2344 45.9219
Q44.0938 48.8281 44.0938 54.2969
Q44.0938 59.9062 40.1094 62.9062
Q36.1406 65.9219 28.7188 65.9219
Q24.6562 65.9219 20.0156 65.0312
Q15.375 64.1562 9.8125 62.3125
L9.8125 71.0938
Q15.4375 72.6562 20.3438 73.4375
Q25.25 74.2188 29.5938 74.2188
Q40.8281 74.2188 47.3594 69.1094
Q53.9062 64.0156 53.9062 55.3281
Q53.9062 49.2656 50.4375 45.0938
Q46.9688 40.9219 40.5781 39.3125" id="BitstreamVeraSans-Roman-33"/>
      </defs>
      <g transform="translate(349.289236987 401.918125)scale(0.12 -0.12)">
       <use xlink:href="#BitstreamVeraSans-Roman-32"/>
       <use x="63.623046875" xlink:href="#BitstreamVeraSans-Roman-30"/>
       <use x="127.24609375" xlink:href="#BitstreamVeraSans-Roman-31"/>
       <use x="190.869140625" xlink:href="#BitstreamVeraSans-Roman-33"/>
      </g>
     </g>
    </g>
    <g id="xtick_7">
     <g id="line2d_14">
      <g>
       <use style="stroke:#000000;stroke-width:0.5;" x="415.037981073" xlink:href="#m93b0483c22" y="388.8"/>
      </g>
     </g>
     <g id="line2d_15">
      <g>
       <use style="stroke:#000000;stroke-width:0.5;" x="415.037981073" xlink:href="#m741efc42ff" y="43.2"/>
      </g>
     </g>
     <g id="text_7">
      <!-- 2014 -->
      <defs>
       <path d="
M37.7969 64.3125
L12.8906 25.3906
L37.7969 25.3906
z

M35.2031 72.9062
L47.6094 72.9062
L47.6094 25.3906
L58.0156 25.3906
L58.0156 17.1875
L47.6094 17.1875
L47.6094 0
L37.7969 0
L37.7969 17.1875
L4.89062 17.1875
L4.89062 26.7031
z
" id="BitstreamVeraSans-Roman-34"/>
      </defs>
      <g transform="translate(400.544231073 401.918125)scale(0.12 -0.12)">
       <use xlink:href="#BitstreamVeraSans-Roman-32"/>
       <use x="63.623046875" xlink:href="#BitstreamVeraSans-Roman-30"/>
       <use x="127.24609375" xlink:href="#BitstreamVeraSans-Roman-31"/>
       <use x="190.869140625" xlink:href="#BitstreamVeraSans-Roman-34"/>
      </g>
     </g>
    </g>
    <g id="xtick_8">
     <g id="line2d_16">
      <g>
       <use style="stroke:#000000;stroke-width:0.5;" x="466.437350158" xlink:href="#m93b0483c22" y="388.8"/>
      </g>
     </g>
     <g id="line2d_17">
      <g>
       <use style="stroke:#000000;stroke-width:0.5;" x="466.437350158" xlink:href="#m741efc42ff" y="43.2"/>
      </g>
     </g>
     <g id="text_8">
      <!-- 2015 -->
      <defs>
       <path d="
M10.7969 72.9062
L49.5156 72.9062
L49.5156 64.5938
L19.8281 64.5938
L19.8281 46.7344
Q21.9688 47.4688 24.1094 47.8281
Q26.2656 48.1875 28.4219 48.1875
Q40.625 48.1875 47.75 41.5
Q54.8906 34.8125 54.8906 23.3906
Q54.8906 11.625 47.5625 5.09375
Q40.2344 -1.42188 26.9062 -1.42188
Q22.3125 -1.42188 17.5469 -0.640625
Q12.7969 0.140625 7.71875 1.70312
L7.71875 11.625
Q12.1094 9.23438 16.7969 8.0625
Q21.4844 6.89062 26.7031 6.89062
Q35.1562 6.89062 40.0781 11.3281
Q45.0156 15.7656 45.0156 23.3906
Q45.0156 31 40.0781 35.4375
Q35.1562 39.8906 26.7031 39.8906
Q22.75 39.8906 18.8125 39.0156
Q14.8906 38.1406 10.7969 36.2812
z
" id="BitstreamVeraSans-Roman-35"/>
      </defs>
      <g transform="translate(452.131100158 401.918125)scale(0.12 -0.12)">
       <use xlink:href="#BitstreamVeraSans-Roman-32"/>
       <use x="63.623046875" xlink:href="#BitstreamVeraSans-Roman-30"/>
       <use x="127.24609375" xlink:href="#BitstreamVeraSans-Roman-31"/>
       <use x="190.869140625" xlink:href="#BitstreamVeraSans-Roman-35"/>
      </g>
     </g>
    </g>
    <g id="xtick_9">
     <g id="line2d_18">
      <g>
       <use style="stroke:#000000;stroke-width:0.5;" x="517.836719243" xlink:href="#m93b0483c22" y="388.8"/>
      </g>
     </g>
     <g id="line2d_19">
      <g>
       <use style="stroke:#000000;stroke-width:0.5;" x="517.836719243" xlink:href="#m741efc42ff" y="43.2"/>
      </g>
     </g>
     <g id="text_9">
      <!-- 2016 -->
      <defs>
       <path d="
M33.0156 40.375
Q26.375 40.375 22.4844 35.8281
Q18.6094 31.2969 18.6094 23.3906
Q18.6094 15.5312 22.4844 10.9531
Q26.375 6.39062 33.0156 6.39062
Q39.6562 6.39062 43.5312 10.9531
Q47.4062 15.5312 47.4062 23.3906
Q47.4062 31.2969 43.5312 35.8281
Q39.6562 40.375 33.0156 40.375
M52.5938 71.2969
L52.5938 62.3125
Q48.875 64.0625 45.0938 64.9844
Q41.3125 65.9219 37.5938 65.9219
Q27.8281 65.9219 22.6719 59.3281
Q17.5312 52.7344 16.7969 39.4062
Q19.6719 43.6562 24.0156 45.9219
Q28.375 48.1875 33.5938 48.1875
Q44.5781 48.1875 50.9531 41.5156
Q57.3281 34.8594 57.3281 23.3906
Q57.3281 12.1562 50.6875 5.35938
Q44.0469 -1.42188 33.0156 -1.42188
Q20.3594 -1.42188 13.6719 8.26562
Q6.98438 17.9688 6.98438 36.375
Q6.98438 53.6562 15.1875 63.9375
Q23.3906 74.2188 37.2031 74.2188
Q40.9219 74.2188 44.7031 73.4844
Q48.4844 72.75 52.5938 71.2969" id="BitstreamVeraSans-Roman-36"/>
      </defs>
      <g transform="translate(503.384219243 401.918125)scale(0.12 -0.12)">
       <use xlink:href="#BitstreamVeraSans-Roman-32"/>
       <use x="63.623046875" xlink:href="#BitstreamVeraSans-Roman-30"/>
       <use x="127.24609375" xlink:href="#BitstreamVeraSans-Roman-31"/>
       <use x="190.869140625" xlink:href="#BitstreamVeraSans-Roman-36"/>
      </g>
     </g>
    </g>
   </g>
   <g id="matplotlib.axis_2">
    <g id="ytick_1">
     <g id="line2d_20">
      <defs>
       <path d="
M0 0
L4 0" id="m728421d6d4" style="stroke:#000000;stroke-width:0.5;"/>
      </defs>
      <g>
       <use style="stroke:#000000;stroke-width:0.5;" x="72.0" xlink:href="#m728421d6d4" y="388.8"/>
      </g>
     </g>
     <g id="line2d_21">
      <defs>
       <path d="
M0 0
L-4 0" id="mcb0005524f" style="stroke:#000000;stroke-width:0.5;"/>
      </defs>
      <g>
       <use style="stroke:#000000;stroke-width:0.5;" x="518.4" xlink:href="#mcb0005524f" y="388.8"/>
      </g>
     </g>
     <g id="text_10">
      <!-- 0 -->
      <g transform="translate(61.953125 392.11125)scale(0.12 -0.12)">
       <use xlink:href="#BitstreamVeraSans-Roman-30"/>
      </g>
     </g>
    </g>
    <g id="ytick_2">
     <g id="line2d_22">
      <g>
       <use style="stroke:#000000;stroke-width:0.5;" x="72.0" xlink:href="#m728421d6d4" y="302.4"/>
      </g>
     </g>
     <g id="line2d_23">
      <g>
       <use style="stroke:#000000;stroke-width:0.5;" x="518.4" xlink:href="#mcb0005524f" y="302.4"/>
      </g>
     </g>
     <g id="text_11">
      <!-- 500 -->
      <g transform="translate(46.818125 305.71125)scale(0.12 -0.12)">
       <use xlink:href="#BitstreamVeraSans-Roman-35"/>
       <use x="63.623046875" xlink:href="#BitstreamVeraSans-Roman-30"/>
       <use x="127.24609375" xlink:href="#BitstreamVeraSans-Roman-30"/>
      </g>
     </g>
    </g>
    <g id="ytick_3">
     <g id="line2d_24">
      <g>
       <use style="stroke:#000000;stroke-width:0.5;" x="72.0" xlink:href="#m728421d6d4" y="216.0"/>
      </g>
     </g>
     <g id="line2d_25">
      <g>
       <use style="stroke:#000000;stroke-width:0.5;" x="518.4" xlink:href="#mcb0005524f" y="216.0"/>
      </g>
     </g>
     <g id="text_12">
      <!-- 1000 -->
      <g transform="translate(39.575 219.31125)scale(0.12 -0.12)">
       <use xlink:href="#BitstreamVeraSans-Roman-31"/>
       <use x="63.623046875" xlink:href="#BitstreamVeraSans-Roman-30"/>
       <use x="127.24609375" xlink:href="#BitstreamVeraSans-Roman-30"/>
       <use x="190.869140625" xlink:href="#BitstreamVeraSans-Roman-30"/>
      </g>
     </g>
    </g>
    <g id="ytick_4">
     <g id="line2d_26">
      <g>
       <use style="stroke:#000000;stroke-width:0.5;" x="72.0" xlink:href="#m728421d6d4" y="129.6"/>
      </g>
     </g>
     <g id="line2d_27">
      <g>
       <use style="stroke:#000000;stroke-width:0.5;" x="518.4" xlink:href="#mcb0005524f" y="129.6"/>
      </g>
     </g>
     <g id="text_13">
      <!-- 1500 -->
      <g transform="translate(39.575 132.91125)scale(0.12 -0.12)">
       <use xlink:href="#BitstreamVeraSans-Roman-31"/>
       <use x="63.623046875" xlink:href="#BitstreamVeraSans-Roman-35"/>
       <use x="127.24609375" xlink:href="#BitstreamVeraSans-Roman-30"/>
       <use x="190.869140625" xlink:href="#BitstreamVeraSans-Roman-30"/>
      </g>
     </g>
    </g>
    <g id="ytick_5">
     <g id="line2d_28">
      <g>
       <use style="stroke:#000000;stroke-width:0.5;" x="72.0" xlink:href="#m728421d6d4" y="43.2"/>
      </g>
     </g>
     <g id="line2d_29">
      <g>
       <use style="stroke:#000000;stroke-width:0.5;" x="518.4" xlink:href="#mcb0005524f" y="43.2"/>
      </g>
     </g>
     <g id="text_14">
      <!-- 2000 -->
      <g transform="translate(39.13625 46.51125)scale(0.12 -0.12)">
       <use xlink:href="#BitstreamVeraSans-Roman-32"/>
       <use x="63.623046875" xlink:href="#BitstreamVeraSans-Roman-30"/>
       <use x="127.24609375" xlink:href="#BitstreamVeraSans-Roman-30"/>
       <use x="190.869140625" xlink:href="#BitstreamVeraSans-Roman-30"/>
      </g>
     </g>
    </g>
    <g id="text_15">
     <!-- New OpenLibrary accounts -->
     <defs>
      <path d="
M39.4062 66.2188
Q28.6562 66.2188 22.3281 58.2031
Q16.0156 50.2031 16.0156 36.375
Q16.0156 22.6094 22.3281 14.5938
Q28.6562 6.59375 39.4062 6.59375
Q50.1406 6.59375 56.4219 14.5938
Q62.7031 22.6094 62.7031 36.375
Q62.7031 50.2031 56.4219 58.2031
Q50.1406 66.2188 39.4062 66.2188
M39.4062 74.2188
Q54.7344 74.2188 63.9062 63.9375
Q73.0938 53.6562 73.0938 36.375
Q73.0938 19.1406 63.9062 8.85938
Q54.7344 -1.42188 39.4062 -1.42188
Q24.0312 -1.42188 14.8125 8.82812
Q5.60938 19.0938 5.60938 36.375
Q5.60938 53.6562 14.8125 63.9375
Q24.0312 74.2188 39.4062 74.2188" id="BitstreamVeraSans-Roman-4f"/>
      <path d="
M9.8125 72.9062
L23.0938 72.9062
L55.4219 11.9219
L55.4219 72.9062
L64.9844 72.9062
L64.9844 0
L51.7031 0
L19.3906 60.9844
L19.3906 0
L9.8125 0
z
" id="BitstreamVeraSans-Roman-4e"/>
      <path d="
M9.8125 72.9062
L19.6719 72.9062
L19.6719 8.29688
L55.1719 8.29688
L55.1719 0
L9.8125 0
z
" id="BitstreamVeraSans-Roman-4c"/>
      <path id="BitstreamVeraSans-Roman-20"/>
      <path d="
M54.8906 33.0156
L54.8906 0
L45.9062 0
L45.9062 32.7188
Q45.9062 40.4844 42.875 44.3281
Q39.8438 48.1875 33.7969 48.1875
Q26.5156 48.1875 22.3125 43.5469
Q18.1094 38.9219 18.1094 30.9062
L18.1094 0
L9.07812 0
L9.07812 54.6875
L18.1094 54.6875
L18.1094 46.1875
Q21.3438 51.125 25.7031 53.5625
Q30.0781 56 35.7969 56
Q45.2188 56 50.0469 50.1719
Q54.8906 44.3438 54.8906 33.0156" id="BitstreamVeraSans-Roman-6e"/>
      <path d="
M34.2812 27.4844
Q23.3906 27.4844 19.1875 25
Q14.9844 22.5156 14.9844 16.5
Q14.9844 11.7188 18.1406 8.90625
Q21.2969 6.10938 26.7031 6.10938
Q34.1875 6.10938 38.7031 11.4062
Q43.2188 16.7031 43.2188 25.4844
L43.2188 27.4844
z

M52.2031 31.2031
L52.2031 0
L43.2188 0
L43.2188 8.29688
Q40.1406 3.32812 35.5469 0.953125
Q30.9531 -1.42188 24.3125 -1.42188
Q15.9219 -1.42188 10.9531 3.29688
Q6 8.01562 6 15.9219
Q6 25.1406 12.1719 29.8281
Q18.3594 34.5156 30.6094 34.5156
L43.2188 34.5156
L43.2188 35.4062
Q43.2188 41.6094 39.1406 45
Q35.0625 48.3906 27.6875 48.3906
Q23 48.3906 18.5469 47.2656
Q14.1094 46.1406 10.0156 43.8906
L10.0156 52.2031
Q14.9375 54.1094 19.5781 55.0469
Q24.2188 56 28.6094 56
Q40.4844 56 46.3438 49.8438
Q52.2031 43.7031 52.2031 31.2031" id="BitstreamVeraSans-Roman-61"/>
      <path d="
M30.6094 48.3906
Q23.3906 48.3906 19.1875 42.75
Q14.9844 37.1094 14.9844 27.2969
Q14.9844 17.4844 19.1562 11.8438
Q23.3438 6.20312 30.6094 6.20312
Q37.7969 6.20312 41.9844 11.8594
Q46.1875 17.5312 46.1875 27.2969
Q46.1875 37.0156 41.9844 42.7031
Q37.7969 48.3906 30.6094 48.3906
M30.6094 56
Q42.3281 56 49.0156 48.375
Q55.7188 40.7656 55.7188 27.2969
Q55.7188 13.875 49.0156 6.21875
Q42.3281 -1.42188 30.6094 -1.42188
Q18.8438 -1.42188 12.1719 6.21875
Q5.51562 13.875 5.51562 27.2969
Q5.51562 40.7656 12.1719 48.375
Q18.8438 56 30.6094 56" id="BitstreamVeraSans-Roman-6f"/>
      <path d="
M9.42188 54.6875
L18.4062 54.6875
L18.4062 0
L9.42188 0
z

M9.42188 75.9844
L18.4062 75.9844
L18.4062 64.5938
L9.42188 64.5938
z
" id="BitstreamVeraSans-Roman-69"/>
      <path d="
M48.7812 52.5938
L48.7812 44.1875
Q44.9688 46.2969 41.1406 47.3438
Q37.3125 48.3906 33.4062 48.3906
Q24.6562 48.3906 19.8125 42.8438
Q14.9844 37.3125 14.9844 27.2969
Q14.9844 17.2812 19.8125 11.7344
Q24.6562 6.20312 33.4062 6.20312
Q37.3125 6.20312 41.1406 7.25
Q44.9688 8.29688 48.7812 10.4062
L48.7812 2.09375
Q45.0156 0.34375 40.9844 -0.53125
Q36.9688 -1.42188 32.4219 -1.42188
Q20.0625 -1.42188 12.7812 6.34375
Q5.51562 14.1094 5.51562 27.2969
Q5.51562 40.6719 12.8594 48.3281
Q20.2188 56 33.0156 56
Q37.1562 56 41.1094 55.1406
Q45.0625 54.2969 48.7812 52.5938" id="BitstreamVeraSans-Roman-63"/>
      <path d="
M32.1719 -5.07812
Q28.375 -14.8438 24.75 -17.8125
Q21.1406 -20.7969 15.0938 -20.7969
L7.90625 -20.7969
L7.90625 -13.2812
L13.1875 -13.2812
Q16.8906 -13.2812 18.9375 -11.5156
Q21 -9.76562 23.4844 -3.21875
L25.0938 0.875
L2.98438 54.6875
L12.5 54.6875
L29.5938 11.9219
L46.6875 54.6875
L56.2031 54.6875
z
" id="BitstreamVeraSans-Roman-79"/>
      <path d="
M56.2031 29.5938
L56.2031 25.2031
L14.8906 25.2031
Q15.4844 15.9219 20.4844 11.0625
Q25.4844 6.20312 34.4219 6.20312
Q39.5938 6.20312 44.4531 7.46875
Q49.3125 8.73438 54.1094 11.2812
L54.1094 2.78125
Q49.2656 0.734375 44.1875 -0.34375
Q39.1094 -1.42188 33.8906 -1.42188
Q20.7969 -1.42188 13.1562 6.1875
Q5.51562 13.8125 5.51562 26.8125
Q5.51562 40.2344 12.7656 48.1094
Q20.0156 56 32.3281 56
Q43.3594 56 49.7812 48.8906
Q56.2031 41.7969 56.2031 29.5938
M47.2188 32.2344
Q47.125 39.5938 43.0938 43.9844
Q39.0625 48.3906 32.4219 48.3906
Q24.9062 48.3906 20.3906 44.1406
Q15.875 39.8906 15.1875 32.1719
z
" id="BitstreamVeraSans-Roman-65"/>
      <path d="
M4.20312 54.6875
L13.1875 54.6875
L24.4219 12.0156
L35.5938 54.6875
L46.1875 54.6875
L57.4219 12.0156
L68.6094 54.6875
L77.5938 54.6875
L63.2812 0
L52.6875 0
L40.9219 44.8281
L29.1094 0
L18.5 0
z
" id="BitstreamVeraSans-Roman-77"/>
      <path d="
M18.3125 70.2188
L18.3125 54.6875
L36.8125 54.6875
L36.8125 47.7031
L18.3125 47.7031
L18.3125 18.0156
Q18.3125 11.3281 20.1406 9.42188
Q21.9688 7.51562 27.5938 7.51562
L36.8125 7.51562
L36.8125 0
L27.5938 0
Q17.1875 0 13.2344 3.875
Q9.28125 7.76562 9.28125 18.0156
L9.28125 47.7031
L2.6875 47.7031
L2.6875 54.6875
L9.28125 54.6875
L9.28125 70.2188
z
" id="BitstreamVeraSans-Roman-74"/>
      <path d="
M8.5 21.5781
L8.5 54.6875
L17.4844 54.6875
L17.4844 21.9219
Q17.4844 14.1562 20.5 10.2656
Q23.5312 6.39062 29.5938 6.39062
Q36.8594 6.39062 41.0781 11.0312
Q45.3125 15.6719 45.3125 23.6875
L45.3125 54.6875
L54.2969 54.6875
L54.2969 0
L45.3125 0
L45.3125 8.40625
Q42.0469 3.42188 37.7188 1
Q33.4062 -1.42188 27.6875 -1.42188
Q18.2656 -1.42188 13.375 4.4375
Q8.5 10.2969 8.5 21.5781" id="BitstreamVeraSans-Roman-75"/>
      <path d="
M41.1094 46.2969
Q39.5938 47.1719 37.8125 47.5781
Q36.0312 48 33.8906 48
Q26.2656 48 22.1875 43.0469
Q18.1094 38.0938 18.1094 28.8125
L18.1094 0
L9.07812 0
L9.07812 54.6875
L18.1094 54.6875
L18.1094 46.1875
Q20.9531 51.1719 25.4844 53.5781
Q30.0312 56 36.5312 56
Q37.4531 56 38.5781 55.875
Q39.7031 55.7656 41.0625 55.5156
z
" id="BitstreamVeraSans-Roman-72"/>
      <path d="
M44.2812 53.0781
L44.2812 44.5781
Q40.4844 46.5312 36.375 47.5
Q32.2812 48.4844 27.875 48.4844
Q21.1875 48.4844 17.8438 46.4375
Q14.5 44.3906 14.5 40.2812
Q14.5 37.1562 16.8906 35.375
Q19.2812 33.5938 26.5156 31.9844
L29.5938 31.2969
Q39.1562 29.25 43.1875 25.5156
Q47.2188 21.7812 47.2188 15.0938
Q47.2188 7.46875 41.1875 3.01562
Q35.1562 -1.42188 24.6094 -1.42188
Q20.2188 -1.42188 15.4531 -0.5625
Q10.6875 0.296875 5.42188 2
L5.42188 11.2812
Q10.4062 8.6875 15.2344 7.39062
Q20.0625 6.10938 24.8125 6.10938
Q31.1562 6.10938 34.5625 8.28125
Q37.9844 10.4531 37.9844 14.4062
Q37.9844 18.0625 35.5156 20.0156
Q33.0625 21.9688 24.7031 23.7812
L21.5781 24.5156
Q13.2344 26.2656 9.51562 29.9062
Q5.8125 33.5469 5.8125 39.8906
Q5.8125 47.6094 11.2812 51.7969
Q16.75 56 26.8125 56
Q31.7812 56 36.1719 55.2656
Q40.5781 54.5469 44.2812 53.0781" id="BitstreamVeraSans-Roman-73"/>
      <path d="
M18.1094 8.20312
L18.1094 -20.7969
L9.07812 -20.7969
L9.07812 54.6875
L18.1094 54.6875
L18.1094 46.3906
Q20.9531 51.2656 25.2656 53.625
Q29.5938 56 35.5938 56
Q45.5625 56 51.7812 48.0938
Q58.0156 40.1875 58.0156 27.2969
Q58.0156 14.4062 51.7812 6.48438
Q45.5625 -1.42188 35.5938 -1.42188
Q29.5938 -1.42188 25.2656 0.953125
Q20.9531 3.32812 18.1094 8.20312
M48.6875 27.2969
Q48.6875 37.2031 44.6094 42.8438
Q40.5312 48.4844 33.4062 48.4844
Q26.2656 48.4844 22.1875 42.8438
Q18.1094 37.2031 18.1094 27.2969
Q18.1094 17.3906 22.1875 11.75
Q26.2656 6.10938 33.4062 6.10938
Q40.5312 6.10938 44.6094 11.75
Q48.6875 17.3906 48.6875 27.2969" id="BitstreamVeraSans-Roman-70"/>
      <path d="
M48.6875 27.2969
Q48.6875 37.2031 44.6094 42.8438
Q40.5312 48.4844 33.4062 48.4844
Q26.2656 48.4844 22.1875 42.8438
Q18.1094 37.2031 18.1094 27.2969
Q18.1094 17.3906 22.1875 11.75
Q26.2656 6.10938 33.4062 6.10938
Q40.5312 6.10938 44.6094 11.75
Q48.6875 17.3906 48.6875 27.2969
M18.1094 46.3906
Q20.9531 51.2656 25.2656 53.625
Q29.5938 56 35.5938 56
Q45.5625 56 51.7812 48.0938
Q58.0156 40.1875 58.0156 27.2969
Q58.0156 14.4062 51.7812 6.48438
Q45.5625 -1.42188 35.5938 -1.42188
Q29.5938 -1.42188 25.2656 0.953125
Q20.9531 3.32812 18.1094 8.20312
L18.1094 0
L9.07812 0
L9.07812 75.9844
L18.1094 75.9844
z
" id="BitstreamVeraSans-Roman-62"/>
     </defs>
     <g transform="translate(31.640625 296.6446875)rotate(-90.0)scale(0.12 -0.12)">
      <use xlink:href="#BitstreamVeraSans-Roman-4e"/>
      <use x="74.8046875" xlink:href="#BitstreamVeraSans-Roman-65"/>
      <use x="136.328125" xlink:href="#BitstreamVeraSans-Roman-77"/>
      <use x="218.115234375" xlink:href="#BitstreamVeraSans-Roman-20"/>
      <use x="249.90234375" xlink:href="#BitstreamVeraSans-Roman-4f"/>
      <use x="328.61328125" xlink:href="#BitstreamVeraSans-Roman-70"/>
      <use x="392.08984375" xlink:href="#BitstreamVeraSans-Roman-65"/>
      <use x="453.61328125" xlink:href="#BitstreamVeraSans-Roman-6e"/>
      <use x="516.9921875" xlink:href="#BitstreamVeraSans-Roman-4c"/>
      <use x="572.705078125" xlink:href="#BitstreamVeraSans-Roman-69"/>
      <use x="600.48828125" xlink:href="#BitstreamVeraSans-Roman-62"/>
      <use x="663.96484375" xlink:href="#BitstreamVeraSans-Roman-72"/>
      <use x="705.078125" xlink:href="#BitstreamVeraSans-Roman-61"/>
      <use x="766.357421875" xlink:href="#BitstreamVeraSans-Roman-72"/>
      <use x="807.470703125" xlink:href="#BitstreamVeraSans-Roman-79"/>
      <use x="866.650390625" xlink:href="#BitstreamVeraSans-Roman-20"/>
      <use x="898.4375" xlink:href="#BitstreamVeraSans-Roman-61"/>
      <use x="959.716796875" xlink:href="#BitstreamVeraSans-Roman-63"/>
      <use x="1014.69726562" xlink:href="#BitstreamVeraSans-Roman-63"/>
      <use x="1069.67773438" xlink:href="#BitstreamVeraSans-Roman-6f"/>
      <use x="1130.859375" xlink:href="#BitstreamVeraSans-Roman-75"/>
      <use x="1194.23828125" xlink:href="#BitstreamVeraSans-Roman-6e"/>
      <use x="1257.6171875" xlink:href="#BitstreamVeraSans-Roman-74"/>
      <use x="1296.82617188" xlink:href="#BitstreamVeraSans-Roman-73"/>
     </g>
    </g>
   </g>
  </g>
 </g>
 <defs>
  <clipPath id="p7ff5b81e1d">
   <rect height="345.6" width="446.4" x="72.0" y="43.2"/>
  </clipPath>
 </defs>
</svg>
