<?xml version="1.0" encoding="utf-8" standalone="no"?>
<!DOCTYPE svg PUBLIC "-//W3C//DTD SVG 1.1//EN"
  "http://www.w3.org/Graphics/SVG/1.1/DTD/svg11.dtd">
<!-- Created with matplotlib (http://matplotlib.org/) -->
<svg height="288pt" version="1.1" viewBox="0 0 432 288" width="432pt" xmlns="http://www.w3.org/2000/svg" xmlns:xlink="http://www.w3.org/1999/xlink">
 <defs>
  <style type="text/css">
*{stroke-linecap:butt;stroke-linejoin:round;}
  </style>
 </defs>
 <g id="figure_1">
  <g id="patch_1">
   <path d="
M0 288
L432 288
L432 0
L0 0
z
" style="fill:#ffffff;"/>
  </g>
  <g id="axes_1">
   <g id="patch_2">
    <path d="
M54 252
L388.8 252
L388.8 28.8
L54 28.8
z
" style="fill:#ffffff;"/>
   </g>
   <g id="line2d_1">
    <path clip-path="url(#p124b8dd147)" d="
M54 252
L58.5 252
L58.86 202.003
L59.04 203.566
L59.22 197.762
L59.4 216.734
L59.58 220.306
L59.76 217.85
L59.94 212.27
L60.12 228.341
L60.48 205.798
L60.66 219.859
L61.02 202.896
L61.38 234.367
L61.56 232.135
L61.74 228.341
L61.92 220.306
L62.1 225.662
L62.28 218.52
L62.64 232.582
L62.82 216.288
L63 224.1
L63.18 211.154
L63.36 218.297
L63.54 214.056
L63.72 198.655
L63.9 220.752
L64.26 215.842
L64.44 207.583
L64.62 220.752
L64.98 227.002
L65.16 216.288
L65.34 216.734
L65.52 214.949
L65.7 223.43
L65.88 221.868
L66.06 215.172
L66.42 234.144
L66.78 210.708
L66.96 220.752
L67.14 218.074
L67.32 220.082
L67.5 230.573
L67.68 232.582
L67.86 227.225
L68.04 213.386
L68.22 210.931
L68.4 228.118
L68.58 215.618
L68.76 227.448
L68.94 227.225
L69.12 233.698
L69.3 222.538
L69.48 197.093
L69.66 223.654
L69.84 212.494
L70.02 226.555
L70.2 221.645
L70.56 226.332
L70.74 208.922
L70.92 215.618
L71.1 229.457
L71.28 221.645
L71.46 231.019
L71.64 230.573
L71.82 214.726
L72.18 233.698
L72.54 220.306
L72.72 226.555
L72.9 225.886
L73.26 238.608
L73.44 233.251
L73.62 219.636
L73.8 229.234
L73.98 229.457
L74.16 235.26
L74.34 221.645
L74.52 227.002
L74.7 223.654
L74.88 230.573
L75.06 225.886
L75.24 224.993
L75.42 227.894
L75.6 216.734
L75.96 230.796
L76.14 229.01
L76.32 238.162
L76.5 229.903
L76.68 234.367
L76.86 222.314
L77.04 229.01
L77.22 225.216
L77.4 233.251
L77.58 228.564
L77.76 236.599
L77.94 224.1
L78.12 224.1
L78.3 223.43
L78.48 216.958
L78.66 228.341
L78.84 227.225
L79.02 236.599
L79.38 219.19
L79.92 234.144
L80.1 230.573
L80.28 237.938
L80.46 227.225
L80.64 223.877
L80.82 224.993
L81 230.35
L81.18 229.457
L81.36 234.144
L81.54 235.26
L81.9 215.842
L82.08 214.949
L82.26 233.698
L82.44 229.457
L82.62 229.234
L82.8 233.251
L82.98 233.921
L83.16 229.903
L83.34 229.234
L83.52 225.662
L83.7 218.297
L84.06 229.234
L84.24 229.01
L84.42 218.966
L84.6 218.074
L84.78 226.555
L84.96 226.555
L85.14 218.074
L85.5 240.17
L85.86 194.638
L86.04 218.966
L86.22 224.546
L86.4 222.091
L86.58 225.216
L86.76 233.474
L87.12 219.859
L87.3 221.198
L87.48 209.146
L87.66 231.019
L87.84 227.002
L88.02 234.59
L88.2 224.1
L88.38 222.091
L88.74 225.662
L88.92 219.413
L89.1 226.332
L89.28 213.61
L89.46 220.082
L89.64 216.734
L89.82 216.065
L90 216.734
L90.18 213.386
L90.36 224.546
L90.54 226.555
L90.9 212.047
L91.08 224.323
L91.26 216.958
L91.44 214.279
L91.62 217.404
L91.8 222.538
L92.16 202.226
L92.34 221.868
L92.52 220.082
L92.7 211.601
L92.88 214.279
L93.06 219.636
L93.24 207.583
L93.42 220.529
L93.6 211.824
L93.78 218.966
L93.96 207.36
L94.14 226.109
L94.32 223.43
L94.5 209.369
L94.68 210.038
L94.86 220.306
L95.04 220.752
L95.4 243.518
L95.58 239.724
L95.76 218.743
L95.94 212.27
L96.12 234.814
L96.3 218.52
L96.48 217.85
L96.66 233.474
L96.84 235.26
L97.02 206.021
L97.2 202.226
L97.38 224.546
L97.56 212.047
L97.92 238.831
L98.1 232.135
L98.46 233.251
L98.64 233.251
L98.82 228.118
L99.18 232.582
L99.36 233.251
L99.54 233.251
L99.72 237.269
L99.9 238.608
L100.08 241.733
L100.26 235.037
L100.44 238.831
L100.62 227.002
L100.8 227.894
L100.98 225.439
L101.34 237.046
L101.52 234.144
L101.7 228.787
L101.88 238.831
L102.06 238.831
L102.24 232.135
L102.42 235.93
L102.6 230.796
L102.78 232.135
L102.96 228.118
L103.14 230.573
L103.32 214.056
L103.5 236.599
L104.04 226.332
L104.4 238.608
L104.58 209.815
L104.76 203.342
L104.94 203.119
L105.12 201.78
L105.3 215.395
L105.48 238.831
L105.66 233.921
L105.84 239.724
L106.38 227.002
L106.56 237.046
L106.92 221.868
L107.1 230.796
L107.28 230.126
L107.46 232.358
L107.64 231.466
L107.82 222.314
L108.18 236.153
L108.36 223.877
L108.54 231.242
L108.72 232.582
L108.9 220.975
L109.08 229.457
L109.44 234.814
L109.62 228.564
L109.8 231.466
L109.98 236.376
L110.16 229.01
L110.34 234.367
L110.52 230.573
L110.7 240.17
L110.88 238.385
L111.06 226.778
L111.42 239.054
L111.6 241.51
L111.78 240.17
L111.96 237.938
L112.14 231.019
L112.32 231.689
L112.5 241.063
L112.68 233.921
L112.86 233.698
L113.04 238.162
L113.22 235.483
L113.4 224.323
L113.58 233.474
L113.76 231.019
L114.12 223.207
L114.3 238.385
L114.48 232.135
L114.66 238.608
L114.84 231.912
L115.02 236.822
L115.2 232.582
L115.38 240.84
L115.56 238.608
L115.74 239.278
L116.1 234.814
L116.28 240.84
L116.46 238.162
L116.64 238.831
L117 233.028
L117.18 222.091
L117.36 234.59
L117.54 224.546
L117.72 236.822
L117.9 232.805
L118.26 244.634
L118.44 232.805
L118.8 238.385
L118.98 234.367
L119.34 239.724
L119.52 239.278
L119.88 219.859
L120.06 239.947
L120.24 236.153
L120.42 237.715
L120.6 241.286
L120.78 239.054
L120.96 241.51
L121.14 226.555
L121.32 232.135
L121.5 228.341
L121.68 235.037
L121.86 236.599
L122.04 236.599
L122.22 232.582
L122.4 233.028
L122.58 237.269
L122.76 234.144
L123.12 245.081
L123.48 220.082
L123.66 234.144
L123.84 233.921
L124.02 219.636
L124.2 233.251
L124.38 237.269
L124.56 210.262
L124.74 231.019
L124.92 234.367
L125.1 229.457
L125.28 229.903
L125.46 228.341
L125.64 240.394
L125.82 239.947
L126 237.715
L126.18 231.242
L126.36 230.35
L126.54 221.645
L126.9 237.492
L127.08 230.35
L127.26 237.938
L127.44 231.689
L127.62 233.028
L127.8 243.072
L128.34 231.912
L128.52 238.608
L128.7 228.787
L129.06 241.286
L129.42 230.126
L129.6 234.814
L129.78 229.68
L129.96 228.341
L130.14 237.046
L130.32 235.706
L130.5 242.849
L130.68 242.626
L130.86 238.385
L131.04 231.242
L131.22 231.242
L131.4 238.162
L131.58 235.483
L131.76 243.965
L131.94 241.956
L132.12 235.483
L132.3 237.269
L132.48 231.689
L132.84 236.599
L133.02 237.492
L133.2 236.376
L133.38 240.394
L133.56 237.715
L133.74 230.126
L133.92 240.617
L134.28 194.638
L134.46 222.761
L134.64 227.894
L134.82 226.332
L135 200.887
L135.18 198.878
L135.36 231.466
L135.54 233.028
L135.72 237.046
L135.9 236.822
L136.26 219.413
L136.44 185.933
L136.62 233.474
L136.8 235.706
L136.98 241.286
L137.16 238.385
L137.34 241.956
L137.52 242.626
L137.7 234.144
L138.06 234.144
L138.24 234.367
L138.42 233.474
L138.6 229.68
L138.96 240.394
L139.14 234.814
L139.32 232.805
L139.5 229.01
L139.68 232.805
L139.86 228.118
L140.04 241.733
L140.4 238.162
L140.58 229.903
L140.76 230.35
L140.94 245.081
L141.3 225.886
L141.48 226.332
L141.66 235.26
L141.84 230.126
L142.02 236.153
L142.2 236.376
L142.38 228.118
L142.56 238.608
L142.74 239.501
L142.92 234.59
L143.28 239.501
L143.46 239.278
L143.64 229.457
L143.82 238.385
L144 233.698
L144.18 239.054
L144.36 233.251
L144.54 238.385
L144.72 232.358
L144.9 232.805
L145.08 239.501
L145.26 235.26
L145.44 241.51
L145.62 242.402
L145.98 241.51
L146.16 235.26
L146.52 237.492
L146.7 233.921
L146.88 233.028
L147.06 240.17
L147.24 241.733
L147.42 238.608
L147.6 233.028
L147.78 236.376
L147.96 234.144
L148.14 238.831
L148.32 240.17
L148.5 237.269
L148.86 243.965
L149.04 233.251
L149.22 235.483
L149.4 225.439
L149.58 240.84
L149.76 240.84
L149.94 208.699
L150.3 239.724
L150.48 233.028
L150.66 237.269
L150.84 237.269
L151.02 230.796
L151.2 220.082
L151.38 232.582
L151.56 233.474
L151.74 230.796
L151.92 213.163
L152.1 240.617
L152.28 238.162
L152.46 202.45
L152.82 225.662
L153 236.376
L153.18 230.796
L153.36 236.376
L153.54 233.028
L153.72 234.144
L153.9 223.654
L154.08 235.706
L154.26 234.367
L154.44 234.814
L154.62 237.715
L154.8 234.367
L154.98 234.144
L155.16 230.573
L155.34 236.599
L155.52 224.1
L155.7 229.68
L155.88 230.35
L156.24 238.385
L156.42 206.021
L156.6 230.796
L156.96 211.154
L157.14 234.144
L157.32 227.894
L157.5 199.994
L157.86 218.074
L158.4 243.072
L158.58 234.59
L158.76 239.501
L159.3 223.43
L159.48 222.091
L159.66 239.724
L159.84 230.35
L160.02 232.805
L160.2 217.627
L160.38 226.109
L160.56 221.422
L160.74 222.761
L160.92 237.492
L161.1 241.286
L161.46 233.251
L161.64 243.072
L161.82 243.295
L162 228.118
L162.18 243.518
L162.36 242.626
L162.54 230.35
L162.72 225.662
L162.9 213.833
L163.08 228.787
L163.26 221.645
L163.44 241.063
L163.8 229.234
L163.98 229.68
L164.16 237.938
L164.52 225.886
L164.7 238.162
L164.88 229.903
L165.06 232.358
L165.24 230.573
L165.42 224.546
L165.6 232.358
L165.78 229.68
L166.32 236.599
L166.5 229.457
L166.68 232.805
L166.86 220.975
L167.22 238.162
L167.4 238.385
L167.58 227.894
L167.94 238.831
L168.3 222.314
L168.48 220.975
L168.66 229.01
L168.84 213.61
L169.02 230.126
L169.2 206.467
L169.38 217.181
L169.56 220.975
L169.74 241.063
L169.92 238.162
L170.1 222.761
L170.28 225.439
L170.82 209.369
L171.18 242.179
L171.36 225.216
L171.54 241.063
L171.72 240.394
L171.9 244.634
L172.08 239.054
L172.26 240.617
L172.44 236.599
L172.62 244.411
L172.8 243.965
L172.98 243.072
L173.16 235.037
L173.52 241.956
L173.7 242.626
L173.88 235.26
L174.06 238.831
L174.24 237.046
L174.42 222.984
L174.96 245.974
L175.32 235.706
L175.5 236.822
L175.68 243.072
L175.86 243.965
L176.04 243.072
L176.22 243.295
L176.4 238.831
L176.58 238.162
L176.76 242.402
L176.94 241.286
L177.12 238.608
L177.3 240.17
L177.48 242.849
L177.66 222.984
L177.84 241.956
L178.02 241.286
L178.2 231.019
L178.38 244.858
L178.56 243.965
L178.74 244.411
L178.92 237.269
L179.1 238.385
L179.28 237.492
L179.46 241.286
L179.64 240.84
L179.82 245.974
L180.36 239.278
L180.54 238.831
L180.72 233.698
L181.08 243.518
L181.26 240.17
L181.44 243.742
L181.62 242.626
L181.8 242.849
L181.98 244.188
L182.16 239.054
L182.34 241.063
L182.52 225.662
L182.88 243.518
L183.06 240.17
L183.24 241.733
L183.42 239.947
L183.6 249.545
L183.78 242.626
L183.96 247.09
L184.14 238.608
L184.32 247.09
L184.68 240.394
L184.86 244.634
L185.04 245.081
L185.22 241.956
L185.4 243.965
L185.76 237.715
L185.94 238.385
L186.12 245.75
L186.3 247.536
L186.48 236.822
L186.84 242.179
L187.02 237.492
L187.2 237.046
L187.56 245.081
L187.74 240.84
L188.1 237.046
L188.28 243.518
L188.46 241.956
L188.82 245.974
L189 242.626
L189.18 235.037
L189.36 238.608
L189.72 226.109
L189.9 244.634
L190.08 243.295
L190.26 238.608
L190.44 240.394
L190.62 241.063
L190.8 238.608
L191.16 242.849
L191.52 238.162
L191.7 239.724
L191.88 243.965
L192.06 244.858
L192.6 242.626
L192.78 240.17
L192.96 228.118
L193.14 229.01
L193.32 231.689
L193.5 237.938
L193.86 242.402
L194.04 241.51
L194.22 242.849
L194.4 232.805
L194.58 240.394
L194.76 242.626
L194.94 239.501
L195.12 239.724
L195.3 242.849
L195.48 236.599
L195.66 241.956
L195.84 239.278
L196.02 233.921
L196.2 238.831
L196.38 235.93
L196.74 239.501
L196.92 236.376
L197.1 239.724
L197.28 234.59
L197.64 236.599
L197.82 243.742
L198.18 231.019
L198.54 240.84
L198.72 240.17
L198.9 245.527
L199.26 237.046
L199.44 238.831
L199.8 236.599
L199.98 241.063
L200.16 240.17
L200.52 229.903
L200.88 233.474
L201.06 233.474
L201.24 237.269
L201.42 233.028
L201.6 241.733
L201.96 236.153
L202.14 240.394
L202.32 230.35
L202.5 239.501
L202.68 240.17
L202.86 224.1
L203.04 233.474
L203.22 231.242
L203.4 241.733
L203.58 244.411
L203.76 235.037
L203.94 241.733
L204.12 243.518
L204.48 231.019
L204.66 236.599
L204.84 238.385
L205.02 241.733
L205.2 239.501
L205.38 241.956
L205.56 234.814
L205.74 236.153
L205.92 241.956
L206.1 241.51
L206.28 242.849
L206.46 241.956
L206.64 237.269
L206.82 243.295
L207 236.599
L207.18 238.385
L207.54 244.188
L207.72 243.965
L207.9 244.634
L208.26 241.956
L208.44 238.831
L208.8 246.643
L208.98 241.063
L209.34 245.974
L209.52 245.081
L209.88 240.394
L210.06 246.42
L210.42 240.394
L210.6 242.179
L210.78 245.75
L210.96 238.385
L211.32 245.304
L211.68 246.866
L211.86 243.965
L212.04 245.974
L212.58 244.411
L212.76 244.634
L212.94 248.652
L213.12 248.875
L213.3 244.634
L213.48 245.75
L213.66 243.518
L213.84 233.028
L214.02 247.536
L214.2 240.617
L214.38 246.42
L214.56 245.75
L214.74 246.643
L214.92 243.295
L215.1 243.072
L215.28 244.411
L215.64 235.93
L215.82 237.046
L216 242.849
L216.18 240.394
L216.36 242.849
L216.54 242.849
L216.72 241.956
L216.9 235.706
L217.08 243.742
L217.26 241.956
L217.62 248.875
L218.16 231.689
L218.52 244.858
L218.7 242.402
L219.06 248.206
L219.24 232.582
L219.42 234.144
L219.78 241.733
L219.96 237.715
L220.14 246.197
L220.32 247.536
L220.5 233.698
L220.68 244.634
L220.86 245.974
L221.04 235.93
L221.22 238.385
L221.4 245.081
L221.58 243.295
L221.76 243.518
L221.94 240.17
L222.12 234.59
L222.48 244.858
L222.66 245.527
L222.84 246.866
L223.02 241.956
L223.2 242.179
L223.38 243.072
L223.56 247.759
L223.74 244.188
L223.92 245.081
L224.1 245.081
L224.28 242.402
L224.46 222.091
L224.64 235.26
L224.82 237.492
L225.18 245.974
L225.36 247.09
L225.54 237.269
L225.72 241.956
L225.9 233.921
L226.08 237.046
L226.26 244.188
L226.44 244.858
L226.62 247.759
L226.98 241.956
L227.16 246.866
L227.34 242.402
L227.52 242.626
L227.7 245.974
L227.88 245.974
L228.06 243.965
L228.24 232.358
L228.42 234.59
L228.6 240.17
L228.78 233.921
L228.96 247.536
L229.14 242.179
L229.32 244.188
L229.5 240.84
L229.86 245.527
L230.04 247.536
L230.22 243.742
L230.4 249.545
L230.58 244.411
L230.76 243.072
L230.94 243.965
L231.12 243.295
L231.3 244.188
L231.48 243.965
L231.66 247.982
L232.2 242.402
L232.38 236.822
L232.56 247.536
L232.74 248.206
L232.92 210.931
L233.1 242.849
L233.28 243.295
L233.46 242.849
L233.64 241.063
L233.82 247.313
L234 218.52
L234.18 245.974
L234.36 239.947
L234.54 240.617
L234.72 242.849
L234.9 239.278
L235.08 240.17
L235.26 241.733
L235.44 247.09
L235.62 240.17
L235.8 242.179
L235.98 242.849
L236.16 246.866
L236.34 243.965
L236.52 244.188
L236.7 242.179
L236.88 238.831
L237.06 239.947
L237.24 245.081
L237.42 245.527
L237.6 243.518
L237.78 245.527
L237.96 241.956
L238.14 240.84
L238.32 245.527
L238.5 236.599
L238.68 234.59
L238.86 241.286
L239.04 240.617
L239.22 247.313
L239.4 245.081
L239.58 245.081
L239.76 245.974
L239.94 245.527
L240.12 245.974
L240.3 240.17
L240.48 243.072
L240.84 235.037
L241.02 245.304
L241.38 244.858
L241.56 240.394
L241.74 247.759
L242.1 246.42
L242.28 246.197
L242.46 247.536
L242.64 247.09
L242.82 248.206
L243 251.107
L243.18 245.081
L243.36 247.09
L243.9 241.51
L244.08 245.527
L244.26 246.42
L244.44 246.42
L244.62 245.75
L244.98 247.759
L245.16 247.536
L245.34 247.759
L245.52 249.768
L245.88 243.965
L246.06 243.518
L246.24 245.527
L246.42 242.402
L246.6 246.866
L246.78 245.081
L246.96 247.759
L247.14 246.42
L247.32 247.759
L247.5 246.197
L247.68 247.982
L247.86 246.643
L248.04 249.322
L248.4 241.063
L248.58 246.42
L248.76 246.643
L248.94 248.206
L249.3 245.081
L249.48 245.974
L249.66 241.063
L249.84 249.545
L250.02 247.09
L250.2 249.768
L250.38 247.759
L250.56 241.733
L250.74 247.982
L251.1 243.965
L251.28 244.188
L251.46 245.081
L251.64 248.206
L251.82 247.313
L252 247.536
L252.18 238.162
L252.54 243.965
L252.9 247.536
L253.08 247.536
L253.26 247.09
L253.44 243.295
L253.62 245.304
L253.8 245.75
L253.98 240.17
L254.16 249.545
L254.34 243.742
L254.52 245.527
L254.7 238.162
L254.88 242.849
L255.06 238.162
L255.42 245.527
L255.6 241.286
L255.78 246.866
L255.96 245.974
L256.14 236.376
L256.32 243.518
L256.5 244.188
L256.68 246.197
L256.86 245.304
L257.04 242.402
L257.22 244.634
L257.4 243.965
L257.58 242.179
L257.76 241.51
L257.94 241.51
L258.12 242.626
L258.3 236.599
L258.48 244.634
L258.66 233.698
L258.84 242.849
L259.02 245.304
L259.2 250.661
L259.56 239.501
L259.92 243.742
L260.1 245.081
L260.28 238.162
L260.46 245.081
L260.64 247.536
L260.82 247.09
L261 241.956
L261.36 248.429
L261.54 241.733
L261.72 240.617
L261.9 242.179
L262.08 241.51
L262.26 236.376
L262.44 242.849
L262.62 242.849
L262.8 244.858
L262.98 242.849
L263.16 244.188
L263.34 244.634
L263.52 244.411
L263.7 243.518
L264.06 233.028
L264.24 242.626
L264.6 242.626
L264.78 223.207
L264.96 223.877
L265.14 236.376
L265.32 239.724
L265.5 245.75
L265.68 244.411
L265.86 245.527
L266.04 237.938
L266.22 240.617
L266.4 239.501
L266.76 244.634
L266.94 248.875
L267.12 239.278
L267.3 245.304
L267.48 234.367
L267.66 244.188
L267.84 244.858
L268.02 246.197
L268.2 250.438
L268.38 243.965
L268.74 248.875
L268.92 239.054
L269.28 245.527
L269.46 245.081
L269.64 241.286
L269.82 244.411
L270 240.84
L270.18 245.081
L270.36 245.75
L270.72 239.724
L270.9 233.921
L271.08 241.51
L271.26 234.144
L271.44 240.617
L271.62 236.599
L271.98 247.313
L272.16 241.956
L272.34 242.849
L272.52 238.385
L272.7 238.608
L272.88 239.278
L273.06 245.081
L273.24 246.866
L273.42 236.822
L273.6 238.385
L273.78 246.643
L273.96 237.938
L274.32 246.42
L274.5 248.652
L274.68 247.982
L274.86 237.938
L275.04 239.724
L275.22 244.188
L275.4 244.858
L275.58 247.313
L275.76 238.385
L275.94 244.411
L276.12 224.323
L276.3 238.385
L276.48 236.822
L276.66 237.938
L276.84 240.17
L277.02 234.367
L277.38 248.206
L277.56 247.536
L277.74 247.982
L277.92 246.42
L278.1 246.866
L278.28 244.188
L278.46 246.866
L278.64 247.759
L278.82 247.982
L279 244.411
L279.18 243.965
L279.54 235.93
L279.72 244.858
L279.9 237.715
L280.08 239.724
L280.26 246.866
L280.44 243.072
L280.62 243.072
L280.8 246.197
L280.98 240.84
L281.34 248.206
L281.52 247.759
L281.7 240.617
L281.88 239.501
L282.06 247.759
L282.24 240.617
L282.42 243.295
L282.6 235.706
L282.78 238.608
L282.96 237.938
L283.14 248.875
L283.32 235.93
L283.5 241.51
L283.68 236.599
L283.86 235.93
L284.04 237.715
L284.22 238.385
L284.4 232.135
L284.58 246.866
L284.76 235.483
L284.94 232.358
L285.12 224.1
L285.3 235.483
L285.48 236.822
L285.66 244.411
L285.84 244.188
L286.02 232.358
L286.2 234.367
L286.38 228.564
L286.74 241.733
L286.92 248.206
L287.1 246.866
L287.28 239.501
L287.46 241.063
L287.64 244.188
L287.82 240.617
L288.18 248.429
L288.36 247.313
L288.72 238.385
L288.9 239.054
L289.08 237.938
L289.44 247.536
L289.62 247.313
L289.8 245.081
L289.98 233.921
L290.16 240.17
L290.34 238.608
L290.52 239.054
L290.7 248.206
L290.88 248.875
L291.06 240.17
L291.24 239.947
L291.42 235.706
L291.6 236.376
L291.78 239.278
L291.96 249.098
L292.14 249.098
L292.32 241.286
L292.5 240.84
L292.68 237.046
L293.04 235.483
L293.22 244.634
L293.4 241.063
L293.58 229.457
L293.76 232.805
L293.94 230.35
L294.12 220.082
L294.3 220.975
L294.66 248.206
L294.84 229.01
L295.02 230.126
L295.2 224.323
L295.38 227.671
L295.56 210.708
L295.74 244.411
L295.92 241.51
L296.1 223.43
L296.28 235.483
L296.46 236.599
L296.64 232.135
L296.82 233.251
L297.18 248.652
L297.36 224.993
L297.54 222.538
L297.72 223.654
L297.9 241.51
L298.08 235.93
L298.26 241.286
L298.44 240.394
L298.62 240.17
L298.8 235.93
L298.98 241.956
L299.34 234.367
L299.7 246.643
L300.06 233.251
L300.24 237.046
L300.42 246.42
L300.6 236.599
L300.78 246.197
L300.96 245.081
L301.32 226.332
L301.86 237.269
L302.04 248.206
L302.4 242.849
L302.58 227.448
L302.76 245.081
L302.94 239.724
L303.12 210.038
L303.3 247.536
L303.48 246.866
L303.66 222.984
L304.02 235.483
L304.2 233.028
L304.56 243.295
L304.74 247.982
L304.92 229.01
L305.1 231.242
L305.28 229.903
L305.46 229.457
L305.82 244.411
L306 245.527
L306.36 219.413
L306.54 235.483
L306.72 229.68
L306.9 235.037
L307.08 244.411
L307.26 245.527
L307.44 241.286
L307.62 215.842
L307.98 237.492
L308.16 237.938
L308.34 245.974
L308.52 244.858
L308.7 206.244
L308.88 228.787
L309.06 225.662
L309.42 236.822
L309.6 245.974
L309.78 244.858
L309.96 233.028
L310.14 236.599
L310.32 244.634
L310.5 225.886
L310.68 241.286
L310.86 245.527
L311.04 246.866
L311.22 233.698
L311.58 230.126
L311.76 239.501
L311.94 239.278
L312.12 244.634
L312.3 245.304
L312.66 206.467
L312.84 207.583
L313.02 222.091
L313.2 216.734
L313.38 241.286
L313.56 242.402
L313.74 231.019
L313.92 234.59
L314.1 234.59
L314.28 245.527
L314.46 228.564
L314.64 248.652
L314.82 232.358
L315 231.242
L315.18 228.787
L315.36 235.26
L315.54 227.671
L315.72 226.109
L316.08 241.286
L316.26 227.671
L316.44 240.394
L316.98 237.938
L317.16 241.063
L317.34 241.286
L317.52 235.483
L317.7 221.422
L318.06 237.269
L318.24 240.17
L318.42 245.081
L318.6 239.278
L318.78 240.394
L319.14 235.706
L319.32 234.59
L319.5 231.912
L319.86 235.483
L320.04 232.805
L320.22 227.448
L320.4 228.787
L320.58 208.03
L321.12 239.278
L321.3 237.046
L321.48 216.734
L321.66 221.422
L321.84 235.26
L322.02 229.01
L322.2 229.68
L322.38 243.742
L322.74 242.626
L322.92 232.135
L323.1 228.341
L323.28 231.689
L323.64 233.028
L324 226.778
L324.18 239.054
L324.36 238.831
L324.54 233.698
L324.72 247.536
L325.08 222.761
L325.26 223.877
L325.44 221.198
L325.62 221.422
L325.8 237.046
L325.98 229.68
L326.16 234.814
L326.34 213.61
L326.52 224.546
L326.7 223.877
L326.88 223.877
L327.06 214.279
L327.24 76.1184
L327.6 230.126
L327.78 205.574
L327.96 218.297
L328.14 220.306
L328.32 28.8
L328.5 28.8
L328.68 86.6088
L328.86 204.012
L329.04 214.949
L329.22 216.734
L329.4 229.68
L329.58 220.975
L329.94 229.457
L330.12 229.234
L330.3 210.708
L330.48 236.599
L330.66 175.442
L330.84 156.247
L331.02 206.914
L331.2 223.654
L331.38 184.37
L331.74 204.458
L331.92 211.601
L332.1 28.8
L332.46 234.367
L332.64 106.25
L332.82 139.954
L333 111.384
L333.18 172.764
L333.36 160.488
L333.54 226.555
L333.72 230.35
L333.9 238.162
L334.08 221.868
L334.26 179.014
L334.44 172.541
L334.62 175.219
L334.8 200.664
L334.98 244.411
L335.16 28.8
L335.34 119.642
L335.52 91.296
L335.7 238.162
L336.06 241.286
L336.24 245.974
L336.42 230.35
L336.6 237.938
L336.78 224.993
L337.14 233.698
L337.5 247.536
L338.04 202.226
L338.22 230.796
L338.4 236.153
L338.58 247.09
L338.76 246.42
L338.94 228.787
L339.12 235.037
L339.48 226.332
L339.84 244.634
L340.02 245.527
L340.38 236.599
L340.56 236.822
L340.74 240.17
L340.92 237.492
L341.1 251.777
L341.28 248.875
L341.46 229.903
L341.64 225.439
L341.82 227.894
L342 228.341
L342.36 246.197
L342.54 244.634
L342.72 231.912
L342.9 235.483
L343.08 246.197
L343.44 244.188
L343.8 249.545
L343.98 246.197
L344.16 247.982
L344.34 248.429
L344.7 241.286
L344.88 245.75
L345.06 244.188
L345.24 240.394
L345.42 247.09
L345.78 232.805
L345.96 243.742
L346.14 243.965
L346.32 244.858
L346.5 241.286
L346.68 225.216
L346.86 229.457
L347.04 214.726
L347.22 233.474
L347.58 243.072
L347.76 232.805
L347.94 231.242
L348.12 235.706
L348.3 236.153
L348.48 230.796
L348.66 240.617
L348.84 240.617
L349.02 232.582
L349.2 237.269
L349.38 229.01
L349.56 228.787
L349.74 228.787
L349.92 240.394
L350.1 230.126
L350.28 234.814
L350.46 234.59
L350.64 222.314
L350.82 224.1
L351 219.19
L351.18 236.376
L351.36 236.376
L351.54 236.599
L351.72 238.385
L351.9 233.474
L352.08 221.422
L352.26 242.179
L352.44 241.286
L352.62 243.742
L352.8 237.492
L352.98 225.662
L353.16 236.822
L353.34 237.046
L353.52 238.831
L353.7 245.974
L353.88 242.849
L354.06 228.564
L354.24 233.474
L354.42 230.126
L354.6 231.019
L354.78 229.903
L354.96 241.286
L355.14 238.831
L355.32 189.281
L355.86 233.921
L356.04 230.126
L356.22 235.26
L356.4 246.866
L356.58 231.242
L356.94 227.002
L357.12 231.689
L357.3 226.332
L357.48 248.429
L357.84 234.814
L358.02 236.376
L358.2 228.564
L358.38 230.573
L358.56 227.671
L358.74 242.849
L358.92 240.394
L359.1 225.439
L359.46 239.501
L359.64 243.742
L360 235.706
L360.18 244.411
L360.36 230.796
L360.54 230.126
L360.72 224.77
L360.9 236.153
L361.08 219.636
L361.44 246.866
L361.8 231.912
L361.98 239.278
L362.16 235.26
L362.34 222.984
L362.52 245.304
L362.7 243.742
L362.88 225.886
L363.06 226.332
L363.24 229.457
L363.42 239.501
L363.6 223.43
L363.78 241.286
L363.96 233.698
L364.14 213.61
L364.5 231.912
L364.68 226.109
L364.86 235.483
L365.04 237.938
L365.22 245.527
L365.58 216.065
L365.76 231.242
L365.94 229.457
L366.12 173.657
L366.3 229.457
L366.66 193.745
L366.84 232.135
L367.02 195.084
L367.2 209.592
L367.38 235.26
L367.56 229.903
L367.74 240.394
L367.92 235.483
L368.1 220.975
L368.28 144.864
L368.46 154.015
L368.64 150.667
L368.82 191.736
L369 177.674
L369.18 185.933
L369.54 212.27
L369.9 181.246
L370.08 219.636
L370.26 219.636
L370.44 180.13
L370.62 174.773
L370.8 197.539
L370.98 117.187
L371.16 130.579
L371.34 212.717
L371.52 214.726
L371.7 214.726
L371.88 183.254
L372.06 220.529
L372.24 216.958
L372.42 174.103
L372.6 233.251
L372.78 233.251
L373.14 160.711
L373.32 116.518
L373.68 191.959
L373.86 199.325
L374.04 240.394
L374.22 133.481
L374.4 110.268
L374.58 132.365
L374.76 28.8
L374.94 129.686
L375.12 110.268
L375.3 28.8
L376.38 28.8
L376.56 179.906
L376.74 28.8
L377.64 28.8
L377.82 216.511
L378 28.8
L378.9 28.8
L379.08 228.564
L379.26 28.8
L380.16 28.8
L380.34 158.479
L380.52 28.8
L380.7 28.8
L380.88 53.7984
L381.06 135.266
L381.24 28.8
L381.42 66.2976
L381.6 244.634
L381.96 28.8
L382.5 28.8
L382.68 97.3224
L382.86 246.42
L383.04 192.852
L383.22 214.279
L383.4 184.37
L383.58 234.144
L383.76 208.699
L383.94 232.135
L384.12 238.608
L384.3 231.019
L384.48 239.054
L384.66 241.733
L384.84 207.583
L385.2 243.295
L385.38 244.188
L385.56 235.706
L385.74 234.814
L385.92 229.68
L386.1 217.627
L386.28 214.502
L386.64 241.286
L386.82 221.198
L387 159.149
L387.18 155.354
L387.54 214.726
L387.9 241.956
L388.26 189.727
L388.8 250.214
L388.8 250.214" style="fill:none;stroke:#0000ff;stroke-linecap:square;"/>
   </g>
   <g id="patch_3">
    <path d="
M54 28.8
L388.8 28.8" style="fill:none;stroke:#000000;stroke-linecap:square;stroke-linejoin:miter;"/>
   </g>
   <g id="patch_4">
    <path d="
M388.8 252
L388.8 28.8" style="fill:none;stroke:#000000;stroke-linecap:square;stroke-linejoin:miter;"/>
   </g>
   <g id="patch_5">
    <path d="
M54 252
L388.8 252" style="fill:none;stroke:#000000;stroke-linecap:square;stroke-linejoin:miter;"/>
   </g>
   <g id="patch_6">
    <path d="
M54 252
L54 28.8" style="fill:none;stroke:#000000;stroke-linecap:square;stroke-linejoin:miter;"/>
   </g>
   <g id="matplotlib.axis_1">
    <g id="xtick_1">
     <g id="line2d_2">
      <defs>
       <path d="
M0 0
L0 -4" id="m93b0483c22" style="stroke:#000000;stroke-width:0.5;"/>
      </defs>
      <g>
       <use style="stroke:#000000;stroke-width:0.5;" x="81.54" xlink:href="#m93b0483c22" y="252.0"/>
      </g>
     </g>
     <g id="line2d_3">
      <defs>
       <path d="
M0 0
L0 4" id="m741efc42ff" style="stroke:#000000;stroke-width:0.5;"/>
      </defs>
      <g>
       <use style="stroke:#000000;stroke-width:0.5;" x="81.54" xlink:href="#m741efc42ff" y="28.8"/>
      </g>
     </g>
     <g id="text_1">
      <!-- 2011 -->
      <defs>
       <path d="
M19.1875 8.29688
L53.6094 8.29688
L53.6094 0
L7.32812 0
L7.32812 8.29688
Q12.9375 14.1094 22.625 23.8906
Q32.3281 33.6875 34.8125 36.5312
Q39.5469 41.8438 41.4219 45.5312
Q43.3125 49.2188 43.3125 52.7812
Q43.3125 58.5938 39.2344 62.25
Q35.1562 65.9219 28.6094 65.9219
Q23.9688 65.9219 18.8125 64.3125
Q13.6719 62.7031 7.8125 59.4219
L7.8125 69.3906
Q13.7656 71.7812 18.9375 73
Q24.125 74.2188 28.4219 74.2188
Q39.75 74.2188 46.4844 68.5469
Q53.2188 62.8906 53.2188 53.4219
Q53.2188 48.9219 51.5312 44.8906
Q49.8594 40.875 45.4062 35.4062
Q44.1875 33.9844 37.6406 27.2188
Q31.1094 20.4531 19.1875 8.29688" id="BitstreamVeraSans-Roman-32"/>
       <path d="
M31.7812 66.4062
Q24.1719 66.4062 20.3281 58.9062
Q16.5 51.4219 16.5 36.375
Q16.5 21.3906 20.3281 13.8906
Q24.1719 6.39062 31.7812 6.39062
Q39.4531 6.39062 43.2812 13.8906
Q47.125 21.3906 47.125 36.375
Q47.125 51.4219 43.2812 58.9062
Q39.4531 66.4062 31.7812 66.4062
M31.7812 74.2188
Q44.0469 74.2188 50.5156 64.5156
Q56.9844 54.8281 56.9844 36.375
Q56.9844 17.9688 50.5156 8.26562
Q44.0469 -1.42188 31.7812 -1.42188
Q19.5312 -1.42188 13.0625 8.26562
Q6.59375 17.9688 6.59375 36.375
Q6.59375 54.8281 13.0625 64.5156
Q19.5312 74.2188 31.7812 74.2188" id="BitstreamVeraSans-Roman-30"/>
       <path d="
M12.4062 8.29688
L28.5156 8.29688
L28.5156 63.9219
L10.9844 60.4062
L10.9844 69.3906
L28.4219 72.9062
L38.2812 72.9062
L38.2812 8.29688
L54.3906 8.29688
L54.3906 0
L12.4062 0
z
" id="BitstreamVeraSans-Roman-31"/>
      </defs>
      <g transform="translate(69.63375 264.0)scale(0.1 -0.1)">
       <use xlink:href="#BitstreamVeraSans-Roman-32"/>
       <use x="63.623046875" xlink:href="#BitstreamVeraSans-Roman-30"/>
       <use x="127.24609375" xlink:href="#BitstreamVeraSans-Roman-31"/>
       <use x="190.869140625" xlink:href="#BitstreamVeraSans-Roman-31"/>
      </g>
     </g>
    </g>
    <g id="xtick_2">
     <g id="line2d_4">
      <g>
       <use style="stroke:#000000;stroke-width:0.5;" x="147.24" xlink:href="#m93b0483c22" y="252.0"/>
      </g>
     </g>
     <g id="line2d_5">
      <g>
       <use style="stroke:#000000;stroke-width:0.5;" x="147.24" xlink:href="#m741efc42ff" y="28.8"/>
      </g>
     </g>
     <g id="text_2">
      <!-- 2012 -->
      <g transform="translate(135.3728125 264.0)scale(0.1 -0.1)">
       <use xlink:href="#BitstreamVeraSans-Roman-32"/>
       <use x="63.623046875" xlink:href="#BitstreamVeraSans-Roman-30"/>
       <use x="127.24609375" xlink:href="#BitstreamVeraSans-Roman-31"/>
       <use x="190.869140625" xlink:href="#BitstreamVeraSans-Roman-32"/>
      </g>
     </g>
    </g>
    <g id="xtick_3">
     <g id="line2d_6">
      <g>
       <use style="stroke:#000000;stroke-width:0.5;" x="213.12" xlink:href="#m93b0483c22" y="252.0"/>
      </g>
     </g>
     <g id="line2d_7">
      <g>
       <use style="stroke:#000000;stroke-width:0.5;" x="213.12" xlink:href="#m741efc42ff" y="28.8"/>
      </g>
     </g>
     <g id="text_3">
      <!-- 2013 -->
      <defs>
       <path d="
M40.5781 39.3125
Q47.6562 37.7969 51.625 33
Q55.6094 28.2188 55.6094 21.1875
Q55.6094 10.4062 48.1875 4.48438
Q40.7656 -1.42188 27.0938 -1.42188
Q22.5156 -1.42188 17.6562 -0.515625
Q12.7969 0.390625 7.625 2.20312
L7.625 11.7188
Q11.7188 9.32812 16.5938 8.10938
Q21.4844 6.89062 26.8125 6.89062
Q36.0781 6.89062 40.9375 10.5469
Q45.7969 14.2031 45.7969 21.1875
Q45.7969 27.6406 41.2812 31.2656
Q36.7656 34.9062 28.7188 34.9062
L20.2188 34.9062
L20.2188 43.0156
L29.1094 43.0156
Q36.375 43.0156 40.2344 45.9219
Q44.0938 48.8281 44.0938 54.2969
Q44.0938 59.9062 40.1094 62.9062
Q36.1406 65.9219 28.7188 65.9219
Q24.6562 65.9219 20.0156 65.0312
Q15.375 64.1562 9.8125 62.3125
L9.8125 71.0938
Q15.4375 72.6562 20.3438 73.4375
Q25.25 74.2188 29.5938 74.2188
Q40.8281 74.2188 47.3594 69.1094
Q53.9062 64.0156 53.9062 55.3281
Q53.9062 49.2656 50.4375 45.0938
Q46.9688 40.9219 40.5781 39.3125" id="BitstreamVeraSans-Roman-33"/>
      </defs>
      <g transform="translate(201.1825 264.0)scale(0.1 -0.1)">
       <use xlink:href="#BitstreamVeraSans-Roman-32"/>
       <use x="63.623046875" xlink:href="#BitstreamVeraSans-Roman-30"/>
       <use x="127.24609375" xlink:href="#BitstreamVeraSans-Roman-31"/>
       <use x="190.869140625" xlink:href="#BitstreamVeraSans-Roman-33"/>
      </g>
     </g>
    </g>
    <g id="xtick_4">
     <g id="line2d_8">
      <g>
       <use style="stroke:#000000;stroke-width:0.5;" x="278.82" xlink:href="#m93b0483c22" y="252.0"/>
      </g>
     </g>
     <g id="line2d_9">
      <g>
       <use style="stroke:#000000;stroke-width:0.5;" x="278.82" xlink:href="#m741efc42ff" y="28.8"/>
      </g>
     </g>
     <g id="text_4">
      <!-- 2014 -->
      <defs>
       <path d="
M37.7969 64.3125
L12.8906 25.3906
L37.7969 25.3906
z

M35.2031 72.9062
L47.6094 72.9062
L47.6094 25.3906
L58.0156 25.3906
L58.0156 17.1875
L47.6094 17.1875
L47.6094 0
L37.7969 0
L37.7969 17.1875
L4.89062 17.1875
L4.89062 26.7031
z
" id="BitstreamVeraSans-Roman-34"/>
      </defs>
      <g transform="translate(266.7653125 264.0)scale(0.1 -0.1)">
       <use xlink:href="#BitstreamVeraSans-Roman-32"/>
       <use x="63.623046875" xlink:href="#BitstreamVeraSans-Roman-30"/>
       <use x="127.24609375" xlink:href="#BitstreamVeraSans-Roman-31"/>
       <use x="190.869140625" xlink:href="#BitstreamVeraSans-Roman-34"/>
      </g>
     </g>
    </g>
    <g id="xtick_5">
     <g id="line2d_10">
      <g>
       <use style="stroke:#000000;stroke-width:0.5;" x="344.52" xlink:href="#m93b0483c22" y="252.0"/>
      </g>
     </g>
     <g id="line2d_11">
      <g>
       <use style="stroke:#000000;stroke-width:0.5;" x="344.52" xlink:href="#m741efc42ff" y="28.8"/>
      </g>
     </g>
     <g id="text_5">
      <!-- 2015 -->
      <defs>
       <path d="
M10.7969 72.9062
L49.5156 72.9062
L49.5156 64.5938
L19.8281 64.5938
L19.8281 46.7344
Q21.9688 47.4688 24.1094 47.8281
Q26.2656 48.1875 28.4219 48.1875
Q40.625 48.1875 47.75 41.5
Q54.8906 34.8125 54.8906 23.3906
Q54.8906 11.625 47.5625 5.09375
Q40.2344 -1.42188 26.9062 -1.42188
Q22.3125 -1.42188 17.5469 -0.640625
Q12.7969 0.140625 7.71875 1.70312
L7.71875 11.625
Q12.1094 9.23438 16.7969 8.0625
Q21.4844 6.89062 26.7031 6.89062
Q35.1562 6.89062 40.0781 11.3281
Q45.0156 15.7656 45.0156 23.3906
Q45.0156 31 40.0781 35.4375
Q35.1562 39.8906 26.7031 39.8906
Q22.75 39.8906 18.8125 39.0156
Q14.8906 38.1406 10.7969 36.2812
z
" id="BitstreamVeraSans-Roman-35"/>
      </defs>
      <g transform="translate(332.5825 264.0)scale(0.1 -0.1)">
       <use xlink:href="#BitstreamVeraSans-Roman-32"/>
       <use x="63.623046875" xlink:href="#BitstreamVeraSans-Roman-30"/>
       <use x="127.24609375" xlink:href="#BitstreamVeraSans-Roman-31"/>
       <use x="190.869140625" xlink:href="#BitstreamVeraSans-Roman-35"/>
      </g>
     </g>
    </g>
   </g>
   <g id="matplotlib.axis_2">
    <g id="ytick_1">
     <g id="line2d_12">
      <defs>
       <path d="
M0 0
L4 0" id="m728421d6d4" style="stroke:#000000;stroke-width:0.5;"/>
      </defs>
      <g>
       <use style="stroke:#000000;stroke-width:0.5;" x="54.0" xlink:href="#m728421d6d4" y="252.0"/>
      </g>
     </g>
     <g id="line2d_13">
      <defs>
       <path d="
M0 0
L-4 0" id="mcb0005524f" style="stroke:#000000;stroke-width:0.5;"/>
      </defs>
      <g>
       <use style="stroke:#000000;stroke-width:0.5;" x="388.8" xlink:href="#mcb0005524f" y="252.0"/>
      </g>
     </g>
     <g id="text_6">
      <!-- 0 -->
      <g transform="translate(45.0 255.0)scale(0.1 -0.1)">
       <use xlink:href="#BitstreamVeraSans-Roman-30"/>
      </g>
     </g>
    </g>
    <g id="ytick_2">
     <g id="line2d_14">
      <g>
       <use style="stroke:#000000;stroke-width:0.5;" x="54.0" xlink:href="#m728421d6d4" y="207.36"/>
      </g>
     </g>
     <g id="line2d_15">
      <g>
       <use style="stroke:#000000;stroke-width:0.5;" x="388.8" xlink:href="#mcb0005524f" y="207.36"/>
      </g>
     </g>
     <g id="text_7">
      <!-- 200 -->
      <g transform="translate(32.309375 210.119375)scale(0.1 -0.1)">
       <use xlink:href="#BitstreamVeraSans-Roman-32"/>
       <use x="63.623046875" xlink:href="#BitstreamVeraSans-Roman-30"/>
       <use x="127.24609375" xlink:href="#BitstreamVeraSans-Roman-30"/>
      </g>
     </g>
    </g>
    <g id="ytick_3">
     <g id="line2d_16">
      <g>
       <use style="stroke:#000000;stroke-width:0.5;" x="54.0" xlink:href="#m728421d6d4" y="162.72"/>
      </g>
     </g>
     <g id="line2d_17">
      <g>
       <use style="stroke:#000000;stroke-width:0.5;" x="388.8" xlink:href="#mcb0005524f" y="162.72"/>
      </g>
     </g>
     <g id="text_8">
      <!-- 400 -->
      <g transform="translate(32.065625 165.479375)scale(0.1 -0.1)">
       <use xlink:href="#BitstreamVeraSans-Roman-34"/>
       <use x="63.623046875" xlink:href="#BitstreamVeraSans-Roman-30"/>
       <use x="127.24609375" xlink:href="#BitstreamVeraSans-Roman-30"/>
      </g>
     </g>
    </g>
    <g id="ytick_4">
     <g id="line2d_18">
      <g>
       <use style="stroke:#000000;stroke-width:0.5;" x="54.0" xlink:href="#m728421d6d4" y="118.08"/>
      </g>
     </g>
     <g id="line2d_19">
      <g>
       <use style="stroke:#000000;stroke-width:0.5;" x="388.8" xlink:href="#mcb0005524f" y="118.08"/>
      </g>
     </g>
     <g id="text_9">
      <!-- 600 -->
      <defs>
       <path d="
M33.0156 40.375
Q26.375 40.375 22.4844 35.8281
Q18.6094 31.2969 18.6094 23.3906
Q18.6094 15.5312 22.4844 10.9531
Q26.375 6.39062 33.0156 6.39062
Q39.6562 6.39062 43.5312 10.9531
Q47.4062 15.5312 47.4062 23.3906
Q47.4062 31.2969 43.5312 35.8281
Q39.6562 40.375 33.0156 40.375
M52.5938 71.2969
L52.5938 62.3125
Q48.875 64.0625 45.0938 64.9844
Q41.3125 65.9219 37.5938 65.9219
Q27.8281 65.9219 22.6719 59.3281
Q17.5312 52.7344 16.7969 39.4062
Q19.6719 43.6562 24.0156 45.9219
Q28.375 48.1875 33.5938 48.1875
Q44.5781 48.1875 50.9531 41.5156
Q57.3281 34.8594 57.3281 23.3906
Q57.3281 12.1562 50.6875 5.35938
Q44.0469 -1.42188 33.0156 -1.42188
Q20.3594 -1.42188 13.6719 8.26562
Q6.98438 17.9688 6.98438 36.375
Q6.98438 53.6562 15.1875 63.9375
Q23.3906 74.2188 37.2031 74.2188
Q40.9219 74.2188 44.7031 73.4844
Q48.4844 72.75 52.5938 71.2969" id="BitstreamVeraSans-Roman-36"/>
      </defs>
      <g transform="translate(32.275 120.839375)scale(0.1 -0.1)">
       <use xlink:href="#BitstreamVeraSans-Roman-36"/>
       <use x="63.623046875" xlink:href="#BitstreamVeraSans-Roman-30"/>
       <use x="127.24609375" xlink:href="#BitstreamVeraSans-Roman-30"/>
      </g>
     </g>
    </g>
    <g id="ytick_5">
     <g id="line2d_20">
      <g>
       <use style="stroke:#000000;stroke-width:0.5;" x="54.0" xlink:href="#m728421d6d4" y="73.44"/>
      </g>
     </g>
     <g id="line2d_21">
      <g>
       <use style="stroke:#000000;stroke-width:0.5;" x="388.8" xlink:href="#mcb0005524f" y="73.44"/>
      </g>
     </g>
     <g id="text_10">
      <!-- 800 -->
      <defs>
       <path d="
M31.7812 34.625
Q24.75 34.625 20.7188 30.8594
Q16.7031 27.0938 16.7031 20.5156
Q16.7031 13.9219 20.7188 10.1562
Q24.75 6.39062 31.7812 6.39062
Q38.8125 6.39062 42.8594 10.1719
Q46.9219 13.9688 46.9219 20.5156
Q46.9219 27.0938 42.8906 30.8594
Q38.875 34.625 31.7812 34.625
M21.9219 38.8125
Q15.5781 40.375 12.0312 44.7188
Q8.5 49.0781 8.5 55.3281
Q8.5 64.0625 14.7188 69.1406
Q20.9531 74.2188 31.7812 74.2188
Q42.6719 74.2188 48.875 69.1406
Q55.0781 64.0625 55.0781 55.3281
Q55.0781 49.0781 51.5312 44.7188
Q48 40.375 41.7031 38.8125
Q48.8281 37.1562 52.7969 32.3125
Q56.7812 27.4844 56.7812 20.5156
Q56.7812 9.90625 50.3125 4.23438
Q43.8438 -1.42188 31.7812 -1.42188
Q19.7344 -1.42188 13.25 4.23438
Q6.78125 9.90625 6.78125 20.5156
Q6.78125 27.4844 10.7812 32.3125
Q14.7969 37.1562 21.9219 38.8125
M18.3125 54.3906
Q18.3125 48.7344 21.8438 45.5625
Q25.3906 42.3906 31.7812 42.3906
Q38.1406 42.3906 41.7188 45.5625
Q45.3125 48.7344 45.3125 54.3906
Q45.3125 60.0625 41.7188 63.2344
Q38.1406 66.4062 31.7812 66.4062
Q25.3906 66.4062 21.8438 63.2344
Q18.3125 60.0625 18.3125 54.3906" id="BitstreamVeraSans-Roman-38"/>
      </defs>
      <g transform="translate(32.2546875 76.199375)scale(0.1 -0.1)">
       <use xlink:href="#BitstreamVeraSans-Roman-38"/>
       <use x="63.623046875" xlink:href="#BitstreamVeraSans-Roman-30"/>
       <use x="127.24609375" xlink:href="#BitstreamVeraSans-Roman-30"/>
      </g>
     </g>
    </g>
    <g id="ytick_6">
     <g id="line2d_22">
      <g>
       <use style="stroke:#000000;stroke-width:0.5;" x="54.0" xlink:href="#m728421d6d4" y="28.8"/>
      </g>
     </g>
     <g id="line2d_23">
      <g>
       <use style="stroke:#000000;stroke-width:0.5;" x="388.8" xlink:href="#mcb0005524f" y="28.8"/>
      </g>
     </g>
     <g id="text_11">
      <!-- 1000 -->
      <g transform="translate(26.375 31.8)scale(0.1 -0.1)">
       <use xlink:href="#BitstreamVeraSans-Roman-31"/>
       <use x="63.623046875" xlink:href="#BitstreamVeraSans-Roman-30"/>
       <use x="127.24609375" xlink:href="#BitstreamVeraSans-Roman-30"/>
       <use x="190.869140625" xlink:href="#BitstreamVeraSans-Roman-30"/>
      </g>
     </g>
    </g>
    <g id="text_12">
     <!-- New OpenLibrary books -->
     <defs>
      <path d="
M39.4062 66.2188
Q28.6562 66.2188 22.3281 58.2031
Q16.0156 50.2031 16.0156 36.375
Q16.0156 22.6094 22.3281 14.5938
Q28.6562 6.59375 39.4062 6.59375
Q50.1406 6.59375 56.4219 14.5938
Q62.7031 22.6094 62.7031 36.375
Q62.7031 50.2031 56.4219 58.2031
Q50.1406 66.2188 39.4062 66.2188
M39.4062 74.2188
Q54.7344 74.2188 63.9062 63.9375
Q73.0938 53.6562 73.0938 36.375
Q73.0938 19.1406 63.9062 8.85938
Q54.7344 -1.42188 39.4062 -1.42188
Q24.0312 -1.42188 14.8125 8.82812
Q5.60938 19.0938 5.60938 36.375
Q5.60938 53.6562 14.8125 63.9375
Q24.0312 74.2188 39.4062 74.2188" id="BitstreamVeraSans-Roman-4f"/>
      <path d="
M9.8125 72.9062
L23.0938 72.9062
L55.4219 11.9219
L55.4219 72.9062
L64.9844 72.9062
L64.9844 0
L51.7031 0
L19.3906 60.9844
L19.3906 0
L9.8125 0
z
" id="BitstreamVeraSans-Roman-4e"/>
      <path d="
M9.8125 72.9062
L19.6719 72.9062
L19.6719 8.29688
L55.1719 8.29688
L55.1719 0
L9.8125 0
z
" id="BitstreamVeraSans-Roman-4c"/>
      <path id="BitstreamVeraSans-Roman-20"/>
      <path d="
M54.8906 33.0156
L54.8906 0
L45.9062 0
L45.9062 32.7188
Q45.9062 40.4844 42.875 44.3281
Q39.8438 48.1875 33.7969 48.1875
Q26.5156 48.1875 22.3125 43.5469
Q18.1094 38.9219 18.1094 30.9062
L18.1094 0
L9.07812 0
L9.07812 54.6875
L18.1094 54.6875
L18.1094 46.1875
Q21.3438 51.125 25.7031 53.5625
Q30.0781 56 35.7969 56
Q45.2188 56 50.0469 50.1719
Q54.8906 44.3438 54.8906 33.0156" id="BitstreamVeraSans-Roman-6e"/>
      <path d="
M34.2812 27.4844
Q23.3906 27.4844 19.1875 25
Q14.9844 22.5156 14.9844 16.5
Q14.9844 11.7188 18.1406 8.90625
Q21.2969 6.10938 26.7031 6.10938
Q34.1875 6.10938 38.7031 11.4062
Q43.2188 16.7031 43.2188 25.4844
L43.2188 27.4844
z

M52.2031 31.2031
L52.2031 0
L43.2188 0
L43.2188 8.29688
Q40.1406 3.32812 35.5469 0.953125
Q30.9531 -1.42188 24.3125 -1.42188
Q15.9219 -1.42188 10.9531 3.29688
Q6 8.01562 6 15.9219
Q6 25.1406 12.1719 29.8281
Q18.3594 34.5156 30.6094 34.5156
L43.2188 34.5156
L43.2188 35.4062
Q43.2188 41.6094 39.1406 45
Q35.0625 48.3906 27.6875 48.3906
Q23 48.3906 18.5469 47.2656
Q14.1094 46.1406 10.0156 43.8906
L10.0156 52.2031
Q14.9375 54.1094 19.5781 55.0469
Q24.2188 56 28.6094 56
Q40.4844 56 46.3438 49.8438
Q52.2031 43.7031 52.2031 31.2031" id="BitstreamVeraSans-Roman-61"/>
      <path d="
M30.6094 48.3906
Q23.3906 48.3906 19.1875 42.75
Q14.9844 37.1094 14.9844 27.2969
Q14.9844 17.4844 19.1562 11.8438
Q23.3438 6.20312 30.6094 6.20312
Q37.7969 6.20312 41.9844 11.8594
Q46.1875 17.5312 46.1875 27.2969
Q46.1875 37.0156 41.9844 42.7031
Q37.7969 48.3906 30.6094 48.3906
M30.6094 56
Q42.3281 56 49.0156 48.375
Q55.7188 40.7656 55.7188 27.2969
Q55.7188 13.875 49.0156 6.21875
Q42.3281 -1.42188 30.6094 -1.42188
Q18.8438 -1.42188 12.1719 6.21875
Q5.51562 13.875 5.51562 27.2969
Q5.51562 40.7656 12.1719 48.375
Q18.8438 56 30.6094 56" id="BitstreamVeraSans-Roman-6f"/>
      <path d="
M9.07812 75.9844
L18.1094 75.9844
L18.1094 31.1094
L44.9219 54.6875
L56.3906 54.6875
L27.3906 29.1094
L57.625 0
L45.9062 0
L18.1094 26.7031
L18.1094 0
L9.07812 0
z
" id="BitstreamVeraSans-Roman-6b"/>
      <path d="
M9.42188 54.6875
L18.4062 54.6875
L18.4062 0
L9.42188 0
z

M9.42188 75.9844
L18.4062 75.9844
L18.4062 64.5938
L9.42188 64.5938
z
" id="BitstreamVeraSans-Roman-69"/>
      <path d="
M32.1719 -5.07812
Q28.375 -14.8438 24.75 -17.8125
Q21.1406 -20.7969 15.0938 -20.7969
L7.90625 -20.7969
L7.90625 -13.2812
L13.1875 -13.2812
Q16.8906 -13.2812 18.9375 -11.5156
Q21 -9.76562 23.4844 -3.21875
L25.0938 0.875
L2.98438 54.6875
L12.5 54.6875
L29.5938 11.9219
L46.6875 54.6875
L56.2031 54.6875
z
" id="BitstreamVeraSans-Roman-79"/>
      <path d="
M56.2031 29.5938
L56.2031 25.2031
L14.8906 25.2031
Q15.4844 15.9219 20.4844 11.0625
Q25.4844 6.20312 34.4219 6.20312
Q39.5938 6.20312 44.4531 7.46875
Q49.3125 8.73438 54.1094 11.2812
L54.1094 2.78125
Q49.2656 0.734375 44.1875 -0.34375
Q39.1094 -1.42188 33.8906 -1.42188
Q20.7969 -1.42188 13.1562 6.1875
Q5.51562 13.8125 5.51562 26.8125
Q5.51562 40.2344 12.7656 48.1094
Q20.0156 56 32.3281 56
Q43.3594 56 49.7812 48.8906
Q56.2031 41.7969 56.2031 29.5938
M47.2188 32.2344
Q47.125 39.5938 43.0938 43.9844
Q39.0625 48.3906 32.4219 48.3906
Q24.9062 48.3906 20.3906 44.1406
Q15.875 39.8906 15.1875 32.1719
z
" id="BitstreamVeraSans-Roman-65"/>
      <path d="
M4.20312 54.6875
L13.1875 54.6875
L24.4219 12.0156
L35.5938 54.6875
L46.1875 54.6875
L57.4219 12.0156
L68.6094 54.6875
L77.5938 54.6875
L63.2812 0
L52.6875 0
L40.9219 44.8281
L29.1094 0
L18.5 0
z
" id="BitstreamVeraSans-Roman-77"/>
      <path d="
M41.1094 46.2969
Q39.5938 47.1719 37.8125 47.5781
Q36.0312 48 33.8906 48
Q26.2656 48 22.1875 43.0469
Q18.1094 38.0938 18.1094 28.8125
L18.1094 0
L9.07812 0
L9.07812 54.6875
L18.1094 54.6875
L18.1094 46.1875
Q20.9531 51.1719 25.4844 53.5781
Q30.0312 56 36.5312 56
Q37.4531 56 38.5781 55.875
Q39.7031 55.7656 41.0625 55.5156
z
" id="BitstreamVeraSans-Roman-72"/>
      <path d="
M44.2812 53.0781
L44.2812 44.5781
Q40.4844 46.5312 36.375 47.5
Q32.2812 48.4844 27.875 48.4844
Q21.1875 48.4844 17.8438 46.4375
Q14.5 44.3906 14.5 40.2812
Q14.5 37.1562 16.8906 35.375
Q19.2812 33.5938 26.5156 31.9844
L29.5938 31.2969
Q39.1562 29.25 43.1875 25.5156
Q47.2188 21.7812 47.2188 15.0938
Q47.2188 7.46875 41.1875 3.01562
Q35.1562 -1.42188 24.6094 -1.42188
Q20.2188 -1.42188 15.4531 -0.5625
Q10.6875 0.296875 5.42188 2
L5.42188 11.2812
Q10.4062 8.6875 15.2344 7.39062
Q20.0625 6.10938 24.8125 6.10938
Q31.1562 6.10938 34.5625 8.28125
Q37.9844 10.4531 37.9844 14.4062
Q37.9844 18.0625 35.5156 20.0156
Q33.0625 21.9688 24.7031 23.7812
L21.5781 24.5156
Q13.2344 26.2656 9.51562 29.9062
Q5.8125 33.5469 5.8125 39.8906
Q5.8125 47.6094 11.2812 51.7969
Q16.75 56 26.8125 56
Q31.7812 56 36.1719 55.2656
Q40.5781 54.5469 44.2812 53.0781" id="BitstreamVeraSans-Roman-73"/>
      <path d="
M18.1094 8.20312
L18.1094 -20.7969
L9.07812 -20.7969
L9.07812 54.6875
L18.1094 54.6875
L18.1094 46.3906
Q20.9531 51.2656 25.2656 53.625
Q29.5938 56 35.5938 56
Q45.5625 56 51.7812 48.0938
Q58.0156 40.1875 58.0156 27.2969
Q58.0156 14.4062 51.7812 6.48438
Q45.5625 -1.42188 35.5938 -1.42188
Q29.5938 -1.42188 25.2656 0.953125
Q20.9531 3.32812 18.1094 8.20312
M48.6875 27.2969
Q48.6875 37.2031 44.6094 42.8438
Q40.5312 48.4844 33.4062 48.4844
Q26.2656 48.4844 22.1875 42.8438
Q18.1094 37.2031 18.1094 27.2969
Q18.1094 17.3906 22.1875 11.75
Q26.2656 6.10938 33.4062 6.10938
Q40.5312 6.10938 44.6094 11.75
Q48.6875 17.3906 48.6875 27.2969" id="BitstreamVeraSans-Roman-70"/>
      <path d="
M48.6875 27.2969
Q48.6875 37.2031 44.6094 42.8438
Q40.5312 48.4844 33.4062 48.4844
Q26.2656 48.4844 22.1875 42.8438
Q18.1094 37.2031 18.1094 27.2969
Q18.1094 17.3906 22.1875 11.75
Q26.2656 6.10938 33.4062 6.10938
Q40.5312 6.10938 44.6094 11.75
Q48.6875 17.3906 48.6875 27.2969
M18.1094 46.3906
Q20.9531 51.2656 25.2656 53.625
Q29.5938 56 35.5938 56
Q45.5625 56 51.7812 48.0938
Q58.0156 40.1875 58.0156 27.2969
Q58.0156 14.4062 51.7812 6.48438
Q45.5625 -1.42188 35.5938 -1.42188
Q29.5938 -1.42188 25.2656 0.953125
Q20.9531 3.32812 18.1094 8.20312
L18.1094 0
L9.07812 0
L9.07812 75.9844
L18.1094 75.9844
z
" id="BitstreamVeraSans-Roman-62"/>
     </defs>
     <g transform="translate(19.2953125 199.87265625)rotate(-90.0)scale(0.1 -0.1)">
      <use xlink:href="#BitstreamVeraSans-Roman-4e"/>
      <use x="74.8046875" xlink:href="#BitstreamVeraSans-Roman-65"/>
      <use x="136.328125" xlink:href="#BitstreamVeraSans-Roman-77"/>
      <use x="218.115234375" xlink:href="#BitstreamVeraSans-Roman-20"/>
      <use x="249.90234375" xlink:href="#BitstreamVeraSans-Roman-4f"/>
      <use x="328.61328125" xlink:href="#BitstreamVeraSans-Roman-70"/>
      <use x="392.08984375" xlink:href="#BitstreamVeraSans-Roman-65"/>
      <use x="453.61328125" xlink:href="#BitstreamVeraSans-Roman-6e"/>
      <use x="516.9921875" xlink:href="#BitstreamVeraSans-Roman-4c"/>
      <use x="572.705078125" xlink:href="#BitstreamVeraSans-Roman-69"/>
      <use x="600.48828125" xlink:href="#BitstreamVeraSans-Roman-62"/>
      <use x="663.96484375" xlink:href="#BitstreamVeraSans-Roman-72"/>
      <use x="705.078125" xlink:href="#BitstreamVeraSans-Roman-61"/>
      <use x="766.357421875" xlink:href="#BitstreamVeraSans-Roman-72"/>
      <use x="807.470703125" xlink:href="#BitstreamVeraSans-Roman-79"/>
      <use x="866.650390625" xlink:href="#BitstreamVeraSans-Roman-20"/>
      <use x="898.4375" xlink:href="#BitstreamVeraSans-Roman-62"/>
      <use x="961.9140625" xlink:href="#BitstreamVeraSans-Roman-6f"/>
      <use x="1023.09570312" xlink:href="#BitstreamVeraSans-Roman-6f"/>
      <use x="1084.27734375" xlink:href="#BitstreamVeraSans-Roman-6b"/>
      <use x="1142.1875" xlink:href="#BitstreamVeraSans-Roman-73"/>
     </g>
    </g>
   </g>
  </g>
 </g>
 <defs>
  <clipPath id="p124b8dd147">
   <rect height="223.2" width="334.8" x="54.0" y="28.8"/>
  </clipPath>
 </defs>
</svg>
