<?xml version="1.0" encoding="utf-8" standalone="no"?>
<!DOCTYPE svg PUBLIC "-//W3C//DTD SVG 1.1//EN"
  "http://www.w3.org/Graphics/SVG/1.1/DTD/svg11.dtd">
<!-- Created with matplotlib (https://matplotlib.org/) -->
<svg height="345.6pt" version="1.1" viewBox="0 0 460.8 345.6" width="460.8pt" xmlns="http://www.w3.org/2000/svg" xmlns:xlink="http://www.w3.org/1999/xlink">
 <defs>
  <style type="text/css">
*{stroke-linecap:butt;stroke-linejoin:round;}
  </style>
 </defs>
 <g id="figure_1">
  <g id="patch_1">
   <path d="M 0 345.6 
L 460.8 345.6 
L 460.8 0 
L 0 0 
z
" style="fill:#ffffff;"/>
  </g>
  <g id="axes_1">
   <g id="patch_2">
    <path d="M 57.6 307.584 
L 414.72 307.584 
L 414.72 41.472 
L 57.6 41.472 
z
" style="fill:#ffffff;"/>
   </g>
   <g id="matplotlib.axis_1">
    <g id="xtick_1">
     <g id="line2d_1">
      <defs>
       <path d="M 0 0 
L 0 3.5 
" id="md51a974b64" style="stroke:#000000;stroke-width:0.8;"/>
      </defs>
      <g>
       <use style="stroke:#000000;stroke-width:0.8;" x="90.140063" xlink:href="#md51a974b64" y="307.584"/>
      </g>
     </g>
     <g id="text_1">
      <!-- 2011 -->
      <defs>
       <path d="M 19.1875 8.296875 
L 53.609375 8.296875 
L 53.609375 0 
L 7.328125 0 
L 7.328125 8.296875 
Q 12.9375 14.109375 22.625 23.890625 
Q 32.328125 33.6875 34.8125 36.53125 
Q 39.546875 41.84375 41.421875 45.53125 
Q 43.3125 49.21875 43.3125 52.78125 
Q 43.3125 58.59375 39.234375 62.25 
Q 35.15625 65.921875 28.609375 65.921875 
Q 23.96875 65.921875 18.8125 64.3125 
Q 13.671875 62.703125 7.8125 59.421875 
L 7.8125 69.390625 
Q 13.765625 71.78125 18.9375 73 
Q 24.125 74.21875 28.421875 74.21875 
Q 39.75 74.21875 46.484375 68.546875 
Q 53.21875 62.890625 53.21875 53.421875 
Q 53.21875 48.921875 51.53125 44.890625 
Q 49.859375 40.875 45.40625 35.40625 
Q 44.1875 33.984375 37.640625 27.21875 
Q 31.109375 20.453125 19.1875 8.296875 
z
" id="DejaVuSans-50"/>
       <path d="M 31.78125 66.40625 
Q 24.171875 66.40625 20.328125 58.90625 
Q 16.5 51.421875 16.5 36.375 
Q 16.5 21.390625 20.328125 13.890625 
Q 24.171875 6.390625 31.78125 6.390625 
Q 39.453125 6.390625 43.28125 13.890625 
Q 47.125 21.390625 47.125 36.375 
Q 47.125 51.421875 43.28125 58.90625 
Q 39.453125 66.40625 31.78125 66.40625 
z
M 31.78125 74.21875 
Q 44.046875 74.21875 50.515625 64.515625 
Q 56.984375 54.828125 56.984375 36.375 
Q 56.984375 17.96875 50.515625 8.265625 
Q 44.046875 -1.421875 31.78125 -1.421875 
Q 19.53125 -1.421875 13.0625 8.265625 
Q 6.59375 17.96875 6.59375 36.375 
Q 6.59375 54.828125 13.0625 64.515625 
Q 19.53125 74.21875 31.78125 74.21875 
z
" id="DejaVuSans-48"/>
       <path d="M 12.40625 8.296875 
L 28.515625 8.296875 
L 28.515625 63.921875 
L 10.984375 60.40625 
L 10.984375 69.390625 
L 28.421875 72.90625 
L 38.28125 72.90625 
L 38.28125 8.296875 
L 54.390625 8.296875 
L 54.390625 0 
L 12.40625 0 
z
" id="DejaVuSans-49"/>
      </defs>
      <g transform="translate(77.415063 322.182437)scale(0.1 -0.1)">
       <use xlink:href="#DejaVuSans-50"/>
       <use x="63.623047" xlink:href="#DejaVuSans-48"/>
       <use x="127.246094" xlink:href="#DejaVuSans-49"/>
       <use x="190.869141" xlink:href="#DejaVuSans-49"/>
      </g>
     </g>
    </g>
    <g id="xtick_2">
     <g id="line2d_2">
      <g>
       <use style="stroke:#000000;stroke-width:0.8;" x="129.043185" xlink:href="#md51a974b64" y="307.584"/>
      </g>
     </g>
     <g id="text_2">
      <!-- 2012 -->
      <g transform="translate(116.318185 322.182437)scale(0.1 -0.1)">
       <use xlink:href="#DejaVuSans-50"/>
       <use x="63.623047" xlink:href="#DejaVuSans-48"/>
       <use x="127.246094" xlink:href="#DejaVuSans-49"/>
       <use x="190.869141" xlink:href="#DejaVuSans-50"/>
      </g>
     </g>
    </g>
    <g id="xtick_3">
     <g id="line2d_3">
      <g>
       <use style="stroke:#000000;stroke-width:0.8;" x="168.052891" xlink:href="#md51a974b64" y="307.584"/>
      </g>
     </g>
     <g id="text_3">
      <!-- 2013 -->
      <defs>
       <path d="M 40.578125 39.3125 
Q 47.65625 37.796875 51.625 33 
Q 55.609375 28.21875 55.609375 21.1875 
Q 55.609375 10.40625 48.1875 4.484375 
Q 40.765625 -1.421875 27.09375 -1.421875 
Q 22.515625 -1.421875 17.65625 -0.515625 
Q 12.796875 0.390625 7.625 2.203125 
L 7.625 11.71875 
Q 11.71875 9.328125 16.59375 8.109375 
Q 21.484375 6.890625 26.8125 6.890625 
Q 36.078125 6.890625 40.9375 10.546875 
Q 45.796875 14.203125 45.796875 21.1875 
Q 45.796875 27.640625 41.28125 31.265625 
Q 36.765625 34.90625 28.71875 34.90625 
L 20.21875 34.90625 
L 20.21875 43.015625 
L 29.109375 43.015625 
Q 36.375 43.015625 40.234375 45.921875 
Q 44.09375 48.828125 44.09375 54.296875 
Q 44.09375 59.90625 40.109375 62.90625 
Q 36.140625 65.921875 28.71875 65.921875 
Q 24.65625 65.921875 20.015625 65.03125 
Q 15.375 64.15625 9.8125 62.3125 
L 9.8125 71.09375 
Q 15.4375 72.65625 20.34375 73.4375 
Q 25.25 74.21875 29.59375 74.21875 
Q 40.828125 74.21875 47.359375 69.109375 
Q 53.90625 64.015625 53.90625 55.328125 
Q 53.90625 49.265625 50.4375 45.09375 
Q 46.96875 40.921875 40.578125 39.3125 
z
" id="DejaVuSans-51"/>
      </defs>
      <g transform="translate(155.327891 322.182437)scale(0.1 -0.1)">
       <use xlink:href="#DejaVuSans-50"/>
       <use x="63.623047" xlink:href="#DejaVuSans-48"/>
       <use x="127.246094" xlink:href="#DejaVuSans-49"/>
       <use x="190.869141" xlink:href="#DejaVuSans-51"/>
      </g>
     </g>
    </g>
    <g id="xtick_4">
     <g id="line2d_4">
      <g>
       <use style="stroke:#000000;stroke-width:0.8;" x="206.956013" xlink:href="#md51a974b64" y="307.584"/>
      </g>
     </g>
     <g id="text_4">
      <!-- 2014 -->
      <defs>
       <path d="M 37.796875 64.3125 
L 12.890625 25.390625 
L 37.796875 25.390625 
z
M 35.203125 72.90625 
L 47.609375 72.90625 
L 47.609375 25.390625 
L 58.015625 25.390625 
L 58.015625 17.1875 
L 47.609375 17.1875 
L 47.609375 0 
L 37.796875 0 
L 37.796875 17.1875 
L 4.890625 17.1875 
L 4.890625 26.703125 
z
" id="DejaVuSans-52"/>
      </defs>
      <g transform="translate(194.231013 322.182437)scale(0.1 -0.1)">
       <use xlink:href="#DejaVuSans-50"/>
       <use x="63.623047" xlink:href="#DejaVuSans-48"/>
       <use x="127.246094" xlink:href="#DejaVuSans-49"/>
       <use x="190.869141" xlink:href="#DejaVuSans-52"/>
      </g>
     </g>
    </g>
    <g id="xtick_5">
     <g id="line2d_5">
      <g>
       <use style="stroke:#000000;stroke-width:0.8;" x="245.859134" xlink:href="#md51a974b64" y="307.584"/>
      </g>
     </g>
     <g id="text_5">
      <!-- 2015 -->
      <defs>
       <path d="M 10.796875 72.90625 
L 49.515625 72.90625 
L 49.515625 64.59375 
L 19.828125 64.59375 
L 19.828125 46.734375 
Q 21.96875 47.46875 24.109375 47.828125 
Q 26.265625 48.1875 28.421875 48.1875 
Q 40.625 48.1875 47.75 41.5 
Q 54.890625 34.8125 54.890625 23.390625 
Q 54.890625 11.625 47.5625 5.09375 
Q 40.234375 -1.421875 26.90625 -1.421875 
Q 22.3125 -1.421875 17.546875 -0.640625 
Q 12.796875 0.140625 7.71875 1.703125 
L 7.71875 11.625 
Q 12.109375 9.234375 16.796875 8.0625 
Q 21.484375 6.890625 26.703125 6.890625 
Q 35.15625 6.890625 40.078125 11.328125 
Q 45.015625 15.765625 45.015625 23.390625 
Q 45.015625 31 40.078125 35.4375 
Q 35.15625 39.890625 26.703125 39.890625 
Q 22.75 39.890625 18.8125 39.015625 
Q 14.890625 38.140625 10.796875 36.28125 
z
" id="DejaVuSans-53"/>
      </defs>
      <g transform="translate(233.134134 322.182437)scale(0.1 -0.1)">
       <use xlink:href="#DejaVuSans-50"/>
       <use x="63.623047" xlink:href="#DejaVuSans-48"/>
       <use x="127.246094" xlink:href="#DejaVuSans-49"/>
       <use x="190.869141" xlink:href="#DejaVuSans-53"/>
      </g>
     </g>
    </g>
    <g id="xtick_6">
     <g id="line2d_6">
      <g>
       <use style="stroke:#000000;stroke-width:0.8;" x="284.762256" xlink:href="#md51a974b64" y="307.584"/>
      </g>
     </g>
     <g id="text_6">
      <!-- 2016 -->
      <defs>
       <path d="M 33.015625 40.375 
Q 26.375 40.375 22.484375 35.828125 
Q 18.609375 31.296875 18.609375 23.390625 
Q 18.609375 15.53125 22.484375 10.953125 
Q 26.375 6.390625 33.015625 6.390625 
Q 39.65625 6.390625 43.53125 10.953125 
Q 47.40625 15.53125 47.40625 23.390625 
Q 47.40625 31.296875 43.53125 35.828125 
Q 39.65625 40.375 33.015625 40.375 
z
M 52.59375 71.296875 
L 52.59375 62.3125 
Q 48.875 64.0625 45.09375 64.984375 
Q 41.3125 65.921875 37.59375 65.921875 
Q 27.828125 65.921875 22.671875 59.328125 
Q 17.53125 52.734375 16.796875 39.40625 
Q 19.671875 43.65625 24.015625 45.921875 
Q 28.375 48.1875 33.59375 48.1875 
Q 44.578125 48.1875 50.953125 41.515625 
Q 57.328125 34.859375 57.328125 23.390625 
Q 57.328125 12.15625 50.6875 5.359375 
Q 44.046875 -1.421875 33.015625 -1.421875 
Q 20.359375 -1.421875 13.671875 8.265625 
Q 6.984375 17.96875 6.984375 36.375 
Q 6.984375 53.65625 15.1875 63.9375 
Q 23.390625 74.21875 37.203125 74.21875 
Q 40.921875 74.21875 44.703125 73.484375 
Q 48.484375 72.75 52.59375 71.296875 
z
" id="DejaVuSans-54"/>
      </defs>
      <g transform="translate(272.037256 322.182437)scale(0.1 -0.1)">
       <use xlink:href="#DejaVuSans-50"/>
       <use x="63.623047" xlink:href="#DejaVuSans-48"/>
       <use x="127.246094" xlink:href="#DejaVuSans-49"/>
       <use x="190.869141" xlink:href="#DejaVuSans-54"/>
      </g>
     </g>
    </g>
    <g id="xtick_7">
     <g id="line2d_7">
      <g>
       <use style="stroke:#000000;stroke-width:0.8;" x="323.771962" xlink:href="#md51a974b64" y="307.584"/>
      </g>
     </g>
     <g id="text_7">
      <!-- 2017 -->
      <defs>
       <path d="M 8.203125 72.90625 
L 55.078125 72.90625 
L 55.078125 68.703125 
L 28.609375 0 
L 18.3125 0 
L 43.21875 64.59375 
L 8.203125 64.59375 
z
" id="DejaVuSans-55"/>
      </defs>
      <g transform="translate(311.046962 322.182437)scale(0.1 -0.1)">
       <use xlink:href="#DejaVuSans-50"/>
       <use x="63.623047" xlink:href="#DejaVuSans-48"/>
       <use x="127.246094" xlink:href="#DejaVuSans-49"/>
       <use x="190.869141" xlink:href="#DejaVuSans-55"/>
      </g>
     </g>
    </g>
    <g id="xtick_8">
     <g id="line2d_8">
      <g>
       <use style="stroke:#000000;stroke-width:0.8;" x="362.675084" xlink:href="#md51a974b64" y="307.584"/>
      </g>
     </g>
     <g id="text_8">
      <!-- 2018 -->
      <defs>
       <path d="M 31.78125 34.625 
Q 24.75 34.625 20.71875 30.859375 
Q 16.703125 27.09375 16.703125 20.515625 
Q 16.703125 13.921875 20.71875 10.15625 
Q 24.75 6.390625 31.78125 6.390625 
Q 38.8125 6.390625 42.859375 10.171875 
Q 46.921875 13.96875 46.921875 20.515625 
Q 46.921875 27.09375 42.890625 30.859375 
Q 38.875 34.625 31.78125 34.625 
z
M 21.921875 38.8125 
Q 15.578125 40.375 12.03125 44.71875 
Q 8.5 49.078125 8.5 55.328125 
Q 8.5 64.0625 14.71875 69.140625 
Q 20.953125 74.21875 31.78125 74.21875 
Q 42.671875 74.21875 48.875 69.140625 
Q 55.078125 64.0625 55.078125 55.328125 
Q 55.078125 49.078125 51.53125 44.71875 
Q 48 40.375 41.703125 38.8125 
Q 48.828125 37.15625 52.796875 32.3125 
Q 56.78125 27.484375 56.78125 20.515625 
Q 56.78125 9.90625 50.3125 4.234375 
Q 43.84375 -1.421875 31.78125 -1.421875 
Q 19.734375 -1.421875 13.25 4.234375 
Q 6.78125 9.90625 6.78125 20.515625 
Q 6.78125 27.484375 10.78125 32.3125 
Q 14.796875 37.15625 21.921875 38.8125 
z
M 18.3125 54.390625 
Q 18.3125 48.734375 21.84375 45.5625 
Q 25.390625 42.390625 31.78125 42.390625 
Q 38.140625 42.390625 41.71875 45.5625 
Q 45.3125 48.734375 45.3125 54.390625 
Q 45.3125 60.0625 41.71875 63.234375 
Q 38.140625 66.40625 31.78125 66.40625 
Q 25.390625 66.40625 21.84375 63.234375 
Q 18.3125 60.0625 18.3125 54.390625 
z
" id="DejaVuSans-56"/>
      </defs>
      <g transform="translate(349.950084 322.182437)scale(0.1 -0.1)">
       <use xlink:href="#DejaVuSans-50"/>
       <use x="63.623047" xlink:href="#DejaVuSans-48"/>
       <use x="127.246094" xlink:href="#DejaVuSans-49"/>
       <use x="190.869141" xlink:href="#DejaVuSans-56"/>
      </g>
     </g>
    </g>
    <g id="xtick_9">
     <g id="line2d_9">
      <g>
       <use style="stroke:#000000;stroke-width:0.8;" x="401.578206" xlink:href="#md51a974b64" y="307.584"/>
      </g>
     </g>
     <g id="text_9">
      <!-- 2019 -->
      <defs>
       <path d="M 10.984375 1.515625 
L 10.984375 10.5 
Q 14.703125 8.734375 18.5 7.8125 
Q 22.3125 6.890625 25.984375 6.890625 
Q 35.75 6.890625 40.890625 13.453125 
Q 46.046875 20.015625 46.78125 33.40625 
Q 43.953125 29.203125 39.59375 26.953125 
Q 35.25 24.703125 29.984375 24.703125 
Q 19.046875 24.703125 12.671875 31.3125 
Q 6.296875 37.9375 6.296875 49.421875 
Q 6.296875 60.640625 12.9375 67.421875 
Q 19.578125 74.21875 30.609375 74.21875 
Q 43.265625 74.21875 49.921875 64.515625 
Q 56.59375 54.828125 56.59375 36.375 
Q 56.59375 19.140625 48.40625 8.859375 
Q 40.234375 -1.421875 26.421875 -1.421875 
Q 22.703125 -1.421875 18.890625 -0.6875 
Q 15.09375 0.046875 10.984375 1.515625 
z
M 30.609375 32.421875 
Q 37.25 32.421875 41.125 36.953125 
Q 45.015625 41.5 45.015625 49.421875 
Q 45.015625 57.28125 41.125 61.84375 
Q 37.25 66.40625 30.609375 66.40625 
Q 23.96875 66.40625 20.09375 61.84375 
Q 16.21875 57.28125 16.21875 49.421875 
Q 16.21875 41.5 20.09375 36.953125 
Q 23.96875 32.421875 30.609375 32.421875 
z
" id="DejaVuSans-57"/>
      </defs>
      <g transform="translate(388.853206 322.182437)scale(0.1 -0.1)">
       <use xlink:href="#DejaVuSans-50"/>
       <use x="63.623047" xlink:href="#DejaVuSans-48"/>
       <use x="127.246094" xlink:href="#DejaVuSans-49"/>
       <use x="190.869141" xlink:href="#DejaVuSans-57"/>
      </g>
     </g>
    </g>
   </g>
   <g id="matplotlib.axis_2">
    <g id="ytick_1">
     <g id="line2d_10">
      <defs>
       <path d="M 0 0 
L -3.5 0 
" id="mf184b97a58" style="stroke:#000000;stroke-width:0.8;"/>
      </defs>
      <g>
       <use style="stroke:#000000;stroke-width:0.8;" x="57.6" xlink:href="#mf184b97a58" y="295.488"/>
      </g>
     </g>
     <g id="text_10">
      <!-- 0 -->
      <g transform="translate(44.2375 299.287219)scale(0.1 -0.1)">
       <use xlink:href="#DejaVuSans-48"/>
      </g>
     </g>
    </g>
    <g id="ytick_2">
     <g id="line2d_11">
      <g>
       <use style="stroke:#000000;stroke-width:0.8;" x="57.6" xlink:href="#mf184b97a58" y="247.104"/>
      </g>
     </g>
     <g id="text_11">
      <!-- 2000 -->
      <g transform="translate(25.15 250.903219)scale(0.1 -0.1)">
       <use xlink:href="#DejaVuSans-50"/>
       <use x="63.623047" xlink:href="#DejaVuSans-48"/>
       <use x="127.246094" xlink:href="#DejaVuSans-48"/>
       <use x="190.869141" xlink:href="#DejaVuSans-48"/>
      </g>
     </g>
    </g>
    <g id="ytick_3">
     <g id="line2d_12">
      <g>
       <use style="stroke:#000000;stroke-width:0.8;" x="57.6" xlink:href="#mf184b97a58" y="198.72"/>
      </g>
     </g>
     <g id="text_12">
      <!-- 4000 -->
      <g transform="translate(25.15 202.519219)scale(0.1 -0.1)">
       <use xlink:href="#DejaVuSans-52"/>
       <use x="63.623047" xlink:href="#DejaVuSans-48"/>
       <use x="127.246094" xlink:href="#DejaVuSans-48"/>
       <use x="190.869141" xlink:href="#DejaVuSans-48"/>
      </g>
     </g>
    </g>
    <g id="ytick_4">
     <g id="line2d_13">
      <g>
       <use style="stroke:#000000;stroke-width:0.8;" x="57.6" xlink:href="#mf184b97a58" y="150.336"/>
      </g>
     </g>
     <g id="text_13">
      <!-- 6000 -->
      <g transform="translate(25.15 154.135219)scale(0.1 -0.1)">
       <use xlink:href="#DejaVuSans-54"/>
       <use x="63.623047" xlink:href="#DejaVuSans-48"/>
       <use x="127.246094" xlink:href="#DejaVuSans-48"/>
       <use x="190.869141" xlink:href="#DejaVuSans-48"/>
      </g>
     </g>
    </g>
    <g id="ytick_5">
     <g id="line2d_14">
      <g>
       <use style="stroke:#000000;stroke-width:0.8;" x="57.6" xlink:href="#mf184b97a58" y="101.952"/>
      </g>
     </g>
     <g id="text_14">
      <!-- 8000 -->
      <g transform="translate(25.15 105.751219)scale(0.1 -0.1)">
       <use xlink:href="#DejaVuSans-56"/>
       <use x="63.623047" xlink:href="#DejaVuSans-48"/>
       <use x="127.246094" xlink:href="#DejaVuSans-48"/>
       <use x="190.869141" xlink:href="#DejaVuSans-48"/>
      </g>
     </g>
    </g>
    <g id="ytick_6">
     <g id="line2d_15">
      <g>
       <use style="stroke:#000000;stroke-width:0.8;" x="57.6" xlink:href="#mf184b97a58" y="53.568"/>
      </g>
     </g>
     <g id="text_15">
      <!-- 10000 -->
      <g transform="translate(18.7875 57.367219)scale(0.1 -0.1)">
       <use xlink:href="#DejaVuSans-49"/>
       <use x="63.623047" xlink:href="#DejaVuSans-48"/>
       <use x="127.246094" xlink:href="#DejaVuSans-48"/>
       <use x="190.869141" xlink:href="#DejaVuSans-48"/>
       <use x="254.492188" xlink:href="#DejaVuSans-48"/>
      </g>
     </g>
    </g>
    <g id="text_16">
     <!-- OpenLibrary new books / day -->
     <defs>
      <path d="M 39.40625 66.21875 
Q 28.65625 66.21875 22.328125 58.203125 
Q 16.015625 50.203125 16.015625 36.375 
Q 16.015625 22.609375 22.328125 14.59375 
Q 28.65625 6.59375 39.40625 6.59375 
Q 50.140625 6.59375 56.421875 14.59375 
Q 62.703125 22.609375 62.703125 36.375 
Q 62.703125 50.203125 56.421875 58.203125 
Q 50.140625 66.21875 39.40625 66.21875 
z
M 39.40625 74.21875 
Q 54.734375 74.21875 63.90625 63.9375 
Q 73.09375 53.65625 73.09375 36.375 
Q 73.09375 19.140625 63.90625 8.859375 
Q 54.734375 -1.421875 39.40625 -1.421875 
Q 24.03125 -1.421875 14.8125 8.828125 
Q 5.609375 19.09375 5.609375 36.375 
Q 5.609375 53.65625 14.8125 63.9375 
Q 24.03125 74.21875 39.40625 74.21875 
z
" id="DejaVuSans-79"/>
      <path d="M 18.109375 8.203125 
L 18.109375 -20.796875 
L 9.078125 -20.796875 
L 9.078125 54.6875 
L 18.109375 54.6875 
L 18.109375 46.390625 
Q 20.953125 51.265625 25.265625 53.625 
Q 29.59375 56 35.59375 56 
Q 45.5625 56 51.78125 48.09375 
Q 58.015625 40.1875 58.015625 27.296875 
Q 58.015625 14.40625 51.78125 6.484375 
Q 45.5625 -1.421875 35.59375 -1.421875 
Q 29.59375 -1.421875 25.265625 0.953125 
Q 20.953125 3.328125 18.109375 8.203125 
z
M 48.6875 27.296875 
Q 48.6875 37.203125 44.609375 42.84375 
Q 40.53125 48.484375 33.40625 48.484375 
Q 26.265625 48.484375 22.1875 42.84375 
Q 18.109375 37.203125 18.109375 27.296875 
Q 18.109375 17.390625 22.1875 11.75 
Q 26.265625 6.109375 33.40625 6.109375 
Q 40.53125 6.109375 44.609375 11.75 
Q 48.6875 17.390625 48.6875 27.296875 
z
" id="DejaVuSans-112"/>
      <path d="M 56.203125 29.59375 
L 56.203125 25.203125 
L 14.890625 25.203125 
Q 15.484375 15.921875 20.484375 11.0625 
Q 25.484375 6.203125 34.421875 6.203125 
Q 39.59375 6.203125 44.453125 7.46875 
Q 49.3125 8.734375 54.109375 11.28125 
L 54.109375 2.78125 
Q 49.265625 0.734375 44.1875 -0.34375 
Q 39.109375 -1.421875 33.890625 -1.421875 
Q 20.796875 -1.421875 13.15625 6.1875 
Q 5.515625 13.8125 5.515625 26.8125 
Q 5.515625 40.234375 12.765625 48.109375 
Q 20.015625 56 32.328125 56 
Q 43.359375 56 49.78125 48.890625 
Q 56.203125 41.796875 56.203125 29.59375 
z
M 47.21875 32.234375 
Q 47.125 39.59375 43.09375 43.984375 
Q 39.0625 48.390625 32.421875 48.390625 
Q 24.90625 48.390625 20.390625 44.140625 
Q 15.875 39.890625 15.1875 32.171875 
z
" id="DejaVuSans-101"/>
      <path d="M 54.890625 33.015625 
L 54.890625 0 
L 45.90625 0 
L 45.90625 32.71875 
Q 45.90625 40.484375 42.875 44.328125 
Q 39.84375 48.1875 33.796875 48.1875 
Q 26.515625 48.1875 22.3125 43.546875 
Q 18.109375 38.921875 18.109375 30.90625 
L 18.109375 0 
L 9.078125 0 
L 9.078125 54.6875 
L 18.109375 54.6875 
L 18.109375 46.1875 
Q 21.34375 51.125 25.703125 53.5625 
Q 30.078125 56 35.796875 56 
Q 45.21875 56 50.046875 50.171875 
Q 54.890625 44.34375 54.890625 33.015625 
z
" id="DejaVuSans-110"/>
      <path d="M 9.8125 72.90625 
L 19.671875 72.90625 
L 19.671875 8.296875 
L 55.171875 8.296875 
L 55.171875 0 
L 9.8125 0 
z
" id="DejaVuSans-76"/>
      <path d="M 9.421875 54.6875 
L 18.40625 54.6875 
L 18.40625 0 
L 9.421875 0 
z
M 9.421875 75.984375 
L 18.40625 75.984375 
L 18.40625 64.59375 
L 9.421875 64.59375 
z
" id="DejaVuSans-105"/>
      <path d="M 48.6875 27.296875 
Q 48.6875 37.203125 44.609375 42.84375 
Q 40.53125 48.484375 33.40625 48.484375 
Q 26.265625 48.484375 22.1875 42.84375 
Q 18.109375 37.203125 18.109375 27.296875 
Q 18.109375 17.390625 22.1875 11.75 
Q 26.265625 6.109375 33.40625 6.109375 
Q 40.53125 6.109375 44.609375 11.75 
Q 48.6875 17.390625 48.6875 27.296875 
z
M 18.109375 46.390625 
Q 20.953125 51.265625 25.265625 53.625 
Q 29.59375 56 35.59375 56 
Q 45.5625 56 51.78125 48.09375 
Q 58.015625 40.1875 58.015625 27.296875 
Q 58.015625 14.40625 51.78125 6.484375 
Q 45.5625 -1.421875 35.59375 -1.421875 
Q 29.59375 -1.421875 25.265625 0.953125 
Q 20.953125 3.328125 18.109375 8.203125 
L 18.109375 0 
L 9.078125 0 
L 9.078125 75.984375 
L 18.109375 75.984375 
z
" id="DejaVuSans-98"/>
      <path d="M 41.109375 46.296875 
Q 39.59375 47.171875 37.8125 47.578125 
Q 36.03125 48 33.890625 48 
Q 26.265625 48 22.1875 43.046875 
Q 18.109375 38.09375 18.109375 28.8125 
L 18.109375 0 
L 9.078125 0 
L 9.078125 54.6875 
L 18.109375 54.6875 
L 18.109375 46.1875 
Q 20.953125 51.171875 25.484375 53.578125 
Q 30.03125 56 36.53125 56 
Q 37.453125 56 38.578125 55.875 
Q 39.703125 55.765625 41.0625 55.515625 
z
" id="DejaVuSans-114"/>
      <path d="M 34.28125 27.484375 
Q 23.390625 27.484375 19.1875 25 
Q 14.984375 22.515625 14.984375 16.5 
Q 14.984375 11.71875 18.140625 8.90625 
Q 21.296875 6.109375 26.703125 6.109375 
Q 34.1875 6.109375 38.703125 11.40625 
Q 43.21875 16.703125 43.21875 25.484375 
L 43.21875 27.484375 
z
M 52.203125 31.203125 
L 52.203125 0 
L 43.21875 0 
L 43.21875 8.296875 
Q 40.140625 3.328125 35.546875 0.953125 
Q 30.953125 -1.421875 24.3125 -1.421875 
Q 15.921875 -1.421875 10.953125 3.296875 
Q 6 8.015625 6 15.921875 
Q 6 25.140625 12.171875 29.828125 
Q 18.359375 34.515625 30.609375 34.515625 
L 43.21875 34.515625 
L 43.21875 35.40625 
Q 43.21875 41.609375 39.140625 45 
Q 35.0625 48.390625 27.6875 48.390625 
Q 23 48.390625 18.546875 47.265625 
Q 14.109375 46.140625 10.015625 43.890625 
L 10.015625 52.203125 
Q 14.9375 54.109375 19.578125 55.046875 
Q 24.21875 56 28.609375 56 
Q 40.484375 56 46.34375 49.84375 
Q 52.203125 43.703125 52.203125 31.203125 
z
" id="DejaVuSans-97"/>
      <path d="M 32.171875 -5.078125 
Q 28.375 -14.84375 24.75 -17.8125 
Q 21.140625 -20.796875 15.09375 -20.796875 
L 7.90625 -20.796875 
L 7.90625 -13.28125 
L 13.1875 -13.28125 
Q 16.890625 -13.28125 18.9375 -11.515625 
Q 21 -9.765625 23.484375 -3.21875 
L 25.09375 0.875 
L 2.984375 54.6875 
L 12.5 54.6875 
L 29.59375 11.921875 
L 46.6875 54.6875 
L 56.203125 54.6875 
z
" id="DejaVuSans-121"/>
      <path id="DejaVuSans-32"/>
      <path d="M 4.203125 54.6875 
L 13.1875 54.6875 
L 24.421875 12.015625 
L 35.59375 54.6875 
L 46.1875 54.6875 
L 57.421875 12.015625 
L 68.609375 54.6875 
L 77.59375 54.6875 
L 63.28125 0 
L 52.6875 0 
L 40.921875 44.828125 
L 29.109375 0 
L 18.5 0 
z
" id="DejaVuSans-119"/>
      <path d="M 30.609375 48.390625 
Q 23.390625 48.390625 19.1875 42.75 
Q 14.984375 37.109375 14.984375 27.296875 
Q 14.984375 17.484375 19.15625 11.84375 
Q 23.34375 6.203125 30.609375 6.203125 
Q 37.796875 6.203125 41.984375 11.859375 
Q 46.1875 17.53125 46.1875 27.296875 
Q 46.1875 37.015625 41.984375 42.703125 
Q 37.796875 48.390625 30.609375 48.390625 
z
M 30.609375 56 
Q 42.328125 56 49.015625 48.375 
Q 55.71875 40.765625 55.71875 27.296875 
Q 55.71875 13.875 49.015625 6.21875 
Q 42.328125 -1.421875 30.609375 -1.421875 
Q 18.84375 -1.421875 12.171875 6.21875 
Q 5.515625 13.875 5.515625 27.296875 
Q 5.515625 40.765625 12.171875 48.375 
Q 18.84375 56 30.609375 56 
z
" id="DejaVuSans-111"/>
      <path d="M 9.078125 75.984375 
L 18.109375 75.984375 
L 18.109375 31.109375 
L 44.921875 54.6875 
L 56.390625 54.6875 
L 27.390625 29.109375 
L 57.625 0 
L 45.90625 0 
L 18.109375 26.703125 
L 18.109375 0 
L 9.078125 0 
z
" id="DejaVuSans-107"/>
      <path d="M 44.28125 53.078125 
L 44.28125 44.578125 
Q 40.484375 46.53125 36.375 47.5 
Q 32.28125 48.484375 27.875 48.484375 
Q 21.1875 48.484375 17.84375 46.4375 
Q 14.5 44.390625 14.5 40.28125 
Q 14.5 37.15625 16.890625 35.375 
Q 19.28125 33.59375 26.515625 31.984375 
L 29.59375 31.296875 
Q 39.15625 29.25 43.1875 25.515625 
Q 47.21875 21.78125 47.21875 15.09375 
Q 47.21875 7.46875 41.1875 3.015625 
Q 35.15625 -1.421875 24.609375 -1.421875 
Q 20.21875 -1.421875 15.453125 -0.5625 
Q 10.6875 0.296875 5.421875 2 
L 5.421875 11.28125 
Q 10.40625 8.6875 15.234375 7.390625 
Q 20.0625 6.109375 24.8125 6.109375 
Q 31.15625 6.109375 34.5625 8.28125 
Q 37.984375 10.453125 37.984375 14.40625 
Q 37.984375 18.0625 35.515625 20.015625 
Q 33.0625 21.96875 24.703125 23.78125 
L 21.578125 24.515625 
Q 13.234375 26.265625 9.515625 29.90625 
Q 5.8125 33.546875 5.8125 39.890625 
Q 5.8125 47.609375 11.28125 51.796875 
Q 16.75 56 26.8125 56 
Q 31.78125 56 36.171875 55.265625 
Q 40.578125 54.546875 44.28125 53.078125 
z
" id="DejaVuSans-115"/>
      <path d="M 25.390625 72.90625 
L 33.6875 72.90625 
L 8.296875 -9.28125 
L 0 -9.28125 
z
" id="DejaVuSans-47"/>
      <path d="M 45.40625 46.390625 
L 45.40625 75.984375 
L 54.390625 75.984375 
L 54.390625 0 
L 45.40625 0 
L 45.40625 8.203125 
Q 42.578125 3.328125 38.25 0.953125 
Q 33.9375 -1.421875 27.875 -1.421875 
Q 17.96875 -1.421875 11.734375 6.484375 
Q 5.515625 14.40625 5.515625 27.296875 
Q 5.515625 40.1875 11.734375 48.09375 
Q 17.96875 56 27.875 56 
Q 33.9375 56 38.25 53.625 
Q 42.578125 51.265625 45.40625 46.390625 
z
M 14.796875 27.296875 
Q 14.796875 17.390625 18.875 11.75 
Q 22.953125 6.109375 30.078125 6.109375 
Q 37.203125 6.109375 41.296875 11.75 
Q 45.40625 17.390625 45.40625 27.296875 
Q 45.40625 37.203125 41.296875 42.84375 
Q 37.203125 48.484375 30.078125 48.484375 
Q 22.953125 48.484375 18.875 42.84375 
Q 14.796875 37.203125 14.796875 27.296875 
z
" id="DejaVuSans-100"/>
     </defs>
     <g transform="translate(12.707812 247.732687)rotate(-90)scale(0.1 -0.1)">
      <use xlink:href="#DejaVuSans-79"/>
      <use x="78.710938" xlink:href="#DejaVuSans-112"/>
      <use x="142.1875" xlink:href="#DejaVuSans-101"/>
      <use x="203.710938" xlink:href="#DejaVuSans-110"/>
      <use x="267.089844" xlink:href="#DejaVuSans-76"/>
      <use x="322.802734" xlink:href="#DejaVuSans-105"/>
      <use x="350.585938" xlink:href="#DejaVuSans-98"/>
      <use x="414.0625" xlink:href="#DejaVuSans-114"/>
      <use x="455.175781" xlink:href="#DejaVuSans-97"/>
      <use x="516.455078" xlink:href="#DejaVuSans-114"/>
      <use x="557.568359" xlink:href="#DejaVuSans-121"/>
      <use x="616.748047" xlink:href="#DejaVuSans-32"/>
      <use x="648.535156" xlink:href="#DejaVuSans-110"/>
      <use x="711.914062" xlink:href="#DejaVuSans-101"/>
      <use x="773.4375" xlink:href="#DejaVuSans-119"/>
      <use x="855.224609" xlink:href="#DejaVuSans-32"/>
      <use x="887.011719" xlink:href="#DejaVuSans-98"/>
      <use x="950.488281" xlink:href="#DejaVuSans-111"/>
      <use x="1011.669922" xlink:href="#DejaVuSans-111"/>
      <use x="1072.851562" xlink:href="#DejaVuSans-107"/>
      <use x="1130.761719" xlink:href="#DejaVuSans-115"/>
      <use x="1182.861328" xlink:href="#DejaVuSans-32"/>
      <use x="1214.648438" xlink:href="#DejaVuSans-47"/>
      <use x="1248.339844" xlink:href="#DejaVuSans-32"/>
      <use x="1280.126953" xlink:href="#DejaVuSans-100"/>
      <use x="1343.603516" xlink:href="#DejaVuSans-97"/>
      <use x="1404.882812" xlink:href="#DejaVuSans-121"/>
     </g>
    </g>
   </g>
   <g id="line2d_16">
    <path clip-path="url(#p77d462a81d)" d="M 73.832727 295.488 
L 76.497325 295.488 
L 76.710492 290.068992 
L 76.817076 290.238336 
L 76.92366 289.609344 
L 77.136828 292.052736 
L 77.243412 291.786624 
L 77.349996 291.181824 
L 77.45658 292.923648 
L 77.669748 290.480256 
L 77.776331 292.004352 
L 77.989499 290.16576 
L 78.202667 293.576832 
L 78.415835 292.923648 
L 78.522419 292.052736 
L 78.629003 292.633344 
L 78.735586 291.8592 
L 78.948754 293.383296 
L 79.055338 291.61728 
L 79.161922 292.464 
L 79.268506 291.060864 
L 79.37509 291.835008 
L 79.481674 291.37536 
L 79.588258 289.706112 
L 79.694842 292.10112 
L 79.908009 291.568896 
L 80.014593 290.673792 
L 80.227761 292.560768 
L 80.334345 292.778496 
L 80.440929 291.61728 
L 80.547513 291.665664 
L 80.654097 291.472128 
L 80.76068 292.391424 
L 80.867264 292.22208 
L 80.973848 291.49632 
L 81.187016 293.55264 
L 81.400184 291.01248 
L 81.506768 292.10112 
L 81.613352 291.810816 
L 81.719936 292.028544 
L 81.933103 293.383296 
L 82.039687 292.802688 
L 82.252855 291.036672 
L 82.359439 292.899456 
L 82.466023 291.544704 
L 82.572607 292.82688 
L 82.679191 292.802688 
L 82.785774 293.504256 
L 82.892358 292.294656 
L 82.998942 289.536768 
L 83.105526 292.415616 
L 83.21211 291.206016 
L 83.318694 292.730112 
L 83.425278 292.197888 
L 83.638446 292.70592 
L 83.74503 290.818944 
L 83.851613 291.544704 
L 83.958197 293.044608 
L 84.064781 292.197888 
L 84.171365 293.213952 
L 84.277949 293.165568 
L 84.384533 291.447936 
L 84.597701 293.504256 
L 84.810869 292.052736 
L 84.917452 292.730112 
L 85.024036 292.657536 
L 85.237204 294.03648 
L 85.343788 293.455872 
L 85.450372 291.98016 
L 85.66354 293.044608 
L 85.770124 293.6736 
L 85.876707 292.197888 
L 85.983291 292.778496 
L 86.089875 292.415616 
L 86.196459 293.165568 
L 86.409627 292.560768 
L 86.516211 292.875264 
L 86.622795 291.665664 
L 87.04913 293.988096 
L 87.155714 293.092992 
L 87.262298 293.576832 
L 87.368882 292.270464 
L 87.475466 292.996224 
L 87.58205 292.58496 
L 87.688634 293.455872 
L 87.795218 292.94784 
L 87.901801 293.818752 
L 88.114969 292.464 
L 88.221553 292.391424 
L 88.328137 291.689856 
L 88.434721 292.923648 
L 88.541305 292.802688 
L 88.647889 293.818752 
L 88.861057 291.931776 
L 89.180808 293.55264 
L 89.287392 293.165568 
L 89.393976 293.963904 
L 89.607144 292.439808 
L 89.713728 292.560768 
L 89.820312 293.141376 
L 89.926895 293.044608 
L 90.140063 293.6736 
L 90.353231 291.568896 
L 90.459815 291.472128 
L 90.566399 293.504256 
L 90.779567 293.020416 
L 90.992734 293.528448 
L 91.41907 291.835008 
L 91.632238 293.020416 
L 91.738822 292.996224 
L 91.951989 291.810816 
L 92.165157 292.730112 
L 92.271741 291.810816 
L 92.484909 294.205824 
L 92.698077 289.270656 
L 92.911245 292.512384 
L 93.017828 292.246272 
L 93.124412 292.58496 
L 93.230996 293.480064 
L 93.444164 292.004352 
L 93.550748 292.149504 
L 93.657332 290.843136 
L 93.763916 293.213952 
L 93.8705 292.778496 
L 93.977084 293.601024 
L 94.190251 292.246272 
L 94.403419 292.633344 
L 94.510003 291.955968 
L 94.616587 292.70592 
L 94.723171 291.326976 
L 94.829755 292.028544 
L 95.042922 291.593088 
L 95.149506 291.665664 
L 95.25609 291.302784 
L 95.469258 292.730112 
L 95.682426 291.157632 
L 95.78901 292.488192 
L 96.002178 291.399552 
L 96.215345 292.294656 
L 96.428513 290.093184 
L 96.535097 292.22208 
L 96.641681 292.028544 
L 96.748265 291.109248 
L 96.961433 291.98016 
L 97.068016 290.673792 
L 97.1746 292.076928 
L 97.281184 291.13344 
L 97.387768 291.907584 
L 97.494352 290.6496 
L 97.600936 292.681728 
L 97.70752 292.391424 
L 97.814104 290.867328 
L 97.920688 290.939904 
L 98.347023 294.568704 
L 98.453607 294.15744 
L 98.666775 291.181824 
L 98.773359 293.625216 
L 98.986527 291.786624 
L 99.199694 293.6736 
L 99.412862 290.093184 
L 99.519446 292.512384 
L 99.62603 291.157632 
L 99.839198 294.060672 
L 99.945782 293.334912 
L 100.265533 293.455872 
L 100.372117 292.899456 
L 100.691869 293.455872 
L 100.798453 293.455872 
L 101.118205 294.375168 
L 101.224788 293.649408 
L 101.331372 294.060672 
L 101.437956 292.778496 
L 101.54454 292.875264 
L 101.651124 292.609152 
L 101.864292 293.867136 
L 102.07746 292.972032 
L 102.290627 294.060672 
L 102.397211 293.334912 
L 102.503795 293.746176 
L 102.610379 293.18976 
L 102.716963 293.334912 
L 102.823547 292.899456 
L 102.930131 293.165568 
L 103.036715 291.37536 
L 103.143299 293.818752 
L 103.46305 292.70592 
L 103.676218 294.03648 
L 103.889386 290.214144 
L 103.99597 290.189952 
L 104.102554 290.0448 
L 104.315721 294.060672 
L 104.422305 293.528448 
L 104.528889 294.15744 
L 104.848641 292.778496 
L 104.955225 293.867136 
L 105.168393 292.22208 
L 105.274976 293.18976 
L 105.38156 293.117184 
L 105.488144 293.359104 
L 105.594728 293.262336 
L 105.701312 292.270464 
L 105.91448 293.770368 
L 106.021064 292.439808 
L 106.234231 293.383296 
L 106.340815 292.125312 
L 106.553983 293.334912 
L 106.660567 293.625216 
L 106.767151 292.94784 
L 106.980319 293.79456 
L 107.086903 292.996224 
L 107.193487 293.576832 
L 107.30007 293.165568 
L 107.406654 294.205824 
L 107.513238 294.012288 
L 107.619822 292.754304 
L 107.939574 294.350976 
L 108.152742 293.963904 
L 108.259325 293.213952 
L 108.365909 293.286528 
L 108.472493 294.302592 
L 108.685661 293.504256 
L 108.792245 293.988096 
L 108.898829 293.697792 
L 109.005413 292.488192 
L 109.111997 293.480064 
L 109.218581 293.213952 
L 109.431748 292.367232 
L 109.538332 294.012288 
L 109.644916 293.334912 
L 109.7515 294.03648 
L 109.858084 293.31072 
L 109.964668 293.842944 
L 110.071252 293.383296 
L 110.177836 294.2784 
L 110.28442 294.03648 
L 110.391003 294.109056 
L 110.604171 293.625216 
L 110.710755 294.2784 
L 110.817339 293.988096 
L 110.923923 294.060672 
L 111.137091 293.43168 
L 111.243675 292.246272 
L 111.350258 293.601024 
L 111.456842 292.512384 
L 111.563426 293.842944 
L 111.67001 293.407488 
L 111.883178 294.689664 
L 111.989762 293.407488 
L 112.20293 294.012288 
L 112.309514 293.576832 
L 112.522681 294.15744 
L 112.629265 294.109056 
L 112.842433 292.004352 
L 112.949017 294.181632 
L 113.055601 293.770368 
L 113.162185 293.939712 
L 113.268769 294.326784 
L 113.375352 294.084864 
L 113.481936 294.350976 
L 113.58852 292.730112 
L 113.695104 293.334912 
L 113.801688 292.923648 
L 114.014856 293.818752 
L 114.12144 293.818752 
L 114.228024 293.383296 
L 114.334608 293.43168 
L 114.441191 293.891328 
L 114.547775 293.55264 
L 114.760943 294.738048 
L 114.974111 292.028544 
L 115.080695 293.55264 
L 115.187279 293.528448 
L 115.293863 291.98016 
L 115.50703 293.891328 
L 115.613614 290.964096 
L 115.826782 293.576832 
L 115.933366 293.044608 
L 116.03995 293.092992 
L 116.146534 292.923648 
L 116.253118 294.230016 
L 116.359702 294.181632 
L 116.466285 293.939712 
L 116.786037 292.197888 
L 116.999205 293.91552 
L 117.105789 293.141376 
L 117.212373 293.963904 
L 117.318957 293.286528 
L 117.425541 293.43168 
L 117.532124 294.52032 
L 117.851876 293.31072 
L 117.95846 294.03648 
L 118.065044 292.972032 
L 118.278212 294.326784 
L 118.491379 293.117184 
L 118.597963 293.625216 
L 118.811131 292.923648 
L 118.917715 293.867136 
L 119.024299 293.721984 
L 119.130883 294.496128 
L 119.237467 294.471936 
L 119.557218 293.238144 
L 119.663802 293.988096 
L 119.770386 293.697792 
L 119.87697 294.617088 
L 119.983554 294.39936 
L 120.090138 293.697792 
L 120.196722 293.891328 
L 120.303306 293.286528 
L 120.516473 293.818752 
L 120.623057 293.91552 
L 120.729641 293.79456 
L 120.836225 294.230016 
L 120.942809 293.939712 
L 121.049393 293.117184 
L 121.155977 294.254208 
L 121.369145 289.270656 
L 121.582312 292.875264 
L 121.688896 292.70592 
L 121.902064 289.730304 
L 122.115232 293.43168 
L 122.3284 293.842944 
L 122.541567 291.955968 
L 122.648151 288.327168 
L 122.861319 293.721984 
L 122.967903 294.326784 
L 123.074487 294.012288 
L 123.287655 294.471936 
L 123.500823 293.55264 
L 123.820574 293.480064 
L 123.927158 293.0688 
L 124.140326 294.230016 
L 124.460078 292.996224 
L 124.566661 293.407488 
L 124.673245 292.899456 
L 124.779829 294.375168 
L 124.992997 293.988096 
L 125.099581 293.092992 
L 125.206165 293.141376 
L 125.312749 294.738048 
L 125.525917 292.657536 
L 125.6325 292.70592 
L 125.739084 293.6736 
L 125.845668 293.117184 
L 126.058836 293.79456 
L 126.16542 292.899456 
L 126.378588 294.133248 
L 126.485172 293.601024 
L 126.804923 294.109056 
L 126.911507 293.044608 
L 127.018091 294.012288 
L 127.124675 293.504256 
L 127.231259 294.084864 
L 127.337843 293.455872 
L 127.444427 294.012288 
L 127.551011 293.359104 
L 127.657594 293.407488 
L 127.764178 294.133248 
L 127.870762 293.6736 
L 128.08393 294.447744 
L 128.297098 294.350976 
L 128.403682 293.6736 
L 128.61685 293.91552 
L 128.830017 293.43168 
L 129.043185 294.375168 
L 129.256353 293.43168 
L 129.362937 293.79456 
L 129.469521 293.55264 
L 129.682688 294.205824 
L 129.789272 293.891328 
L 130.00244 294.617088 
L 130.109024 293.455872 
L 130.215608 293.697792 
L 130.322192 292.609152 
L 130.53536 294.2784 
L 130.641944 290.794752 
L 130.855111 294.15744 
L 130.961695 293.43168 
L 131.174863 293.891328 
L 131.388031 292.028544 
L 131.601199 293.480064 
L 131.707782 293.18976 
L 131.814366 291.278592 
L 131.92095 294.254208 
L 132.027534 293.988096 
L 132.134118 290.117376 
L 132.45387 293.79456 
L 132.560454 293.18976 
L 132.667038 293.79456 
L 132.773621 293.43168 
L 132.880205 293.55264 
L 132.986789 292.415616 
L 133.093373 293.721984 
L 133.199957 293.576832 
L 133.306541 293.625216 
L 133.413125 293.939712 
L 133.732876 293.165568 
L 133.83946 293.818752 
L 133.946044 292.464 
L 134.159212 293.141376 
L 134.37238 294.012288 
L 134.478964 290.504448 
L 134.585548 293.18976 
L 134.798715 291.060864 
L 134.905299 293.55264 
L 135.011883 292.875264 
L 135.118467 289.851264 
L 135.544803 293.649408 
L 135.651387 294.52032 
L 135.757971 293.601024 
L 135.864554 294.133248 
L 136.29089 292.246272 
L 136.397474 294.15744 
L 136.504058 293.141376 
L 136.610642 293.407488 
L 136.717226 291.762432 
L 136.823809 292.681728 
L 136.930393 292.173696 
L 137.036977 292.318848 
L 137.250145 294.326784 
L 137.463313 293.455872 
L 137.676481 294.544512 
L 137.783065 292.899456 
L 137.889648 294.568704 
L 137.996232 294.471936 
L 138.315984 291.351168 
L 138.422568 292.972032 
L 138.529152 292.197888 
L 138.635736 294.302592 
L 138.848903 293.020416 
L 138.955487 293.0688 
L 139.062071 293.963904 
L 139.275239 292.657536 
L 139.381823 293.988096 
L 139.488407 293.092992 
L 139.594991 293.359104 
L 139.701575 293.165568 
L 139.808159 292.512384 
L 139.914742 293.359104 
L 140.021326 293.0688 
L 140.341078 293.818752 
L 140.447662 293.044608 
L 140.554246 293.407488 
L 140.66083 292.125312 
L 140.873997 293.988096 
L 140.980581 294.012288 
L 141.087165 292.875264 
L 141.300333 294.060672 
L 141.620085 292.125312 
L 141.726669 292.996224 
L 141.833253 291.326976 
L 141.939836 293.117184 
L 142.04642 290.552832 
L 142.366172 294.302592 
L 142.472756 293.988096 
L 142.57934 292.318848 
L 142.685924 292.609152 
L 143.005675 290.867328 
L 143.218843 294.423552 
L 143.325427 292.58496 
L 143.432011 294.302592 
L 143.538595 294.230016 
L 143.645179 294.689664 
L 143.751763 294.084864 
L 143.858347 294.254208 
L 143.96493 293.818752 
L 144.071514 294.665472 
L 144.284682 294.52032 
L 144.391266 293.649408 
L 144.604434 294.39936 
L 144.711018 294.471936 
L 144.817602 293.6736 
L 144.924186 294.060672 
L 145.030769 293.867136 
L 145.137353 292.34304 
L 145.457105 294.834816 
L 145.670273 293.721984 
L 145.776857 293.842944 
L 145.990024 294.617088 
L 146.203192 294.544512 
L 146.41636 293.988096 
L 146.522944 294.447744 
L 146.629528 294.326784 
L 146.736112 294.03648 
L 146.94928 294.496128 
L 147.055863 292.34304 
L 147.162447 294.39936 
L 147.269031 294.326784 
L 147.375615 293.213952 
L 147.482199 294.713856 
L 147.695367 294.665472 
L 147.801951 293.891328 
L 147.908535 294.012288 
L 148.015118 293.91552 
L 148.121702 294.326784 
L 148.228286 294.2784 
L 148.33487 294.834816 
L 148.86779 293.504256 
L 149.080957 294.568704 
L 149.187541 294.205824 
L 149.294125 294.592896 
L 149.507293 294.496128 
L 149.613877 294.64128 
L 149.720461 294.084864 
L 149.827045 294.302592 
L 149.933629 292.633344 
L 150.146796 294.568704 
L 150.25338 294.205824 
L 150.359964 294.375168 
L 150.466548 294.181632 
L 150.573132 295.221888 
L 150.679716 294.471936 
L 150.7863 294.955776 
L 150.892884 294.03648 
L 150.999468 294.955776 
L 151.212635 294.230016 
L 151.425803 294.738048 
L 151.532387 294.39936 
L 151.638971 294.617088 
L 151.852139 293.939712 
L 151.958723 294.012288 
L 152.17189 295.00416 
L 152.278474 293.842944 
L 152.491642 294.423552 
L 152.70481 293.867136 
L 152.917978 294.738048 
L 153.131145 294.109056 
L 153.237729 293.867136 
L 153.344313 294.568704 
L 153.450897 294.39936 
L 153.664065 294.834816 
L 153.770649 294.471936 
L 153.877233 293.649408 
L 153.983817 294.03648 
L 154.196984 292.681728 
L 154.303568 294.689664 
L 154.410152 294.544512 
L 154.516736 294.03648 
L 154.729904 294.302592 
L 154.836488 294.03648 
L 155.049656 294.496128 
L 155.262823 293.988096 
L 155.369407 294.15744 
L 155.582575 294.713856 
L 156.008911 294.205824 
L 156.115495 292.899456 
L 156.222078 292.996224 
L 156.328662 293.286528 
L 156.54183 294.205824 
L 156.648414 294.447744 
L 156.754998 294.350976 
L 156.861582 294.496128 
L 156.968166 293.407488 
L 157.181333 294.471936 
L 157.394501 294.15744 
L 157.501085 294.496128 
L 157.607669 293.818752 
L 157.714253 294.39936 
L 157.927421 293.528448 
L 158.034005 294.060672 
L 158.140589 293.746176 
L 158.353756 294.133248 
L 158.46034 293.79456 
L 158.566924 294.15744 
L 158.673508 293.601024 
L 158.886676 293.818752 
L 158.99326 294.592896 
L 159.206428 293.213952 
L 159.419595 294.2784 
L 159.526179 294.205824 
L 159.632763 294.786432 
L 159.845931 293.867136 
L 159.952515 294.060672 
L 160.165683 293.818752 
L 160.272266 294.302592 
L 160.37885 294.205824 
L 160.592018 293.092992 
L 160.698602 293.262336 
L 161.018354 293.891328 
L 161.124938 293.43168 
L 161.231522 294.375168 
L 161.444689 293.770368 
L 161.551273 294.230016 
L 161.657857 293.141376 
L 161.871025 294.205824 
L 161.977609 292.464 
L 162.084193 293.480064 
L 162.190777 293.238144 
L 162.403944 294.665472 
L 162.510528 293.649408 
L 162.723696 294.568704 
L 162.936864 293.213952 
L 163.150032 294.012288 
L 163.256616 294.375168 
L 163.363199 294.133248 
L 163.469783 294.39936 
L 163.576367 293.625216 
L 163.682951 293.770368 
L 163.789535 294.39936 
L 163.896119 294.350976 
L 164.002703 294.496128 
L 164.109287 294.39936 
L 164.215871 293.891328 
L 164.322454 294.544512 
L 164.429038 293.818752 
L 164.642206 294.326784 
L 164.855374 294.617088 
L 164.961958 294.689664 
L 165.28171 294.060672 
L 165.494877 294.907392 
L 165.601461 294.302592 
L 165.814629 294.834816 
L 165.921213 294.738048 
L 166.134381 294.230016 
L 166.240965 294.8832 
L 166.454132 294.230016 
L 166.6673 294.810624 
L 166.773884 294.012288 
L 167.093636 294.859008 
L 167.20022 294.931584 
L 167.306804 294.617088 
L 167.413387 294.834816 
L 167.839723 294.689664 
L 168.052891 295.149312 
L 168.159475 294.689664 
L 168.266059 294.810624 
L 168.372643 294.568704 
L 168.479226 293.43168 
L 168.58581 295.00416 
L 168.692394 294.254208 
L 168.798978 294.8832 
L 168.905562 294.810624 
L 169.012146 294.907392 
L 169.225314 294.52032 
L 169.331898 294.665472 
L 169.545065 293.746176 
L 169.651649 293.867136 
L 169.758233 294.496128 
L 169.864817 294.230016 
L 170.077985 294.496128 
L 170.184569 294.39936 
L 170.291153 293.721984 
L 170.397737 294.592896 
L 170.50432 294.39936 
L 170.717488 295.149312 
L 171.03724 293.286528 
L 171.250408 294.713856 
L 171.356992 294.447744 
L 171.570159 295.076736 
L 171.676743 293.383296 
L 171.783327 293.55264 
L 171.996495 294.375168 
L 172.103079 293.939712 
L 172.316247 295.00416 
L 172.422831 293.504256 
L 172.635998 294.834816 
L 172.742582 293.746176 
L 172.849166 294.012288 
L 172.95575 294.738048 
L 173.275502 294.205824 
L 173.382086 293.601024 
L 173.701837 294.786432 
L 173.808421 294.931584 
L 173.915005 294.39936 
L 174.021589 294.423552 
L 174.128173 294.52032 
L 174.234757 295.028352 
L 174.341341 294.64128 
L 174.554508 294.738048 
L 174.661092 294.447744 
L 174.767676 292.246272 
L 174.980844 293.91552 
L 175.194012 294.834816 
L 175.300596 294.955776 
L 175.40718 293.891328 
L 175.513764 294.39936 
L 175.620347 293.528448 
L 175.726931 293.867136 
L 175.940099 294.713856 
L 176.046683 295.028352 
L 176.259851 294.39936 
L 176.366435 294.931584 
L 176.473019 294.447744 
L 176.579602 294.471936 
L 176.79277 294.834816 
L 176.899354 294.617088 
L 177.005938 293.359104 
L 177.112522 293.601024 
L 177.219106 294.205824 
L 177.32569 293.528448 
L 177.432274 295.00416 
L 177.538858 294.423552 
L 177.645441 294.64128 
L 177.752025 294.2784 
L 178.071777 295.00416 
L 178.178361 294.592896 
L 178.284945 295.221888 
L 178.498113 294.52032 
L 178.604696 294.617088 
L 178.71128 294.544512 
L 178.924448 294.617088 
L 179.031032 295.052544 
L 179.350784 294.447744 
L 179.457368 293.842944 
L 179.670535 295.076736 
L 179.777119 291.036672 
L 179.990287 294.544512 
L 180.096871 294.496128 
L 180.203455 294.302592 
L 180.310039 294.979968 
L 180.416623 291.8592 
L 180.523207 294.834816 
L 180.62979 294.181632 
L 180.736374 294.254208 
L 180.842958 294.496128 
L 180.949542 294.109056 
L 181.16271 294.375168 
L 181.269294 294.955776 
L 181.375878 294.205824 
L 181.695629 294.931584 
L 181.908797 294.64128 
L 182.121965 294.060672 
L 182.228549 294.181632 
L 182.441717 294.786432 
L 182.548301 294.568704 
L 182.654884 294.786432 
L 182.868052 294.2784 
L 182.974636 294.786432 
L 183.187804 293.601024 
L 183.294388 294.326784 
L 183.400972 294.254208 
L 183.507556 294.979968 
L 183.720723 294.738048 
L 183.933891 294.786432 
L 184.040475 294.834816 
L 184.147059 294.205824 
L 184.253643 294.52032 
L 184.466811 293.649408 
L 184.573395 294.76224 
L 184.679979 294.738048 
L 184.786562 294.713856 
L 184.893146 294.230016 
L 184.99973 295.028352 
L 185.319482 294.859008 
L 185.426066 295.00416 
L 185.53265 294.955776 
L 185.639234 295.076736 
L 185.745817 295.391232 
L 185.852401 294.738048 
L 185.958985 294.955776 
L 186.278737 294.350976 
L 186.491905 294.8832 
L 186.811656 294.955776 
L 187.024824 295.00416 
L 187.131408 295.028352 
L 187.237992 295.24608 
L 187.45116 294.617088 
L 187.557744 294.568704 
L 187.664328 294.786432 
L 187.770911 294.447744 
L 187.877495 294.931584 
L 187.984079 294.738048 
L 188.090663 295.028352 
L 188.197247 294.8832 
L 188.303831 295.028352 
L 188.410415 294.859008 
L 188.516999 295.052544 
L 188.623583 294.907392 
L 188.730167 295.197696 
L 188.943334 294.302592 
L 189.156502 294.907392 
L 189.263086 295.076736 
L 189.476254 294.738048 
L 189.582838 294.834816 
L 189.689422 294.302592 
L 189.796005 295.221888 
L 189.902589 294.955776 
L 190.009173 295.24608 
L 190.115757 295.028352 
L 190.222341 294.375168 
L 190.328925 295.052544 
L 190.648677 294.64128 
L 190.755261 294.738048 
L 190.861844 295.076736 
L 191.075012 295.00416 
L 191.181596 293.988096 
L 191.501348 294.834816 
L 191.714516 295.00416 
L 191.8211 294.955776 
L 191.927683 294.544512 
L 192.140851 294.810624 
L 192.247435 294.205824 
L 192.354019 295.221888 
L 192.460603 294.592896 
L 192.567187 294.786432 
L 192.673771 293.988096 
L 192.780355 294.496128 
L 192.886938 293.988096 
L 193.100106 294.786432 
L 193.20669 294.326784 
L 193.313274 294.931584 
L 193.419858 294.834816 
L 193.526442 293.79456 
L 193.73961 294.64128 
L 193.846194 294.859008 
L 193.952777 294.76224 
L 194.059361 294.447744 
L 194.165945 294.689664 
L 194.592281 294.350976 
L 194.698865 294.471936 
L 194.805449 293.818752 
L 194.912032 294.689664 
L 195.018616 293.504256 
L 195.231784 294.76224 
L 195.338368 295.342848 
L 195.551536 294.133248 
L 195.871288 294.738048 
L 195.977871 293.988096 
L 196.191039 295.00416 
L 196.297623 294.955776 
L 196.404207 294.39936 
L 196.617375 295.100928 
L 196.830543 294.254208 
L 196.937126 294.423552 
L 197.04371 294.350976 
L 197.150294 293.79456 
L 197.363462 294.496128 
L 197.470046 294.713856 
L 197.57663 294.496128 
L 197.789798 294.689664 
L 198.002965 294.568704 
L 198.216133 293.43168 
L 198.429301 294.471936 
L 198.535885 294.471936 
L 198.642469 292.367232 
L 198.749053 292.439808 
L 198.96222 294.15744 
L 199.068804 294.810624 
L 199.175388 294.665472 
L 199.281972 294.786432 
L 199.388556 293.963904 
L 199.49514 294.254208 
L 199.601724 294.133248 
L 199.814892 294.689664 
L 199.921476 295.149312 
L 200.028059 294.109056 
L 200.134643 294.76224 
L 200.241227 293.576832 
L 200.454395 294.713856 
L 200.560979 294.859008 
L 200.667563 295.318656 
L 200.774147 294.617088 
L 200.987315 295.149312 
L 201.093898 294.084864 
L 201.307066 294.786432 
L 201.41365 294.738048 
L 201.520234 294.326784 
L 201.626818 294.665472 
L 201.733402 294.2784 
L 201.94657 294.810624 
L 202.266321 293.528448 
L 202.372905 294.350976 
L 202.479489 293.55264 
L 202.586073 294.254208 
L 202.692657 293.818752 
L 202.905825 294.979968 
L 203.012409 294.39936 
L 203.118992 294.496128 
L 203.225576 294.012288 
L 203.33216 294.03648 
L 203.438744 294.109056 
L 203.651912 294.931584 
L 203.758496 293.842944 
L 203.86508 294.012288 
L 203.971664 294.907392 
L 204.078247 293.963904 
L 204.397999 295.12512 
L 204.504583 295.052544 
L 204.611167 293.963904 
L 204.717751 294.15744 
L 204.930919 294.713856 
L 205.037503 294.979968 
L 205.144086 294.012288 
L 205.25067 294.665472 
L 205.357254 292.488192 
L 205.463838 294.012288 
L 205.570422 293.842944 
L 205.78359 294.205824 
L 205.890174 293.576832 
L 206.103341 295.076736 
L 206.423093 294.8832 
L 206.529677 294.931584 
L 206.636261 294.64128 
L 206.849429 295.028352 
L 206.956013 295.052544 
L 207.382348 293.746176 
L 207.488932 294.713856 
L 207.595516 293.939712 
L 207.7021 294.15744 
L 207.808684 294.931584 
L 208.021852 294.52032 
L 208.128436 294.859008 
L 208.235019 294.2784 
L 208.448187 295.076736 
L 208.554771 295.028352 
L 208.767939 294.133248 
L 208.874523 295.028352 
L 208.981107 294.254208 
L 209.087691 294.544512 
L 209.194274 293.721984 
L 209.300858 294.03648 
L 209.407442 293.963904 
L 209.514026 295.149312 
L 209.62061 293.746176 
L 209.727194 294.350976 
L 209.940362 293.746176 
L 210.15353 294.012288 
L 210.260113 293.334912 
L 210.366697 294.931584 
L 210.686449 292.464 
L 210.899617 293.842944 
L 211.006201 294.665472 
L 211.112785 294.64128 
L 211.219368 293.359104 
L 211.325952 293.576832 
L 211.432536 292.94784 
L 211.752288 295.076736 
L 211.858872 294.931584 
L 211.965456 294.133248 
L 212.178624 294.64128 
L 212.285207 294.254208 
L 212.498375 295.100928 
L 212.604959 294.979968 
L 212.818127 294.012288 
L 212.924711 294.084864 
L 213.031295 293.963904 
L 213.244462 295.00416 
L 213.351046 294.979968 
L 213.45763 294.738048 
L 213.564214 293.528448 
L 213.670798 294.205824 
L 213.777382 294.03648 
L 213.883966 294.084864 
L 214.097134 295.149312 
L 214.310301 294.181632 
L 214.416885 293.721984 
L 214.523469 293.79456 
L 214.630053 294.109056 
L 214.843221 295.173504 
L 215.056389 294.2784 
L 215.269556 293.770368 
L 215.37614 293.697792 
L 215.482724 294.689664 
L 215.589308 294.302592 
L 215.695892 293.044608 
L 215.802476 293.407488 
L 215.90906 293.141376 
L 216.015644 292.028544 
L 216.122228 292.125312 
L 216.335395 295.076736 
L 216.441979 292.996224 
L 216.548563 293.117184 
L 216.655147 292.488192 
L 216.761731 292.851072 
L 216.868315 291.01248 
L 216.974899 294.665472 
L 217.081483 294.350976 
L 217.188067 292.391424 
L 217.401234 293.818752 
L 217.507818 293.334912 
L 217.614402 293.455872 
L 217.82757 295.12512 
L 218.040738 292.294656 
L 218.147322 292.415616 
L 218.253906 294.350976 
L 218.360489 293.746176 
L 218.467073 294.326784 
L 218.680241 294.205824 
L 218.786825 293.746176 
L 218.893409 294.39936 
L 219.106577 293.576832 
L 219.319745 294.907392 
L 219.532912 293.455872 
L 219.639496 293.867136 
L 219.74608 294.8832 
L 219.852664 293.818752 
L 219.959248 294.859008 
L 220.065832 294.738048 
L 220.279 292.70592 
L 220.598751 293.891328 
L 220.705335 295.076736 
L 220.918503 294.496128 
L 221.025087 292.82688 
L 221.131671 294.738048 
L 221.238255 294.15744 
L 221.344839 290.939904 
L 221.451422 295.00416 
L 221.558006 294.931584 
L 221.66459 292.34304 
L 221.877758 293.697792 
L 221.984342 293.43168 
L 222.304094 295.052544 
L 222.410677 292.996224 
L 222.517261 293.238144 
L 222.730429 293.044608 
L 222.943597 294.665472 
L 223.050181 294.786432 
L 223.263349 291.955968 
L 223.369933 293.697792 
L 223.476516 293.0688 
L 223.796268 294.786432 
L 223.902852 294.326784 
L 224.009436 291.568896 
L 224.222604 293.91552 
L 224.329188 293.963904 
L 224.435772 294.834816 
L 224.542355 294.713856 
L 224.648939 290.52864 
L 224.755523 292.972032 
L 224.862107 292.633344 
L 225.075275 293.842944 
L 225.181859 294.834816 
L 225.288443 294.713856 
L 225.395027 293.43168 
L 225.50161 293.818752 
L 225.608194 294.689664 
L 225.714778 292.657536 
L 225.927946 294.786432 
L 226.03453 294.931584 
L 226.247698 293.31072 
L 226.354282 293.117184 
L 226.460866 294.133248 
L 226.567449 294.109056 
L 226.780617 294.76224 
L 226.993785 290.552832 
L 227.100369 290.673792 
L 227.206953 292.246272 
L 227.313537 291.665664 
L 227.526704 294.447744 
L 227.633288 293.213952 
L 227.95304 294.786432 
L 228.059624 292.94784 
L 228.166208 295.12512 
L 228.379376 293.238144 
L 228.48596 292.972032 
L 228.592543 293.6736 
L 228.805711 292.681728 
L 229.018879 294.326784 
L 229.125463 292.851072 
L 229.232047 294.230016 
L 229.551798 293.963904 
L 229.764966 294.326784 
L 229.87155 293.697792 
L 229.978134 292.173696 
L 230.191302 293.891328 
L 230.40447 294.738048 
L 230.511054 294.109056 
L 230.617637 294.230016 
L 230.830805 293.721984 
L 230.937389 293.601024 
L 231.043973 293.31072 
L 231.257141 293.697792 
L 231.470309 292.82688 
L 231.576892 292.972032 
L 231.683476 290.722176 
L 232.003228 294.109056 
L 232.109812 293.867136 
L 232.216396 291.665664 
L 232.32298 292.173696 
L 232.429564 293.6736 
L 232.536148 292.996224 
L 232.642731 293.0688 
L 232.749315 294.592896 
L 232.962483 294.471936 
L 233.175651 292.923648 
L 233.388819 293.359104 
L 233.495403 293.43168 
L 233.70857 292.754304 
L 233.815154 294.084864 
L 233.921738 294.060672 
L 234.028322 293.504256 
L 234.134906 295.00416 
L 234.348074 292.318848 
L 234.454658 292.439808 
L 234.667825 292.173696 
L 234.774409 293.867136 
L 234.880993 293.0688 
L 234.987577 293.625216 
L 235.094161 291.326976 
L 235.200745 292.512384 
L 235.413913 292.439808 
L 235.520497 291.399552 
L 235.627081 276.424704 
L 235.840248 293.117184 
L 235.946832 290.456064 
L 236.16 292.052736 
L 236.373168 258.522624 
L 236.586336 290.28672 
L 236.906087 293.0688 
L 237.012671 292.125312 
L 237.225839 293.044608 
L 237.332423 293.020416 
L 237.439007 291.01248 
L 237.545591 293.818752 
L 237.758758 285.109632 
L 237.971926 292.415616 
L 238.07851 288.157824 
L 238.398262 291.109248 
L 238.504846 265.078656 
L 238.718013 293.576832 
L 238.824597 279.690624 
L 238.931181 283.343616 
L 239.037765 280.24704 
L 239.144349 286.89984 
L 239.250933 285.56928 
L 239.464101 293.141376 
L 239.570685 293.988096 
L 239.677269 292.22208 
L 239.890436 286.875648 
L 239.99702 287.165952 
L 240.210188 294.665472 
L 240.316772 265.175424 
L 240.423356 281.142144 
L 240.52994 278.06976 
L 240.743108 294.205824 
L 240.849691 294.326784 
L 240.956275 294.834816 
L 241.062859 293.141376 
L 241.169443 293.963904 
L 241.276027 292.560768 
L 241.489195 293.504256 
L 241.702363 295.00416 
L 242.022114 290.093184 
L 242.235282 293.770368 
L 242.341866 294.955776 
L 242.44845 294.8832 
L 242.555034 292.972032 
L 242.661618 293.649408 
L 242.874785 292.70592 
L 243.087953 294.689664 
L 243.194537 294.786432 
L 243.514289 293.842944 
L 243.620873 294.205824 
L 243.727457 293.91552 
L 243.83404 295.463808 
L 243.940624 295.149312 
L 244.153792 292.609152 
L 244.36696 292.923648 
L 244.580128 294.859008 
L 244.686712 294.689664 
L 244.793296 293.31072 
L 244.899879 293.697792 
L 245.006463 294.859008 
L 245.219631 294.64128 
L 245.432799 295.221888 
L 245.539383 294.859008 
L 245.752551 295.100928 
L 245.965718 294.326784 
L 246.072302 294.810624 
L 246.178886 294.64128 
L 246.28547 294.230016 
L 246.392054 294.955776 
L 246.605222 293.407488 
L 246.81839 294.617088 
L 246.924973 294.713856 
L 247.031557 294.326784 
L 247.138141 292.58496 
L 247.244725 293.044608 
L 247.351309 291.447936 
L 247.564477 294.109056 
L 247.671061 294.52032 
L 247.884228 293.238144 
L 248.097396 293.770368 
L 248.20398 293.18976 
L 248.417148 294.254208 
L 248.523732 293.383296 
L 248.630316 293.891328 
L 248.843484 292.972032 
L 248.950067 292.972032 
L 249.056651 294.230016 
L 249.163235 293.117184 
L 249.269819 293.625216 
L 249.376403 293.601024 
L 249.482987 292.270464 
L 249.589571 292.464 
L 249.696155 291.931776 
L 249.909323 293.79456 
L 250.015906 293.818752 
L 250.12249 294.012288 
L 250.229074 293.480064 
L 250.335658 292.173696 
L 250.442242 294.423552 
L 250.548826 294.326784 
L 250.65541 294.592896 
L 250.868578 292.633344 
L 251.081745 293.867136 
L 251.188329 294.060672 
L 251.294913 294.834816 
L 251.401497 294.496128 
L 251.508081 292.94784 
L 251.614665 293.480064 
L 251.721249 293.117184 
L 251.827833 293.213952 
L 251.934417 293.092992 
L 252.041 294.326784 
L 252.147584 294.060672 
L 252.254168 288.690048 
L 252.57392 293.528448 
L 252.680504 293.117184 
L 252.787088 293.6736 
L 252.893672 294.931584 
L 253.106839 292.972032 
L 253.213423 292.778496 
L 253.320007 293.286528 
L 253.426591 292.70592 
L 253.533175 295.100928 
L 253.746343 293.625216 
L 253.852927 293.79456 
L 253.959511 292.94784 
L 254.066094 293.165568 
L 254.172678 292.851072 
L 254.279262 294.496128 
L 254.385846 294.230016 
L 254.49243 292.609152 
L 254.812182 294.592896 
L 255.025349 293.721984 
L 255.131933 294.665472 
L 255.345101 293.117184 
L 255.451685 292.536576 
L 255.558269 293.770368 
L 255.664853 291.98016 
L 255.878021 294.931584 
L 256.091188 293.31072 
L 256.197772 294.109056 
L 256.304356 293.6736 
L 256.41094 292.34304 
L 256.517524 294.76224 
L 256.624108 294.592896 
L 256.730692 292.657536 
L 256.837276 292.70592 
L 256.94386 293.044608 
L 257.050444 294.133248 
L 257.157027 292.391424 
L 257.263611 294.326784 
L 257.370195 293.504256 
L 257.476779 291.326976 
L 257.689947 293.31072 
L 257.796531 292.681728 
L 258.116282 294.786432 
L 258.32945 291.593088 
L 258.436034 293.238144 
L 258.542618 293.044608 
L 258.649202 286.996608 
L 258.755786 293.044608 
L 258.968954 289.173888 
L 259.075538 293.334912 
L 259.182121 289.31904 
L 259.608457 294.230016 
L 259.715041 293.697792 
L 259.821625 292.125312 
L 259.928209 283.87584 
L 260.034793 284.867712 
L 260.141376 284.504832 
L 260.24796 288.95616 
L 260.354544 287.432064 
L 260.461128 288.327168 
L 260.674296 291.181824 
L 260.887464 287.819136 
L 261.100632 291.98016 
L 261.313799 287.117568 
L 261.420383 289.585152 
L 261.526967 280.876032 
L 261.633551 282.327552 
L 261.846719 291.447936 
L 261.953303 291.447936 
L 262.059887 288.036864 
L 262.16647 292.076928 
L 262.273054 291.689856 
L 262.379638 287.044992 
L 262.592806 293.455872 
L 262.805974 285.593472 
L 262.912558 280.803456 
L 263.338893 294.230016 
L 263.552061 280.12608 
L 263.658645 282.521088 
L 263.765229 251.70048 
L 263.871813 282.230784 
L 263.978397 280.12608 
L 264.084981 270.93312 
L 264.191564 243.789696 
L 264.404732 268.949376 
L 264.511316 267.473664 
L 264.6179 257.167872 
L 264.724484 265.296384 
L 264.831068 287.673984 
L 265.044236 244.418688 
L 265.15082 240.20928 
L 265.257403 241.394688 
L 265.363987 239.580288 
L 265.470571 241.636608 
L 265.577155 291.641472 
L 265.683739 250.273152 
L 265.790323 259.175808 
L 266.003491 244.902528 
L 266.110075 233.241984 
L 266.216659 246.644352 
L 266.323242 292.94784 
L 266.53641 233.653248 
L 266.749578 245.144448 
L 266.962746 233.121024 
L 267.06933 285.351552 
L 267.175914 238.225536 
L 267.495665 282.835584 
L 267.602249 261.86112 
L 267.815417 294.689664 
L 268.135169 262.127232 
L 268.241753 264.135168 
L 268.348336 268.63488 
L 268.561504 294.8832 
L 268.668088 289.07712 
L 268.774672 291.399552 
L 268.881256 288.157824 
L 268.98784 293.55264 
L 269.094424 290.794752 
L 269.307591 294.03648 
L 269.414175 293.213952 
L 269.627343 294.375168 
L 269.733927 290.673792 
L 269.947095 294.544512 
L 270.053679 294.64128 
L 270.266847 293.625216 
L 270.37343 293.0688 
L 270.586598 291.423744 
L 270.799766 294.326784 
L 270.90635 292.149504 
L 271.119518 285.012864 
L 271.439269 293.238144 
L 271.545853 294.39936 
L 271.759021 288.738432 
L 271.972189 292.754304 
L 272.078773 291.181824 
L 272.291941 292.82688 
L 272.398524 287.98848 
L 272.505108 271.344384 
L 272.611692 281.601792 
L 272.718276 279.1584 
L 272.931444 286.803072 
L 273.038028 289.512576 
L 273.144612 289.246464 
L 273.35778 292.415616 
L 273.464363 290.020608 
L 273.784115 294.544512 
L 273.890699 286.948224 
L 273.997283 291.181824 
L 274.103867 290.939904 
L 274.210451 289.585152 
L 274.530202 294.955776 
L 274.636786 293.359104 
L 274.849954 283.87584 
L 274.956538 288.762624 
L 275.063122 284.674176 
L 275.169706 291.399552 
L 275.27629 287.698176 
L 275.489457 292.246272 
L 275.596041 294.133248 
L 275.702625 292.367232 
L 275.809209 292.58496 
L 275.915793 295.00416 
L 276.022377 294.738048 
L 276.128961 286.05312 
L 276.235545 291.810816 
L 276.342129 284.35968 
L 276.448712 288.254592 
L 276.555296 275.989248 
L 276.768464 294.060672 
L 276.875048 276.545664 
L 276.981632 287.165952 
L 277.301384 271.755648 
L 277.407968 288.617472 
L 277.514551 287.359488 
L 277.834303 237.91104 
L 277.940887 232.10496 
L 278.047471 263.240064 
L 278.154055 259.8048 
L 278.260639 288.617472 
L 278.367223 260.724096 
L 278.473806 275.40864 
L 278.686974 228.863232 
L 278.900142 53.568 
L 279.11331 244.878336 
L 279.219894 259.92576 
L 279.539645 246.426624 
L 279.646229 250.515072 
L 279.752813 286.198272 
L 279.859397 236.145024 
L 280.072565 253.99872 
L 280.179149 242.74944 
L 280.285733 260.603136 
L 280.392317 251.990784 
L 280.4989 265.804416 
L 280.605484 241.201152 
L 280.712068 269.167104 
L 280.818652 260.457984 
L 280.925236 261.159552 
L 281.244988 284.916096 
L 281.351572 247.152384 
L 281.458156 279.40032 
L 281.564739 260.337024 
L 281.991075 292.609152 
L 282.097659 290.504448 
L 282.204243 290.843136 
L 282.310827 291.835008 
L 282.523995 287.964288 
L 282.630578 289.633536 
L 282.737162 293.55264 
L 282.95033 289.004544 
L 283.056914 288.254592 
L 283.163498 289.222272 
L 283.48325 294.931584 
L 283.589833 293.238144 
L 283.803001 294.109056 
L 284.016169 294.810624 
L 284.229337 293.963904 
L 284.335921 283.9968 
L 284.442505 292.70592 
L 284.549089 292.294656 
L 284.655672 294.52032 
L 284.86884 293.746176 
L 284.975424 292.22208 
L 285.082008 292.294656 
L 285.40176 294.52032 
L 285.614927 292.004352 
L 285.721511 294.568704 
L 285.828095 290.40768 
L 285.934679 290.818944 
L 286.041263 292.415616 
L 286.147847 290.117376 
L 286.254431 292.536576 
L 286.361015 289.875456 
L 286.467599 290.6496 
L 286.574183 289.391616 
L 286.680766 291.157632 
L 286.78735 290.117376 
L 286.893934 292.22208 
L 287.000518 289.996416 
L 287.107102 294.15744 
L 287.32027 292.052736 
L 287.426854 291.447936 
L 287.533438 287.480448 
L 287.640021 292.536576 
L 287.746605 291.520512 
L 287.853189 294.617088 
L 288.066357 292.197888 
L 288.172941 293.117184 
L 288.279525 292.197888 
L 288.386109 293.334912 
L 288.492693 292.778496 
L 288.70586 294.350976 
L 289.132196 291.665664 
L 289.451948 294.302592 
L 289.771699 291.351168 
L 289.878283 293.528448 
L 289.984867 291.399552 
L 290.198035 294.738048 
L 290.304619 289.851264 
L 290.411203 293.238144 
L 290.517787 289.851264 
L 290.730954 293.092992 
L 290.837538 294.907392 
L 291.050706 290.262528 
L 291.15729 291.641472 
L 291.263874 292.560768 
L 291.370458 289.512576 
L 291.583626 294.060672 
L 291.69021 293.359104 
L 291.903377 291.399552 
L 292.116545 292.657536 
L 292.329713 291.036672 
L 292.436297 293.262336 
L 292.649465 289.343232 
L 292.862632 291.883392 
L 292.969216 290.40768 
L 293.0758 292.996224 
L 293.288968 288.520704 
L 293.395552 292.270464 
L 293.502136 290.89152 
L 293.60872 293.79456 
L 293.715304 293.770368 
L 293.928471 293.43168 
L 294.141639 290.335104 
L 294.248223 287.359488 
L 294.567975 292.70592 
L 294.674559 292.681728 
L 294.781142 293.18976 
L 294.887726 292.391424 
L 294.99431 293.359104 
L 295.100894 292.536576 
L 295.207478 293.18976 
L 295.314062 295.24608 
L 295.420646 295.00416 
L 295.633814 290.988288 
L 295.740398 293.0688 
L 295.953565 292.560768 
L 296.060149 294.907392 
L 296.166733 294.254208 
L 296.273317 292.052736 
L 296.379901 292.923648 
L 296.699653 290.794752 
L 296.806236 294.084864 
L 296.91282 292.560768 
L 297.019404 294.52032 
L 297.125988 292.681728 
L 297.232572 292.70592 
L 297.339156 292.996224 
L 297.44574 292.34304 
L 297.552324 293.963904 
L 297.658908 293.528448 
L 297.978659 293.649408 
L 298.085243 293.141376 
L 298.191827 291.8592 
L 298.404995 293.746176 
L 298.511579 292.923648 
L 298.618163 291.01248 
L 298.724747 293.165568 
L 298.831331 293.092992 
L 298.937914 293.238144 
L 299.044498 293.91552 
L 299.151082 293.649408 
L 299.36425 291.73824 
L 299.577418 293.334912 
L 299.684002 293.262336 
L 299.897169 294.955776 
L 300.110337 292.82688 
L 300.323505 292.270464 
L 300.430089 290.093184 
L 300.643257 294.52032 
L 300.856425 291.955968 
L 300.963008 291.810816 
L 301.069592 292.536576 
L 301.176176 292.415616 
L 301.389344 294.665472 
L 301.602512 292.609152 
L 301.709096 293.0688 
L 301.81568 292.82688 
L 302.028847 294.326784 
L 302.135431 294.39936 
L 302.348599 293.359104 
L 302.455183 291.278592 
L 302.561767 292.681728 
L 302.668351 291.399552 
L 302.774935 294.423552 
L 302.988102 292.367232 
L 303.094686 287.407872 
L 303.20127 288.71424 
L 303.414438 292.778496 
L 303.521022 293.262336 
L 303.627606 294.326784 
L 303.73419 293.18976 
L 303.840774 293.334912 
L 303.947357 289.609344 
L 304.053941 290.020608 
L 304.267109 293.697792 
L 304.373693 292.633344 
L 304.480277 289.972224 
L 304.693445 293.43168 
L 304.800029 293.165568 
L 304.906613 291.883392 
L 305.013196 294.375168 
L 305.332948 291.810816 
L 305.546116 293.6736 
L 305.6527 293.649408 
L 305.865868 294.617088 
L 305.972452 292.149504 
L 306.079035 294.230016 
L 306.398787 285.93216 
L 306.611955 295.12512 
L 306.825123 292.58496 
L 306.931707 294.012288 
L 307.03829 293.867136 
L 307.144874 293.359104 
L 307.358042 295.00416 
L 307.57121 293.649408 
L 307.677794 292.899456 
L 307.890962 294.326784 
L 307.997546 294.471936 
L 308.104129 294.810624 
L 308.317297 290.068992 
L 308.423881 291.206016 
L 308.637049 290.310912 
L 308.850217 294.931584 
L 309.063384 294.181632 
L 309.169968 294.375168 
L 309.48972 292.657536 
L 309.596304 290.40768 
L 309.702888 292.560768 
L 309.809472 291.61728 
L 309.916056 292.22208 
L 310.02264 291.641472 
L 310.129223 292.681728 
L 310.342391 291.786624 
L 310.555559 288.254592 
L 310.768727 292.439808 
L 310.875311 291.13344 
L 311.088478 293.55264 
L 311.195062 291.762432 
L 311.40823 293.262336 
L 311.514814 293.721984 
L 311.621398 293.31072 
L 311.727982 294.810624 
L 311.834566 294.76224 
L 312.047734 292.197888 
L 312.154317 293.044608 
L 312.474069 290.359296 
L 312.580653 293.867136 
L 312.687237 291.786624 
L 312.793821 293.770368 
L 313.113572 292.82688 
L 313.220156 293.867136 
L 313.32674 293.697792 
L 313.433324 294.64128 
L 313.753076 292.052736 
L 313.966244 294.302592 
L 314.072828 294.52032 
L 314.179411 292.681728 
L 314.285995 292.996224 
L 314.392579 292.488192 
L 314.499163 292.70592 
L 314.605747 293.213952 
L 314.712331 292.609152 
L 314.818915 294.76224 
L 314.925499 292.82688 
L 315.032083 293.625216 
L 315.138667 292.802688 
L 315.24525 293.455872 
L 315.351834 53.568 
L 315.458418 294.689664 
L 315.565002 241.90272 
L 315.671586 292.439808 
L 315.884754 53.568 
L 316.097922 293.43168 
L 316.204505 293.988096 
L 316.311089 293.867136 
L 316.524257 292.899456 
L 316.630841 292.028544 
L 316.737425 289.778688 
L 316.950593 293.79456 
L 317.057177 292.681728 
L 317.163761 293.963904 
L 317.270344 293.79456 
L 317.376928 292.754304 
L 317.483512 293.91552 
L 317.590096 290.818944 
L 317.803264 293.818752 
L 317.909848 293.383296 
L 318.016432 293.504256 
L 318.123016 293.213952 
L 318.229599 293.43168 
L 318.336183 292.125312 
L 318.442767 292.730112 
L 318.655935 294.302592 
L 318.975687 289.512576 
L 319.188855 293.746176 
L 319.508606 291.278592 
L 319.721774 293.117184 
L 319.828358 293.117184 
L 319.934942 294.665472 
L 320.14811 293.818752 
L 320.361277 290.16576 
L 320.467861 292.560768 
L 320.574445 290.577024 
L 320.681029 294.39936 
L 320.787613 294.012288 
L 320.894197 288.399744 
L 321.107365 293.649408 
L 321.213949 294.859008 
L 321.320532 293.79456 
L 321.5337 294.859008 
L 321.640284 292.197888 
L 321.746868 292.512384 
L 321.853452 294.03648 
L 321.960036 293.91552 
L 322.173204 294.786432 
L 322.279788 294.39936 
L 322.386371 294.592896 
L 322.492955 294.544512 
L 322.599539 293.867136 
L 322.706123 294.447744 
L 322.812707 294.302592 
L 322.919291 295.415424 
L 323.025875 294.568704 
L 323.132459 294.810624 
L 323.239043 293.528448 
L 323.45221 294.39936 
L 323.558794 294.350976 
L 323.665378 295.149312 
L 323.771962 294.665472 
L 323.878546 294.8832 
L 324.091714 293.117184 
L 324.198298 292.875264 
L 324.304882 294.012288 
L 324.518049 292.802688 
L 324.624633 293.939712 
L 324.731217 292.70592 
L 324.837801 294.15744 
L 325.050969 292.996224 
L 325.157553 294.713856 
L 325.264137 294.568704 
L 325.477304 292.512384 
L 325.583888 293.746176 
L 325.797056 292.70592 
L 325.90364 294.859008 
L 326.010224 294.230016 
L 326.116808 294.496128 
L 326.329976 293.963904 
L 326.436559 294.423552 
L 326.543143 294.012288 
L 326.649727 295.076736 
L 326.756311 294.592896 
L 326.969479 292.488192 
L 327.182647 294.060672 
L 327.289231 293.383296 
L 327.395814 294.254208 
L 327.608982 292.778496 
L 327.82215 293.988096 
L 327.928734 292.875264 
L 328.035318 293.286528 
L 328.248486 294.568704 
L 328.35507 291.641472 
L 328.461653 292.754304 
L 328.568237 292.125312 
L 328.674821 292.754304 
L 328.781405 291.13344 
L 328.887989 294.205824 
L 328.994573 294.060672 
L 329.207741 289.464192 
L 329.314325 293.18976 
L 329.420908 292.052736 
L 329.634076 294.955776 
L 329.74066 293.213952 
L 329.847244 293.262336 
L 329.953828 291.641472 
L 330.166996 292.851072 
L 330.27358 291.689856 
L 330.380164 294.713856 
L 330.486747 294.52032 
L 330.699915 292.415616 
L 330.913083 293.528448 
L 331.019667 292.10112 
L 331.126251 294.471936 
L 331.232835 293.867136 
L 331.339419 293.891328 
L 331.446003 291.13344 
L 331.65917 292.875264 
L 331.765754 292.560768 
L 331.872338 294.133248 
L 332.085506 292.94784 
L 332.19209 293.334912 
L 332.298674 293.31072 
L 332.405258 292.149504 
L 332.511841 292.536576 
L 332.725009 293.867136 
L 332.831593 293.939712 
L 333.044761 292.778496 
L 333.151345 293.867136 
L 333.257929 291.8592 
L 333.471097 294.955776 
L 333.684264 290.28672 
L 333.790848 293.383296 
L 333.897432 291.665664 
L 334.004016 292.125312 
L 334.1106 295.294464 
L 334.430352 293.092992 
L 334.643519 295.052544 
L 334.750103 295.100928 
L 334.856687 294.907392 
L 334.963271 295.270272 
L 335.283023 291.786624 
L 335.389607 292.294656 
L 335.496191 290.915712 
L 335.709358 294.471936 
L 335.922526 290.504448 
L 336.02911 293.044608 
L 336.135694 291.835008 
L 336.242278 292.197888 
L 336.348862 295.00416 
L 336.455446 292.972032 
L 336.562029 294.03648 
L 336.775197 290.843136 
L 337.094949 294.76224 
L 337.414701 291.568896 
L 337.627868 293.6736 
L 337.734452 292.367232 
L 337.841036 294.592896 
L 337.94762 294.568704 
L 338.054204 292.82688 
L 338.160788 292.94784 
L 338.267372 292.657536 
L 338.373956 292.778496 
L 338.48054 292.318848 
L 338.587124 294.447744 
L 338.693707 294.326784 
L 338.906875 291.2544 
L 339.120043 292.58496 
L 339.226627 292.415616 
L 339.333211 293.988096 
L 339.439795 293.455872 
L 339.546379 293.770368 
L 339.652962 291.13344 
L 339.86613 293.359104 
L 339.972714 292.10112 
L 340.185882 294.375168 
L 340.39905 293.213952 
L 340.505634 293.480064 
L 340.612218 294.254208 
L 340.718801 292.125312 
L 340.931969 293.91552 
L 341.038553 292.560768 
L 341.145137 292.58496 
L 341.251721 293.43168 
L 341.358305 290.068992 
L 341.464889 290.40768 
L 341.678056 293.842944 
L 341.78464 293.359104 
L 341.891224 293.818752 
L 341.997808 292.681728 
L 342.104392 289.68192 
L 342.31756 294.302592 
L 342.530728 291.714048 
L 342.637312 293.867136 
L 342.743895 291.326976 
L 342.850479 291.689856 
L 343.063647 294.76224 
L 343.170231 294.617088 
L 343.276815 292.052736 
L 343.383399 293.092992 
L 343.489983 292.270464 
L 343.596567 292.536576 
L 343.70315 292.197888 
L 343.809734 292.730112 
L 343.916318 294.8832 
L 344.022902 291.955968 
L 344.342654 293.842944 
L 344.449238 294.03648 
L 344.662406 293.746176 
L 344.768989 292.391424 
L 344.875573 292.681728 
L 344.982157 291.157632 
L 345.195325 294.133248 
L 345.301909 295.028352 
L 345.515077 293.601024 
L 345.621661 293.721984 
L 345.728244 293.18976 
L 345.834828 291.181824 
L 346.047996 294.810624 
L 346.15458 295.076736 
L 346.261164 293.988096 
L 346.367748 294.52032 
L 346.580916 292.149504 
L 346.794083 294.955776 
L 346.900667 294.592896 
L 347.007251 294.907392 
L 347.113835 293.165568 
L 347.220419 293.649408 
L 347.327003 291.810816 
L 347.540171 294.738048 
L 347.646755 294.109056 
L 347.753339 292.173696 
L 347.859922 293.407488 
L 347.966506 292.173696 
L 348.07309 289.44 
L 348.286258 294.496128 
L 348.392842 294.955776 
L 348.499426 294.302592 
L 348.60601 289.948032 
L 348.925761 293.43168 
L 349.032345 294.447744 
L 349.352097 292.028544 
L 349.458681 294.617088 
L 349.565265 292.851072 
L 349.885016 294.592896 
L 349.9916 290.601216 
L 350.098184 293.286528 
L 350.204768 288.375552 
L 350.311352 292.754304 
L 350.417936 288.71424 
L 350.52452 295.197696 
L 350.631104 294.665472 
L 350.950855 289.343232 
L 351.057439 293.407488 
L 351.164023 289.294848 
L 351.270607 294.471936 
L 351.377191 294.350976 
L 351.483775 288.10944 
L 351.590359 292.270464 
L 351.696943 286.29504 
L 351.803527 288.665856 
L 351.91011 287.698176 
L 352.016694 294.084864 
L 352.336446 292.560768 
L 352.44303 283.87584 
L 352.549614 289.512576 
L 352.656198 287.456256 
L 352.762782 294.859008 
L 353.082533 292.34304 
L 353.189117 282.230784 
L 353.295701 291.399552 
L 353.402285 285.133824 
L 353.508869 294.084864 
L 353.615453 293.988096 
L 353.722037 281.117952 
L 353.828621 292.94784 
L 353.935204 290.310912 
L 354.041788 294.060672 
L 354.148372 287.673984 
L 354.254956 295.100928 
L 354.468124 294.181632 
L 354.681292 291.641472 
L 354.787876 290.843136 
L 354.894459 281.432448 
L 355.001043 294.713856 
L 355.107627 294.326784 
L 355.214211 292.004352 
L 355.320795 292.125312 
L 355.427379 293.141376 
L 355.533963 291.883392 
L 355.640547 287.26272 
L 355.747131 294.496128 
L 355.853715 294.326784 
L 355.960298 286.609536 
L 356.066882 290.52864 
L 356.173466 290.189952 
L 356.386634 286.464384 
L 356.599802 294.907392 
L 356.81297 293.092992 
L 356.919554 286.149888 
L 357.026137 286.827264 
L 357.239305 294.979968 
L 357.665641 288.762624 
L 357.772225 291.181824 
L 357.878809 288.980352 
L 357.985392 294.375168 
L 358.091976 293.770368 
L 358.19856 286.512768 
L 358.305144 293.359104 
L 358.411728 292.996224 
L 358.624896 293.504256 
L 358.73148 295.00416 
L 358.838064 294.302592 
L 358.944648 292.439808 
L 359.051231 294.060672 
L 359.157815 293.6736 
L 359.264399 291.085056 
L 359.370983 291.37536 
L 359.477567 294.979968 
L 359.690735 291.085056 
L 359.797319 292.875264 
L 359.903903 284.287104 
L 360.11707 294.810624 
L 360.223654 294.713856 
L 360.330238 295.028352 
L 360.436822 293.0688 
L 360.543406 294.471936 
L 360.64999 291.907584 
L 360.756574 293.0688 
L 360.969742 292.197888 
L 361.076325 293.044608 
L 361.182909 292.633344 
L 361.289493 291.520512 
L 361.396077 292.004352 
L 361.609245 294.2784 
L 361.928997 293.286528 
L 362.03558 293.721984 
L 362.355332 291.907584 
L 362.461916 289.754496 
L 362.675084 293.407488 
L 362.781668 293.407488 
L 362.888252 292.778496 
L 362.994836 293.504256 
L 363.101419 292.923648 
L 363.208003 293.891328 
L 363.421171 293.455872 
L 363.527755 294.713856 
L 363.847507 292.488192 
L 363.954091 293.79456 
L 364.060675 293.625216 
L 364.167258 292.173696 
L 364.273842 292.22208 
L 364.380426 291.714048 
L 364.48701 292.851072 
L 364.593594 291.447936 
L 364.700178 293.891328 
L 364.806762 293.818752 
L 364.913346 293.165568 
L 365.126513 293.6736 
L 365.233097 292.82688 
L 365.339681 293.867136 
L 365.552849 293.697792 
L 365.872601 291.520512 
L 365.979185 291.593088 
L 366.192352 294.254208 
L 366.298936 294.302592 
L 366.512104 291.714048 
L 366.725272 291.8592 
L 366.93844 293.721984 
L 367.045024 291.036672 
L 367.151607 292.657536 
L 367.364775 291.593088 
L 367.471359 291.786624 
L 367.577943 292.802688 
L 367.684527 289.706112 
L 367.791111 294.060672 
L 368.110863 291.060864 
L 368.217446 291.060864 
L 368.430614 293.576832 
L 368.537198 293.79456 
L 368.643782 288.931968 
L 368.750366 292.125312 
L 368.85695 291.302784 
L 368.963534 293.455872 
L 369.070118 292.657536 
L 369.283285 295.100928 
L 369.389869 293.407488 
L 369.496453 293.91552 
L 369.603037 291.544704 
L 370.029373 294.665472 
L 370.135957 290.915712 
L 370.24254 292.875264 
L 370.349124 288.254592 
L 370.562292 294.39936 
L 370.77546 295.24608 
L 370.882044 294.786432 
L 370.988628 293.334912 
L 371.095212 294.012288 
L 371.201795 292.681728 
L 371.414963 294.302592 
L 371.521547 295.076736 
L 371.734715 293.697792 
L 372.054467 294.979968 
L 372.161051 295.173504 
L 372.267634 294.931584 
L 372.374218 289.875456 
L 372.480802 294.52032 
L 372.587386 293.044608 
L 372.69397 294.133248 
L 372.800554 292.82688 
L 372.907138 294.810624 
L 373.013722 294.39936 
L 373.120306 288.47232 
L 373.333473 293.867136 
L 373.440057 290.40768 
L 373.653225 294.979968 
L 373.759809 294.907392 
L 373.866393 293.092992 
L 373.972977 293.31072 
L 374.079561 292.972032 
L 374.186145 293.576832 
L 374.292728 292.488192 
L 374.399312 295.197696 
L 374.505896 295.028352 
L 374.825648 293.31072 
L 374.932232 294.2784 
L 375.038816 293.721984 
L 375.1454 290.0448 
L 375.251984 295.173504 
L 375.358567 293.939712 
L 375.465151 294.64128 
L 375.571735 293.141376 
L 375.678319 293.480064 
L 375.891487 295.221888 
L 375.998071 294.931584 
L 376.104655 293.407488 
L 376.211239 293.6736 
L 376.317822 287.915904 
L 376.53099 292.875264 
L 376.637574 293.504256 
L 376.744158 295.12512 
L 376.957326 292.681728 
L 377.06391 291.762432 
L 377.383661 295.149312 
L 377.596829 292.754304 
L 377.703413 293.262336 
L 377.809997 292.899456 
L 377.916581 293.770368 
L 378.023165 293.213952 
L 378.129749 295.294464 
L 378.236333 295.028352 
L 378.4495 292.560768 
L 378.662668 293.625216 
L 378.769252 293.213952 
L 378.875836 294.375168 
L 379.089004 291.689856 
L 379.195588 287.891712 
L 379.408755 292.439808 
L 379.515339 292.730112 
L 379.728507 293.939712 
L 379.941675 289.972224 
L 380.048259 293.480064 
L 380.154843 291.206016 
L 380.368011 294.64128 
L 380.474594 294.2784 
L 380.581178 291.109248 
L 380.687762 293.141376 
L 380.794346 292.609152 
L 381.114098 295.00416 
L 381.220682 294.060672 
L 381.327266 288.278784 
L 381.433849 288.327168 
L 381.540433 292.923648 
L 381.647017 287.50464 
L 381.860185 293.117184 
L 381.966769 293.18976 
L 382.286521 287.093376 
L 382.393105 291.641472 
L 382.499688 291.206016 
L 382.712856 293.770368 
L 382.81944 293.721984 
L 382.926024 293.988096 
L 383.032608 293.528448 
L 383.139192 291.157632 
L 383.245776 284.529024 
L 383.458943 294.617088 
L 383.672111 287.528832 
L 383.778695 292.996224 
L 383.885279 292.246272 
L 384.205031 295.076736 
L 384.311615 291.544704 
L 384.524782 292.633344 
L 384.631366 291.641472 
L 384.844534 294.689664 
L 384.951118 294.423552 
L 385.057702 283.87584 
L 385.27087 293.963904 
L 385.484037 293.721984 
L 385.697205 295.270272 
L 385.910373 290.746368 
L 386.230125 293.504256 
L 386.443293 294.834816 
L 386.65646 292.464 
L 386.976212 294.568704 
L 387.082796 294.423552 
L 387.18938 294.76224 
L 387.402548 293.504256 
L 387.615715 294.109056 
L 387.722299 293.891328 
L 387.828883 294.955776 
L 387.935467 294.907392 
L 388.255219 293.55264 
L 388.361803 293.79456 
L 388.468387 293.43168 
L 388.681554 295.100928 
L 388.788138 294.786432 
L 389.10789 290.746368 
L 389.427642 295.00416 
L 389.534226 293.504256 
L 389.640809 290.068992 
L 389.853977 293.939712 
L 389.960561 293.480064 
L 390.067145 294.471936 
L 390.173729 293.891328 
L 390.280313 292.512384 
L 390.386897 292.94784 
L 390.493481 292.367232 
L 390.600064 292.778496 
L 390.706648 289.44 
L 390.813232 294.859008 
L 391.132984 293.141376 
L 391.346152 293.601024 
L 391.452736 293.31072 
L 391.55932 293.504256 
L 391.665903 294.03648 
L 391.772487 290.431872 
L 391.879071 293.939712 
L 391.985655 293.528448 
L 392.092239 292.197888 
L 392.305407 294.375168 
L 392.411991 294.52032 
L 392.518575 293.262336 
L 392.625158 293.818752 
L 392.731742 293.238144 
L 392.838326 293.504256 
L 393.051494 295.415424 
L 393.158078 295.221888 
L 393.371246 291.762432 
L 393.584414 293.867136 
L 393.690997 294.15744 
L 393.797581 294.834816 
L 393.904165 294.64128 
L 394.117333 293.649408 
L 394.223917 290.625408 
L 394.437085 293.697792 
L 394.650252 294.665472 
L 394.756836 290.89152 
L 394.86342 293.91552 
L 394.970004 293.818752 
L 395.183172 292.875264 
L 395.39634 295.173504 
L 395.502924 293.625216 
L 395.609508 293.79456 
L 395.716091 292.294656 
L 395.822675 292.488192 
L 396.035843 294.955776 
L 396.142427 294.738048 
L 396.249011 294.859008 
L 396.355595 294.786432 
L 396.568763 293.988096 
L 396.78193 294.907392 
L 396.888514 295.149312 
L 397.421434 293.504256 
L 397.528018 293.818752 
L 397.634602 294.907392 
L 397.847769 293.480064 
L 397.954353 293.528448 
L 398.060937 293.262336 
L 398.167521 293.480064 
L 398.380689 295.36704 
L 398.487273 295.488 
L 398.487273 295.488 
" style="fill:none;stroke:#1f77b4;stroke-linecap:square;stroke-width:1.5;"/>
   </g>
   <g id="patch_3">
    <path d="M 57.6 307.584 
L 57.6 41.472 
" style="fill:none;stroke:#000000;stroke-linecap:square;stroke-linejoin:miter;stroke-width:0.8;"/>
   </g>
   <g id="patch_4">
    <path d="M 414.72 307.584 
L 414.72 41.472 
" style="fill:none;stroke:#000000;stroke-linecap:square;stroke-linejoin:miter;stroke-width:0.8;"/>
   </g>
   <g id="patch_5">
    <path d="M 57.6 307.584 
L 414.72 307.584 
" style="fill:none;stroke:#000000;stroke-linecap:square;stroke-linejoin:miter;stroke-width:0.8;"/>
   </g>
   <g id="patch_6">
    <path d="M 57.6 41.472 
L 414.72 41.472 
" style="fill:none;stroke:#000000;stroke-linecap:square;stroke-linejoin:miter;stroke-width:0.8;"/>
   </g>
  </g>
 </g>
 <defs>
  <clipPath id="p77d462a81d">
   <rect height="266.112" width="357.12" x="57.6" y="41.472"/>
  </clipPath>
 </defs>
</svg>
