<?xml version="1.0" encoding="utf-8" standalone="no"?>
<!DOCTYPE svg PUBLIC "-//W3C//DTD SVG 1.1//EN"
  "http://www.w3.org/Graphics/SVG/1.1/DTD/svg11.dtd">
<!-- Created with matplotlib (http://matplotlib.org/) -->
<svg height="288pt" version="1.1" viewBox="0 0 432 288" width="432pt" xmlns="http://www.w3.org/2000/svg" xmlns:xlink="http://www.w3.org/1999/xlink">
 <defs>
  <style type="text/css">
*{stroke-linecap:butt;stroke-linejoin:round;}
  </style>
 </defs>
 <g id="figure_1">
  <g id="patch_1">
   <path d="
M0 288
L432 288
L432 0
L0 0
z
" style="fill:#ffffff;"/>
  </g>
  <g id="axes_1">
   <g id="patch_2">
    <path d="
M54 252
L388.8 252
L388.8 28.8
L54 28.8
z
" style="fill:#ffffff;"/>
   </g>
   <g id="line2d_1">
    <path clip-path="url(#p124b8dd147)" d="
M54 252
L58.5 252
L58.86 235.334
L59.04 235.855
L59.22 233.921
L59.4 240.245
L59.58 241.435
L59.76 240.617
L59.94 238.757
L60.12 244.114
L60.48 236.599
L60.66 241.286
L61.02 235.632
L61.38 246.122
L61.56 245.378
L61.74 244.114
L61.92 241.435
L62.1 243.221
L62.28 240.84
L62.64 245.527
L62.82 240.096
L63 242.7
L63.18 238.385
L63.36 240.766
L63.54 239.352
L63.72 234.218
L63.9 241.584
L64.26 239.947
L64.44 237.194
L64.62 241.584
L64.98 243.667
L65.16 240.096
L65.34 240.245
L65.52 239.65
L65.7 242.477
L65.88 241.956
L66.06 239.724
L66.42 246.048
L66.78 238.236
L66.96 241.584
L67.14 240.691
L67.32 241.361
L67.5 244.858
L67.68 245.527
L67.86 243.742
L68.04 239.129
L68.22 238.31
L68.4 244.039
L68.58 239.873
L68.76 243.816
L68.94 243.742
L69.12 245.899
L69.3 242.179
L69.48 233.698
L69.66 242.551
L69.84 238.831
L70.02 243.518
L70.2 241.882
L70.56 243.444
L70.74 237.641
L70.92 239.873
L71.1 244.486
L71.28 241.882
L71.46 245.006
L71.64 244.858
L71.82 239.575
L72.18 245.899
L72.54 241.435
L72.72 243.518
L72.9 243.295
L73.26 247.536
L73.44 245.75
L73.62 241.212
L73.8 244.411
L73.98 244.486
L74.16 246.42
L74.34 241.882
L74.52 243.667
L74.7 242.551
L74.88 244.858
L75.06 243.295
L75.24 242.998
L75.42 243.965
L75.6 240.245
L75.96 244.932
L76.14 244.337
L76.32 247.387
L76.5 244.634
L76.68 246.122
L76.86 242.105
L77.04 244.337
L77.22 243.072
L77.4 245.75
L77.58 244.188
L77.76 246.866
L77.94 242.7
L78.12 242.7
L78.3 242.477
L78.48 240.319
L78.66 244.114
L78.84 243.742
L79.02 246.866
L79.38 241.063
L79.92 246.048
L80.1 244.858
L80.28 247.313
L80.46 243.742
L80.64 242.626
L80.82 242.998
L81 244.783
L81.18 244.486
L81.36 246.048
L81.54 246.42
L81.9 239.947
L82.08 239.65
L82.26 245.899
L82.44 244.486
L82.62 244.411
L82.8 245.75
L82.98 245.974
L83.16 244.634
L83.34 244.411
L83.52 243.221
L83.7 240.766
L84.06 244.411
L84.24 244.337
L84.42 240.989
L84.6 240.691
L84.78 243.518
L84.96 243.518
L85.14 240.691
L85.5 248.057
L85.86 232.879
L86.04 240.989
L86.22 242.849
L86.4 242.03
L86.58 243.072
L86.76 245.825
L87.12 241.286
L87.3 241.733
L87.48 237.715
L87.66 245.006
L87.84 243.667
L88.02 246.197
L88.2 242.7
L88.38 242.03
L88.74 243.221
L88.92 241.138
L89.1 243.444
L89.28 239.203
L89.46 241.361
L89.64 240.245
L89.82 240.022
L90 240.245
L90.18 239.129
L90.36 242.849
L90.54 243.518
L90.9 238.682
L91.08 242.774
L91.26 240.319
L91.44 239.426
L91.62 240.468
L91.8 242.179
L92.16 235.409
L92.34 241.956
L92.52 241.361
L92.7 238.534
L92.88 239.426
L93.06 241.212
L93.24 237.194
L93.42 241.51
L93.6 238.608
L93.78 240.989
L93.96 237.12
L94.14 243.37
L94.32 242.477
L94.5 237.79
L94.68 238.013
L94.86 241.435
L95.04 241.584
L95.4 249.173
L95.58 247.908
L95.76 240.914
L95.94 238.757
L96.12 246.271
L96.3 240.84
L96.48 240.617
L96.66 245.825
L96.84 246.42
L97.02 236.674
L97.2 235.409
L97.38 242.849
L97.56 238.682
L97.92 247.61
L98.1 245.378
L98.46 245.75
L98.64 245.75
L98.82 244.039
L99.18 245.527
L99.36 245.75
L99.54 245.75
L99.72 247.09
L99.9 247.536
L100.08 248.578
L100.26 246.346
L100.44 247.61
L100.62 243.667
L100.8 243.965
L100.98 243.146
L101.34 247.015
L101.52 246.048
L101.7 244.262
L101.88 247.61
L102.06 247.61
L102.24 245.378
L102.42 246.643
L102.6 244.932
L102.78 245.378
L102.96 244.039
L103.14 244.858
L103.32 239.352
L103.5 246.866
L104.04 243.444
L104.4 247.536
L104.58 237.938
L104.76 235.781
L104.94 235.706
L105.12 235.26
L105.3 239.798
L105.48 247.61
L105.66 245.974
L105.84 247.908
L106.38 243.667
L106.56 247.015
L106.92 241.956
L107.1 244.932
L107.28 244.709
L107.46 245.453
L107.64 245.155
L107.82 242.105
L108.18 246.718
L108.36 242.626
L108.54 245.081
L108.72 245.527
L108.9 241.658
L109.08 244.486
L109.44 246.271
L109.62 244.188
L109.8 245.155
L109.98 246.792
L110.16 244.337
L110.34 246.122
L110.52 244.858
L110.7 248.057
L110.88 247.462
L111.06 243.593
L111.42 247.685
L111.6 248.503
L111.78 248.057
L111.96 247.313
L112.14 245.006
L112.32 245.23
L112.5 248.354
L112.68 245.974
L112.86 245.899
L113.04 247.387
L113.22 246.494
L113.4 242.774
L113.58 245.825
L113.76 245.006
L114.12 242.402
L114.3 247.462
L114.48 245.378
L114.66 247.536
L114.84 245.304
L115.02 246.941
L115.2 245.527
L115.38 248.28
L115.56 247.536
L115.74 247.759
L116.1 246.271
L116.28 248.28
L116.46 247.387
L116.64 247.61
L117 245.676
L117.18 242.03
L117.36 246.197
L117.54 242.849
L117.72 246.941
L117.9 245.602
L118.26 249.545
L118.44 245.602
L118.8 247.462
L118.98 246.122
L119.34 247.908
L119.52 247.759
L119.88 241.286
L120.06 247.982
L120.24 246.718
L120.42 247.238
L120.6 248.429
L120.78 247.685
L120.96 248.503
L121.14 243.518
L121.32 245.378
L121.5 244.114
L121.68 246.346
L121.86 246.866
L122.04 246.866
L122.22 245.527
L122.4 245.676
L122.58 247.09
L122.76 246.048
L123.12 249.694
L123.48 241.361
L123.66 246.048
L123.84 245.974
L124.02 241.212
L124.2 245.75
L124.38 247.09
L124.56 238.087
L124.74 245.006
L124.92 246.122
L125.1 244.486
L125.28 244.634
L125.46 244.114
L125.64 248.131
L125.82 247.982
L126 247.238
L126.18 245.081
L126.36 244.783
L126.54 241.882
L126.9 247.164
L127.08 244.783
L127.26 247.313
L127.44 245.23
L127.62 245.676
L127.8 249.024
L128.34 245.304
L128.52 247.536
L128.7 244.262
L129.06 248.429
L129.42 244.709
L129.6 246.271
L129.78 244.56
L129.96 244.114
L130.14 247.015
L130.32 246.569
L130.5 248.95
L130.68 248.875
L130.86 247.462
L131.04 245.081
L131.22 245.081
L131.4 247.387
L131.58 246.494
L131.76 249.322
L131.94 248.652
L132.12 246.494
L132.3 247.09
L132.48 245.23
L132.84 246.866
L133.02 247.164
L133.2 246.792
L133.38 248.131
L133.56 247.238
L133.74 244.709
L133.92 248.206
L134.28 232.879
L134.46 242.254
L134.64 243.965
L134.82 243.444
L135 234.962
L135.18 234.293
L135.36 245.155
L135.54 245.676
L135.72 247.015
L135.9 246.941
L136.26 241.138
L136.44 229.978
L136.62 245.825
L136.8 246.569
L136.98 248.429
L137.16 247.462
L137.34 248.652
L137.52 248.875
L137.7 246.048
L138.24 246.122
L138.42 245.825
L138.6 244.56
L138.96 248.131
L139.14 246.271
L139.32 245.602
L139.5 244.337
L139.68 245.602
L139.86 244.039
L140.04 248.578
L140.4 247.387
L140.58 244.634
L140.76 244.783
L140.94 249.694
L141.3 243.295
L141.48 243.444
L141.66 246.42
L141.84 244.709
L142.02 246.718
L142.2 246.792
L142.38 244.039
L142.56 247.536
L142.74 247.834
L142.92 246.197
L143.28 247.834
L143.46 247.759
L143.64 244.486
L143.82 247.462
L144 245.899
L144.18 247.685
L144.36 245.75
L144.54 247.462
L144.72 245.453
L144.9 245.602
L145.08 247.834
L145.26 246.42
L145.44 248.503
L145.62 248.801
L145.98 248.503
L146.16 246.42
L146.52 247.164
L146.7 245.974
L146.88 245.676
L147.06 248.057
L147.24 248.578
L147.42 247.536
L147.6 245.676
L147.78 246.792
L147.96 246.048
L148.14 247.61
L148.32 248.057
L148.5 247.09
L148.86 249.322
L149.04 245.75
L149.22 246.494
L149.4 243.146
L149.58 248.28
L149.76 248.28
L149.94 237.566
L150.3 247.908
L150.48 245.676
L150.66 247.09
L150.84 247.09
L151.02 244.932
L151.2 241.361
L151.38 245.527
L151.56 245.825
L151.74 244.932
L151.92 239.054
L152.1 248.206
L152.28 247.387
L152.46 235.483
L152.82 243.221
L153 246.792
L153.18 244.932
L153.36 246.792
L153.54 245.676
L153.72 246.048
L153.9 242.551
L154.08 246.569
L154.26 246.122
L154.44 246.271
L154.62 247.238
L154.8 246.122
L154.98 246.048
L155.16 244.858
L155.34 246.866
L155.52 242.7
L155.7 244.56
L155.88 244.783
L156.24 247.462
L156.42 236.674
L156.6 244.932
L156.96 238.385
L157.14 246.048
L157.32 243.965
L157.5 234.665
L157.86 240.691
L158.4 249.024
L158.58 246.197
L158.76 247.834
L159.3 242.477
L159.48 242.03
L159.66 247.908
L159.84 244.783
L160.02 245.602
L160.2 240.542
L160.38 243.37
L160.56 241.807
L160.74 242.254
L160.92 247.164
L161.1 248.429
L161.46 245.75
L161.64 249.024
L161.82 249.098
L162 244.039
L162.18 249.173
L162.36 248.875
L162.54 244.783
L162.72 243.221
L162.9 239.278
L163.08 244.262
L163.26 241.882
L163.44 248.354
L163.8 244.411
L163.98 244.56
L164.16 247.313
L164.52 243.295
L164.7 247.387
L164.88 244.634
L165.06 245.453
L165.24 244.858
L165.42 242.849
L165.6 245.453
L165.78 244.56
L166.32 246.866
L166.5 244.486
L166.68 245.602
L166.86 241.658
L167.22 247.387
L167.4 247.462
L167.58 243.965
L167.94 247.61
L168.3 242.105
L168.48 241.658
L168.66 244.337
L168.84 239.203
L169.02 244.709
L169.2 236.822
L169.38 240.394
L169.56 241.658
L169.74 248.354
L169.92 247.387
L170.1 242.254
L170.28 243.146
L170.82 237.79
L171.18 248.726
L171.36 243.072
L171.54 248.354
L171.72 248.131
L171.9 249.545
L172.08 247.685
L172.26 248.206
L172.44 246.866
L172.62 249.47
L172.8 249.322
L172.98 249.024
L173.16 246.346
L173.52 248.652
L173.7 248.875
L173.88 246.42
L174.06 247.61
L174.24 247.015
L174.42 242.328
L174.96 249.991
L175.32 246.569
L175.5 246.941
L175.68 249.024
L175.86 249.322
L176.04 249.024
L176.22 249.098
L176.4 247.61
L176.58 247.387
L176.76 248.801
L176.94 248.429
L177.12 247.536
L177.3 248.057
L177.48 248.95
L177.66 242.328
L177.84 248.652
L178.02 248.429
L178.2 245.006
L178.38 249.619
L178.56 249.322
L178.74 249.47
L178.92 247.09
L179.1 247.462
L179.28 247.164
L179.46 248.429
L179.64 248.28
L179.82 249.991
L180.36 247.759
L180.54 247.61
L180.72 245.899
L181.08 249.173
L181.26 248.057
L181.44 249.247
L181.62 248.875
L181.8 248.95
L181.98 249.396
L182.16 247.685
L182.34 248.354
L182.52 243.221
L182.88 249.173
L183.06 248.057
L183.24 248.578
L183.42 247.982
L183.6 251.182
L183.78 248.875
L183.96 250.363
L184.14 247.536
L184.32 250.363
L184.68 248.131
L184.86 249.545
L185.04 249.694
L185.22 248.652
L185.4 249.322
L185.76 247.238
L185.94 247.462
L186.12 249.917
L186.3 250.512
L186.48 246.941
L186.84 248.726
L187.02 247.164
L187.2 247.015
L187.56 249.694
L187.74 248.28
L188.1 247.015
L188.28 249.173
L188.46 248.652
L188.82 249.991
L189 248.875
L189.18 246.346
L189.36 247.536
L189.72 243.37
L189.9 249.545
L190.08 249.098
L190.26 247.536
L190.62 248.354
L190.8 247.536
L191.16 248.95
L191.52 247.387
L191.7 247.908
L191.88 249.322
L192.06 249.619
L192.6 248.875
L192.78 248.057
L192.96 244.039
L193.14 244.337
L193.32 245.23
L193.5 247.313
L193.86 248.801
L194.04 248.503
L194.22 248.95
L194.4 245.602
L194.58 248.131
L194.76 248.875
L194.94 247.834
L195.12 247.908
L195.3 248.95
L195.48 246.866
L195.66 248.652
L195.84 247.759
L196.02 245.974
L196.2 247.61
L196.38 246.643
L196.74 247.834
L196.92 246.792
L197.1 247.908
L197.28 246.197
L197.64 246.866
L197.82 249.247
L198.18 245.006
L198.54 248.28
L198.72 248.057
L198.9 249.842
L199.26 247.015
L199.44 247.61
L199.8 246.866
L199.98 248.354
L200.16 248.057
L200.52 244.634
L200.88 245.825
L201.06 245.825
L201.24 247.09
L201.42 245.676
L201.6 248.578
L201.96 246.718
L202.14 248.131
L202.32 244.783
L202.5 247.834
L202.68 248.057
L202.86 242.7
L203.04 245.825
L203.22 245.081
L203.4 248.578
L203.58 249.47
L203.76 246.346
L203.94 248.578
L204.12 249.173
L204.48 245.006
L204.66 246.866
L204.84 247.462
L205.02 248.578
L205.2 247.834
L205.38 248.652
L205.56 246.271
L205.74 246.718
L205.92 248.652
L206.1 248.503
L206.28 248.95
L206.46 248.652
L206.64 247.09
L206.82 249.098
L207 246.866
L207.36 248.429
L207.54 249.396
L207.72 249.322
L207.9 249.545
L208.26 248.652
L208.44 247.61
L208.8 250.214
L208.98 248.354
L209.34 249.991
L209.52 249.694
L209.88 248.131
L210.06 250.14
L210.42 248.131
L210.6 248.726
L210.78 249.917
L210.96 247.462
L211.32 249.768
L211.68 250.289
L211.86 249.322
L212.04 249.991
L212.58 249.47
L212.76 249.545
L212.94 250.884
L213.12 250.958
L213.3 249.545
L213.48 249.917
L213.66 249.173
L213.84 245.676
L214.02 250.512
L214.2 248.206
L214.38 250.14
L214.56 249.917
L214.74 250.214
L214.92 249.098
L215.1 249.024
L215.28 249.47
L215.64 246.643
L215.82 247.015
L216 248.95
L216.18 248.131
L216.36 248.95
L216.54 248.95
L216.72 248.652
L216.9 246.569
L217.08 249.247
L217.26 248.652
L217.62 250.958
L218.16 245.23
L218.52 249.619
L218.7 248.801
L219.06 250.735
L219.24 245.527
L219.42 246.048
L219.78 248.578
L219.96 247.238
L220.14 250.066
L220.32 250.512
L220.5 245.899
L220.68 249.545
L220.86 249.991
L221.04 246.643
L221.22 247.462
L221.4 249.694
L221.58 249.098
L221.76 249.173
L221.94 248.057
L222.12 246.197
L222.48 249.619
L222.66 249.842
L222.84 250.289
L223.02 248.652
L223.2 248.726
L223.38 249.024
L223.56 250.586
L223.74 249.396
L223.92 249.694
L224.1 249.694
L224.28 248.801
L224.46 242.03
L224.64 246.42
L224.82 247.164
L225.18 249.991
L225.36 250.363
L225.54 247.09
L225.72 248.652
L225.9 245.974
L226.08 247.015
L226.26 249.396
L226.44 249.619
L226.62 250.586
L226.98 248.652
L227.16 250.289
L227.34 248.801
L227.52 248.875
L227.7 249.991
L227.88 249.991
L228.06 249.322
L228.24 245.453
L228.42 246.197
L228.6 248.057
L228.78 245.974
L228.96 250.512
L229.14 248.726
L229.32 249.396
L229.5 248.28
L229.86 249.842
L230.04 250.512
L230.22 249.247
L230.4 251.182
L230.58 249.47
L230.76 249.024
L230.94 249.322
L231.12 249.098
L231.3 249.396
L231.48 249.322
L231.66 250.661
L232.2 248.801
L232.38 246.941
L232.56 250.512
L232.74 250.735
L232.92 238.31
L233.1 248.95
L233.28 249.098
L233.46 248.95
L233.64 248.354
L233.82 250.438
L234 240.84
L234.18 249.991
L234.36 247.982
L234.54 248.206
L234.72 248.95
L234.9 247.759
L235.08 248.057
L235.26 248.578
L235.44 250.363
L235.62 248.057
L235.8 248.726
L235.98 248.95
L236.16 250.289
L236.34 249.322
L236.52 249.396
L236.7 248.726
L236.88 247.61
L237.06 247.982
L237.24 249.694
L237.42 249.842
L237.6 249.173
L237.78 249.842
L237.96 248.652
L238.14 248.28
L238.32 249.842
L238.5 246.866
L238.68 246.197
L238.86 248.429
L239.04 248.206
L239.22 250.438
L239.4 249.694
L239.58 249.694
L239.76 249.991
L239.94 249.842
L240.12 249.991
L240.3 248.057
L240.48 249.024
L240.84 246.346
L241.02 249.768
L241.38 249.619
L241.56 248.131
L241.74 250.586
L242.1 250.14
L242.28 250.066
L242.46 250.512
L242.64 250.363
L242.82 250.735
L243 251.702
L243.18 249.694
L243.36 250.363
L243.9 248.503
L244.08 249.842
L244.26 250.14
L244.44 250.14
L244.62 249.917
L244.98 250.586
L245.16 250.512
L245.34 250.586
L245.52 251.256
L245.88 249.322
L246.06 249.173
L246.24 249.842
L246.42 248.801
L246.6 250.289
L246.78 249.694
L246.96 250.586
L247.14 250.14
L247.32 250.586
L247.5 250.066
L247.68 250.661
L247.86 250.214
L248.04 251.107
L248.4 248.354
L248.58 250.14
L248.76 250.214
L248.94 250.735
L249.3 249.694
L249.48 249.991
L249.66 248.354
L249.84 251.182
L250.02 250.363
L250.2 251.256
L250.38 250.586
L250.56 248.578
L250.74 250.661
L251.1 249.322
L251.28 249.396
L251.46 249.694
L251.64 250.735
L251.82 250.438
L252 250.512
L252.18 247.387
L252.54 249.322
L252.9 250.512
L253.08 250.512
L253.26 250.363
L253.44 249.098
L253.62 249.768
L253.8 249.917
L253.98 248.057
L254.16 251.182
L254.34 249.247
L254.52 249.842
L254.7 247.387
L254.88 248.95
L255.06 247.387
L255.42 249.842
L255.6 248.429
L255.78 250.289
L255.96 249.991
L256.14 246.792
L256.32 249.173
L256.5 249.396
L256.68 250.066
L256.86 249.768
L257.04 248.801
L257.22 249.545
L257.4 249.322
L257.76 248.503
L257.94 248.503
L258.12 248.875
L258.3 246.866
L258.48 249.545
L258.66 245.899
L258.84 248.95
L259.02 249.768
L259.2 251.554
L259.56 247.834
L259.92 249.247
L260.1 249.694
L260.28 247.387
L260.46 249.694
L260.64 250.512
L260.82 250.363
L261 248.652
L261.36 250.81
L261.54 248.578
L261.72 248.206
L261.9 248.726
L262.08 248.503
L262.26 246.792
L262.44 248.95
L262.62 248.95
L262.8 249.619
L262.98 248.95
L263.16 249.396
L263.34 249.545
L263.52 249.47
L263.7 249.173
L264.06 245.676
L264.24 248.875
L264.6 248.875
L264.78 242.402
L264.96 242.626
L265.14 246.792
L265.32 247.908
L265.5 249.917
L265.68 249.47
L265.86 249.842
L266.04 247.313
L266.22 248.206
L266.4 247.834
L266.76 249.545
L266.94 250.958
L267.12 247.759
L267.3 249.768
L267.48 246.122
L267.66 249.396
L267.84 249.619
L268.02 250.066
L268.2 251.479
L268.38 249.322
L268.74 250.958
L268.92 247.685
L269.28 249.842
L269.46 249.694
L269.64 248.429
L269.82 249.47
L270 248.28
L270.18 249.694
L270.36 249.917
L270.72 247.908
L270.9 245.974
L271.08 248.503
L271.26 246.048
L271.44 248.206
L271.62 246.866
L271.98 250.438
L272.16 248.652
L272.34 248.95
L272.52 247.462
L272.7 247.536
L272.88 247.759
L273.06 249.694
L273.24 250.289
L273.42 246.941
L273.6 247.462
L273.78 250.214
L273.96 247.313
L274.32 250.14
L274.5 250.884
L274.68 250.661
L274.86 247.313
L275.04 247.908
L275.22 249.396
L275.4 249.619
L275.58 250.438
L275.76 247.462
L275.94 249.47
L276.12 242.774
L276.3 247.462
L276.48 246.941
L276.66 247.313
L276.84 248.057
L277.02 246.122
L277.38 250.735
L277.56 250.512
L277.74 250.661
L277.92 250.14
L278.1 250.289
L278.28 249.396
L278.46 250.289
L278.64 250.586
L278.82 250.661
L279 249.47
L279.18 249.322
L279.54 246.643
L279.72 249.619
L279.9 247.238
L280.08 247.908
L280.26 250.289
L280.44 249.024
L280.62 249.024
L280.8 250.066
L280.98 248.28
L281.34 250.735
L281.52 250.586
L281.7 248.206
L281.88 247.834
L282.06 250.586
L282.24 248.206
L282.42 249.098
L282.6 246.569
L282.78 247.536
L282.96 247.313
L283.14 250.958
L283.32 246.643
L283.5 248.503
L283.68 246.866
L283.86 246.643
L284.22 247.462
L284.4 245.378
L284.58 250.289
L284.76 246.494
L284.94 245.453
L285.12 242.7
L285.3 246.494
L285.48 246.941
L285.66 249.47
L285.84 249.396
L286.02 245.453
L286.2 246.122
L286.38 244.188
L286.74 248.578
L286.92 250.735
L287.1 250.289
L287.28 247.834
L287.46 248.354
L287.64 249.396
L287.82 248.206
L288.18 250.81
L288.36 250.438
L288.72 247.462
L288.9 247.685
L289.08 247.313
L289.44 250.512
L289.62 250.438
L289.8 249.694
L289.98 245.974
L290.16 248.057
L290.34 247.536
L290.52 247.685
L290.7 250.735
L290.88 250.958
L291.06 248.057
L291.24 247.982
L291.42 246.569
L291.6 246.792
L291.78 247.759
L291.96 251.033
L292.14 251.033
L292.32 248.429
L292.5 248.28
L292.68 247.015
L293.04 246.494
L293.22 249.545
L293.4 248.354
L293.58 244.486
L293.76 245.602
L293.94 244.783
L294.12 241.361
L294.3 241.658
L294.66 250.735
L294.84 244.337
L295.02 244.709
L295.2 242.774
L295.38 243.89
L295.56 238.236
L295.74 249.47
L295.92 248.503
L296.1 242.477
L296.28 246.494
L296.46 246.866
L296.64 245.378
L296.82 245.75
L297.18 250.884
L297.36 242.998
L297.54 242.179
L297.72 242.551
L297.9 248.503
L298.08 246.643
L298.26 248.429
L298.44 248.131
L298.62 248.057
L298.8 246.643
L298.98 248.652
L299.34 246.122
L299.7 250.214
L300.06 245.75
L300.24 247.015
L300.42 250.14
L300.6 246.866
L300.78 250.066
L300.96 249.694
L301.32 243.444
L301.86 247.09
L302.04 250.735
L302.4 248.95
L302.58 243.816
L302.76 249.694
L302.94 247.908
L303.12 238.013
L303.3 250.512
L303.48 250.289
L303.66 242.328
L304.02 246.494
L304.2 245.676
L304.56 249.098
L304.74 250.661
L304.92 244.337
L305.1 245.081
L305.28 244.634
L305.46 244.486
L305.82 249.47
L306 249.842
L306.36 241.138
L306.54 246.494
L306.72 244.56
L306.9 246.346
L307.08 249.47
L307.26 249.842
L307.44 248.429
L307.62 239.947
L307.98 247.164
L308.16 247.313
L308.34 249.991
L308.52 249.619
L308.7 236.748
L308.88 244.262
L309.06 243.221
L309.42 246.941
L309.6 249.991
L309.78 249.619
L309.96 245.676
L310.14 246.866
L310.32 249.545
L310.5 243.295
L310.68 248.429
L310.86 249.842
L311.04 250.289
L311.22 245.899
L311.58 244.709
L311.76 247.834
L311.94 247.759
L312.12 249.545
L312.3 249.768
L312.66 236.822
L312.84 237.194
L313.02 242.03
L313.2 240.245
L313.38 248.429
L313.56 248.801
L313.74 245.006
L313.92 246.197
L314.1 246.197
L314.28 249.842
L314.46 244.188
L314.64 250.884
L314.82 245.453
L315 245.081
L315.18 244.262
L315.36 246.42
L315.54 243.89
L315.72 243.37
L316.08 248.429
L316.26 243.89
L316.44 248.131
L316.98 247.313
L317.16 248.354
L317.34 248.429
L317.52 246.494
L317.7 241.807
L318.06 247.09
L318.24 248.057
L318.42 249.694
L318.6 247.759
L318.78 248.131
L319.14 246.569
L319.32 246.197
L319.5 245.304
L319.86 246.494
L320.04 245.602
L320.22 243.816
L320.4 244.262
L320.58 237.343
L321.12 247.759
L321.3 247.015
L321.48 240.245
L321.66 241.807
L321.84 246.42
L322.02 244.337
L322.2 244.56
L322.38 249.247
L322.74 248.875
L322.92 245.378
L323.1 244.114
L323.28 245.23
L323.64 245.676
L324 243.593
L324.18 247.685
L324.36 247.61
L324.54 245.899
L324.72 250.512
L325.08 242.254
L325.26 242.626
L325.44 241.733
L325.62 241.807
L325.8 247.015
L325.98 244.56
L326.16 246.271
L326.34 239.203
L326.52 242.849
L326.7 242.626
L326.88 242.626
L327.06 239.426
L327.24 193.373
L327.6 244.709
L327.78 236.525
L327.96 240.766
L328.14 241.435
L328.5 138.317
L328.86 236.004
L329.04 239.65
L329.22 240.245
L329.4 244.56
L329.58 241.658
L329.94 244.486
L330.12 244.411
L330.3 238.236
L330.48 246.866
L330.66 226.481
L330.84 220.082
L331.02 236.971
L331.2 242.551
L331.38 229.457
L331.74 236.153
L331.92 238.534
L332.1 158.479
L332.46 246.122
L332.64 203.417
L332.82 214.651
L333 205.128
L333.18 225.588
L333.36 221.496
L333.54 243.518
L333.72 244.783
L333.9 247.387
L334.08 241.956
L334.26 227.671
L334.44 225.514
L334.62 226.406
L334.8 234.888
L334.98 249.47
L335.16 158.777
L335.34 207.881
L335.52 198.432
L335.7 247.387
L336.06 248.429
L336.24 249.991
L336.42 244.783
L336.6 247.313
L336.78 242.998
L337.14 245.899
L337.5 250.512
L338.04 235.409
L338.22 244.932
L338.4 246.718
L338.58 250.363
L338.76 250.14
L338.94 244.262
L339.12 246.346
L339.48 243.444
L339.84 249.545
L340.02 249.842
L340.38 246.866
L340.56 246.941
L340.74 248.057
L340.92 247.164
L341.1 251.926
L341.28 250.958
L341.46 244.634
L341.64 243.146
L341.82 243.965
L342 244.114
L342.36 250.066
L342.54 249.545
L342.72 245.304
L342.9 246.494
L343.08 250.066
L343.44 249.396
L343.8 251.182
L343.98 250.066
L344.16 250.661
L344.34 250.81
L344.7 248.429
L344.88 249.917
L345.06 249.396
L345.24 248.131
L345.42 250.363
L345.78 245.602
L345.96 249.247
L346.14 249.322
L346.32 249.619
L346.5 248.429
L346.68 243.072
L346.86 244.486
L347.04 239.575
L347.22 245.825
L347.58 249.024
L347.76 245.602
L347.94 245.081
L348.12 246.569
L348.3 246.718
L348.48 244.932
L348.66 248.206
L348.84 248.206
L349.02 245.527
L349.2 247.09
L349.38 244.337
L349.74 244.262
L349.92 248.131
L350.1 244.709
L350.28 246.271
L350.46 246.197
L350.64 242.105
L350.82 242.7
L351 241.063
L351.18 246.792
L351.54 246.866
L351.72 247.462
L351.9 245.825
L352.08 241.807
L352.26 248.726
L352.44 248.429
L352.62 249.247
L352.8 247.164
L352.98 243.221
L353.16 246.941
L353.34 247.015
L353.52 247.61
L353.7 249.991
L353.88 248.95
L354.06 244.188
L354.24 245.825
L354.42 244.709
L354.6 245.006
L354.78 244.634
L354.96 248.429
L355.14 247.61
L355.32 231.094
L355.86 245.974
L356.04 244.709
L356.22 246.42
L356.4 250.289
L356.58 245.081
L356.94 243.667
L357.12 245.23
L357.3 243.444
L357.48 250.81
L357.84 246.271
L358.02 246.792
L358.2 244.188
L358.38 244.858
L358.56 243.89
L358.74 248.95
L358.92 248.131
L359.1 243.146
L359.46 247.834
L359.64 249.247
L360 246.569
L360.18 249.47
L360.36 244.932
L360.54 244.709
L360.72 242.923
L360.9 246.718
L361.08 241.212
L361.44 250.289
L361.8 245.304
L361.98 247.759
L362.16 246.42
L362.34 242.328
L362.52 249.768
L362.7 249.247
L362.88 243.295
L363.06 243.444
L363.24 244.486
L363.42 247.834
L363.6 242.477
L363.78 248.429
L363.96 245.899
L364.14 239.203
L364.5 245.304
L364.68 243.37
L364.86 246.494
L365.04 247.313
L365.22 249.842
L365.58 240.022
L365.76 245.081
L365.94 244.486
L366.12 225.886
L366.3 244.486
L366.66 232.582
L366.84 245.378
L367.02 233.028
L367.2 237.864
L367.38 246.42
L367.56 244.634
L367.74 248.131
L367.92 246.494
L368.1 241.658
L368.28 216.288
L368.46 219.338
L368.64 218.222
L368.82 231.912
L369 227.225
L369.18 229.978
L369.54 238.757
L369.9 228.415
L370.08 241.212
L370.26 241.212
L370.44 228.043
L370.62 226.258
L370.8 233.846
L370.98 207.062
L371.16 211.526
L371.34 238.906
L371.52 239.575
L371.7 239.575
L371.88 229.085
L372.06 241.51
L372.24 240.319
L372.42 226.034
L372.6 245.75
L372.78 245.75
L373.14 221.57
L373.32 206.839
L373.68 231.986
L373.86 234.442
L374.04 248.131
L374.22 212.494
L374.4 204.756
L374.58 212.122
L374.76 117.336
L374.94 211.229
L375.12 204.756
L375.3 176.484
L375.48 93.0072
L375.84 170.383
L376.02 165.845
L376.2 134.15
L376.38 159.149
L376.56 227.969
L376.92 94.9416
L377.1 81.996
L377.28 85.6416
L377.46 80.0616
L377.64 86.3856
L377.82 240.17
L378 112.946
L378.18 140.326
L378.36 98.5128
L378.54 96.4296
L378.72 60.5688
L378.9 101.786
L379.08 244.188
L379.26 76.6392
L379.44 61.8336
L379.8 97.1736
L379.98 63.396
L380.16 60.1968
L380.34 220.826
L380.52 75.8952
L380.88 185.933
L381.06 213.089
L381.24 148.584
L381.6 249.545
L381.96 166.44
L382.14 149.402
L382.32 155.578
L382.5 169.416
L382.86 250.14
L383.04 232.284
L383.22 239.426
L383.4 229.457
L383.58 246.048
L383.76 237.566
L383.94 245.378
L384.12 247.536
L384.3 245.006
L384.48 247.685
L384.66 248.578
L384.84 237.194
L385.2 249.098
L385.38 249.396
L385.56 246.569
L385.74 246.271
L385.92 244.56
L386.1 240.542
L386.28 239.501
L386.64 248.429
L386.82 241.733
L387 221.05
L387.18 219.785
L387.54 239.575
L387.9 248.652
L388.26 231.242
L388.8 251.405
L388.8 251.405" style="fill:none;stroke:#0000ff;stroke-linecap:square;"/>
   </g>
   <g id="patch_3">
    <path d="
M54 28.8
L388.8 28.8" style="fill:none;stroke:#000000;stroke-linecap:square;stroke-linejoin:miter;"/>
   </g>
   <g id="patch_4">
    <path d="
M388.8 252
L388.8 28.8" style="fill:none;stroke:#000000;stroke-linecap:square;stroke-linejoin:miter;"/>
   </g>
   <g id="patch_5">
    <path d="
M54 252
L388.8 252" style="fill:none;stroke:#000000;stroke-linecap:square;stroke-linejoin:miter;"/>
   </g>
   <g id="patch_6">
    <path d="
M54 252
L54 28.8" style="fill:none;stroke:#000000;stroke-linecap:square;stroke-linejoin:miter;"/>
   </g>
   <g id="matplotlib.axis_1">
    <g id="xtick_1">
     <g id="line2d_2">
      <defs>
       <path d="
M0 0
L0 -4" id="m93b0483c22" style="stroke:#000000;stroke-width:0.5;"/>
      </defs>
      <g>
       <use style="stroke:#000000;stroke-width:0.5;" x="81.54" xlink:href="#m93b0483c22" y="252.0"/>
      </g>
     </g>
     <g id="line2d_3">
      <defs>
       <path d="
M0 0
L0 4" id="m741efc42ff" style="stroke:#000000;stroke-width:0.5;"/>
      </defs>
      <g>
       <use style="stroke:#000000;stroke-width:0.5;" x="81.54" xlink:href="#m741efc42ff" y="28.8"/>
      </g>
     </g>
     <g id="text_1">
      <!-- 2011 -->
      <defs>
       <path d="
M19.1875 8.29688
L53.6094 8.29688
L53.6094 0
L7.32812 0
L7.32812 8.29688
Q12.9375 14.1094 22.625 23.8906
Q32.3281 33.6875 34.8125 36.5312
Q39.5469 41.8438 41.4219 45.5312
Q43.3125 49.2188 43.3125 52.7812
Q43.3125 58.5938 39.2344 62.25
Q35.1562 65.9219 28.6094 65.9219
Q23.9688 65.9219 18.8125 64.3125
Q13.6719 62.7031 7.8125 59.4219
L7.8125 69.3906
Q13.7656 71.7812 18.9375 73
Q24.125 74.2188 28.4219 74.2188
Q39.75 74.2188 46.4844 68.5469
Q53.2188 62.8906 53.2188 53.4219
Q53.2188 48.9219 51.5312 44.8906
Q49.8594 40.875 45.4062 35.4062
Q44.1875 33.9844 37.6406 27.2188
Q31.1094 20.4531 19.1875 8.29688" id="BitstreamVeraSans-Roman-32"/>
       <path d="
M31.7812 66.4062
Q24.1719 66.4062 20.3281 58.9062
Q16.5 51.4219 16.5 36.375
Q16.5 21.3906 20.3281 13.8906
Q24.1719 6.39062 31.7812 6.39062
Q39.4531 6.39062 43.2812 13.8906
Q47.125 21.3906 47.125 36.375
Q47.125 51.4219 43.2812 58.9062
Q39.4531 66.4062 31.7812 66.4062
M31.7812 74.2188
Q44.0469 74.2188 50.5156 64.5156
Q56.9844 54.8281 56.9844 36.375
Q56.9844 17.9688 50.5156 8.26562
Q44.0469 -1.42188 31.7812 -1.42188
Q19.5312 -1.42188 13.0625 8.26562
Q6.59375 17.9688 6.59375 36.375
Q6.59375 54.8281 13.0625 64.5156
Q19.5312 74.2188 31.7812 74.2188" id="BitstreamVeraSans-Roman-30"/>
       <path d="
M12.4062 8.29688
L28.5156 8.29688
L28.5156 63.9219
L10.9844 60.4062
L10.9844 69.3906
L28.4219 72.9062
L38.2812 72.9062
L38.2812 8.29688
L54.3906 8.29688
L54.3906 0
L12.4062 0
z
" id="BitstreamVeraSans-Roman-31"/>
      </defs>
      <g transform="translate(69.643125 263.5984375)scale(0.1 -0.1)">
       <use xlink:href="#BitstreamVeraSans-Roman-32"/>
       <use x="63.623046875" xlink:href="#BitstreamVeraSans-Roman-30"/>
       <use x="127.24609375" xlink:href="#BitstreamVeraSans-Roman-31"/>
       <use x="190.869140625" xlink:href="#BitstreamVeraSans-Roman-31"/>
      </g>
     </g>
    </g>
    <g id="xtick_2">
     <g id="line2d_4">
      <g>
       <use style="stroke:#000000;stroke-width:0.5;" x="147.24" xlink:href="#m93b0483c22" y="252.0"/>
      </g>
     </g>
     <g id="line2d_5">
      <g>
       <use style="stroke:#000000;stroke-width:0.5;" x="147.24" xlink:href="#m741efc42ff" y="28.8"/>
      </g>
     </g>
     <g id="text_2">
      <!-- 2012 -->
      <g transform="translate(135.3821875 263.5984375)scale(0.1 -0.1)">
       <use xlink:href="#BitstreamVeraSans-Roman-32"/>
       <use x="63.623046875" xlink:href="#BitstreamVeraSans-Roman-30"/>
       <use x="127.24609375" xlink:href="#BitstreamVeraSans-Roman-31"/>
       <use x="190.869140625" xlink:href="#BitstreamVeraSans-Roman-32"/>
      </g>
     </g>
    </g>
    <g id="xtick_3">
     <g id="line2d_6">
      <g>
       <use style="stroke:#000000;stroke-width:0.5;" x="213.12" xlink:href="#m93b0483c22" y="252.0"/>
      </g>
     </g>
     <g id="line2d_7">
      <g>
       <use style="stroke:#000000;stroke-width:0.5;" x="213.12" xlink:href="#m741efc42ff" y="28.8"/>
      </g>
     </g>
     <g id="text_3">
      <!-- 2013 -->
      <defs>
       <path d="
M40.5781 39.3125
Q47.6562 37.7969 51.625 33
Q55.6094 28.2188 55.6094 21.1875
Q55.6094 10.4062 48.1875 4.48438
Q40.7656 -1.42188 27.0938 -1.42188
Q22.5156 -1.42188 17.6562 -0.515625
Q12.7969 0.390625 7.625 2.20312
L7.625 11.7188
Q11.7188 9.32812 16.5938 8.10938
Q21.4844 6.89062 26.8125 6.89062
Q36.0781 6.89062 40.9375 10.5469
Q45.7969 14.2031 45.7969 21.1875
Q45.7969 27.6406 41.2812 31.2656
Q36.7656 34.9062 28.7188 34.9062
L20.2188 34.9062
L20.2188 43.0156
L29.1094 43.0156
Q36.375 43.0156 40.2344 45.9219
Q44.0938 48.8281 44.0938 54.2969
Q44.0938 59.9062 40.1094 62.9062
Q36.1406 65.9219 28.7188 65.9219
Q24.6562 65.9219 20.0156 65.0312
Q15.375 64.1562 9.8125 62.3125
L9.8125 71.0938
Q15.4375 72.6562 20.3438 73.4375
Q25.25 74.2188 29.5938 74.2188
Q40.8281 74.2188 47.3594 69.1094
Q53.9062 64.0156 53.9062 55.3281
Q53.9062 49.2656 50.4375 45.0938
Q46.9688 40.9219 40.5781 39.3125" id="BitstreamVeraSans-Roman-33"/>
      </defs>
      <g transform="translate(201.1621875 263.5984375)scale(0.1 -0.1)">
       <use xlink:href="#BitstreamVeraSans-Roman-32"/>
       <use x="63.623046875" xlink:href="#BitstreamVeraSans-Roman-30"/>
       <use x="127.24609375" xlink:href="#BitstreamVeraSans-Roman-31"/>
       <use x="190.869140625" xlink:href="#BitstreamVeraSans-Roman-33"/>
      </g>
     </g>
    </g>
    <g id="xtick_4">
     <g id="line2d_8">
      <g>
       <use style="stroke:#000000;stroke-width:0.5;" x="278.82" xlink:href="#m93b0483c22" y="252.0"/>
      </g>
     </g>
     <g id="line2d_9">
      <g>
       <use style="stroke:#000000;stroke-width:0.5;" x="278.82" xlink:href="#m741efc42ff" y="28.8"/>
      </g>
     </g>
     <g id="text_4">
      <!-- 2014 -->
      <defs>
       <path d="
M37.7969 64.3125
L12.8906 25.3906
L37.7969 25.3906
z

M35.2031 72.9062
L47.6094 72.9062
L47.6094 25.3906
L58.0156 25.3906
L58.0156 17.1875
L47.6094 17.1875
L47.6094 0
L37.7969 0
L37.7969 17.1875
L4.89062 17.1875
L4.89062 26.7031
z
" id="BitstreamVeraSans-Roman-34"/>
      </defs>
      <g transform="translate(266.741875 263.5984375)scale(0.1 -0.1)">
       <use xlink:href="#BitstreamVeraSans-Roman-32"/>
       <use x="63.623046875" xlink:href="#BitstreamVeraSans-Roman-30"/>
       <use x="127.24609375" xlink:href="#BitstreamVeraSans-Roman-31"/>
       <use x="190.869140625" xlink:href="#BitstreamVeraSans-Roman-34"/>
      </g>
     </g>
    </g>
    <g id="xtick_5">
     <g id="line2d_10">
      <g>
       <use style="stroke:#000000;stroke-width:0.5;" x="344.52" xlink:href="#m93b0483c22" y="252.0"/>
      </g>
     </g>
     <g id="line2d_11">
      <g>
       <use style="stroke:#000000;stroke-width:0.5;" x="344.52" xlink:href="#m741efc42ff" y="28.8"/>
      </g>
     </g>
     <g id="text_5">
      <!-- 2015 -->
      <defs>
       <path d="
M10.7969 72.9062
L49.5156 72.9062
L49.5156 64.5938
L19.8281 64.5938
L19.8281 46.7344
Q21.9688 47.4688 24.1094 47.8281
Q26.2656 48.1875 28.4219 48.1875
Q40.625 48.1875 47.75 41.5
Q54.8906 34.8125 54.8906 23.3906
Q54.8906 11.625 47.5625 5.09375
Q40.2344 -1.42188 26.9062 -1.42188
Q22.3125 -1.42188 17.5469 -0.640625
Q12.7969 0.140625 7.71875 1.70312
L7.71875 11.625
Q12.1094 9.23438 16.7969 8.0625
Q21.4844 6.89062 26.7031 6.89062
Q35.1562 6.89062 40.0781 11.3281
Q45.0156 15.7656 45.0156 23.3906
Q45.0156 31 40.0781 35.4375
Q35.1562 39.8906 26.7031 39.8906
Q22.75 39.8906 18.8125 39.0156
Q14.8906 38.1406 10.7969 36.2812
z
" id="BitstreamVeraSans-Roman-35"/>
      </defs>
      <g transform="translate(332.598125 263.5984375)scale(0.1 -0.1)">
       <use xlink:href="#BitstreamVeraSans-Roman-32"/>
       <use x="63.623046875" xlink:href="#BitstreamVeraSans-Roman-30"/>
       <use x="127.24609375" xlink:href="#BitstreamVeraSans-Roman-31"/>
       <use x="190.869140625" xlink:href="#BitstreamVeraSans-Roman-35"/>
      </g>
     </g>
    </g>
   </g>
   <g id="matplotlib.axis_2">
    <g id="ytick_1">
     <g id="line2d_12">
      <defs>
       <path d="
M0 0
L4 0" id="m728421d6d4" style="stroke:#000000;stroke-width:0.5;"/>
      </defs>
      <g>
       <use style="stroke:#000000;stroke-width:0.5;" x="54.0" xlink:href="#m728421d6d4" y="252.0"/>
      </g>
     </g>
     <g id="line2d_13">
      <defs>
       <path d="
M0 0
L-4 0" id="mcb0005524f" style="stroke:#000000;stroke-width:0.5;"/>
      </defs>
      <g>
       <use style="stroke:#000000;stroke-width:0.5;" x="388.8" xlink:href="#mcb0005524f" y="252.0"/>
      </g>
     </g>
     <g id="text_6">
      <!-- 0 -->
      <g transform="translate(44.9609375 254.759375)scale(0.1 -0.1)">
       <use xlink:href="#BitstreamVeraSans-Roman-30"/>
      </g>
     </g>
    </g>
    <g id="ytick_2">
     <g id="line2d_14">
      <g>
       <use style="stroke:#000000;stroke-width:0.5;" x="54.0" xlink:href="#m728421d6d4" y="214.8"/>
      </g>
     </g>
     <g id="line2d_15">
      <g>
       <use style="stroke:#000000;stroke-width:0.5;" x="388.8" xlink:href="#mcb0005524f" y="214.8"/>
      </g>
     </g>
     <g id="text_7">
      <!-- 500 -->
      <g transform="translate(32.3484375 217.559375)scale(0.1 -0.1)">
       <use xlink:href="#BitstreamVeraSans-Roman-35"/>
       <use x="63.623046875" xlink:href="#BitstreamVeraSans-Roman-30"/>
       <use x="127.24609375" xlink:href="#BitstreamVeraSans-Roman-30"/>
      </g>
     </g>
    </g>
    <g id="ytick_3">
     <g id="line2d_16">
      <g>
       <use style="stroke:#000000;stroke-width:0.5;" x="54.0" xlink:href="#m728421d6d4" y="177.6"/>
      </g>
     </g>
     <g id="line2d_17">
      <g>
       <use style="stroke:#000000;stroke-width:0.5;" x="388.8" xlink:href="#mcb0005524f" y="177.6"/>
      </g>
     </g>
     <g id="text_8">
      <!-- 1000 -->
      <g transform="translate(26.3125 180.359375)scale(0.1 -0.1)">
       <use xlink:href="#BitstreamVeraSans-Roman-31"/>
       <use x="63.623046875" xlink:href="#BitstreamVeraSans-Roman-30"/>
       <use x="127.24609375" xlink:href="#BitstreamVeraSans-Roman-30"/>
       <use x="190.869140625" xlink:href="#BitstreamVeraSans-Roman-30"/>
      </g>
     </g>
    </g>
    <g id="ytick_4">
     <g id="line2d_18">
      <g>
       <use style="stroke:#000000;stroke-width:0.5;" x="54.0" xlink:href="#m728421d6d4" y="140.4"/>
      </g>
     </g>
     <g id="line2d_19">
      <g>
       <use style="stroke:#000000;stroke-width:0.5;" x="388.8" xlink:href="#mcb0005524f" y="140.4"/>
      </g>
     </g>
     <g id="text_9">
      <!-- 1500 -->
      <g transform="translate(26.3125 143.159375)scale(0.1 -0.1)">
       <use xlink:href="#BitstreamVeraSans-Roman-31"/>
       <use x="63.623046875" xlink:href="#BitstreamVeraSans-Roman-35"/>
       <use x="127.24609375" xlink:href="#BitstreamVeraSans-Roman-30"/>
       <use x="190.869140625" xlink:href="#BitstreamVeraSans-Roman-30"/>
      </g>
     </g>
    </g>
    <g id="ytick_5">
     <g id="line2d_20">
      <g>
       <use style="stroke:#000000;stroke-width:0.5;" x="54.0" xlink:href="#m728421d6d4" y="103.2"/>
      </g>
     </g>
     <g id="line2d_21">
      <g>
       <use style="stroke:#000000;stroke-width:0.5;" x="388.8" xlink:href="#mcb0005524f" y="103.2"/>
      </g>
     </g>
     <g id="text_10">
      <!-- 2000 -->
      <g transform="translate(25.946875 105.959375)scale(0.1 -0.1)">
       <use xlink:href="#BitstreamVeraSans-Roman-32"/>
       <use x="63.623046875" xlink:href="#BitstreamVeraSans-Roman-30"/>
       <use x="127.24609375" xlink:href="#BitstreamVeraSans-Roman-30"/>
       <use x="190.869140625" xlink:href="#BitstreamVeraSans-Roman-30"/>
      </g>
     </g>
    </g>
    <g id="ytick_6">
     <g id="line2d_22">
      <g>
       <use style="stroke:#000000;stroke-width:0.5;" x="54.0" xlink:href="#m728421d6d4" y="66.0"/>
      </g>
     </g>
     <g id="line2d_23">
      <g>
       <use style="stroke:#000000;stroke-width:0.5;" x="388.8" xlink:href="#mcb0005524f" y="66.0"/>
      </g>
     </g>
     <g id="text_11">
      <!-- 2500 -->
      <g transform="translate(25.946875 68.759375)scale(0.1 -0.1)">
       <use xlink:href="#BitstreamVeraSans-Roman-32"/>
       <use x="63.623046875" xlink:href="#BitstreamVeraSans-Roman-35"/>
       <use x="127.24609375" xlink:href="#BitstreamVeraSans-Roman-30"/>
       <use x="190.869140625" xlink:href="#BitstreamVeraSans-Roman-30"/>
      </g>
     </g>
    </g>
    <g id="ytick_7">
     <g id="line2d_24">
      <g>
       <use style="stroke:#000000;stroke-width:0.5;" x="54.0" xlink:href="#m728421d6d4" y="28.8"/>
      </g>
     </g>
     <g id="line2d_25">
      <g>
       <use style="stroke:#000000;stroke-width:0.5;" x="388.8" xlink:href="#mcb0005524f" y="28.8"/>
      </g>
     </g>
     <g id="text_12">
      <!-- 3000 -->
      <g transform="translate(25.9765625 31.559375)scale(0.1 -0.1)">
       <use xlink:href="#BitstreamVeraSans-Roman-33"/>
       <use x="63.623046875" xlink:href="#BitstreamVeraSans-Roman-30"/>
       <use x="127.24609375" xlink:href="#BitstreamVeraSans-Roman-30"/>
       <use x="190.869140625" xlink:href="#BitstreamVeraSans-Roman-30"/>
      </g>
     </g>
    </g>
    <g id="text_13">
     <!-- New OpenLibrary books -->
     <defs>
      <path d="
M39.4062 66.2188
Q28.6562 66.2188 22.3281 58.2031
Q16.0156 50.2031 16.0156 36.375
Q16.0156 22.6094 22.3281 14.5938
Q28.6562 6.59375 39.4062 6.59375
Q50.1406 6.59375 56.4219 14.5938
Q62.7031 22.6094 62.7031 36.375
Q62.7031 50.2031 56.4219 58.2031
Q50.1406 66.2188 39.4062 66.2188
M39.4062 74.2188
Q54.7344 74.2188 63.9062 63.9375
Q73.0938 53.6562 73.0938 36.375
Q73.0938 19.1406 63.9062 8.85938
Q54.7344 -1.42188 39.4062 -1.42188
Q24.0312 -1.42188 14.8125 8.82812
Q5.60938 19.0938 5.60938 36.375
Q5.60938 53.6562 14.8125 63.9375
Q24.0312 74.2188 39.4062 74.2188" id="BitstreamVeraSans-Roman-4f"/>
      <path d="
M9.8125 72.9062
L23.0938 72.9062
L55.4219 11.9219
L55.4219 72.9062
L64.9844 72.9062
L64.9844 0
L51.7031 0
L19.3906 60.9844
L19.3906 0
L9.8125 0
z
" id="BitstreamVeraSans-Roman-4e"/>
      <path d="
M9.8125 72.9062
L19.6719 72.9062
L19.6719 8.29688
L55.1719 8.29688
L55.1719 0
L9.8125 0
z
" id="BitstreamVeraSans-Roman-4c"/>
      <path id="BitstreamVeraSans-Roman-20"/>
      <path d="
M54.8906 33.0156
L54.8906 0
L45.9062 0
L45.9062 32.7188
Q45.9062 40.4844 42.875 44.3281
Q39.8438 48.1875 33.7969 48.1875
Q26.5156 48.1875 22.3125 43.5469
Q18.1094 38.9219 18.1094 30.9062
L18.1094 0
L9.07812 0
L9.07812 54.6875
L18.1094 54.6875
L18.1094 46.1875
Q21.3438 51.125 25.7031 53.5625
Q30.0781 56 35.7969 56
Q45.2188 56 50.0469 50.1719
Q54.8906 44.3438 54.8906 33.0156" id="BitstreamVeraSans-Roman-6e"/>
      <path d="
M34.2812 27.4844
Q23.3906 27.4844 19.1875 25
Q14.9844 22.5156 14.9844 16.5
Q14.9844 11.7188 18.1406 8.90625
Q21.2969 6.10938 26.7031 6.10938
Q34.1875 6.10938 38.7031 11.4062
Q43.2188 16.7031 43.2188 25.4844
L43.2188 27.4844
z

M52.2031 31.2031
L52.2031 0
L43.2188 0
L43.2188 8.29688
Q40.1406 3.32812 35.5469 0.953125
Q30.9531 -1.42188 24.3125 -1.42188
Q15.9219 -1.42188 10.9531 3.29688
Q6 8.01562 6 15.9219
Q6 25.1406 12.1719 29.8281
Q18.3594 34.5156 30.6094 34.5156
L43.2188 34.5156
L43.2188 35.4062
Q43.2188 41.6094 39.1406 45
Q35.0625 48.3906 27.6875 48.3906
Q23 48.3906 18.5469 47.2656
Q14.1094 46.1406 10.0156 43.8906
L10.0156 52.2031
Q14.9375 54.1094 19.5781 55.0469
Q24.2188 56 28.6094 56
Q40.4844 56 46.3438 49.8438
Q52.2031 43.7031 52.2031 31.2031" id="BitstreamVeraSans-Roman-61"/>
      <path d="
M30.6094 48.3906
Q23.3906 48.3906 19.1875 42.75
Q14.9844 37.1094 14.9844 27.2969
Q14.9844 17.4844 19.1562 11.8438
Q23.3438 6.20312 30.6094 6.20312
Q37.7969 6.20312 41.9844 11.8594
Q46.1875 17.5312 46.1875 27.2969
Q46.1875 37.0156 41.9844 42.7031
Q37.7969 48.3906 30.6094 48.3906
M30.6094 56
Q42.3281 56 49.0156 48.375
Q55.7188 40.7656 55.7188 27.2969
Q55.7188 13.875 49.0156 6.21875
Q42.3281 -1.42188 30.6094 -1.42188
Q18.8438 -1.42188 12.1719 6.21875
Q5.51562 13.875 5.51562 27.2969
Q5.51562 40.7656 12.1719 48.375
Q18.8438 56 30.6094 56" id="BitstreamVeraSans-Roman-6f"/>
      <path d="
M9.07812 75.9844
L18.1094 75.9844
L18.1094 31.1094
L44.9219 54.6875
L56.3906 54.6875
L27.3906 29.1094
L57.625 0
L45.9062 0
L18.1094 26.7031
L18.1094 0
L9.07812 0
z
" id="BitstreamVeraSans-Roman-6b"/>
      <path d="
M9.42188 54.6875
L18.4062 54.6875
L18.4062 0
L9.42188 0
z

M9.42188 75.9844
L18.4062 75.9844
L18.4062 64.5938
L9.42188 64.5938
z
" id="BitstreamVeraSans-Roman-69"/>
      <path d="
M32.1719 -5.07812
Q28.375 -14.8438 24.75 -17.8125
Q21.1406 -20.7969 15.0938 -20.7969
L7.90625 -20.7969
L7.90625 -13.2812
L13.1875 -13.2812
Q16.8906 -13.2812 18.9375 -11.5156
Q21 -9.76562 23.4844 -3.21875
L25.0938 0.875
L2.98438 54.6875
L12.5 54.6875
L29.5938 11.9219
L46.6875 54.6875
L56.2031 54.6875
z
" id="BitstreamVeraSans-Roman-79"/>
      <path d="
M56.2031 29.5938
L56.2031 25.2031
L14.8906 25.2031
Q15.4844 15.9219 20.4844 11.0625
Q25.4844 6.20312 34.4219 6.20312
Q39.5938 6.20312 44.4531 7.46875
Q49.3125 8.73438 54.1094 11.2812
L54.1094 2.78125
Q49.2656 0.734375 44.1875 -0.34375
Q39.1094 -1.42188 33.8906 -1.42188
Q20.7969 -1.42188 13.1562 6.1875
Q5.51562 13.8125 5.51562 26.8125
Q5.51562 40.2344 12.7656 48.1094
Q20.0156 56 32.3281 56
Q43.3594 56 49.7812 48.8906
Q56.2031 41.7969 56.2031 29.5938
M47.2188 32.2344
Q47.125 39.5938 43.0938 43.9844
Q39.0625 48.3906 32.4219 48.3906
Q24.9062 48.3906 20.3906 44.1406
Q15.875 39.8906 15.1875 32.1719
z
" id="BitstreamVeraSans-Roman-65"/>
      <path d="
M4.20312 54.6875
L13.1875 54.6875
L24.4219 12.0156
L35.5938 54.6875
L46.1875 54.6875
L57.4219 12.0156
L68.6094 54.6875
L77.5938 54.6875
L63.2812 0
L52.6875 0
L40.9219 44.8281
L29.1094 0
L18.5 0
z
" id="BitstreamVeraSans-Roman-77"/>
      <path d="
M41.1094 46.2969
Q39.5938 47.1719 37.8125 47.5781
Q36.0312 48 33.8906 48
Q26.2656 48 22.1875 43.0469
Q18.1094 38.0938 18.1094 28.8125
L18.1094 0
L9.07812 0
L9.07812 54.6875
L18.1094 54.6875
L18.1094 46.1875
Q20.9531 51.1719 25.4844 53.5781
Q30.0312 56 36.5312 56
Q37.4531 56 38.5781 55.875
Q39.7031 55.7656 41.0625 55.5156
z
" id="BitstreamVeraSans-Roman-72"/>
      <path d="
M44.2812 53.0781
L44.2812 44.5781
Q40.4844 46.5312 36.375 47.5
Q32.2812 48.4844 27.875 48.4844
Q21.1875 48.4844 17.8438 46.4375
Q14.5 44.3906 14.5 40.2812
Q14.5 37.1562 16.8906 35.375
Q19.2812 33.5938 26.5156 31.9844
L29.5938 31.2969
Q39.1562 29.25 43.1875 25.5156
Q47.2188 21.7812 47.2188 15.0938
Q47.2188 7.46875 41.1875 3.01562
Q35.1562 -1.42188 24.6094 -1.42188
Q20.2188 -1.42188 15.4531 -0.5625
Q10.6875 0.296875 5.42188 2
L5.42188 11.2812
Q10.4062 8.6875 15.2344 7.39062
Q20.0625 6.10938 24.8125 6.10938
Q31.1562 6.10938 34.5625 8.28125
Q37.9844 10.4531 37.9844 14.4062
Q37.9844 18.0625 35.5156 20.0156
Q33.0625 21.9688 24.7031 23.7812
L21.5781 24.5156
Q13.2344 26.2656 9.51562 29.9062
Q5.8125 33.5469 5.8125 39.8906
Q5.8125 47.6094 11.2812 51.7969
Q16.75 56 26.8125 56
Q31.7812 56 36.1719 55.2656
Q40.5781 54.5469 44.2812 53.0781" id="BitstreamVeraSans-Roman-73"/>
      <path d="
M18.1094 8.20312
L18.1094 -20.7969
L9.07812 -20.7969
L9.07812 54.6875
L18.1094 54.6875
L18.1094 46.3906
Q20.9531 51.2656 25.2656 53.625
Q29.5938 56 35.5938 56
Q45.5625 56 51.7812 48.0938
Q58.0156 40.1875 58.0156 27.2969
Q58.0156 14.4062 51.7812 6.48438
Q45.5625 -1.42188 35.5938 -1.42188
Q29.5938 -1.42188 25.2656 0.953125
Q20.9531 3.32812 18.1094 8.20312
M48.6875 27.2969
Q48.6875 37.2031 44.6094 42.8438
Q40.5312 48.4844 33.4062 48.4844
Q26.2656 48.4844 22.1875 42.8438
Q18.1094 37.2031 18.1094 27.2969
Q18.1094 17.3906 22.1875 11.75
Q26.2656 6.10938 33.4062 6.10938
Q40.5312 6.10938 44.6094 11.75
Q48.6875 17.3906 48.6875 27.2969" id="BitstreamVeraSans-Roman-70"/>
      <path d="
M48.6875 27.2969
Q48.6875 37.2031 44.6094 42.8438
Q40.5312 48.4844 33.4062 48.4844
Q26.2656 48.4844 22.1875 42.8438
Q18.1094 37.2031 18.1094 27.2969
Q18.1094 17.3906 22.1875 11.75
Q26.2656 6.10938 33.4062 6.10938
Q40.5312 6.10938 44.6094 11.75
Q48.6875 17.3906 48.6875 27.2969
M18.1094 46.3906
Q20.9531 51.2656 25.2656 53.625
Q29.5938 56 35.5938 56
Q45.5625 56 51.7812 48.0938
Q58.0156 40.1875 58.0156 27.2969
Q58.0156 14.4062 51.7812 6.48438
Q45.5625 -1.42188 35.5938 -1.42188
Q29.5938 -1.42188 25.2656 0.953125
Q20.9531 3.32812 18.1094 8.20312
L18.1094 0
L9.07812 0
L9.07812 75.9844
L18.1094 75.9844
z
" id="BitstreamVeraSans-Roman-62"/>
     </defs>
     <g transform="translate(18.8671875 199.87265625)rotate(-90.0)scale(0.1 -0.1)">
      <use xlink:href="#BitstreamVeraSans-Roman-4e"/>
      <use x="74.8046875" xlink:href="#BitstreamVeraSans-Roman-65"/>
      <use x="136.328125" xlink:href="#BitstreamVeraSans-Roman-77"/>
      <use x="218.115234375" xlink:href="#BitstreamVeraSans-Roman-20"/>
      <use x="249.90234375" xlink:href="#BitstreamVeraSans-Roman-4f"/>
      <use x="328.61328125" xlink:href="#BitstreamVeraSans-Roman-70"/>
      <use x="392.08984375" xlink:href="#BitstreamVeraSans-Roman-65"/>
      <use x="453.61328125" xlink:href="#BitstreamVeraSans-Roman-6e"/>
      <use x="516.9921875" xlink:href="#BitstreamVeraSans-Roman-4c"/>
      <use x="572.705078125" xlink:href="#BitstreamVeraSans-Roman-69"/>
      <use x="600.48828125" xlink:href="#BitstreamVeraSans-Roman-62"/>
      <use x="663.96484375" xlink:href="#BitstreamVeraSans-Roman-72"/>
      <use x="705.078125" xlink:href="#BitstreamVeraSans-Roman-61"/>
      <use x="766.357421875" xlink:href="#BitstreamVeraSans-Roman-72"/>
      <use x="807.470703125" xlink:href="#BitstreamVeraSans-Roman-79"/>
      <use x="866.650390625" xlink:href="#BitstreamVeraSans-Roman-20"/>
      <use x="898.4375" xlink:href="#BitstreamVeraSans-Roman-62"/>
      <use x="961.9140625" xlink:href="#BitstreamVeraSans-Roman-6f"/>
      <use x="1023.09570312" xlink:href="#BitstreamVeraSans-Roman-6f"/>
      <use x="1084.27734375" xlink:href="#BitstreamVeraSans-Roman-6b"/>
      <use x="1142.1875" xlink:href="#BitstreamVeraSans-Roman-73"/>
     </g>
    </g>
   </g>
  </g>
 </g>
 <defs>
  <clipPath id="p124b8dd147">
   <rect height="223.2" width="334.8" x="54.0" y="28.8"/>
  </clipPath>
 </defs>
</svg>
