<?xml version="1.0" encoding="utf-8" standalone="no"?>
<!DOCTYPE svg PUBLIC "-//W3C//DTD SVG 1.1//EN"
  "http://www.w3.org/Graphics/SVG/1.1/DTD/svg11.dtd">
<!-- Created with matplotlib (https://matplotlib.org/) -->
<svg height="345.6pt" version="1.1" viewBox="0 0 460.8 345.6" width="460.8pt" xmlns="http://www.w3.org/2000/svg" xmlns:xlink="http://www.w3.org/1999/xlink">
 <defs>
  <style type="text/css">
*{stroke-linecap:butt;stroke-linejoin:round;}
  </style>
 </defs>
 <g id="figure_1">
  <g id="patch_1">
   <path d="M 0 345.6 
L 460.8 345.6 
L 460.8 0 
L 0 0 
z
" style="fill:#ffffff;"/>
  </g>
  <g id="axes_1">
   <g id="patch_2">
    <path d="M 57.6 307.584 
L 414.72 307.584 
L 414.72 41.472 
L 57.6 41.472 
z
" style="fill:#ffffff;"/>
   </g>
   <g id="matplotlib.axis_1">
    <g id="xtick_1">
     <g id="line2d_1">
      <defs>
       <path d="M 0 0 
L 0 3.5 
" id="m718e0b6250" style="stroke:#000000;stroke-width:0.8;"/>
      </defs>
      <g>
       <use style="stroke:#000000;stroke-width:0.8;" x="67.154851" xlink:href="#m718e0b6250" y="307.584"/>
      </g>
     </g>
     <g id="text_1">
      <!-- 2009 -->
      <defs>
       <path d="M 19.1875 8.296875 
L 53.609375 8.296875 
L 53.609375 0 
L 7.328125 0 
L 7.328125 8.296875 
Q 12.9375 14.109375 22.625 23.890625 
Q 32.328125 33.6875 34.8125 36.53125 
Q 39.546875 41.84375 41.421875 45.53125 
Q 43.3125 49.21875 43.3125 52.78125 
Q 43.3125 58.59375 39.234375 62.25 
Q 35.15625 65.921875 28.609375 65.921875 
Q 23.96875 65.921875 18.8125 64.3125 
Q 13.671875 62.703125 7.8125 59.421875 
L 7.8125 69.390625 
Q 13.765625 71.78125 18.9375 73 
Q 24.125 74.21875 28.421875 74.21875 
Q 39.75 74.21875 46.484375 68.546875 
Q 53.21875 62.890625 53.21875 53.421875 
Q 53.21875 48.921875 51.53125 44.890625 
Q 49.859375 40.875 45.40625 35.40625 
Q 44.1875 33.984375 37.640625 27.21875 
Q 31.109375 20.453125 19.1875 8.296875 
z
" id="DejaVuSans-50"/>
       <path d="M 31.78125 66.40625 
Q 24.171875 66.40625 20.328125 58.90625 
Q 16.5 51.421875 16.5 36.375 
Q 16.5 21.390625 20.328125 13.890625 
Q 24.171875 6.390625 31.78125 6.390625 
Q 39.453125 6.390625 43.28125 13.890625 
Q 47.125 21.390625 47.125 36.375 
Q 47.125 51.421875 43.28125 58.90625 
Q 39.453125 66.40625 31.78125 66.40625 
z
M 31.78125 74.21875 
Q 44.046875 74.21875 50.515625 64.515625 
Q 56.984375 54.828125 56.984375 36.375 
Q 56.984375 17.96875 50.515625 8.265625 
Q 44.046875 -1.421875 31.78125 -1.421875 
Q 19.53125 -1.421875 13.0625 8.265625 
Q 6.59375 17.96875 6.59375 36.375 
Q 6.59375 54.828125 13.0625 64.515625 
Q 19.53125 74.21875 31.78125 74.21875 
z
" id="DejaVuSans-48"/>
       <path d="M 10.984375 1.515625 
L 10.984375 10.5 
Q 14.703125 8.734375 18.5 7.8125 
Q 22.3125 6.890625 25.984375 6.890625 
Q 35.75 6.890625 40.890625 13.453125 
Q 46.046875 20.015625 46.78125 33.40625 
Q 43.953125 29.203125 39.59375 26.953125 
Q 35.25 24.703125 29.984375 24.703125 
Q 19.046875 24.703125 12.671875 31.3125 
Q 6.296875 37.9375 6.296875 49.421875 
Q 6.296875 60.640625 12.9375 67.421875 
Q 19.578125 74.21875 30.609375 74.21875 
Q 43.265625 74.21875 49.921875 64.515625 
Q 56.59375 54.828125 56.59375 36.375 
Q 56.59375 19.140625 48.40625 8.859375 
Q 40.234375 -1.421875 26.421875 -1.421875 
Q 22.703125 -1.421875 18.890625 -0.6875 
Q 15.09375 0.046875 10.984375 1.515625 
z
M 30.609375 32.421875 
Q 37.25 32.421875 41.125 36.953125 
Q 45.015625 41.5 45.015625 49.421875 
Q 45.015625 57.28125 41.125 61.84375 
Q 37.25 66.40625 30.609375 66.40625 
Q 23.96875 66.40625 20.09375 61.84375 
Q 16.21875 57.28125 16.21875 49.421875 
Q 16.21875 41.5 20.09375 36.953125 
Q 23.96875 32.421875 30.609375 32.421875 
z
" id="DejaVuSans-57"/>
      </defs>
      <g transform="translate(54.429851 322.182437)scale(0.1 -0.1)">
       <use xlink:href="#DejaVuSans-50"/>
       <use x="63.623047" xlink:href="#DejaVuSans-48"/>
       <use x="127.246094" xlink:href="#DejaVuSans-48"/>
       <use x="190.869141" xlink:href="#DejaVuSans-57"/>
      </g>
     </g>
    </g>
    <g id="xtick_2">
     <g id="line2d_2">
      <g>
       <use style="stroke:#000000;stroke-width:0.8;" x="100.544231" xlink:href="#m718e0b6250" y="307.584"/>
      </g>
     </g>
     <g id="text_2">
      <!-- 2010 -->
      <defs>
       <path d="M 12.40625 8.296875 
L 28.515625 8.296875 
L 28.515625 63.921875 
L 10.984375 60.40625 
L 10.984375 69.390625 
L 28.421875 72.90625 
L 38.28125 72.90625 
L 38.28125 8.296875 
L 54.390625 8.296875 
L 54.390625 0 
L 12.40625 0 
z
" id="DejaVuSans-49"/>
      </defs>
      <g transform="translate(87.819231 322.182437)scale(0.1 -0.1)">
       <use xlink:href="#DejaVuSans-50"/>
       <use x="63.623047" xlink:href="#DejaVuSans-48"/>
       <use x="127.246094" xlink:href="#DejaVuSans-49"/>
       <use x="190.869141" xlink:href="#DejaVuSans-48"/>
      </g>
     </g>
    </g>
    <g id="xtick_3">
     <g id="line2d_3">
      <g>
       <use style="stroke:#000000;stroke-width:0.8;" x="133.933611" xlink:href="#m718e0b6250" y="307.584"/>
      </g>
     </g>
     <g id="text_3">
      <!-- 2011 -->
      <g transform="translate(121.208611 322.182437)scale(0.1 -0.1)">
       <use xlink:href="#DejaVuSans-50"/>
       <use x="63.623047" xlink:href="#DejaVuSans-48"/>
       <use x="127.246094" xlink:href="#DejaVuSans-49"/>
       <use x="190.869141" xlink:href="#DejaVuSans-49"/>
      </g>
     </g>
    </g>
    <g id="xtick_4">
     <g id="line2d_4">
      <g>
       <use style="stroke:#000000;stroke-width:0.8;" x="167.322991" xlink:href="#m718e0b6250" y="307.584"/>
      </g>
     </g>
     <g id="text_4">
      <!-- 2012 -->
      <g transform="translate(154.597991 322.182437)scale(0.1 -0.1)">
       <use xlink:href="#DejaVuSans-50"/>
       <use x="63.623047" xlink:href="#DejaVuSans-48"/>
       <use x="127.246094" xlink:href="#DejaVuSans-49"/>
       <use x="190.869141" xlink:href="#DejaVuSans-50"/>
      </g>
     </g>
    </g>
    <g id="xtick_5">
     <g id="line2d_5">
      <g>
       <use style="stroke:#000000;stroke-width:0.8;" x="200.803848" xlink:href="#m718e0b6250" y="307.584"/>
      </g>
     </g>
     <g id="text_5">
      <!-- 2013 -->
      <defs>
       <path d="M 40.578125 39.3125 
Q 47.65625 37.796875 51.625 33 
Q 55.609375 28.21875 55.609375 21.1875 
Q 55.609375 10.40625 48.1875 4.484375 
Q 40.765625 -1.421875 27.09375 -1.421875 
Q 22.515625 -1.421875 17.65625 -0.515625 
Q 12.796875 0.390625 7.625 2.203125 
L 7.625 11.71875 
Q 11.71875 9.328125 16.59375 8.109375 
Q 21.484375 6.890625 26.8125 6.890625 
Q 36.078125 6.890625 40.9375 10.546875 
Q 45.796875 14.203125 45.796875 21.1875 
Q 45.796875 27.640625 41.28125 31.265625 
Q 36.765625 34.90625 28.71875 34.90625 
L 20.21875 34.90625 
L 20.21875 43.015625 
L 29.109375 43.015625 
Q 36.375 43.015625 40.234375 45.921875 
Q 44.09375 48.828125 44.09375 54.296875 
Q 44.09375 59.90625 40.109375 62.90625 
Q 36.140625 65.921875 28.71875 65.921875 
Q 24.65625 65.921875 20.015625 65.03125 
Q 15.375 64.15625 9.8125 62.3125 
L 9.8125 71.09375 
Q 15.4375 72.65625 20.34375 73.4375 
Q 25.25 74.21875 29.59375 74.21875 
Q 40.828125 74.21875 47.359375 69.109375 
Q 53.90625 64.015625 53.90625 55.328125 
Q 53.90625 49.265625 50.4375 45.09375 
Q 46.96875 40.921875 40.578125 39.3125 
z
" id="DejaVuSans-51"/>
      </defs>
      <g transform="translate(188.078848 322.182437)scale(0.1 -0.1)">
       <use xlink:href="#DejaVuSans-50"/>
       <use x="63.623047" xlink:href="#DejaVuSans-48"/>
       <use x="127.246094" xlink:href="#DejaVuSans-49"/>
       <use x="190.869141" xlink:href="#DejaVuSans-51"/>
      </g>
     </g>
    </g>
    <g id="xtick_6">
     <g id="line2d_6">
      <g>
       <use style="stroke:#000000;stroke-width:0.8;" x="234.193228" xlink:href="#m718e0b6250" y="307.584"/>
      </g>
     </g>
     <g id="text_6">
      <!-- 2014 -->
      <defs>
       <path d="M 37.796875 64.3125 
L 12.890625 25.390625 
L 37.796875 25.390625 
z
M 35.203125 72.90625 
L 47.609375 72.90625 
L 47.609375 25.390625 
L 58.015625 25.390625 
L 58.015625 17.1875 
L 47.609375 17.1875 
L 47.609375 0 
L 37.796875 0 
L 37.796875 17.1875 
L 4.890625 17.1875 
L 4.890625 26.703125 
z
" id="DejaVuSans-52"/>
      </defs>
      <g transform="translate(221.468228 322.182437)scale(0.1 -0.1)">
       <use xlink:href="#DejaVuSans-50"/>
       <use x="63.623047" xlink:href="#DejaVuSans-48"/>
       <use x="127.246094" xlink:href="#DejaVuSans-49"/>
       <use x="190.869141" xlink:href="#DejaVuSans-52"/>
      </g>
     </g>
    </g>
    <g id="xtick_7">
     <g id="line2d_7">
      <g>
       <use style="stroke:#000000;stroke-width:0.8;" x="267.582608" xlink:href="#m718e0b6250" y="307.584"/>
      </g>
     </g>
     <g id="text_7">
      <!-- 2015 -->
      <defs>
       <path d="M 10.796875 72.90625 
L 49.515625 72.90625 
L 49.515625 64.59375 
L 19.828125 64.59375 
L 19.828125 46.734375 
Q 21.96875 47.46875 24.109375 47.828125 
Q 26.265625 48.1875 28.421875 48.1875 
Q 40.625 48.1875 47.75 41.5 
Q 54.890625 34.8125 54.890625 23.390625 
Q 54.890625 11.625 47.5625 5.09375 
Q 40.234375 -1.421875 26.90625 -1.421875 
Q 22.3125 -1.421875 17.546875 -0.640625 
Q 12.796875 0.140625 7.71875 1.703125 
L 7.71875 11.625 
Q 12.109375 9.234375 16.796875 8.0625 
Q 21.484375 6.890625 26.703125 6.890625 
Q 35.15625 6.890625 40.078125 11.328125 
Q 45.015625 15.765625 45.015625 23.390625 
Q 45.015625 31 40.078125 35.4375 
Q 35.15625 39.890625 26.703125 39.890625 
Q 22.75 39.890625 18.8125 39.015625 
Q 14.890625 38.140625 10.796875 36.28125 
z
" id="DejaVuSans-53"/>
      </defs>
      <g transform="translate(254.857608 322.182437)scale(0.1 -0.1)">
       <use xlink:href="#DejaVuSans-50"/>
       <use x="63.623047" xlink:href="#DejaVuSans-48"/>
       <use x="127.246094" xlink:href="#DejaVuSans-49"/>
       <use x="190.869141" xlink:href="#DejaVuSans-53"/>
      </g>
     </g>
    </g>
    <g id="xtick_8">
     <g id="line2d_8">
      <g>
       <use style="stroke:#000000;stroke-width:0.8;" x="300.971988" xlink:href="#m718e0b6250" y="307.584"/>
      </g>
     </g>
     <g id="text_8">
      <!-- 2016 -->
      <defs>
       <path d="M 33.015625 40.375 
Q 26.375 40.375 22.484375 35.828125 
Q 18.609375 31.296875 18.609375 23.390625 
Q 18.609375 15.53125 22.484375 10.953125 
Q 26.375 6.390625 33.015625 6.390625 
Q 39.65625 6.390625 43.53125 10.953125 
Q 47.40625 15.53125 47.40625 23.390625 
Q 47.40625 31.296875 43.53125 35.828125 
Q 39.65625 40.375 33.015625 40.375 
z
M 52.59375 71.296875 
L 52.59375 62.3125 
Q 48.875 64.0625 45.09375 64.984375 
Q 41.3125 65.921875 37.59375 65.921875 
Q 27.828125 65.921875 22.671875 59.328125 
Q 17.53125 52.734375 16.796875 39.40625 
Q 19.671875 43.65625 24.015625 45.921875 
Q 28.375 48.1875 33.59375 48.1875 
Q 44.578125 48.1875 50.953125 41.515625 
Q 57.328125 34.859375 57.328125 23.390625 
Q 57.328125 12.15625 50.6875 5.359375 
Q 44.046875 -1.421875 33.015625 -1.421875 
Q 20.359375 -1.421875 13.671875 8.265625 
Q 6.984375 17.96875 6.984375 36.375 
Q 6.984375 53.65625 15.1875 63.9375 
Q 23.390625 74.21875 37.203125 74.21875 
Q 40.921875 74.21875 44.703125 73.484375 
Q 48.484375 72.75 52.59375 71.296875 
z
" id="DejaVuSans-54"/>
      </defs>
      <g transform="translate(288.246988 322.182437)scale(0.1 -0.1)">
       <use xlink:href="#DejaVuSans-50"/>
       <use x="63.623047" xlink:href="#DejaVuSans-48"/>
       <use x="127.246094" xlink:href="#DejaVuSans-49"/>
       <use x="190.869141" xlink:href="#DejaVuSans-54"/>
      </g>
     </g>
    </g>
    <g id="xtick_9">
     <g id="line2d_9">
      <g>
       <use style="stroke:#000000;stroke-width:0.8;" x="334.452846" xlink:href="#m718e0b6250" y="307.584"/>
      </g>
     </g>
     <g id="text_9">
      <!-- 2017 -->
      <defs>
       <path d="M 8.203125 72.90625 
L 55.078125 72.90625 
L 55.078125 68.703125 
L 28.609375 0 
L 18.3125 0 
L 43.21875 64.59375 
L 8.203125 64.59375 
z
" id="DejaVuSans-55"/>
      </defs>
      <g transform="translate(321.727846 322.182437)scale(0.1 -0.1)">
       <use xlink:href="#DejaVuSans-50"/>
       <use x="63.623047" xlink:href="#DejaVuSans-48"/>
       <use x="127.246094" xlink:href="#DejaVuSans-49"/>
       <use x="190.869141" xlink:href="#DejaVuSans-55"/>
      </g>
     </g>
    </g>
    <g id="xtick_10">
     <g id="line2d_10">
      <g>
       <use style="stroke:#000000;stroke-width:0.8;" x="367.842225" xlink:href="#m718e0b6250" y="307.584"/>
      </g>
     </g>
     <g id="text_10">
      <!-- 2018 -->
      <defs>
       <path d="M 31.78125 34.625 
Q 24.75 34.625 20.71875 30.859375 
Q 16.703125 27.09375 16.703125 20.515625 
Q 16.703125 13.921875 20.71875 10.15625 
Q 24.75 6.390625 31.78125 6.390625 
Q 38.8125 6.390625 42.859375 10.171875 
Q 46.921875 13.96875 46.921875 20.515625 
Q 46.921875 27.09375 42.890625 30.859375 
Q 38.875 34.625 31.78125 34.625 
z
M 21.921875 38.8125 
Q 15.578125 40.375 12.03125 44.71875 
Q 8.5 49.078125 8.5 55.328125 
Q 8.5 64.0625 14.71875 69.140625 
Q 20.953125 74.21875 31.78125 74.21875 
Q 42.671875 74.21875 48.875 69.140625 
Q 55.078125 64.0625 55.078125 55.328125 
Q 55.078125 49.078125 51.53125 44.71875 
Q 48 40.375 41.703125 38.8125 
Q 48.828125 37.15625 52.796875 32.3125 
Q 56.78125 27.484375 56.78125 20.515625 
Q 56.78125 9.90625 50.3125 4.234375 
Q 43.84375 -1.421875 31.78125 -1.421875 
Q 19.734375 -1.421875 13.25 4.234375 
Q 6.78125 9.90625 6.78125 20.515625 
Q 6.78125 27.484375 10.78125 32.3125 
Q 14.796875 37.15625 21.921875 38.8125 
z
M 18.3125 54.390625 
Q 18.3125 48.734375 21.84375 45.5625 
Q 25.390625 42.390625 31.78125 42.390625 
Q 38.140625 42.390625 41.71875 45.5625 
Q 45.3125 48.734375 45.3125 54.390625 
Q 45.3125 60.0625 41.71875 63.234375 
Q 38.140625 66.40625 31.78125 66.40625 
Q 25.390625 66.40625 21.84375 63.234375 
Q 18.3125 60.0625 18.3125 54.390625 
z
" id="DejaVuSans-56"/>
      </defs>
      <g transform="translate(355.117225 322.182437)scale(0.1 -0.1)">
       <use xlink:href="#DejaVuSans-50"/>
       <use x="63.623047" xlink:href="#DejaVuSans-48"/>
       <use x="127.246094" xlink:href="#DejaVuSans-49"/>
       <use x="190.869141" xlink:href="#DejaVuSans-56"/>
      </g>
     </g>
    </g>
    <g id="xtick_11">
     <g id="line2d_11">
      <g>
       <use style="stroke:#000000;stroke-width:0.8;" x="401.231605" xlink:href="#m718e0b6250" y="307.584"/>
      </g>
     </g>
     <g id="text_11">
      <!-- 2019 -->
      <g transform="translate(388.506605 322.182437)scale(0.1 -0.1)">
       <use xlink:href="#DejaVuSans-50"/>
       <use x="63.623047" xlink:href="#DejaVuSans-48"/>
       <use x="127.246094" xlink:href="#DejaVuSans-49"/>
       <use x="190.869141" xlink:href="#DejaVuSans-57"/>
      </g>
     </g>
    </g>
   </g>
   <g id="matplotlib.axis_2">
    <g id="ytick_1">
     <g id="line2d_12">
      <defs>
       <path d="M 0 0 
L -3.5 0 
" id="m2e81f53cd9" style="stroke:#000000;stroke-width:0.8;"/>
      </defs>
      <g>
       <use style="stroke:#000000;stroke-width:0.8;" x="57.6" xlink:href="#m2e81f53cd9" y="295.488"/>
      </g>
     </g>
     <g id="text_12">
      <!-- 0 -->
      <g transform="translate(44.2375 299.287219)scale(0.1 -0.1)">
       <use xlink:href="#DejaVuSans-48"/>
      </g>
     </g>
    </g>
    <g id="ytick_2">
     <g id="line2d_13">
      <g>
       <use style="stroke:#000000;stroke-width:0.8;" x="57.6" xlink:href="#m2e81f53cd9" y="250.688"/>
      </g>
     </g>
     <g id="text_13">
      <!-- 500 -->
      <g transform="translate(31.5125 254.487219)scale(0.1 -0.1)">
       <use xlink:href="#DejaVuSans-53"/>
       <use x="63.623047" xlink:href="#DejaVuSans-48"/>
       <use x="127.246094" xlink:href="#DejaVuSans-48"/>
      </g>
     </g>
    </g>
    <g id="ytick_3">
     <g id="line2d_14">
      <g>
       <use style="stroke:#000000;stroke-width:0.8;" x="57.6" xlink:href="#m2e81f53cd9" y="205.888"/>
      </g>
     </g>
     <g id="text_14">
      <!-- 1000 -->
      <g transform="translate(25.15 209.687219)scale(0.1 -0.1)">
       <use xlink:href="#DejaVuSans-49"/>
       <use x="63.623047" xlink:href="#DejaVuSans-48"/>
       <use x="127.246094" xlink:href="#DejaVuSans-48"/>
       <use x="190.869141" xlink:href="#DejaVuSans-48"/>
      </g>
     </g>
    </g>
    <g id="ytick_4">
     <g id="line2d_15">
      <g>
       <use style="stroke:#000000;stroke-width:0.8;" x="57.6" xlink:href="#m2e81f53cd9" y="161.088"/>
      </g>
     </g>
     <g id="text_15">
      <!-- 1500 -->
      <g transform="translate(25.15 164.887219)scale(0.1 -0.1)">
       <use xlink:href="#DejaVuSans-49"/>
       <use x="63.623047" xlink:href="#DejaVuSans-53"/>
       <use x="127.246094" xlink:href="#DejaVuSans-48"/>
       <use x="190.869141" xlink:href="#DejaVuSans-48"/>
      </g>
     </g>
    </g>
    <g id="ytick_5">
     <g id="line2d_16">
      <g>
       <use style="stroke:#000000;stroke-width:0.8;" x="57.6" xlink:href="#m2e81f53cd9" y="116.288"/>
      </g>
     </g>
     <g id="text_16">
      <!-- 2000 -->
      <g transform="translate(25.15 120.087219)scale(0.1 -0.1)">
       <use xlink:href="#DejaVuSans-50"/>
       <use x="63.623047" xlink:href="#DejaVuSans-48"/>
       <use x="127.246094" xlink:href="#DejaVuSans-48"/>
       <use x="190.869141" xlink:href="#DejaVuSans-48"/>
      </g>
     </g>
    </g>
    <g id="ytick_6">
     <g id="line2d_17">
      <g>
       <use style="stroke:#000000;stroke-width:0.8;" x="57.6" xlink:href="#m2e81f53cd9" y="71.488"/>
      </g>
     </g>
     <g id="text_17">
      <!-- 2500 -->
      <g transform="translate(25.15 75.287219)scale(0.1 -0.1)">
       <use xlink:href="#DejaVuSans-50"/>
       <use x="63.623047" xlink:href="#DejaVuSans-53"/>
       <use x="127.246094" xlink:href="#DejaVuSans-48"/>
       <use x="190.869141" xlink:href="#DejaVuSans-48"/>
      </g>
     </g>
    </g>
    <g id="text_18">
     <!-- New OpenLibrary accounts / day -->
     <defs>
      <path d="M 9.8125 72.90625 
L 23.09375 72.90625 
L 55.421875 11.921875 
L 55.421875 72.90625 
L 64.984375 72.90625 
L 64.984375 0 
L 51.703125 0 
L 19.390625 60.984375 
L 19.390625 0 
L 9.8125 0 
z
" id="DejaVuSans-78"/>
      <path d="M 56.203125 29.59375 
L 56.203125 25.203125 
L 14.890625 25.203125 
Q 15.484375 15.921875 20.484375 11.0625 
Q 25.484375 6.203125 34.421875 6.203125 
Q 39.59375 6.203125 44.453125 7.46875 
Q 49.3125 8.734375 54.109375 11.28125 
L 54.109375 2.78125 
Q 49.265625 0.734375 44.1875 -0.34375 
Q 39.109375 -1.421875 33.890625 -1.421875 
Q 20.796875 -1.421875 13.15625 6.1875 
Q 5.515625 13.8125 5.515625 26.8125 
Q 5.515625 40.234375 12.765625 48.109375 
Q 20.015625 56 32.328125 56 
Q 43.359375 56 49.78125 48.890625 
Q 56.203125 41.796875 56.203125 29.59375 
z
M 47.21875 32.234375 
Q 47.125 39.59375 43.09375 43.984375 
Q 39.0625 48.390625 32.421875 48.390625 
Q 24.90625 48.390625 20.390625 44.140625 
Q 15.875 39.890625 15.1875 32.171875 
z
" id="DejaVuSans-101"/>
      <path d="M 4.203125 54.6875 
L 13.1875 54.6875 
L 24.421875 12.015625 
L 35.59375 54.6875 
L 46.1875 54.6875 
L 57.421875 12.015625 
L 68.609375 54.6875 
L 77.59375 54.6875 
L 63.28125 0 
L 52.6875 0 
L 40.921875 44.828125 
L 29.109375 0 
L 18.5 0 
z
" id="DejaVuSans-119"/>
      <path id="DejaVuSans-32"/>
      <path d="M 39.40625 66.21875 
Q 28.65625 66.21875 22.328125 58.203125 
Q 16.015625 50.203125 16.015625 36.375 
Q 16.015625 22.609375 22.328125 14.59375 
Q 28.65625 6.59375 39.40625 6.59375 
Q 50.140625 6.59375 56.421875 14.59375 
Q 62.703125 22.609375 62.703125 36.375 
Q 62.703125 50.203125 56.421875 58.203125 
Q 50.140625 66.21875 39.40625 66.21875 
z
M 39.40625 74.21875 
Q 54.734375 74.21875 63.90625 63.9375 
Q 73.09375 53.65625 73.09375 36.375 
Q 73.09375 19.140625 63.90625 8.859375 
Q 54.734375 -1.421875 39.40625 -1.421875 
Q 24.03125 -1.421875 14.8125 8.828125 
Q 5.609375 19.09375 5.609375 36.375 
Q 5.609375 53.65625 14.8125 63.9375 
Q 24.03125 74.21875 39.40625 74.21875 
z
" id="DejaVuSans-79"/>
      <path d="M 18.109375 8.203125 
L 18.109375 -20.796875 
L 9.078125 -20.796875 
L 9.078125 54.6875 
L 18.109375 54.6875 
L 18.109375 46.390625 
Q 20.953125 51.265625 25.265625 53.625 
Q 29.59375 56 35.59375 56 
Q 45.5625 56 51.78125 48.09375 
Q 58.015625 40.1875 58.015625 27.296875 
Q 58.015625 14.40625 51.78125 6.484375 
Q 45.5625 -1.421875 35.59375 -1.421875 
Q 29.59375 -1.421875 25.265625 0.953125 
Q 20.953125 3.328125 18.109375 8.203125 
z
M 48.6875 27.296875 
Q 48.6875 37.203125 44.609375 42.84375 
Q 40.53125 48.484375 33.40625 48.484375 
Q 26.265625 48.484375 22.1875 42.84375 
Q 18.109375 37.203125 18.109375 27.296875 
Q 18.109375 17.390625 22.1875 11.75 
Q 26.265625 6.109375 33.40625 6.109375 
Q 40.53125 6.109375 44.609375 11.75 
Q 48.6875 17.390625 48.6875 27.296875 
z
" id="DejaVuSans-112"/>
      <path d="M 54.890625 33.015625 
L 54.890625 0 
L 45.90625 0 
L 45.90625 32.71875 
Q 45.90625 40.484375 42.875 44.328125 
Q 39.84375 48.1875 33.796875 48.1875 
Q 26.515625 48.1875 22.3125 43.546875 
Q 18.109375 38.921875 18.109375 30.90625 
L 18.109375 0 
L 9.078125 0 
L 9.078125 54.6875 
L 18.109375 54.6875 
L 18.109375 46.1875 
Q 21.34375 51.125 25.703125 53.5625 
Q 30.078125 56 35.796875 56 
Q 45.21875 56 50.046875 50.171875 
Q 54.890625 44.34375 54.890625 33.015625 
z
" id="DejaVuSans-110"/>
      <path d="M 9.8125 72.90625 
L 19.671875 72.90625 
L 19.671875 8.296875 
L 55.171875 8.296875 
L 55.171875 0 
L 9.8125 0 
z
" id="DejaVuSans-76"/>
      <path d="M 9.421875 54.6875 
L 18.40625 54.6875 
L 18.40625 0 
L 9.421875 0 
z
M 9.421875 75.984375 
L 18.40625 75.984375 
L 18.40625 64.59375 
L 9.421875 64.59375 
z
" id="DejaVuSans-105"/>
      <path d="M 48.6875 27.296875 
Q 48.6875 37.203125 44.609375 42.84375 
Q 40.53125 48.484375 33.40625 48.484375 
Q 26.265625 48.484375 22.1875 42.84375 
Q 18.109375 37.203125 18.109375 27.296875 
Q 18.109375 17.390625 22.1875 11.75 
Q 26.265625 6.109375 33.40625 6.109375 
Q 40.53125 6.109375 44.609375 11.75 
Q 48.6875 17.390625 48.6875 27.296875 
z
M 18.109375 46.390625 
Q 20.953125 51.265625 25.265625 53.625 
Q 29.59375 56 35.59375 56 
Q 45.5625 56 51.78125 48.09375 
Q 58.015625 40.1875 58.015625 27.296875 
Q 58.015625 14.40625 51.78125 6.484375 
Q 45.5625 -1.421875 35.59375 -1.421875 
Q 29.59375 -1.421875 25.265625 0.953125 
Q 20.953125 3.328125 18.109375 8.203125 
L 18.109375 0 
L 9.078125 0 
L 9.078125 75.984375 
L 18.109375 75.984375 
z
" id="DejaVuSans-98"/>
      <path d="M 41.109375 46.296875 
Q 39.59375 47.171875 37.8125 47.578125 
Q 36.03125 48 33.890625 48 
Q 26.265625 48 22.1875 43.046875 
Q 18.109375 38.09375 18.109375 28.8125 
L 18.109375 0 
L 9.078125 0 
L 9.078125 54.6875 
L 18.109375 54.6875 
L 18.109375 46.1875 
Q 20.953125 51.171875 25.484375 53.578125 
Q 30.03125 56 36.53125 56 
Q 37.453125 56 38.578125 55.875 
Q 39.703125 55.765625 41.0625 55.515625 
z
" id="DejaVuSans-114"/>
      <path d="M 34.28125 27.484375 
Q 23.390625 27.484375 19.1875 25 
Q 14.984375 22.515625 14.984375 16.5 
Q 14.984375 11.71875 18.140625 8.90625 
Q 21.296875 6.109375 26.703125 6.109375 
Q 34.1875 6.109375 38.703125 11.40625 
Q 43.21875 16.703125 43.21875 25.484375 
L 43.21875 27.484375 
z
M 52.203125 31.203125 
L 52.203125 0 
L 43.21875 0 
L 43.21875 8.296875 
Q 40.140625 3.328125 35.546875 0.953125 
Q 30.953125 -1.421875 24.3125 -1.421875 
Q 15.921875 -1.421875 10.953125 3.296875 
Q 6 8.015625 6 15.921875 
Q 6 25.140625 12.171875 29.828125 
Q 18.359375 34.515625 30.609375 34.515625 
L 43.21875 34.515625 
L 43.21875 35.40625 
Q 43.21875 41.609375 39.140625 45 
Q 35.0625 48.390625 27.6875 48.390625 
Q 23 48.390625 18.546875 47.265625 
Q 14.109375 46.140625 10.015625 43.890625 
L 10.015625 52.203125 
Q 14.9375 54.109375 19.578125 55.046875 
Q 24.21875 56 28.609375 56 
Q 40.484375 56 46.34375 49.84375 
Q 52.203125 43.703125 52.203125 31.203125 
z
" id="DejaVuSans-97"/>
      <path d="M 32.171875 -5.078125 
Q 28.375 -14.84375 24.75 -17.8125 
Q 21.140625 -20.796875 15.09375 -20.796875 
L 7.90625 -20.796875 
L 7.90625 -13.28125 
L 13.1875 -13.28125 
Q 16.890625 -13.28125 18.9375 -11.515625 
Q 21 -9.765625 23.484375 -3.21875 
L 25.09375 0.875 
L 2.984375 54.6875 
L 12.5 54.6875 
L 29.59375 11.921875 
L 46.6875 54.6875 
L 56.203125 54.6875 
z
" id="DejaVuSans-121"/>
      <path d="M 48.78125 52.59375 
L 48.78125 44.1875 
Q 44.96875 46.296875 41.140625 47.34375 
Q 37.3125 48.390625 33.40625 48.390625 
Q 24.65625 48.390625 19.8125 42.84375 
Q 14.984375 37.3125 14.984375 27.296875 
Q 14.984375 17.28125 19.8125 11.734375 
Q 24.65625 6.203125 33.40625 6.203125 
Q 37.3125 6.203125 41.140625 7.25 
Q 44.96875 8.296875 48.78125 10.40625 
L 48.78125 2.09375 
Q 45.015625 0.34375 40.984375 -0.53125 
Q 36.96875 -1.421875 32.421875 -1.421875 
Q 20.0625 -1.421875 12.78125 6.34375 
Q 5.515625 14.109375 5.515625 27.296875 
Q 5.515625 40.671875 12.859375 48.328125 
Q 20.21875 56 33.015625 56 
Q 37.15625 56 41.109375 55.140625 
Q 45.0625 54.296875 48.78125 52.59375 
z
" id="DejaVuSans-99"/>
      <path d="M 30.609375 48.390625 
Q 23.390625 48.390625 19.1875 42.75 
Q 14.984375 37.109375 14.984375 27.296875 
Q 14.984375 17.484375 19.15625 11.84375 
Q 23.34375 6.203125 30.609375 6.203125 
Q 37.796875 6.203125 41.984375 11.859375 
Q 46.1875 17.53125 46.1875 27.296875 
Q 46.1875 37.015625 41.984375 42.703125 
Q 37.796875 48.390625 30.609375 48.390625 
z
M 30.609375 56 
Q 42.328125 56 49.015625 48.375 
Q 55.71875 40.765625 55.71875 27.296875 
Q 55.71875 13.875 49.015625 6.21875 
Q 42.328125 -1.421875 30.609375 -1.421875 
Q 18.84375 -1.421875 12.171875 6.21875 
Q 5.515625 13.875 5.515625 27.296875 
Q 5.515625 40.765625 12.171875 48.375 
Q 18.84375 56 30.609375 56 
z
" id="DejaVuSans-111"/>
      <path d="M 8.5 21.578125 
L 8.5 54.6875 
L 17.484375 54.6875 
L 17.484375 21.921875 
Q 17.484375 14.15625 20.5 10.265625 
Q 23.53125 6.390625 29.59375 6.390625 
Q 36.859375 6.390625 41.078125 11.03125 
Q 45.3125 15.671875 45.3125 23.6875 
L 45.3125 54.6875 
L 54.296875 54.6875 
L 54.296875 0 
L 45.3125 0 
L 45.3125 8.40625 
Q 42.046875 3.421875 37.71875 1 
Q 33.40625 -1.421875 27.6875 -1.421875 
Q 18.265625 -1.421875 13.375 4.4375 
Q 8.5 10.296875 8.5 21.578125 
z
M 31.109375 56 
z
" id="DejaVuSans-117"/>
      <path d="M 18.3125 70.21875 
L 18.3125 54.6875 
L 36.8125 54.6875 
L 36.8125 47.703125 
L 18.3125 47.703125 
L 18.3125 18.015625 
Q 18.3125 11.328125 20.140625 9.421875 
Q 21.96875 7.515625 27.59375 7.515625 
L 36.8125 7.515625 
L 36.8125 0 
L 27.59375 0 
Q 17.1875 0 13.234375 3.875 
Q 9.28125 7.765625 9.28125 18.015625 
L 9.28125 47.703125 
L 2.6875 47.703125 
L 2.6875 54.6875 
L 9.28125 54.6875 
L 9.28125 70.21875 
z
" id="DejaVuSans-116"/>
      <path d="M 44.28125 53.078125 
L 44.28125 44.578125 
Q 40.484375 46.53125 36.375 47.5 
Q 32.28125 48.484375 27.875 48.484375 
Q 21.1875 48.484375 17.84375 46.4375 
Q 14.5 44.390625 14.5 40.28125 
Q 14.5 37.15625 16.890625 35.375 
Q 19.28125 33.59375 26.515625 31.984375 
L 29.59375 31.296875 
Q 39.15625 29.25 43.1875 25.515625 
Q 47.21875 21.78125 47.21875 15.09375 
Q 47.21875 7.46875 41.1875 3.015625 
Q 35.15625 -1.421875 24.609375 -1.421875 
Q 20.21875 -1.421875 15.453125 -0.5625 
Q 10.6875 0.296875 5.421875 2 
L 5.421875 11.28125 
Q 10.40625 8.6875 15.234375 7.390625 
Q 20.0625 6.109375 24.8125 6.109375 
Q 31.15625 6.109375 34.5625 8.28125 
Q 37.984375 10.453125 37.984375 14.40625 
Q 37.984375 18.0625 35.515625 20.015625 
Q 33.0625 21.96875 24.703125 23.78125 
L 21.578125 24.515625 
Q 13.234375 26.265625 9.515625 29.90625 
Q 5.8125 33.546875 5.8125 39.890625 
Q 5.8125 47.609375 11.28125 51.796875 
Q 16.75 56 26.8125 56 
Q 31.78125 56 36.171875 55.265625 
Q 40.578125 54.546875 44.28125 53.078125 
z
" id="DejaVuSans-115"/>
      <path d="M 25.390625 72.90625 
L 33.6875 72.90625 
L 8.296875 -9.28125 
L 0 -9.28125 
z
" id="DejaVuSans-47"/>
      <path d="M 45.40625 46.390625 
L 45.40625 75.984375 
L 54.390625 75.984375 
L 54.390625 0 
L 45.40625 0 
L 45.40625 8.203125 
Q 42.578125 3.328125 38.25 0.953125 
Q 33.9375 -1.421875 27.875 -1.421875 
Q 17.96875 -1.421875 11.734375 6.484375 
Q 5.515625 14.40625 5.515625 27.296875 
Q 5.515625 40.1875 11.734375 48.09375 
Q 17.96875 56 27.875 56 
Q 33.9375 56 38.25 53.625 
Q 42.578125 51.265625 45.40625 46.390625 
z
M 14.796875 27.296875 
Q 14.796875 17.390625 18.875 11.75 
Q 22.953125 6.109375 30.078125 6.109375 
Q 37.203125 6.109375 41.296875 11.75 
Q 45.40625 17.390625 45.40625 27.296875 
Q 45.40625 37.203125 41.296875 42.84375 
Q 37.203125 48.484375 30.078125 48.484375 
Q 22.953125 48.484375 18.875 42.84375 
Q 14.796875 37.203125 14.796875 27.296875 
z
" id="DejaVuSans-100"/>
     </defs>
     <g transform="translate(19.070312 256.035813)rotate(-90)scale(0.1 -0.1)">
      <use xlink:href="#DejaVuSans-78"/>
      <use x="74.804688" xlink:href="#DejaVuSans-101"/>
      <use x="136.328125" xlink:href="#DejaVuSans-119"/>
      <use x="218.115234" xlink:href="#DejaVuSans-32"/>
      <use x="249.902344" xlink:href="#DejaVuSans-79"/>
      <use x="328.613281" xlink:href="#DejaVuSans-112"/>
      <use x="392.089844" xlink:href="#DejaVuSans-101"/>
      <use x="453.613281" xlink:href="#DejaVuSans-110"/>
      <use x="516.992188" xlink:href="#DejaVuSans-76"/>
      <use x="572.705078" xlink:href="#DejaVuSans-105"/>
      <use x="600.488281" xlink:href="#DejaVuSans-98"/>
      <use x="663.964844" xlink:href="#DejaVuSans-114"/>
      <use x="705.078125" xlink:href="#DejaVuSans-97"/>
      <use x="766.357422" xlink:href="#DejaVuSans-114"/>
      <use x="807.470703" xlink:href="#DejaVuSans-121"/>
      <use x="866.650391" xlink:href="#DejaVuSans-32"/>
      <use x="898.4375" xlink:href="#DejaVuSans-97"/>
      <use x="959.716797" xlink:href="#DejaVuSans-99"/>
      <use x="1014.697266" xlink:href="#DejaVuSans-99"/>
      <use x="1069.677734" xlink:href="#DejaVuSans-111"/>
      <use x="1130.859375" xlink:href="#DejaVuSans-117"/>
      <use x="1194.238281" xlink:href="#DejaVuSans-110"/>
      <use x="1257.617188" xlink:href="#DejaVuSans-116"/>
      <use x="1296.826172" xlink:href="#DejaVuSans-115"/>
      <use x="1348.925781" xlink:href="#DejaVuSans-32"/>
      <use x="1380.712891" xlink:href="#DejaVuSans-47"/>
      <use x="1414.404297" xlink:href="#DejaVuSans-32"/>
      <use x="1446.191406" xlink:href="#DejaVuSans-100"/>
      <use x="1509.667969" xlink:href="#DejaVuSans-97"/>
      <use x="1570.947266" xlink:href="#DejaVuSans-121"/>
     </g>
    </g>
   </g>
   <g id="line2d_18">
    <path clip-path="url(#p0405a73b88)" d="M 73.832727 295.488 
L 74.015683 284.5568 
L 74.107161 285.2736 
L 74.198638 287.2448 
L 74.290116 273.7152 
L 74.381594 289.216 
L 74.473072 287.7824 
L 74.564549 285.8112 
L 74.656027 286.3488 
L 74.747505 284.9152 
L 74.838983 287.424 
L 74.93046 295.488 
L 75.113416 288.5888 
L 75.204894 288.2304 
L 75.479327 286.08 
L 75.75376 288.8576 
L 75.845238 286.2592 
L 76.028193 295.488 
L 76.211149 258.2144 
L 76.394104 288.2304 
L 76.668538 276.9408 
L 76.760015 278.2848 
L 76.942971 289.3056 
L 77.125926 285.8112 
L 77.217404 275.8656 
L 77.308882 277.4784 
L 77.583315 285.2736 
L 77.674793 286.3488 
L 77.766271 286.08 
L 77.857748 284.1088 
L 77.949226 284.6464 
L 78.223659 287.6032 
L 78.498093 283.6608 
L 78.58957 285.7216 
L 78.681048 280.9728 
L 78.772526 287.5136 
L 78.864004 280.1664 
L 78.955481 286.6176 
L 79.138437 284.5568 
L 79.229915 284.0192 
L 79.41287 286.6176 
L 79.504348 287.6928 
L 79.595826 287.424 
L 79.778781 284.6464 
L 79.961737 286.6176 
L 80.144692 287.872 
L 80.23617 287.1552 
L 80.419125 284.8256 
L 80.510603 284.8256 
L 80.602081 285.0048 
L 80.785037 288.4096 
L 81.05947 284.6464 
L 81.150948 287.2448 
L 81.242425 284.9152 
L 81.425381 287.7824 
L 81.699814 284.9152 
L 82.065725 287.7824 
L 82.157203 287.872 
L 82.340158 282.6752 
L 82.706069 290.2016 
L 82.889025 286.528 
L 82.980503 286.528 
L 83.07198 286.7968 
L 83.163458 285.632 
L 83.254936 288.2304 
L 83.346414 287.7824 
L 83.437891 289.8432 
L 83.620847 286.528 
L 83.712325 289.3056 
L 83.803802 284.3776 
L 83.986758 287.3344 
L 84.078236 288.768 
L 84.169713 285.9904 
L 84.261191 288.4992 
L 84.444147 284.9152 
L 84.627102 290.4704 
L 84.810058 285.184 
L 84.901535 285.9904 
L 84.993013 281.2416 
L 85.175969 289.3952 
L 85.267446 288.6784 
L 85.358924 288.8576 
L 85.450402 287.2448 
L 85.54188 282.7648 
L 85.633357 286.6176 
L 85.724835 284.9152 
L 85.907791 288.768 
L 86.090746 285.4528 
L 86.182224 286.2592 
L 86.273702 286.08 
L 86.639613 289.3056 
L 86.73109 284.5568 
L 86.914046 287.9616 
L 87.005524 286.7968 
L 87.097001 286.976 
L 87.188479 289.0368 
L 87.279957 287.872 
L 87.371435 283.7504 
L 87.462912 284.5568 
L 87.55439 286.6176 
L 87.645868 284.736 
L 87.828823 289.4848 
L 87.920301 288.0512 
L 88.103257 282.7648 
L 88.194734 284.736 
L 88.286212 281.9584 
L 88.37769 283.4816 
L 88.469168 287.5136 
L 88.743601 281.7792 
L 88.835079 282.6752 
L 88.926557 284.4672 
L 89.018034 283.392 
L 89.20099 286.8864 
L 89.383945 282.6752 
L 89.475423 282.3168 
L 89.566901 284.288 
L 89.658379 283.9296 
L 89.749856 285.5424 
L 89.841334 284.6464 
L 90.02429 280.1664 
L 90.115767 279.9872 
L 90.481678 285.3632 
L 90.664634 279.1808 
L 90.847589 281.5104 
L 90.939067 281.6896 
L 91.030545 285.2736 
L 91.396456 280.5248 
L 91.670889 284.288 
L 91.945322 279.5392 
L 92.0368 279.8976 
L 92.128278 277.9264 
L 92.311233 284.8256 
L 92.494189 278.016 
L 92.585667 278.5536 
L 92.677144 277.2096 
L 92.768622 281.6 
L 92.8601 281.4208 
L 92.951578 283.3024 
L 93.043055 283.2128 
L 93.134533 278.5536 
L 93.317489 280.0768 
L 93.408966 281.2416 
L 93.500444 280.6144 
L 93.591922 284.8256 
L 93.774877 277.7472 
L 93.866355 278.5536 
L 93.957833 276.4032 
L 94.049311 280.704 
L 94.140788 280.0768 
L 94.232266 283.2128 
L 94.323744 283.1232 
L 94.415222 277.2992 
L 94.506699 279.1808 
L 94.598177 275.1488 
L 94.87261 283.392 
L 95.055566 276.9408 
L 95.147044 277.3888 
L 95.238521 279.8976 
L 95.329999 278.912 
L 95.421477 284.0192 
L 95.604432 281.5104 
L 95.69591 276.3136 
L 95.787388 277.0304 
L 95.878866 276.672 
L 95.970344 277.8368 
L 96.153299 284.4672 
L 96.336255 278.6432 
L 96.427732 278.7328 
L 96.885121 282.6752 
L 96.976599 278.5536 
L 97.068077 279.1808 
L 97.433988 283.392 
L 97.525465 282.1376 
L 97.616943 279.1808 
L 97.708421 279.5392 
L 97.799899 279.6288 
L 97.891376 281.152 
L 97.982854 280.6144 
L 98.16581 284.736 
L 98.348765 278.1056 
L 98.440243 281.2416 
L 98.531721 280.9728 
L 98.623198 281.6896 
L 98.714676 284.5568 
L 98.897632 279.1808 
L 98.989109 281.8688 
L 99.080587 281.2416 
L 99.172065 281.5104 
L 99.35502 285.9008 
L 99.537976 284.9152 
L 99.629454 281.4208 
L 99.903887 288.2304 
L 100.086842 283.9296 
L 100.269798 279.6288 
L 100.544231 285.9904 
L 100.635709 280.8832 
L 100.727187 282.3168 
L 100.818664 278.1952 
L 100.910142 278.464 
L 101.093098 280.704 
L 101.184575 279.0016 
L 101.276053 283.2128 
L 101.459009 276.672 
L 101.550486 278.2848 
L 101.733442 277.12 
L 101.82492 278.016 
L 101.916397 283.0336 
L 102.190831 277.6576 
L 102.282308 278.5536 
L 102.373786 277.2992 
L 102.465264 277.4784 
L 102.556742 281.3312 
L 102.648219 280.704 
L 102.922653 275.4176 
L 103.01413 276.4928 
L 103.197086 282.7648 
L 103.288564 281.7792 
L 103.471519 276.1344 
L 103.562997 276.4032 
L 103.654475 276.4032 
L 103.83743 281.5104 
L 103.928908 281.3312 
L 104.294819 274.0736 
L 104.477775 283.3024 
L 104.569252 282.2272 
L 104.843686 275.9552 
L 105.118119 281.8688 
L 105.301074 276.672 
L 105.392552 276.1344 
L 105.758463 284.3776 
L 106.032896 273.8048 
L 106.124374 275.1488 
L 106.215852 273.536 
L 106.398807 280.256 
L 106.490285 277.6576 
L 106.581763 278.3744 
L 106.673241 276.7616 
L 106.764718 277.2096 
L 106.856196 279.7184 
L 106.947674 276.3136 
L 107.039152 282.944 
L 107.130629 281.2416 
L 107.222107 276.224 
L 107.313585 279.0912 
L 107.49654 276.0448 
L 107.679496 282.944 
L 107.953929 278.016 
L 108.136885 278.7328 
L 108.228362 283.2128 
L 108.31984 282.4064 
L 108.411318 282.4064 
L 108.502796 278.912 
L 108.777229 281.3312 
L 108.868707 282.048 
L 109.051662 284.4672 
L 109.14314 279.5392 
L 109.234618 280.0768 
L 109.326095 277.6576 
L 109.509051 281.9584 
L 109.600529 280.7936 
L 109.783484 279.5392 
L 109.874962 280.1664 
L 109.96644 278.3744 
L 110.149395 284.3776 
L 110.240873 282.2272 
L 110.332351 282.5856 
L 110.423828 280.6144 
L 110.515306 282.496 
L 110.606784 280.256 
L 110.698262 280.3456 
L 110.789739 282.6752 
L 110.881217 281.7792 
L 110.972695 283.392 
L 111.155651 279.8976 
L 111.247128 281.0624 
L 111.338606 285.184 
L 111.430084 283.9296 
L 111.521562 285.184 
L 111.613039 292.8 
L 111.704517 284.288 
L 111.795995 284.6464 
L 112.070428 277.6576 
L 112.253384 282.5856 
L 112.344861 276.4928 
L 112.436339 279.36 
L 112.619295 277.568 
L 112.893728 285.8112 
L 113.076683 277.9264 
L 113.442594 285.0048 
L 113.534072 284.8256 
L 113.62555 281.7792 
L 113.717028 282.4064 
L 113.899983 283.5712 
L 113.991461 282.6752 
L 114.174416 285.5424 
L 114.357372 284.8256 
L 114.44885 281.4208 
L 114.723283 287.424 
L 114.997716 281.152 
L 115.089194 284.1984 
L 115.180672 282.496 
L 115.363627 287.6928 
L 115.455105 286.08 
L 115.546583 281.6 
L 115.63806 282.6752 
L 115.729538 281.5104 
L 115.821016 282.1376 
L 115.912494 284.3776 
L 116.003971 283.392 
L 116.186927 279.808 
L 116.278405 279.5392 
L 116.369882 280.7936 
L 116.46136 284.1984 
L 116.552838 280.9728 
L 116.644316 284.4672 
L 116.735793 283.9296 
L 116.918749 278.6432 
L 117.010227 272.3712 
L 117.28466 284.9152 
L 117.376138 284.9152 
L 117.559093 280.256 
L 117.650571 279.1808 
L 118.016482 280.7936 
L 118.290915 272.0128 
L 118.565348 281.0624 
L 118.839782 275.1488 
L 118.93126 276.8512 
L 119.022737 276.4032 
L 119.297171 279.808 
L 119.388648 277.2992 
L 119.480126 279.8976 
L 119.663082 273.8048 
L 119.754559 280.5248 
L 119.846037 278.5536 
L 119.937515 269.6832 
L 120.028993 276.1344 
L 120.211948 271.6544 
L 120.303426 257.5872 
L 120.486381 278.7328 
L 120.577859 278.8224 
L 120.760815 268.2496 
L 121.035248 279.9872 
L 121.126726 277.0304 
L 121.218203 279.2704 
L 121.584114 266.0096 
L 121.76707 271.6544 
L 121.858548 271.0272 
L 122.041503 264.128 
L 122.132981 262.6048 
L 122.315936 271.0272 
L 122.498892 269.1456 
L 122.59037 263.7696 
L 122.681847 273.088 
L 122.773325 264.7552 
L 122.864803 266.0096 
L 123.047758 274.5216 
L 123.230714 265.1136 
L 123.413669 263.5904 
L 123.505147 264.6656 
L 123.688103 273.3568 
L 123.962536 263.68 
L 124.054014 266.9056 
L 124.236969 278.912 
L 124.328447 275.9552 
L 124.419925 278.7328 
L 124.511402 272.5504 
L 124.60288 273.088 
L 124.694358 271.744 
L 124.968791 278.5536 
L 125.151747 273.2672 
L 125.243224 274.9696 
L 125.334702 274.88 
L 125.609135 280.256 
L 125.792091 273.3568 
L 125.883569 275.2384 
L 125.975046 273.6256 
L 126.066524 274.88 
L 126.24948 279.36 
L 126.340958 278.464 
L 126.523913 273.7152 
L 126.615391 276.672 
L 126.706869 274.88 
L 126.889824 279.5392 
L 126.981302 277.0304 
L 127.07278 279.5392 
L 127.255735 274.432 
L 127.347213 272.5504 
L 127.530168 275.2384 
L 127.621646 273.088 
L 127.713124 273.3568 
L 127.896079 271.6544 
L 128.079035 278.1952 
L 128.170513 276.8512 
L 128.444946 273.6256 
L 128.536424 272.3712 
L 128.627901 273.2672 
L 128.810857 276.3136 
L 128.993812 273.3568 
L 129.08529 275.2384 
L 129.176768 273.536 
L 129.268246 274.3424 
L 129.359723 274.2528 
L 129.542679 271.6544 
L 129.634157 271.296 
L 129.817112 272.1024 
L 129.90859 271.6544 
L 130.000068 276.4928 
L 130.365979 269.8624 
L 130.640412 274.0736 
L 130.73189 275.4176 
L 130.823367 269.3248 
L 130.914845 270.848 
L 131.006323 269.8624 
L 131.280756 272.7296 
L 131.372234 272.9984 
L 131.463712 268.608 
L 131.555189 269.5936 
L 131.646667 269.3248 
L 131.738145 270.9376 
L 131.9211 267.264 
L 132.012578 271.5648 
L 132.104056 271.4752 
L 132.287011 268.8768 
L 132.378489 270.1312 
L 132.469967 269.2352 
L 132.561445 261.9776 
L 132.652922 263.9488 
L 132.835878 255.2576 
L 133.018833 261.44 
L 133.201789 263.4112 
L 133.384744 196.7488 
L 133.842133 249.4336 
L 133.933611 253.1968 
L 134.116567 245.312 
L 134.208044 246.4768 
L 134.299522 245.9392 
L 134.482478 253.4656 
L 134.665433 245.4016 
L 134.756911 246.8352 
L 134.939866 245.0432 
L 135.2143 253.7344 
L 135.580211 245.4016 
L 135.763166 252.5696 
L 135.854644 254.0032 
L 135.946122 262.6944 
L 136.220555 250.7776 
L 136.312033 251.6736 
L 136.494988 256.512 
L 136.769421 250.0608 
L 136.860899 252.3008 
L 136.952377 251.8528 
L 137.043855 250.1504 
L 137.135332 256.7808 
L 137.22681 256.1536 
L 137.409766 251.136 
L 137.501243 253.9136 
L 137.592721 248.5376 
L 137.775677 255.8848 
L 137.867154 253.9136 
L 137.958632 244.6848 
L 138.05011 246.208 
L 138.141588 248.8064 
L 138.233065 248.1792 
L 138.324543 230.2592 
L 138.416021 254.6304 
L 138.507499 248.8064 
L 138.598976 220.672 
L 138.690454 245.4912 
L 138.87341 60.5568 
L 139.056365 228.0192 
L 139.147843 228.736 
L 139.239321 228.288 
L 139.513754 245.312 
L 139.605232 237.1584 
L 139.696709 247.104 
L 139.788187 245.76 
L 139.879665 236.8 
L 139.971143 249.5232 
L 140.06262 231.5136 
L 140.154098 247.1936 
L 140.245576 245.6704 
L 140.337054 251.136 
L 140.428531 250.3296 
L 140.702965 239.936 
L 140.794442 239.8464 
L 140.977398 266.0992 
L 141.068876 246.208 
L 141.160353 247.104 
L 141.343309 238.3232 
L 141.434787 250.5088 
L 141.526265 248.1792 
L 141.617742 253.376 
L 141.800698 245.4912 
L 141.892176 252.48 
L 141.983653 249.6128 
L 142.075131 250.7776 
L 142.258087 259.5584 
L 142.349564 253.376 
L 142.441042 255.8848 
L 142.53252 245.76 
L 142.715475 250.3296 
L 142.806953 252.6592 
L 142.898431 259.0208 
L 142.989909 258.304 
L 143.081386 250.24 
L 143.35582 259.3792 
L 143.447297 255.3472 
L 143.630253 260.096 
L 143.721731 256.6016 
L 143.813208 256.8704 
L 143.904686 255.3472 
L 144.087642 262.9632 
L 144.179119 262.6048 
L 144.270597 275.1488 
L 144.453553 252.5696 
L 144.54503 253.9136 
L 144.636508 257.5872 
L 144.727986 266.0096 
L 144.819464 264.2176 
L 144.910941 259.1104 
L 145.002419 259.648 
L 145.093897 256.4224 
L 145.185375 258.8416 
L 145.276852 256.6016 
L 145.36833 262.784 
L 145.459808 261.44 
L 145.551286 256.8704 
L 145.642763 241.8176 
L 145.734241 245.0432 
L 146.100152 258.9312 
L 146.19163 257.9456 
L 146.374585 265.5616 
L 146.466063 255.616 
L 146.649019 264.128 
L 146.831974 244.864 
L 146.923452 260.4544 
L 147.01493 256.96 
L 147.197885 258.4832 
L 147.289363 257.856 
L 147.380841 263.8592 
L 147.472318 263.68 
L 147.563796 254.0928 
L 147.655274 256.064 
L 148.021185 264.3072 
L 148.295618 254.3616 
L 148.387096 257.408 
L 148.478574 276.3136 
L 148.661529 263.232 
L 148.753007 263.232 
L 148.935962 295.488 
L 149.02744 260.544 
L 149.118918 264.8448 
L 149.210396 259.3792 
L 149.301874 269.8624 
L 149.484829 260.3648 
L 149.759262 264.3968 
L 149.85074 258.3936 
L 149.942218 270.6688 
L 150.125173 264.128 
L 150.216651 263.5904 
L 150.308129 267.264 
L 150.399607 263.3216 
L 150.491084 265.5616 
L 150.582562 264.576 
L 150.67404 266.4576 
L 150.948473 260.544 
L 151.222906 270.7584 
L 151.49734 263.5008 
L 151.588817 269.7728 
L 151.680295 266.5472 
L 151.771773 271.1168 
L 152.046206 266.9056 
L 152.137684 260.8128 
L 152.595073 272.0128 
L 152.68655 266.2784 
L 152.960984 269.5936 
L 153.052461 268.5184 
L 153.143939 270.3104 
L 153.235417 269.5936 
L 153.326895 248 
L 153.418372 251.3152 
L 153.601328 264.3072 
L 153.692806 267.6224 
L 153.784283 266.5472 
L 153.967239 267.8912 
L 154.058717 264.8448 
L 154.150194 240.5632 
L 154.33315 265.3824 
L 154.516105 266.9056 
L 154.699061 262.336 
L 155.064972 272.5504 
L 155.15645 270.3104 
L 155.430883 259.4688 
L 155.522361 258.6624 
L 155.705316 265.5616 
L 155.796794 263.68 
L 155.888272 264.128 
L 156.162705 260.7232 
L 156.254183 260.9024 
L 156.34566 267.0848 
L 156.437138 265.92 
L 156.528616 263.3216 
L 156.620094 263.68 
L 156.803049 261.2608 
L 156.894527 263.0528 
L 156.986005 267.3536 
L 157.077483 263.4112 
L 157.16896 265.1136 
L 157.260438 264.576 
L 157.351916 265.1136 
L 157.534871 269.4144 
L 157.626349 264.7552 
L 157.717827 264.8448 
L 157.809305 262.6944 
L 157.900782 266.2784 
L 157.99226 264.0384 
L 158.175216 265.472 
L 158.266693 264.4864 
L 158.449649 265.92 
L 158.541127 266.6368 
L 158.632604 260.6336 
L 158.724082 261.7088 
L 158.998515 269.056 
L 159.181471 260.992 
L 159.364426 266.0992 
L 159.455904 277.12 
L 159.63886 264.3968 
L 159.730337 261.7984 
L 159.821815 264.128 
L 160.004771 272.192 
L 160.096248 270.4896 
L 160.187726 270.7584 
L 160.279204 270.1312 
L 160.462159 267.264 
L 160.645115 266.4576 
L 160.82807 273.6256 
L 160.919548 271.5648 
L 161.102504 265.2032 
L 161.193981 265.92 
L 161.285459 263.5008 
L 161.468415 271.1168 
L 161.559892 270.0416 
L 161.65137 266.5472 
L 161.834326 269.4144 
L 161.925803 268.8768 
L 162.017281 267.264 
L 162.108759 269.056 
L 162.47467 264.3072 
L 162.566148 266.368 
L 162.657625 272.3712 
L 162.749103 270.6688 
L 162.932059 261.888 
L 163.023536 264.8448 
L 163.115014 263.1424 
L 163.206492 267.5328 
L 163.29797 263.0528 
L 163.480925 267.6224 
L 163.572403 260.8128 
L 163.663881 267.9808 
L 163.755358 264.6656 
L 163.846836 270.4 
L 163.938314 268.5184 
L 164.029792 263.0528 
L 164.121269 284.1088 
L 164.212747 252.3904 
L 164.304225 258.6624 
L 164.395703 263.5008 
L 164.487181 259.1104 
L 164.578658 266.0992 
L 164.670136 265.7408 
L 164.761614 261.44 
L 164.853092 264.128 
L 164.944569 260.544 
L 165.036047 260.992 
L 165.219003 264.3968 
L 165.31048 264.8448 
L 165.493436 257.7664 
L 165.584914 261.3504 
L 165.767869 255.7056 
L 165.859347 263.3216 
L 165.950825 262.1568 
L 166.042302 263.68 
L 166.225258 258.2144 
L 166.408213 262.784 
L 166.591169 264.9344 
L 166.774124 205.2608 
L 166.865602 204.1856 
L 167.048558 236.7104 
L 167.322991 254.8096 
L 167.414469 239.04 
L 167.505946 241.6384 
L 167.688902 250.4192 
L 167.871857 251.8528 
L 167.963335 250.24 
L 168.054813 252.48 
L 168.146291 252.2112 
L 168.237768 248 
L 168.329246 255.3472 
L 168.420724 253.6448 
L 168.512202 254.8096 
L 168.603679 257.9456 
L 168.695157 252.032 
L 168.878113 254.8096 
L 168.96959 253.0176 
L 169.244024 261.2608 
L 169.335501 252.928 
L 169.518457 256.6912 
L 169.609935 253.1968 
L 169.701412 259.0208 
L 169.79289 247.8208 
L 170.067323 254.8992 
L 170.158801 253.1968 
L 170.250279 253.2864 
L 170.433234 263.7696 
L 170.61619 256.6912 
L 170.707668 253.2864 
L 170.799145 253.7344 
L 171.073579 260.3648 
L 171.165056 255.4368 
L 171.256534 237.8752 
L 171.348012 141.1072 
L 171.530967 252.5696 
L 171.622445 258.304 
L 171.713923 254.272 
L 171.805401 254.72 
L 171.896879 256.4224 
L 172.079834 251.8528 
L 172.26279 258.0352 
L 172.354267 257.5872 
L 172.445745 251.3152 
L 172.537223 252.3008 
L 172.628701 254.9888 
L 172.720178 252.032 
L 172.811656 262.784 
L 172.994612 257.5872 
L 173.177567 254.3616 
L 173.360523 258.8416 
L 173.452 252.7488 
L 173.634956 265.3824 
L 173.817911 254.8096 
L 174.092345 261.5296 
L 174.2753 261.3504 
L 174.366778 253.824 
L 174.458256 254.8992 
L 174.641211 258.3936 
L 174.732689 267.8016 
L 174.824167 263.4112 
L 174.915644 266.1888 
L 175.007122 264.2176 
L 175.0986 256.8704 
L 175.464511 263.9488 
L 175.555989 267.264 
L 175.738944 257.9456 
L 175.830422 258.3936 
L 176.013377 265.2032 
L 176.104855 265.7408 
L 176.287811 267.8016 
L 176.470766 261.0816 
L 176.653722 263.3216 
L 176.928155 256.064 
L 177.019633 256.512 
L 177.202588 263.232 
L 177.294066 262.6048 
L 177.477021 269.4144 
L 177.568499 260.992 
L 177.659977 261.0816 
L 177.751455 262.8736 
L 177.93441 258.9312 
L 178.025888 267.3536 
L 178.117366 265.92 
L 178.391799 257.2288 
L 178.574754 261.44 
L 178.666232 262.9632 
L 178.75771 268.0704 
L 179.032143 258.8416 
L 179.123621 257.0496 
L 179.306577 267.1744 
L 179.58101 258.0352 
L 179.672488 263.9488 
L 179.763965 261.6192 
L 179.855443 266.9952 
L 179.946921 266.7264 
L 180.038399 270.1312 
L 180.221354 261.888 
L 180.312832 262.1568 
L 180.40431 260.544 
L 180.587265 264.3968 
L 180.770221 265.5616 
L 180.953176 258.752 
L 181.044654 260.4544 
L 181.227609 266.816 
L 181.319087 264.576 
L 181.410565 267.6224 
L 181.59352 259.9168 
L 181.684998 266.1888 
L 181.776476 264.3968 
L 181.959431 271.8336 
L 182.050909 271.4752 
L 182.233865 264.2176 
L 182.599776 268.6976 
L 182.691253 264.3072 
L 182.782731 269.4144 
L 182.874209 255.3472 
L 183.057164 267.8912 
L 183.148642 269.6832 
L 183.423075 259.4688 
L 183.697509 266.0992 
L 183.788986 272.5504 
L 183.880464 272.3712 
L 183.971942 277.4784 
L 184.154897 262.6048 
L 184.246375 266.816 
L 184.429331 262.784 
L 184.520808 268.0704 
L 184.795242 261.3504 
L 184.886719 265.5616 
L 184.978197 260.3648 
L 185.069675 266.9952 
L 185.344108 260.6336 
L 185.435586 262.6048 
L 185.710019 255.616 
L 185.801497 264.6656 
L 185.984452 261.0816 
L 186.07593 259.7376 
L 186.167408 265.8304 
L 186.258886 261.5296 
L 186.441841 268.8768 
L 186.624797 263.232 
L 186.807752 263.9488 
L 186.89923 258.752 
L 187.082186 269.8624 
L 187.265141 263.1424 
L 187.356619 259.7376 
L 187.448097 261.1712 
L 187.539574 254.9888 
L 187.631052 257.1392 
L 187.72253 265.92 
L 187.996963 240.4736 
L 188.088441 241.0112 
L 188.271396 263.5904 
L 188.362874 265.472 
L 188.54583 255.0784 
L 188.637307 254.8096 
L 188.728785 253.376 
L 188.820263 258.8416 
L 188.911741 256.4224 
L 189.003218 263.68 
L 189.186174 251.9424 
L 189.552085 263.5904 
L 189.643563 263.0528 
L 189.826518 251.4944 
L 189.917996 254.0032 
L 190.009474 253.6448 
L 190.100951 254.9888 
L 190.192429 270.7584 
L 190.283907 253.9136 
L 190.375385 256.8704 
L 190.466862 253.7344 
L 190.55834 256.4224 
L 190.649818 250.9568 
L 191.015729 260.7232 
L 191.198684 250.3296 
L 191.290162 253.2864 
L 191.38164 249.4336 
L 191.473118 262.784 
L 191.930506 247.7312 
L 192.20494 258.6624 
L 192.387895 248.7168 
L 192.479373 249.9712 
L 192.570851 248.7168 
L 192.753806 256.4224 
L 192.845284 256.2432 
L 192.936762 255.5264 
L 193.119717 247.2832 
L 193.211195 179.008 
L 193.302673 190.0288 
L 193.485628 249.7024 
L 193.760061 242.2656 
L 193.943017 249.5232 
L 194.125972 254.72 
L 194.308928 247.0144 
L 194.400406 247.9104 
L 194.583361 250.5088 
L 194.674839 261.6192 
L 195.04075 245.5808 
L 195.223706 258.2144 
L 195.406661 252.6592 
L 195.498139 253.6448 
L 195.681094 243.072 
L 195.772572 248.6272 
L 195.86405 245.2224 
L 196.047005 255.616 
L 196.229961 245.8496 
L 196.321439 246.7456 
L 196.68735 254.4512 
L 196.778827 249.8816 
L 196.870305 250.5088 
L 197.144738 255.7952 
L 197.236216 254.5408 
L 197.327694 194.5984 
L 197.419172 241.0112 
L 197.510649 108.4928 
L 197.693605 248.8064 
L 197.785083 249.9712 
L 197.87656 260.544 
L 198.059516 250.5984 
L 198.150994 251.584 
L 198.242471 252.2112 
L 198.333949 249.1648 
L 198.425427 250.5984 
L 198.608382 259.8272 
L 198.882816 250.8672 
L 198.974293 257.0496 
L 199.065771 252.6592 
L 199.248727 261.0816 
L 199.340204 255.9744 
L 199.431682 260.9024 
L 199.52316 254.3616 
L 199.706115 257.856 
L 199.797593 256.2432 
L 199.889071 259.9168 
L 200.072026 257.3184 
L 200.254982 223.5392 
L 200.437937 243.2512 
L 200.529415 243.1616 
L 200.620893 237.7856 
L 200.712371 247.3728 
L 200.803848 246.7456 
L 200.986804 239.8464 
L 201.169759 244.3264 
L 201.352715 242.176 
L 201.444193 235.456 
L 201.53567 237.1584 
L 201.810104 249.344 
L 201.993059 220.9408 
L 202.084537 222.3744 
L 202.35897 242.624 
L 202.450448 247.1936 
L 202.633404 237.5168 
L 202.999315 248.448 
L 203.090792 248.0896 
L 203.273748 235.8144 
L 203.365226 242.5344 
L 203.456703 241.3696 
L 203.731137 257.4976 
L 203.914092 247.0144 
L 204.00557 247.4624 
L 204.097048 245.8496 
L 204.188525 248.7168 
L 204.280003 245.0432 
L 204.371481 231.424 
L 204.462959 232.5888 
L 204.554436 221.4784 
L 204.645914 154.9952 
L 204.737392 224.5248 
L 204.82887 222.1056 
L 204.920347 229.9008 
L 205.011825 269.952 
L 205.103303 196.928 
L 205.194781 213.8624 
L 205.286258 212.6976 
L 205.469214 227.392 
L 205.652169 236.2624 
L 205.835125 227.7504 
L 205.926603 228.288 
L 206.01808 224.3456 
L 206.201036 239.936 
L 206.292514 239.1296 
L 206.383991 247.4624 
L 206.566947 230.4384 
L 206.658425 234.4704 
L 206.749902 233.4848 
L 206.84138 234.3808 
L 207.024336 255.616 
L 207.115813 217.8944 
L 207.207291 225.3312 
L 207.573202 242.8032 
L 207.847635 225.5104 
L 207.939113 225.4208 
L 208.030591 228.736 
L 208.213546 242.3552 
L 208.396502 228.5568 
L 208.670935 235.7248 
L 208.853891 242.2656 
L 208.945368 240.5632 
L 209.128324 225.6 
L 209.219802 228.6464 
L 209.311279 227.1232 
L 209.494235 241.1008 
L 209.677191 225.2416 
L 209.951624 227.7504 
L 210.134579 244.7744 
L 210.317535 231.0656 
L 210.409013 251.0464 
L 210.50049 235.9936 
L 210.591968 242.0864 
L 210.683446 239.8464 
L 210.774924 250.4192 
L 211.049357 220.3136 
L 211.32379 240.5632 
L 211.415268 244.2368 
L 211.598223 229.0944 
L 211.689701 238.7712 
L 211.781179 237.248 
L 211.872657 233.9328 
L 211.964134 244.864 
L 212.238568 229.5424 
L 212.330045 232.4992 
L 212.421523 232.4992 
L 212.604479 243.52 
L 212.695956 245.4016 
L 212.878912 230.8864 
L 212.97039 233.8432 
L 213.244823 242.4448 
L 213.336301 249.5232 
L 213.519256 238.6816 
L 213.610734 246.0288 
L 213.702212 238.2336 
L 213.885167 252.8384 
L 213.976645 250.8672 
L 214.068123 251.8528 
L 214.251078 244.5056 
L 214.434034 249.6128 
L 214.616989 260.544 
L 214.799945 251.6736 
L 214.891422 251.3152 
L 214.9829 254.272 
L 215.165856 251.8528 
L 215.257333 255.616 
L 215.531767 248.9856 
L 215.623244 252.2112 
L 215.8062 250.0608 
L 215.989155 259.7376 
L 216.263589 246.3872 
L 216.355066 248 
L 216.446544 252.1216 
L 216.538022 261.44 
L 216.6295 259.7376 
L 216.812455 251.4944 
L 216.903933 251.6736 
L 216.995411 261.1712 
L 217.178366 255.3472 
L 217.361322 254.9888 
L 217.4528 249.8816 
L 217.727233 260.2752 
L 217.910188 249.344 
L 218.001666 248 
L 218.184622 253.7344 
L 218.276099 251.3152 
L 218.459055 256.512 
L 218.550533 256.96 
L 218.64201 248.2688 
L 218.916444 255.0784 
L 219.007921 254.0032 
L 219.099399 256.512 
L 219.282355 249.4336 
L 219.373832 255.9744 
L 219.46531 248.896 
L 219.648266 256.2432 
L 219.922699 249.6128 
L 220.014177 253.5552 
L 220.105654 248.0896 
L 220.28861 258.3936 
L 220.380088 253.7344 
L 220.471565 255.5264 
L 220.654521 249.6128 
L 220.837476 254.3616 
L 220.928954 252.6592 
L 221.11191 254.272 
L 221.294865 249.792 
L 221.386343 254.1824 
L 221.477821 253.7344 
L 221.660776 251.0464 
L 221.752254 257.408 
L 221.843732 256.96 
L 221.935209 243.968 
L 222.209643 251.6736 
L 222.575554 242.8928 
L 222.758509 245.1328 
L 222.941465 255.3472 
L 223.12442 246.5664 
L 223.215898 246.2976 
L 223.307376 248.2688 
L 223.398853 245.6704 
L 223.581809 253.7344 
L 223.856242 242.176 
L 224.039198 251.3152 
L 224.222153 257.3184 
L 224.313631 244.2368 
L 224.405109 248.9856 
L 224.496586 244.7744 
L 224.679542 264.4864 
L 224.77102 249.4336 
L 224.862498 257.2288 
L 225.136931 242.9824 
L 225.228409 244.6848 
L 225.411364 254.3616 
L 225.59432 245.0432 
L 225.868753 252.2112 
L 225.960231 250.1504 
L 226.143186 256.512 
L 226.326142 245.4912 
L 226.417619 249.8816 
L 226.600575 242.3552 
L 226.78353 254.272 
L 226.875008 253.7344 
L 227.057964 241.1008 
L 227.423875 255.7056 
L 227.60683 243.072 
L 227.698308 243.52 
L 227.881263 226.1376 
L 227.972741 231.5136 
L 228.247174 214.3104 
L 228.338652 218.1632 
L 228.43013 217.4464 
L 228.613085 235.3664 
L 228.704563 232.8576 
L 228.887519 214.3104 
L 228.978996 214.9376 
L 229.070474 250.24 
L 229.161952 220.224 
L 229.25343 229.5424 
L 229.344907 227.9296 
L 229.527863 212.2496 
L 229.619341 212.4288 
L 229.985252 233.3952 
L 230.168207 211.8016 
L 230.259685 220.5824 
L 230.351163 217.984 
L 230.534118 232.6784 
L 230.625596 232.1408 
L 230.717074 229.9008 
L 230.900029 222.912 
L 231.174462 233.8432 
L 231.448896 216.192 
L 231.540373 219.328 
L 231.631851 234.56 
L 231.723329 226.1376 
L 231.906284 236.0832 
L 232.08924 222.464 
L 232.180718 221.568 
L 232.363673 229.5424 
L 232.455151 240.1152 
L 232.638107 231.424 
L 232.729584 178.4704 
L 233.095495 241.1008 
L 233.186973 231.0656 
L 233.461406 240.6528 
L 233.73584 206.6048 
L 233.827317 211.264 
L 233.918795 209.8304 
L 234.010273 213.1456 
L 234.101751 229.9904 
L 234.193228 227.6608 
L 234.284706 198.9888 
L 234.467662 215.9232 
L 234.559139 207.232 
L 234.650617 208.9344 
L 234.742095 209.2928 
L 234.833573 216.1024 
L 234.92505 215.6544 
L 235.016528 216.9984 
L 235.108006 225.4208 
L 235.290961 210.9056 
L 235.382439 215.6544 
L 235.473917 211.8016 
L 235.74835 228.1088 
L 235.931306 209.3824 
L 236.022783 214.1312 
L 236.205739 206.2464 
L 236.388694 222.2848 
L 236.57165 208.4864 
L 236.663128 213.056 
L 236.754605 210.0096 
L 236.937561 226.2272 
L 237.029039 220.7616 
L 237.120516 207.232 
L 237.211994 213.8624 
L 237.303472 208.3968 
L 237.39495 209.024 
L 237.577905 223.0016 
L 237.669383 219.2384 
L 237.852338 208.9344 
L 237.943816 207.68 
L 238.309727 232.0512 
L 238.401205 230.7968 
L 238.58416 204.4544 
L 238.767116 218.0736 
L 238.858594 219.4176 
L 238.950071 231.9616 
L 239.041549 227.2128 
L 239.133027 236.8 
L 239.224505 205.2608 
L 239.315982 215.0272 
L 239.40746 212.2496 
L 239.590416 224.8832 
L 239.681893 213.056 
L 239.773371 213.504 
L 239.864849 210.5472 
L 240.322238 238.7712 
L 240.596671 216.192 
L 240.688149 53.568 
L 240.871104 224.3456 
L 241.05406 209.3824 
L 241.145538 211.4432 
L 241.511449 238.6816 
L 241.694404 208.7552 
L 241.785882 224.256 
L 241.87736 216.0128 
L 241.968837 218.7008 
L 242.060315 229.2736 
L 242.151793 227.9296 
L 242.426226 209.7408 
L 242.517704 191.1936 
L 242.700659 217.8048 
L 242.792137 226.2272 
L 242.975093 212.7872 
L 243.06657 212.9664 
L 243.249526 222.5536 
L 243.341004 224.704 
L 243.432481 232.4096 
L 243.523959 223.9872 
L 243.615437 229.2736 
L 243.706915 223.0912 
L 243.981348 235.456 
L 244.072826 230.6176 
L 244.164303 232.6784 
L 244.347259 216.9984 
L 244.621692 235.6352 
L 244.71317 235.5456 
L 244.896125 219.2384 
L 244.987603 218.6112 
L 245.079081 230.2592 
L 245.170559 226.496 
L 245.353514 233.7536 
L 245.444992 230.976 
L 245.627947 211.8016 
L 245.993858 237.7856 
L 246.085336 236.352 
L 246.176814 228.0192 
L 246.268292 228.5568 
L 246.359769 229.9904 
L 246.451247 239.488 
L 246.542725 237.7856 
L 246.634203 240.832 
L 247.000114 220.4928 
L 247.091591 220.0448 
L 247.274547 230.4384 
L 247.366025 211.9808 
L 247.457502 212.5184 
L 247.54898 211.1744 
L 247.640458 212.2496 
L 247.914891 234.2016 
L 248.097847 219.1488 
L 248.189325 220.1344 
L 248.37228 225.4208 
L 248.555236 236.2624 
L 248.829669 202.1248 
L 248.921147 220.224 
L 249.012624 219.8656 
L 249.19558 231.6928 
L 249.470013 209.5616 
L 249.652969 226.5856 
L 249.744446 223.0912 
L 249.927402 225.7792 
L 250.110357 209.3824 
L 250.293313 217.8944 
L 250.476268 225.152 
L 250.659224 215.4752 
L 250.750702 214.4896 
L 250.842179 211.6224 
L 251.025135 223.7184 
L 251.20809 279.8976 
L 251.391046 198.3616 
L 251.482524 228.9152 
L 251.665479 209.024 
L 251.756957 222.6432 
L 252.122868 201.2288 
L 252.305823 216.2816 
L 252.488779 192.6272 
L 252.671734 114.496 
L 252.946168 190.0288 
L 253.037645 195.584 
L 253.129123 193.344 
L 253.220601 201.408 
L 253.312079 194.7776 
L 253.67799 215.0272 
L 253.769467 198.3616 
L 253.860945 198.9888 
L 253.952423 187.1616 
L 254.043901 195.584 
L 254.135378 280.704 
L 254.226856 203.8272 
L 254.318334 207.5904 
L 254.409812 186.4448 
L 254.501289 190.5664 
L 254.592767 192.448 
L 254.775723 185.3696 
L 254.8672 204.3648 
L 254.958678 203.3792 
L 255.141634 182.6816 
L 255.233112 187.1616 
L 255.416067 177.9328 
L 255.599023 207.9488 
L 255.781978 182.0544 
L 255.964934 178.2016 
L 256.239367 206.8736 
L 256.330845 202.4832 
L 256.5138 169.7792 
L 256.788233 206.6944 
L 256.879711 204.9024 
L 257.062667 179.3664 
L 257.154144 182.4128 
L 257.245622 182.8608 
L 257.520055 209.024 
L 257.611533 195.9424 
L 257.703011 197.4656 
L 257.885966 207.0528 
L 258.068922 188.5952 
L 258.1604 210.0992 
L 258.343355 178.9184 
L 258.526311 194.9568 
L 258.617788 191.104 
L 258.709266 201.408 
L 258.800744 152.2176 
L 258.983699 197.824 
L 259.075177 189.4016 
L 259.441088 220.7616 
L 259.624044 201.4976 
L 259.715521 198.272 
L 259.806999 201.2288 
L 260.081432 214.9376 
L 260.264388 191.1936 
L 260.447343 198.272 
L 260.630299 206.2464 
L 260.721777 220.3136 
L 260.99621 199.4368 
L 261.087688 199.616 
L 261.362121 223.36 
L 261.636554 190.2976 
L 261.910987 232.32 
L 262.002465 231.2448 
L 262.093943 207.68 
L 262.185421 229.8112 
L 262.276898 194.9568 
L 262.642809 233.0368 
L 262.734287 220.672 
L 262.825765 170.2272 
L 262.917243 190.656 
L 263.008721 165.6576 
L 263.100198 201.7664 
L 263.191676 180.7104 
L 263.283154 226.3168 
L 263.466109 207.9488 
L 263.649065 213.5936 
L 263.83202 236.2624 
L 263.923498 204.7232 
L 264.106454 219.328 
L 264.197931 216.0128 
L 264.380887 237.8752 
L 264.472365 233.3056 
L 264.563842 237.3376 
L 264.746798 210.368 
L 264.838276 211.6224 
L 264.929753 218.6112 
L 265.204187 250.4192 
L 265.387142 231.3344 
L 265.47862 230.6176 
L 265.570098 233.4848 
L 265.661575 264.7552 
L 265.753053 242.8032 
L 265.844531 279.9872 
L 266.027486 237.4272 
L 266.118964 241.728 
L 266.210442 238.8608 
L 266.30192 240.832 
L 266.484875 247.4624 
L 266.576353 245.0432 
L 266.667831 245.1328 
L 266.942264 261.5296 
L 267.125219 242.3552 
L 267.308175 240.2048 
L 267.399653 243.52 
L 267.49113 254.5408 
L 267.674086 231.0656 
L 267.948519 204.992 
L 268.039997 213.952 
L 268.131475 210.9952 
L 268.222952 203.3792 
L 268.405908 222.464 
L 268.497386 216.1024 
L 268.588863 240.7424 
L 268.680341 212.6976 
L 268.771819 228.6464 
L 268.863297 221.2992 
L 268.954774 244.5952 
L 269.046252 232.768 
L 269.13773 233.1264 
L 269.229208 228.4672 
L 269.320685 216.8192 
L 269.686596 239.8464 
L 269.869552 224.1664 
L 269.96103 226.6752 
L 270.052507 220.4032 
L 270.326941 245.312 
L 270.601374 225.9584 
L 270.692852 227.2128 
L 270.967285 243.2512 
L 271.150241 226.8544 
L 271.241718 232.4096 
L 271.333196 231.3344 
L 271.424674 230.7072 
L 271.607629 252.48 
L 271.882063 225.6 
L 271.97354 230.528 
L 272.065018 226.3168 
L 272.156496 235.0976 
L 272.339451 231.872 
L 272.522407 219.8656 
L 272.705362 222.5536 
L 272.888318 238.9504 
L 273.071273 224.3456 
L 273.162751 223.4496 
L 273.254229 230.3488 
L 273.345707 228.1088 
L 273.437184 240.4736 
L 273.528662 239.8464 
L 273.62014 240.6528 
L 273.711618 227.2128 
L 273.803095 227.9296 
L 273.986051 241.728 
L 274.077529 233.8432 
L 274.169006 236.9792 
L 274.351962 224.7936 
L 274.44344 225.9584 
L 274.534917 225.9584 
L 274.809351 242.8928 
L 274.900828 238.144 
L 274.992306 225.5104 
L 275.083784 226.944 
L 275.175262 227.0336 
L 275.266739 226.048 
L 275.449695 244.1472 
L 275.63265 224.5248 
L 275.724128 227.9296 
L 275.815606 243.2512 
L 275.907084 237.696 
L 276.090039 246.0288 
L 276.45595 229.9904 
L 276.638906 235.904 
L 276.730383 243.8784 
L 276.821861 214.6688 
L 277.004817 232.4096 
L 277.096294 228.288 
L 277.370728 242.0864 
L 277.553683 228.5568 
L 277.645161 229.9008 
L 277.919594 240.2048 
L 278.011072 244.1472 
L 278.285505 232.6784 
L 278.468461 236.0832 
L 278.651416 248.7168 
L 278.834372 232.9472 
L 278.92585 238.8608 
L 279.017327 233.3056 
L 279.108805 233.7536 
L 279.291761 246.9248 
L 279.383238 247.1936 
L 279.474716 232.0512 
L 279.657672 243.4304 
L 279.749149 242.8928 
L 279.932105 248.1792 
L 280.11506 231.2448 
L 280.206538 240.4736 
L 280.298016 238.6816 
L 280.480971 245.5808 
L 280.572449 247.6416 
L 280.663927 246.208 
L 280.93836 236.1728 
L 281.029838 242.176 
L 281.212793 259.648 
L 281.304271 259.1104 
L 281.395749 251.136 
L 281.487227 251.2256 
L 281.578704 251.584 
L 281.853138 261.44 
L 282.036093 248.448 
L 282.127571 253.5552 
L 282.219049 257.1392 
L 282.310526 255.4368 
L 282.493482 259.648 
L 282.58496 261.1712 
L 282.767915 248 
L 282.950871 255.2576 
L 283.133826 260.4544 
L 283.408259 250.8672 
L 283.499737 248.5376 
L 283.77417 261.6192 
L 283.865648 262.784 
L 283.957126 253.6448 
L 284.048604 255.7952 
L 284.140081 241.0112 
L 284.414515 261.3504 
L 284.505992 261.2608 
L 284.59747 251.136 
L 284.780426 255.8848 
L 284.871903 254.3616 
L 285.146337 260.3648 
L 285.237814 252.1216 
L 285.329292 259.9168 
L 285.42077 254.5408 
L 285.512248 255.9744 
L 285.603726 265.3824 
L 285.695203 263.5904 
L 285.786681 264.4864 
L 285.878159 257.9456 
L 285.969637 258.8416 
L 286.061114 263.4112 
L 286.24407 260.8128 
L 286.335548 262.4256 
L 286.609981 252.3904 
L 286.701459 258.3936 
L 286.792936 253.7344 
L 287.06737 265.2032 
L 287.250325 256.512 
L 287.341803 257.2288 
L 287.433281 256.064 
L 287.616236 260.4544 
L 287.890669 252.3008 
L 287.982147 254.1824 
L 288.073625 253.1968 
L 288.25658 260.096 
L 288.348058 257.5872 
L 288.531014 247.3728 
L 288.713969 253.376 
L 288.896925 258.8416 
L 288.988402 255.5264 
L 289.171358 244.3264 
L 289.262836 250.5984 
L 289.354313 249.5232 
L 289.537269 255.8848 
L 289.811702 237.3376 
L 290.177613 255.0784 
L 290.269091 251.4048 
L 290.452046 236.7104 
L 290.635002 243.968 
L 290.817957 257.0496 
L 291.000913 247.6416 
L 291.092391 241.728 
L 291.183868 247.3728 
L 291.275346 245.4016 
L 291.458302 256.2432 
L 291.641257 240.4736 
L 291.824213 248.6272 
L 292.007168 255.0784 
L 292.098646 259.4688 
L 292.464557 239.7568 
L 292.556035 238.5024 
L 292.647512 239.04 
L 292.73899 246.0288 
L 292.921946 233.0368 
L 293.013423 231.3344 
L 293.104901 214.2208 
L 293.287857 244.2368 
L 293.379335 247.9104 
L 293.470812 245.5808 
L 293.653768 233.5744 
L 293.745246 235.5456 
L 293.836723 243.52 
L 293.928201 242.7136 
L 294.019679 248.8064 
L 294.111157 245.2224 
L 294.202634 230.3488 
L 294.294112 231.9616 
L 294.568545 246.208 
L 294.660023 262.9632 
L 294.934456 228.5568 
L 295.025934 231.424 
L 295.117412 230.1696 
L 295.300367 252.032 
L 295.574801 228.4672 
L 295.666278 226.2272 
L 295.757756 219.328 
L 295.940712 243.968 
L 296.032189 243.3408 
L 296.123667 227.3024 
L 296.215145 234.4704 
L 296.306623 233.5744 
L 296.3981 235.3664 
L 296.581056 248.448 
L 296.855489 228.3776 
L 296.946967 227.3024 
L 297.038445 228.9152 
L 297.2214 245.2224 
L 297.495833 226.944 
L 297.678789 241.4592 
L 297.770267 248.0896 
L 297.861744 243.52 
L 298.0447 215.2064 
L 298.136178 219.6864 
L 298.410611 243.1616 
L 298.502089 249.0752 
L 298.593566 247.552 
L 298.685044 236.9792 
L 298.868 242.7136 
L 298.959477 242.8032 
L 299.142433 252.5696 
L 299.325388 241.1904 
L 299.508344 239.488 
L 299.599822 242.624 
L 299.691299 254.4512 
L 299.782777 254.272 
L 299.874255 253.4656 
L 299.965733 255.616 
L 300.05721 249.8816 
L 300.331644 261.9776 
L 300.606077 238.0544 
L 300.88051 254.8096 
L 300.971988 250.3296 
L 301.154944 230.976 
L 301.246421 231.7824 
L 301.429377 224.7936 
L 301.70381 237.9648 
L 301.886766 220.672 
L 301.978243 222.3744 
L 302.069721 221.9264 
L 302.161199 225.4208 
L 302.252677 234.7392 
L 302.344154 231.424 
L 302.435632 238.592 
L 302.618588 214.9376 
L 302.984499 238.5024 
L 303.35041 213.056 
L 303.624843 238.2336 
L 303.990754 223.1808 
L 304.082232 226.2272 
L 304.265187 245.9392 
L 304.53962 220.672 
L 304.722576 229.9008 
L 304.814054 244.0576 
L 304.997009 237.248 
L 305.179965 219.9552 
L 305.545876 242.0864 
L 305.728831 222.5536 
L 305.911787 231.6928 
L 306.003264 224.5248 
L 306.18622 243.072 
L 306.369175 231.1552 
L 306.460653 239.3088 
L 306.643609 229.8112 
L 306.735086 243.7888 
L 306.826564 241.0112 
L 307.00952 224.256 
L 307.466908 244.3264 
L 307.558386 233.664 
L 307.649864 239.7568 
L 307.832819 229.9008 
L 308.015775 238.6816 
L 308.107253 243.968 
L 308.290208 224.8832 
L 308.473164 233.8432 
L 308.564642 236.0832 
L 308.747597 244.416 
L 308.839075 242.2656 
L 309.02203 227.392 
L 309.204986 237.0688 
L 309.296464 236.9792 
L 309.387941 244.1472 
L 309.479419 240.6528 
L 309.662375 227.2128 
L 309.84533 231.424 
L 310.028286 244.3264 
L 310.119763 240.384 
L 310.302719 224.704 
L 310.577152 245.4016 
L 310.66863 246.9248 
L 310.851585 232.4096 
L 310.943063 233.664 
L 311.034541 235.008 
L 311.217496 244.6848 
L 311.308974 249.7024 
L 311.583407 223.7184 
L 311.949318 248.896 
L 312.132274 222.6432 
L 312.223752 228.288 
L 312.406707 231.2448 
L 312.589663 250.9568 
L 312.864096 235.9936 
L 312.955574 237.3376 
L 313.230007 250.24 
L 313.321485 245.8496 
L 313.50444 232.1408 
L 313.870351 248.8064 
L 313.961829 249.7024 
L 314.053307 235.5456 
L 314.32774 246.7456 
L 314.602173 250.8672 
L 314.785129 241.4592 
L 314.876606 243.8784 
L 314.968084 246.1184 
L 315.059562 253.2864 
L 315.15104 253.1072 
L 315.333995 242.176 
L 315.425473 243.2512 
L 315.608428 247.4624 
L 315.699906 249.7024 
L 315.791384 254.8992 
L 316.065817 245.76 
L 316.157295 254.0928 
L 316.248773 248.3584 
L 316.431728 253.1072 
L 316.614684 243.6096 
L 316.706162 246.4768 
L 316.797639 246.0288 
L 316.889117 241.0112 
L 317.072073 254.9888 
L 317.437984 240.1152 
L 317.620939 249.5232 
L 317.712417 248.6272 
L 317.803895 250.1504 
L 317.98685 244.5056 
L 318.078328 247.0144 
L 318.169806 244.7744 
L 318.261283 253.6448 
L 318.352761 253.1968 
L 318.535717 244.0576 
L 318.627194 245.312 
L 318.718672 245.0432 
L 318.81015 244.5952 
L 318.993105 251.4048 
L 319.084583 250.5088 
L 319.176061 232.768 
L 319.450494 245.9392 
L 319.541972 247.8208 
L 319.63345 253.376 
L 320.090838 240.0256 
L 320.273794 249.6128 
L 320.365272 249.4336 
L 320.456749 239.936 
L 320.548227 240.4736 
L 320.639705 245.312 
L 320.731183 244.416 
L 320.914138 251.0464 
L 321.005616 118.7968 
L 321.188571 242.624 
L 321.280049 238.3232 
L 321.554482 250.5984 
L 321.828916 235.5456 
L 322.011871 242.624 
L 322.194827 249.1648 
L 322.46926 225.3312 
L 322.560738 225.6896 
L 322.835171 242.2656 
L 322.926649 237.6064 
L 323.109604 221.8368 
L 323.29256 234.56 
L 323.384038 234.4704 
L 323.475515 239.6672 
L 323.841426 225.2416 
L 324.024382 236.352 
L 324.11586 239.2192 
L 324.298815 220.672 
L 324.390293 223.2704 
L 324.481771 233.4848 
L 324.573248 232.6784 
L 324.664726 241.4592 
L 324.756204 240.9216 
L 324.939159 224.4352 
L 325.030637 228.8256 
L 325.122115 225.4208 
L 325.213593 227.4816 
L 325.396548 242.3552 
L 325.670981 221.7472 
L 325.762459 223.36 
L 326.036892 247.7312 
L 326.311326 225.9584 
L 326.494281 237.3376 
L 326.677237 251.0464 
L 326.860192 233.9328 
L 327.043148 232.4992 
L 327.134625 233.664 
L 327.317581 245.2224 
L 327.500536 228.736 
L 327.592014 234.112 
L 327.683492 235.008 
L 327.957925 250.9568 
L 328.140881 233.1264 
L 328.232358 232.32 
L 328.598269 252.928 
L 328.872703 236.2624 
L 329.055658 243.968 
L 329.147136 240.832 
L 329.238614 250.7776 
L 329.330091 248.3584 
L 329.421569 237.7856 
L 329.513047 240.0256 
L 329.604525 249.4336 
L 329.78748 245.4912 
L 329.878958 249.9712 
L 329.970436 247.104 
L 330.153391 229.4528 
L 330.244869 230.6176 
L 330.427824 241.6384 
L 330.519302 244.3264 
L 330.702258 231.6032 
L 330.793735 232.9472 
L 331.068169 248.5376 
L 331.251124 229.3632 
L 331.342602 212.5184 
L 331.43408 224.256 
L 331.525558 223.9872 
L 331.799991 241.4592 
L 331.891469 238.3232 
L 331.982946 227.9296 
L 332.074424 228.9152 
L 332.348857 246.5664 
L 332.440335 250.3296 
L 332.531813 248.9856 
L 332.623291 240.0256 
L 332.714768 241.728 
L 332.806246 236.1728 
L 332.897724 236.5312 
L 333.080679 248.448 
L 333.263635 239.6672 
L 333.355113 238.8608 
L 333.629546 248 
L 333.721024 272.64 
L 333.903979 238.7712 
L 333.995457 233.0368 
L 334.086935 235.008 
L 334.361368 252.928 
L 334.452846 249.1648 
L 334.635801 218.9696 
L 334.818757 223.1808 
L 334.910234 234.9184 
L 335.184668 215.744 
L 335.276145 218.0736 
L 335.367623 216.1024 
L 335.459101 218.3424 
L 335.642056 230.976 
L 335.733534 229.5424 
L 335.91649 206.0672 
L 336.007967 211.4432 
L 336.099445 211.3536 
L 336.282401 236.4416 
L 336.465356 211.0848 
L 336.556834 219.9552 
L 336.648312 214.9376 
L 336.922745 238.5024 
L 337.014223 231.2448 
L 337.197178 214.5792 
L 337.563089 236.0832 
L 337.654567 231.2448 
L 337.837522 213.8624 
L 338.203433 236.1728 
L 338.386389 215.8336 
L 338.569345 223.4496 
L 338.660822 223.8976 
L 338.843778 239.5776 
L 339.118211 216.9088 
L 339.209689 234.56 
L 339.301167 219.2384 
L 339.484122 240.5632 
L 339.758555 213.504 
L 340.124466 238.0544 
L 340.307422 214.848 
L 340.3989 214.6688 
L 340.581855 223.36 
L 340.764811 238.3232 
L 340.947766 225.4208 
L 341.039244 219.5072 
L 341.222199 226.3168 
L 341.313677 241.4592 
L 341.405155 240.384 
L 341.58811 222.2848 
L 341.679588 224.3456 
L 341.771066 219.0592 
L 342.045499 241.1904 
L 342.319932 219.5072 
L 342.41141 220.1344 
L 342.685843 246.208 
L 342.960277 218.7008 
L 343.326188 242.2656 
L 343.417665 239.3984 
L 343.509143 223.2704 
L 343.600621 224.3456 
L 343.875054 240.832 
L 343.966532 242.8032 
L 344.05801 241.0112 
L 344.240965 217.088 
L 344.332443 216.3712 
L 344.423921 213.6832 
L 344.515398 235.9936 
L 344.606876 229.4528 
L 344.881309 195.136 
L 345.155743 232.768 
L 345.24722 235.904 
L 345.338698 235.0976 
L 345.430176 220.0448 
L 345.613131 228.6464 
L 345.704609 226.1376 
L 345.796087 241.1008 
L 345.887565 237.8752 
L 346.07052 222.1056 
L 346.161998 223.5392 
L 346.253476 225.7792 
L 346.436431 242.624 
L 346.527909 242.176 
L 346.619387 240.2944 
L 346.710865 217.6256 
L 346.802342 230.8864 
L 346.89382 225.6 
L 347.076776 232.768 
L 347.168253 240.5632 
L 347.351209 228.9152 
L 347.442687 230.7968 
L 347.534164 237.248 
L 347.625642 234.7392 
L 347.71712 238.0544 
L 347.808598 248.896 
L 347.900075 246.0288 
L 347.991553 231.6928 
L 348.083031 234.7392 
L 348.174509 227.5712 
L 348.357464 241.9072 
L 348.448942 242.624 
L 348.631897 229.5424 
L 348.997808 245.1328 
L 349.089286 246.7456 
L 349.272242 232.768 
L 349.638153 244.9536 
L 349.72963 252.2112 
L 349.912586 236.352 
L 350.095541 242.7136 
L 350.187019 238.9504 
L 350.278497 247.9104 
L 350.369975 246.3872 
L 350.461452 247.7312 
L 350.55293 241.0112 
L 350.644408 244.0576 
L 350.735886 236.7104 
L 350.827363 245.4016 
L 350.918841 244.3264 
L 351.010319 250.9568 
L 351.193274 240.0256 
L 351.284752 241.0112 
L 351.37623 236.8 
L 351.467708 238.5024 
L 351.650663 243.8784 
L 351.833619 235.008 
L 351.925096 234.112 
L 352.016574 252.2112 
L 352.108052 243.3408 
L 352.19953 245.4912 
L 352.291007 245.0432 
L 352.656918 233.3056 
L 352.839874 241.8176 
L 353.114307 229.3632 
L 353.205785 230.08 
L 353.297263 225.152 
L 353.38874 230.528 
L 353.663174 259.3792 
L 353.846129 232.0512 
L 353.937607 229.2736 
L 354.120563 246.0288 
L 354.21204 244.0576 
L 354.303518 233.1264 
L 354.486474 255.2576 
L 354.852385 263.5904 
L 354.943862 256.6912 
L 355.126818 262.9632 
L 355.218296 258.752 
L 355.309773 259.1104 
L 355.401251 257.7664 
L 355.492729 266.2784 
L 355.584207 255.5264 
L 355.675684 257.3184 
L 355.85864 251.3152 
L 355.950118 249.2544 
L 356.133073 260.4544 
L 356.316029 250.3296 
L 356.407506 248.5376 
L 356.498984 243.52 
L 356.773417 260.096 
L 356.864895 258.9312 
L 357.047851 244.864 
L 357.139328 245.76 
L 357.230806 248.1792 
L 357.413762 257.6768 
L 357.596717 244.9536 
L 357.688195 247.9104 
L 357.779673 252.032 
L 357.87115 250.1504 
L 358.054106 257.5872 
L 358.328539 244.1472 
L 358.420017 253.0176 
L 358.511495 250.9568 
L 358.69445 257.9456 
L 358.785928 247.4624 
L 358.877406 248.2688 
L 358.968883 242.8032 
L 359.334794 256.512 
L 359.609228 240.9216 
L 359.700705 246.3872 
L 359.792183 245.0432 
L 359.975139 253.824 
L 360.158094 239.2192 
L 360.615483 253.9136 
L 360.798438 237.0688 
L 360.889916 241.0112 
L 361.072872 244.864 
L 361.164349 245.1328 
L 361.255827 250.688 
L 361.347305 245.76 
L 361.438783 233.3056 
L 361.804694 254.8992 
L 361.896172 255.168 
L 361.987649 258.8416 
L 362.079127 240.832 
L 362.170605 251.3152 
L 362.262083 250.24 
L 362.35356 246.7456 
L 362.445038 249.1648 
L 362.536516 255.4368 
L 362.719471 243.1616 
L 362.810949 246.656 
L 362.902427 244.864 
L 362.993905 258.3936 
L 363.085382 251.0464 
L 363.17686 252.3904 
L 363.451293 239.8464 
L 363.817204 255.9744 
L 363.908682 253.6448 
L 364.091638 243.52 
L 364.366071 256.4224 
L 364.457549 254.3616 
L 364.640504 240.0256 
L 365.097893 263.0528 
L 365.189371 261.7088 
L 365.280848 252.6592 
L 365.372326 252.7488 
L 365.463804 258.6624 
L 365.555282 258.2144 
L 365.738237 265.472 
L 366.01267 254.72 
L 366.104148 254.8096 
L 366.287104 261.2608 
L 366.470059 273.1776 
L 366.561537 256.4224 
L 366.653015 259.8272 
L 366.83597 263.4112 
L 367.018926 270.4 
L 367.201881 273.2672 
L 367.384837 237.8752 
L 367.476314 234.2016 
L 367.750748 247.8208 
L 367.842225 239.2192 
L 368.116659 193.0752 
L 368.299614 212.3392 
L 368.48257 188.3264 
L 368.574047 170.944 
L 368.848481 194.5088 
L 368.939959 206.784 
L 369.214392 163.9552 
L 369.488825 189.0432 
L 369.580303 203.7376 
L 369.946214 160.9088 
L 370.129169 202.304 
L 370.220647 205.0816 
L 370.49508 153.2928 
L 370.678036 186.5344 
L 370.860991 205.5296 
L 370.952469 200.512 
L 371.043947 182.6816 
L 371.135425 183.3088 
L 371.31838 171.9296 
L 371.501336 209.3824 
L 371.684291 175.2448 
L 371.775769 175.5136 
L 372.050202 205.1712 
L 372.14168 203.4688 
L 372.233158 198.0032 
L 372.416113 174.528 
L 372.599069 183.936 
L 372.690546 210.816 
L 373.056457 168.9728 
L 373.147935 170.048 
L 373.239413 175.7824 
L 373.422368 196.2112 
L 373.696802 172.1984 
L 373.788279 173.0048 
L 373.971235 203.3792 
L 374.062713 199.7056 
L 374.337146 160.4608 
L 374.611579 176.6784 
L 374.703057 192.8064 
L 374.886012 159.2064 
L 374.97749 161.1776 
L 375.068968 153.92 
L 375.343401 190.1184 
L 375.434879 175.872 
L 375.526357 178.112 
L 375.617834 166.5536 
L 375.709312 170.048 
L 375.983745 193.1648 
L 376.075223 192.6272 
L 376.258179 157.7728 
L 376.349656 156.7872 
L 376.532612 172.9152 
L 376.62409 192 
L 376.898523 156.3392 
L 377.081479 172.0192 
L 377.264434 198.8096 
L 377.538867 157.6832 
L 377.813301 184.384 
L 377.904778 198.5408 
L 378.087734 164.9408 
L 378.270689 164.1344 
L 378.453645 188.0576 
L 378.545123 203.0208 
L 378.728078 167.4496 
L 378.911034 165.6576 
L 379.002511 170.2272 
L 379.185467 196.1216 
L 379.276945 184.832 
L 379.368422 159.296 
L 379.551378 170.1376 
L 379.642856 168.9728 
L 379.825811 199.616 
L 380.100244 167.4496 
L 380.191722 179.3664 
L 380.2832 174.528 
L 380.466155 201.408 
L 380.557633 192.0896 
L 380.740589 160.9984 
L 380.923544 173.2736 
L 381.1065 201.6768 
L 381.380933 172.4672 
L 381.472411 169.4208 
L 381.563888 176.32 
L 381.746844 198.8992 
L 382.021277 166.6432 
L 382.387188 200.4224 
L 382.570144 181.248 
L 382.661621 188.1472 
L 382.753099 185.9072 
L 382.844577 189.2224 
L 383.027532 209.7408 
L 383.11901 206.336 
L 383.210488 182.8608 
L 383.667877 208.128 
L 383.759354 208.7552 
L 383.94231 192.0896 
L 384.125266 201.4976 
L 384.216743 207.5008 
L 384.308221 206.5152 
L 384.399699 207.3216 
L 384.582654 195.8528 
L 384.674132 196.6592 
L 384.76561 195.0464 
L 384.857088 204.8128 
L 384.948565 203.648 
L 385.131521 182.144 
L 385.222999 183.7568 
L 385.314476 182.9504 
L 385.58891 205.44 
L 385.680387 200.4224 
L 385.863343 176.9472 
L 385.954821 179.1872 
L 386.229254 202.304 
L 386.320732 193.9712 
L 386.412209 172.9152 
L 386.77812 191.4624 
L 387.052554 131.8784 
L 387.144031 124.352 
L 387.418465 149.9776 
L 387.509942 165.568 
L 387.875853 124.0832 
L 388.150287 154.368 
L 388.333242 121.216 
L 388.42472 129.0112 
L 388.516198 120.5888 
L 388.790631 160.192 
L 389.156542 97.6512 
L 389.24802 106.1632 
L 389.339497 143.0784 
L 389.430975 142.1824 
L 389.522453 127.3088 
L 389.705408 81.0752 
L 389.796886 76.9536 
L 390.071319 150.2464 
L 390.254275 114.048 
L 390.345753 84.928 
L 390.43723 85.824 
L 390.528708 92.1856 
L 390.711664 136 
L 390.986097 81.6128 
L 391.352008 157.1456 
L 391.534963 86.1824 
L 391.626441 89.408 
L 391.717919 82.9568 
L 391.900875 115.6608 
L 391.992352 143.9744 
L 392.175308 74.624 
L 392.266786 86.72 
L 392.358263 130.3552 
L 392.449741 99.712 
L 392.632697 140.7488 
L 392.724174 124.0832 
L 392.90713 82.688 
L 392.998608 82.5088 
L 393.181563 155.264 
L 393.273041 137.344 
L 393.547474 72.4736 
L 393.913385 141.0176 
L 394.096341 69.4272 
L 394.187818 72.832 
L 394.370774 88.4224 
L 394.645207 166.7328 
L 394.828163 136.2688 
L 394.91964 130.8928 
L 395.011118 74.5344 
L 395.194074 130.7136 
L 395.377029 71.936 
L 395.468507 81.344 
L 395.74294 122.4704 
L 395.834418 124.0832 
L 396.017373 62.1696 
L 396.108851 75.6096 
L 396.474762 130.624 
L 396.749195 70.6816 
L 396.840673 79.4624 
L 397.115106 138.3296 
L 397.38954 82.9568 
L 397.663973 140.6592 
L 397.755451 132.0576 
L 397.938406 68.352 
L 398.487273 287.2448 
L 398.487273 287.2448 
" style="fill:none;stroke:#1f77b4;stroke-linecap:square;stroke-width:1.5;"/>
   </g>
   <g id="patch_3">
    <path d="M 57.6 307.584 
L 57.6 41.472 
" style="fill:none;stroke:#000000;stroke-linecap:square;stroke-linejoin:miter;stroke-width:0.8;"/>
   </g>
   <g id="patch_4">
    <path d="M 414.72 307.584 
L 414.72 41.472 
" style="fill:none;stroke:#000000;stroke-linecap:square;stroke-linejoin:miter;stroke-width:0.8;"/>
   </g>
   <g id="patch_5">
    <path d="M 57.6 307.584 
L 414.72 307.584 
" style="fill:none;stroke:#000000;stroke-linecap:square;stroke-linejoin:miter;stroke-width:0.8;"/>
   </g>
   <g id="patch_6">
    <path d="M 57.6 41.472 
L 414.72 41.472 
" style="fill:none;stroke:#000000;stroke-linecap:square;stroke-linejoin:miter;stroke-width:0.8;"/>
   </g>
  </g>
 </g>
 <defs>
  <clipPath id="p0405a73b88">
   <rect height="266.112" width="357.12" x="57.6" y="41.472"/>
  </clipPath>
 </defs>
</svg>
